G04 #@! TF.GenerationSoftware,KiCad,Pcbnew,9.0.1*
G04 #@! TF.CreationDate,2025-04-17T02:19:35-07:00*
G04 #@! TF.ProjectId,EE 447,45452034-3437-42e6-9b69-6361645f7063,rev?*
G04 #@! TF.SameCoordinates,Original*
G04 #@! TF.FileFunction,Copper,L4,Bot*
G04 #@! TF.FilePolarity,Positive*
%FSLAX46Y46*%
G04 Gerber Fmt 4.6, Leading zero omitted, Abs format (unit mm)*
G04 Created by KiCad (PCBNEW 9.0.1) date 2025-04-17 02:19:35*
%MOMM*%
%LPD*%
G01*
G04 APERTURE LIST*
G04 #@! TA.AperFunction,ComponentPad*
%ADD10R,1.508000X1.508000*%
G04 #@! TD*
G04 #@! TA.AperFunction,ComponentPad*
%ADD11C,1.508000*%
G04 #@! TD*
G04 #@! TA.AperFunction,ComponentPad*
%ADD12O,1.200000X2.400000*%
G04 #@! TD*
G04 #@! TA.AperFunction,ComponentPad*
%ADD13R,1.700000X1.700000*%
G04 #@! TD*
G04 #@! TA.AperFunction,ComponentPad*
%ADD14O,1.700000X1.700000*%
G04 #@! TD*
G04 #@! TA.AperFunction,ComponentPad*
%ADD15C,1.700000*%
G04 #@! TD*
G04 #@! TA.AperFunction,ComponentPad*
%ADD16C,1.320800*%
G04 #@! TD*
G04 #@! TA.AperFunction,ComponentPad*
%ADD17C,1.725000*%
G04 #@! TD*
G04 #@! TA.AperFunction,ViaPad*
%ADD18C,0.600000*%
G04 #@! TD*
G04 #@! TA.AperFunction,Conductor*
%ADD19C,0.600000*%
G04 #@! TD*
G04 #@! TA.AperFunction,Conductor*
%ADD20C,0.200000*%
G04 #@! TD*
G04 #@! TA.AperFunction,Conductor*
%ADD21C,0.300000*%
G04 #@! TD*
G04 APERTURE END LIST*
D10*
X194400000Y-181200000D03*
D11*
X197400000Y-181200000D03*
X200400000Y-181200000D03*
D12*
X191600000Y-181200000D03*
X203200000Y-181200000D03*
D13*
X187980000Y-167000000D03*
D14*
X190520000Y-167000000D03*
X193060000Y-167000000D03*
X195600000Y-167000000D03*
X198140000Y-167000000D03*
X200680000Y-167000000D03*
X203220000Y-167000000D03*
X205760000Y-167000000D03*
X208300000Y-167000000D03*
X210840000Y-167000000D03*
X213380000Y-167000000D03*
X215920000Y-167000000D03*
X218460000Y-167000000D03*
X221000000Y-167000000D03*
X223540000Y-167000000D03*
D15*
X187980000Y-144140000D03*
D14*
X190520000Y-144140000D03*
X193060000Y-144140000D03*
X195600000Y-144140000D03*
X198140000Y-144140000D03*
X200680000Y-144140000D03*
X203220000Y-144140000D03*
X205760000Y-144140000D03*
X208300000Y-144140000D03*
X210840000Y-144140000D03*
X213380000Y-144140000D03*
X215920000Y-144140000D03*
X218460000Y-144140000D03*
X221000000Y-144140000D03*
X223540000Y-144140000D03*
D13*
X216600000Y-191500000D03*
X219800000Y-170800000D03*
X188500000Y-196460000D03*
D15*
X188500000Y-199000000D03*
D16*
X223043999Y-193040000D03*
X225044000Y-193040000D03*
D13*
X194600000Y-176000000D03*
D17*
X235000000Y-118420000D03*
X237540000Y-118420000D03*
X235000000Y-120960000D03*
X237540000Y-120960000D03*
X235000000Y-123500000D03*
X237540000Y-123500000D03*
X235000000Y-126040000D03*
X237540000Y-126040000D03*
X235000000Y-128580000D03*
X237540000Y-128580000D03*
X235000000Y-131120000D03*
X237540000Y-131120000D03*
X235000000Y-133660000D03*
X237540000Y-133660000D03*
X235000000Y-136200000D03*
X237540000Y-136200000D03*
X235000000Y-138740000D03*
X237540000Y-138740000D03*
X235000000Y-141280000D03*
X237540000Y-141280000D03*
X235000000Y-143820000D03*
X237540000Y-143820000D03*
X235000000Y-146360000D03*
X237540000Y-146360000D03*
D13*
X222725000Y-188800000D03*
D15*
X225265000Y-188800000D03*
D18*
X208800000Y-194600000D03*
X220218000Y-162306000D03*
X239522000Y-118364000D03*
X222000000Y-117500000D03*
X228000000Y-119000000D03*
X220218000Y-160020000D03*
X211400000Y-188600000D03*
X220218000Y-157480000D03*
X187000000Y-125000000D03*
X190000000Y-196000000D03*
X214000000Y-170000000D03*
X214000000Y-135350000D03*
X186600000Y-176000000D03*
X210000000Y-170000000D03*
X229000000Y-122000000D03*
X221600000Y-174000000D03*
X241808000Y-156464000D03*
X231648000Y-154940000D03*
X241808000Y-171704000D03*
X241808000Y-194818000D03*
X187000000Y-192000000D03*
X187960000Y-201930000D03*
X231648000Y-157480000D03*
X200800000Y-186800000D03*
X188600000Y-174200000D03*
X235458000Y-157480000D03*
X237490000Y-185420000D03*
X210820000Y-162306000D03*
X188000000Y-194000000D03*
X214630000Y-157480000D03*
X212598000Y-157480000D03*
X203200000Y-106680000D03*
X227200000Y-200800000D03*
X241808000Y-181864000D03*
X205400000Y-196000000D03*
X190000000Y-198000000D03*
X221962500Y-124500000D03*
X241808000Y-153670000D03*
X233680000Y-168910000D03*
X241808000Y-148590000D03*
X206000000Y-165000000D03*
X195400000Y-174200000D03*
X221962500Y-121500000D03*
X241808000Y-159004000D03*
X241808000Y-125730000D03*
X241808000Y-127000000D03*
X231648000Y-160020000D03*
X191500000Y-117500000D03*
X241808000Y-130810000D03*
X188600000Y-176400000D03*
X241808000Y-142240000D03*
X241808000Y-111506000D03*
X229037500Y-139000000D03*
X241808000Y-172974000D03*
X241808000Y-145034000D03*
X187000000Y-128000000D03*
X186600000Y-169200000D03*
X200000000Y-172000000D03*
X203400000Y-192000000D03*
X241808000Y-170434000D03*
X203400000Y-186000000D03*
X241808000Y-188468000D03*
X187400000Y-174000000D03*
X187600000Y-164400000D03*
X241808000Y-139700000D03*
X220218000Y-150368000D03*
X224028000Y-152654000D03*
X226500000Y-119000000D03*
X193500000Y-114500000D03*
X233680000Y-190500000D03*
X241808000Y-135890000D03*
X237490000Y-154940000D03*
X241808000Y-198628000D03*
X219000000Y-107000000D03*
X189500000Y-116000000D03*
X219000000Y-116000000D03*
X203200000Y-175200000D03*
X239522000Y-119634000D03*
X186800000Y-157400000D03*
X241808000Y-115316000D03*
X219962500Y-135000000D03*
X190600000Y-173000000D03*
X211000000Y-105500000D03*
X186800000Y-149400000D03*
X210516000Y-126111000D03*
X193500000Y-113000000D03*
X187600000Y-152400000D03*
X231140000Y-116840000D03*
X202000000Y-172000000D03*
X218440000Y-152654000D03*
X241808000Y-149860000D03*
X229870000Y-201930000D03*
X212090000Y-201930000D03*
X205400000Y-198000000D03*
X213800000Y-175800000D03*
X216662000Y-152654000D03*
X214630000Y-154940000D03*
X241808000Y-106426000D03*
X239000000Y-106000000D03*
X186800000Y-146400000D03*
X218440000Y-162306000D03*
X204500000Y-130000000D03*
X235000000Y-115000000D03*
X203200000Y-154940000D03*
X223500000Y-119000000D03*
X230000000Y-182000000D03*
X226400000Y-178600000D03*
X217000000Y-175800000D03*
X193500000Y-117500000D03*
X212000000Y-170000000D03*
X203200000Y-160020000D03*
X203200000Y-149860000D03*
X241808000Y-179324000D03*
X224028000Y-154940000D03*
X241808000Y-120396000D03*
X187000000Y-134000000D03*
X241808000Y-187198000D03*
X186800000Y-159400000D03*
X211000000Y-113000000D03*
X237490000Y-160020000D03*
X226400000Y-177800000D03*
X229000000Y-135500000D03*
X241808000Y-193548000D03*
X216000000Y-165000000D03*
X186800000Y-151400000D03*
X217000000Y-105500000D03*
X187600000Y-151400000D03*
X187000000Y-137000000D03*
X197000000Y-157000000D03*
X191400000Y-185000000D03*
X186800000Y-152400000D03*
X207010000Y-139801600D03*
X225000000Y-119000000D03*
X187600000Y-147400000D03*
X237490000Y-162306000D03*
X187400000Y-173000000D03*
X187600000Y-158400000D03*
X228600000Y-198600000D03*
X196850000Y-201930000D03*
X189400000Y-174200000D03*
X187400000Y-172000000D03*
X233680000Y-173990000D03*
X217000000Y-107000000D03*
X205400000Y-185000000D03*
X203400000Y-185000000D03*
X216408000Y-154940000D03*
X186800000Y-150400000D03*
X187600000Y-150400000D03*
X241808000Y-129540000D03*
X241808000Y-122936000D03*
X198200000Y-191600000D03*
X187500000Y-116000000D03*
X191000000Y-125000000D03*
X186800000Y-154400000D03*
X210500000Y-137033000D03*
X187400000Y-169200000D03*
X216000000Y-175200000D03*
X187500000Y-105500000D03*
X205400000Y-190000000D03*
X195400000Y-172000000D03*
X187600000Y-148400000D03*
X186600000Y-174000000D03*
X223520000Y-201930000D03*
X187600000Y-159400000D03*
X231140000Y-111760000D03*
X241808000Y-196088000D03*
X208280000Y-201930000D03*
X216000000Y-170000000D03*
X200000000Y-170000000D03*
X215400000Y-200400000D03*
X226000000Y-198600000D03*
X237490000Y-179070000D03*
X241808000Y-133350000D03*
X202000000Y-170000000D03*
X187600000Y-154400000D03*
X195400000Y-170000000D03*
X206000000Y-170000000D03*
X187600000Y-176000000D03*
X189500000Y-117500000D03*
X205400000Y-180800000D03*
X197000000Y-153000000D03*
X210800000Y-200400000D03*
X219000000Y-117500000D03*
X239522000Y-128524000D03*
X203400000Y-188000000D03*
X191500000Y-105500000D03*
X198000000Y-123000000D03*
X241808000Y-162814000D03*
X237490000Y-168910000D03*
X211200000Y-194600000D03*
X209950001Y-192200000D03*
X228000000Y-117500000D03*
X217500000Y-131000000D03*
X199000000Y-191600000D03*
X208600000Y-187200000D03*
X195400000Y-185000000D03*
X188600000Y-175600000D03*
X239522000Y-122174000D03*
X241808000Y-116586000D03*
X193040000Y-201930000D03*
X191500000Y-119000000D03*
X241808000Y-112776000D03*
X241808000Y-197358000D03*
X187600000Y-163400000D03*
X241808000Y-121666000D03*
X241808000Y-184658000D03*
X207500000Y-107000000D03*
X241808000Y-157734000D03*
X239268000Y-160020000D03*
X208000000Y-170000000D03*
X209000000Y-105500000D03*
X239522000Y-131064000D03*
X220218000Y-152654000D03*
X197400000Y-191600000D03*
X209400000Y-188600000D03*
X204800000Y-172000000D03*
X241808000Y-178054000D03*
X191500000Y-116000000D03*
X193400000Y-185000000D03*
X239522000Y-125984000D03*
X186600000Y-171000000D03*
X220500000Y-117500000D03*
X191000000Y-122000000D03*
X215000000Y-105500000D03*
X237490000Y-165100000D03*
X209800000Y-198400000D03*
X197000000Y-149000000D03*
X186600000Y-173000000D03*
X191500000Y-113000000D03*
X193000000Y-172000000D03*
X193000000Y-171000000D03*
X218440000Y-154940000D03*
X222000000Y-119000000D03*
X241808000Y-143510000D03*
X233680000Y-157480000D03*
X212598000Y-162306000D03*
X214630000Y-162306000D03*
X218962500Y-139000000D03*
X203400000Y-196000000D03*
X186600000Y-172000000D03*
X241808000Y-169164000D03*
X187500000Y-113000000D03*
X222250000Y-160020000D03*
X241808000Y-165354000D03*
X204000000Y-170000000D03*
X233680000Y-154940000D03*
X241808000Y-175768000D03*
X215900000Y-201930000D03*
X237490000Y-157480000D03*
X195580000Y-196088000D03*
X186800000Y-162400000D03*
X193000000Y-125000000D03*
X200800000Y-187600000D03*
X188000000Y-146000000D03*
X189000000Y-125000000D03*
X187600000Y-162400000D03*
X239522000Y-120904000D03*
X241808000Y-138430000D03*
X241808000Y-137160000D03*
X219000000Y-119000000D03*
X201400000Y-185000000D03*
X219000000Y-105500000D03*
X218440000Y-150368000D03*
X190000000Y-200000000D03*
X222250000Y-154940000D03*
X208400000Y-188600000D03*
X219710000Y-201930000D03*
X216408000Y-162306000D03*
X222962500Y-139000000D03*
X211200000Y-192200000D03*
X239268000Y-154940000D03*
X187000000Y-131000000D03*
X214630000Y-160020000D03*
X231648000Y-152654000D03*
X239268000Y-162306000D03*
X203400000Y-194000000D03*
X239268000Y-157480000D03*
X241808000Y-199898000D03*
X210400000Y-188600000D03*
X241808000Y-108966000D03*
X241808000Y-146050000D03*
X210820000Y-160020000D03*
X239522000Y-115570000D03*
X190000000Y-194000000D03*
X222250000Y-162306000D03*
X186800000Y-147400000D03*
X189500000Y-105500000D03*
X187600000Y-149400000D03*
X209950001Y-194600000D03*
X218200000Y-137100000D03*
X186600000Y-175000000D03*
X241808000Y-164084000D03*
X241808000Y-151130000D03*
X241808000Y-140970000D03*
X188000000Y-165500000D03*
X237490000Y-201930000D03*
X203200000Y-111760000D03*
X241808000Y-128270000D03*
X189000000Y-122000000D03*
X187000000Y-122000000D03*
X241808000Y-134620000D03*
X233680000Y-201930000D03*
X216408000Y-157480000D03*
X231648000Y-162306000D03*
X186800000Y-156400000D03*
X193500000Y-116000000D03*
X241808000Y-117856000D03*
X197000000Y-194700000D03*
X222250000Y-157480000D03*
X221800000Y-198600000D03*
X241808000Y-174244000D03*
X224028000Y-162306000D03*
X208800000Y-192200000D03*
X239522000Y-127254000D03*
X189500000Y-119000000D03*
X235458000Y-152654000D03*
X186600000Y-170000000D03*
X199400000Y-185000000D03*
X241808000Y-183134000D03*
X228000000Y-126000000D03*
X241808000Y-119126000D03*
X187000000Y-140000000D03*
X187600000Y-161400000D03*
X229500000Y-119000000D03*
X201000000Y-165500000D03*
X193000000Y-122000000D03*
X204470000Y-201930000D03*
X205400000Y-192000000D03*
X225000000Y-117500000D03*
X214000000Y-111000000D03*
X211000000Y-117500000D03*
X207010000Y-149860000D03*
X235458000Y-154940000D03*
X186800000Y-161400000D03*
X196450000Y-188950000D03*
X187400000Y-170000000D03*
X226500000Y-117500000D03*
X203400000Y-190000000D03*
X187600000Y-156400000D03*
X223500000Y-165000000D03*
X200000000Y-174000000D03*
X241808000Y-186182000D03*
X191500000Y-114500000D03*
X241808000Y-155194000D03*
X186800000Y-164400000D03*
X196000000Y-145800000D03*
X193000000Y-170000000D03*
X241808000Y-201168000D03*
X186800000Y-160400000D03*
X214000000Y-133350000D03*
X241808000Y-110236000D03*
X203220000Y-145700000D03*
X207010000Y-154940000D03*
X241808000Y-114046000D03*
X207500000Y-105500000D03*
X198000000Y-170000000D03*
X187600000Y-153400000D03*
X187400000Y-171000000D03*
X219200000Y-198600000D03*
X229500000Y-117500000D03*
X239522000Y-132334000D03*
X221462500Y-131000000D03*
X198120000Y-116840000D03*
X241808000Y-132080000D03*
X235458000Y-162306000D03*
X212598000Y-160020000D03*
X187600000Y-157400000D03*
X235458000Y-160020000D03*
X241808000Y-107696000D03*
X215400000Y-199600000D03*
X187600000Y-175000000D03*
X237490000Y-152654000D03*
X187500000Y-114500000D03*
X205400000Y-182800000D03*
X241808000Y-180594000D03*
X241808000Y-192278000D03*
X241808000Y-167894000D03*
X189500000Y-113000000D03*
X222250000Y-150368000D03*
X187500000Y-117500000D03*
X205400000Y-186000000D03*
X210800000Y-199600000D03*
X241808000Y-147320000D03*
X187600000Y-160400000D03*
X241808000Y-161544000D03*
X193500000Y-105500000D03*
X216408000Y-160020000D03*
X241808000Y-105156000D03*
X237490000Y-190500000D03*
X208800000Y-193400000D03*
X193500000Y-119000000D03*
X199136000Y-196088000D03*
X220218000Y-154940000D03*
X198120000Y-111760000D03*
X186800000Y-153400000D03*
X239522000Y-123444000D03*
X222250000Y-152654000D03*
X223500000Y-117500000D03*
X221500000Y-128500000D03*
X187600000Y-155400000D03*
X186800000Y-163400000D03*
X187500000Y-119000000D03*
X233680000Y-179070000D03*
X227330000Y-201930000D03*
X233680000Y-185420000D03*
X186800000Y-148400000D03*
X203200000Y-116840000D03*
X207010000Y-160020000D03*
X239522000Y-116840000D03*
X218440000Y-157480000D03*
X233680000Y-162306000D03*
X215500000Y-131000000D03*
X211000000Y-119000000D03*
X200660000Y-201930000D03*
X224028000Y-157480000D03*
X213000000Y-105500000D03*
X203400000Y-198000000D03*
X233680000Y-165100000D03*
X197800000Y-194700000D03*
X186800000Y-155400000D03*
X241808000Y-124460000D03*
X233680000Y-152654000D03*
X239522000Y-124714000D03*
X209950001Y-193400000D03*
X220600000Y-200800000D03*
X241808000Y-152400000D03*
X224028000Y-160020000D03*
X239522000Y-129794000D03*
X215920000Y-145600000D03*
X241808000Y-176784000D03*
X186800000Y-158400000D03*
X216800000Y-135300000D03*
X233680000Y-160020000D03*
X190500000Y-201930000D03*
X189500000Y-114500000D03*
X228000000Y-130500000D03*
X211200000Y-193400000D03*
X224028000Y-150368000D03*
X205400000Y-194000000D03*
X186800000Y-165400000D03*
X241808000Y-191008000D03*
X241808000Y-189738000D03*
X220500000Y-119000000D03*
X197000000Y-161000000D03*
X229870000Y-195580000D03*
X241808000Y-166624000D03*
X223500000Y-146000000D03*
X239268000Y-152654000D03*
X204500000Y-126700000D03*
X241808000Y-160274000D03*
X205400000Y-188000000D03*
X198120000Y-106680000D03*
X218440000Y-160020000D03*
X197400000Y-185000000D03*
X215000000Y-193200000D03*
X209000000Y-109500000D03*
X218500000Y-112000000D03*
X216600000Y-193200000D03*
X218200000Y-193200000D03*
X211000000Y-109500000D03*
X218200000Y-194400000D03*
X215000000Y-194400000D03*
X212600000Y-110300000D03*
X191400000Y-169000000D03*
X190000000Y-170000000D03*
X216950000Y-123875000D03*
X193400000Y-130400000D03*
X190200000Y-129000000D03*
X215500000Y-126500000D03*
X190200000Y-130400000D03*
X191800000Y-129000000D03*
X191800000Y-131800000D03*
X190000000Y-169000000D03*
X190200000Y-131800000D03*
X219500000Y-128500000D03*
X219537500Y-131000000D03*
X191400000Y-170000000D03*
X213099698Y-116500302D03*
X191800000Y-130400000D03*
X193400000Y-129000000D03*
X204000000Y-141600000D03*
X225000000Y-126500000D03*
X225500000Y-128000000D03*
X231000000Y-126000000D03*
X224037500Y-124500000D03*
X225500000Y-130000000D03*
X216000000Y-121900000D03*
X207991650Y-136525000D03*
X195100000Y-141200000D03*
X213600000Y-196550000D03*
X214600000Y-196550000D03*
X215400000Y-196550000D03*
X212800000Y-178800000D03*
X204950000Y-174550000D03*
D19*
X237738000Y-138938000D02*
X237540000Y-138740000D01*
X239522000Y-132334000D02*
X239522000Y-115570000D01*
X241808000Y-201168000D02*
X241808000Y-105156000D01*
D20*
X240538000Y-169418000D02*
X222725000Y-187231000D01*
X222725000Y-187231000D02*
X222725000Y-188800000D01*
X235839000Y-106299000D02*
X240538000Y-110998000D01*
X240538000Y-110998000D02*
X240538000Y-169418000D01*
X216601000Y-106299000D02*
X235839000Y-106299000D01*
X212600000Y-110300000D02*
X216601000Y-106299000D01*
D21*
X237540000Y-133660000D02*
X237660000Y-133660000D01*
X237660000Y-133660000D02*
X238000000Y-134000000D01*
D20*
X208300000Y-144140000D02*
X205760000Y-141600000D01*
X205760000Y-141600000D02*
X204200000Y-141600000D01*
X232156000Y-133964000D02*
X235000000Y-131120000D01*
X228092000Y-147828000D02*
X232156000Y-143764000D01*
X198140000Y-167000000D02*
X217312000Y-147828000D01*
X217312000Y-147828000D02*
X228092000Y-147828000D01*
X232156000Y-143764000D02*
X232156000Y-133964000D01*
D21*
X225000000Y-126500000D02*
X226151000Y-127651000D01*
X213380000Y-143620000D02*
X213380000Y-144140000D01*
X226151000Y-127651000D02*
X226151000Y-130849000D01*
X226151000Y-130849000D02*
X213380000Y-143620000D01*
X210840000Y-142660000D02*
X210840000Y-144140000D01*
X225500000Y-128000000D02*
X210840000Y-142660000D01*
X231000000Y-128500000D02*
X218460000Y-141040000D01*
X218460000Y-141040000D02*
X218460000Y-144140000D01*
X231000000Y-126000000D02*
X231000000Y-128500000D01*
D20*
X196900000Y-145600000D02*
X196900000Y-143000000D01*
X221000000Y-144140000D02*
X221000000Y-145700000D01*
X221000000Y-145700000D02*
X220200000Y-146500000D01*
X220200000Y-146500000D02*
X197800000Y-146500000D01*
X197800000Y-146500000D02*
X196900000Y-145600000D01*
X196900000Y-143000000D02*
X195100000Y-141200000D01*
D21*
X208550000Y-174550000D02*
X212800000Y-178800000D01*
X205050000Y-174550000D02*
X208550000Y-174550000D01*
X205000000Y-174600000D02*
X205050000Y-174550000D01*
G04 #@! TA.AperFunction,Conductor*
G36*
X242385788Y-103919454D02*
G01*
X242466570Y-103973430D01*
X242520546Y-104054212D01*
X242539500Y-104149500D01*
X242539500Y-202650500D01*
X242520546Y-202745788D01*
X242466570Y-202826570D01*
X242385788Y-202880546D01*
X242290500Y-202899500D01*
X186349500Y-202899500D01*
X186254212Y-202880546D01*
X186173430Y-202826570D01*
X186119454Y-202745788D01*
X186100500Y-202650500D01*
X186100500Y-200242396D01*
X187964710Y-200242396D01*
X187981781Y-200251094D01*
X187981780Y-200251094D01*
X188183876Y-200316758D01*
X188393743Y-200349999D01*
X188393756Y-200350000D01*
X188606244Y-200350000D01*
X188606256Y-200349999D01*
X188816123Y-200316758D01*
X189018219Y-200251094D01*
X189035289Y-200242395D01*
X188500000Y-199707106D01*
X187964710Y-200242396D01*
X186100500Y-200242396D01*
X186100500Y-198893743D01*
X187150000Y-198893743D01*
X187150000Y-199106256D01*
X187183241Y-199316123D01*
X187248904Y-199518214D01*
X187257603Y-199535288D01*
X187792892Y-199000000D01*
X187727066Y-198934174D01*
X188000000Y-198934174D01*
X188000000Y-199065826D01*
X188034075Y-199192993D01*
X188099901Y-199307007D01*
X188192993Y-199400099D01*
X188307007Y-199465925D01*
X188434174Y-199500000D01*
X188565826Y-199500000D01*
X188692993Y-199465925D01*
X188807007Y-199400099D01*
X188900099Y-199307007D01*
X188965925Y-199192993D01*
X189000000Y-199065826D01*
X189000000Y-199000000D01*
X189207106Y-199000000D01*
X189742395Y-199535289D01*
X189751094Y-199518219D01*
X189816758Y-199316123D01*
X189849999Y-199106256D01*
X189850000Y-199106244D01*
X189850000Y-198893755D01*
X189849999Y-198893743D01*
X189816758Y-198683876D01*
X189751094Y-198481780D01*
X189742396Y-198464710D01*
X189207106Y-199000000D01*
X189000000Y-199000000D01*
X189000000Y-198934174D01*
X188965925Y-198807007D01*
X188900099Y-198692993D01*
X188807007Y-198599901D01*
X188692993Y-198534075D01*
X188565826Y-198500000D01*
X188434174Y-198500000D01*
X188307007Y-198534075D01*
X188192993Y-198599901D01*
X188099901Y-198692993D01*
X188034075Y-198807007D01*
X188000000Y-198934174D01*
X187727066Y-198934174D01*
X187257602Y-198464710D01*
X187248906Y-198481779D01*
X187248900Y-198481793D01*
X187183241Y-198683873D01*
X187183241Y-198683874D01*
X187150000Y-198893743D01*
X186100500Y-198893743D01*
X186100500Y-196960001D01*
X187150000Y-196960001D01*
X187150000Y-197357832D01*
X187156401Y-197417371D01*
X187156403Y-197417378D01*
X187206646Y-197552087D01*
X187292810Y-197667187D01*
X187292812Y-197667189D01*
X187407911Y-197753352D01*
X187458110Y-197772075D01*
X187542576Y-197687610D01*
X187623357Y-197633633D01*
X187718645Y-197614679D01*
X187813933Y-197633633D01*
X187894715Y-197687609D01*
X188499999Y-198292892D01*
X189105283Y-197687609D01*
X189186065Y-197633633D01*
X189281353Y-197614679D01*
X189376641Y-197633633D01*
X189457423Y-197687609D01*
X189457423Y-197687610D01*
X189541888Y-197772075D01*
X189592088Y-197753352D01*
X189707187Y-197667189D01*
X189707189Y-197667187D01*
X189793353Y-197552087D01*
X189843596Y-197417378D01*
X189843598Y-197417371D01*
X189849999Y-197357832D01*
X189850000Y-197357825D01*
X189850000Y-196960001D01*
X189849999Y-196960000D01*
X188565826Y-196960000D01*
X188692993Y-196925925D01*
X188807007Y-196860099D01*
X188900099Y-196767007D01*
X188965925Y-196652993D01*
X189000000Y-196525826D01*
X189000000Y-196394174D01*
X188965925Y-196267007D01*
X188900099Y-196152993D01*
X188807007Y-196059901D01*
X188692993Y-195994075D01*
X188565826Y-195960000D01*
X188434174Y-195960000D01*
X188307007Y-195994075D01*
X188192993Y-196059901D01*
X188099901Y-196152993D01*
X188034075Y-196267007D01*
X188000000Y-196394174D01*
X188000000Y-196525826D01*
X188034075Y-196652993D01*
X188099901Y-196767007D01*
X188192993Y-196860099D01*
X188307007Y-196925925D01*
X188434174Y-196960000D01*
X187150001Y-196960000D01*
X187150000Y-196960001D01*
X186100500Y-196960001D01*
X186100500Y-195562167D01*
X187150000Y-195562167D01*
X187150000Y-195959999D01*
X187150001Y-195960000D01*
X187999999Y-195960000D01*
X188000000Y-195959999D01*
X188000000Y-195110001D01*
X189000000Y-195110001D01*
X189000000Y-195959999D01*
X189000001Y-195960000D01*
X189849999Y-195960000D01*
X189850000Y-195959999D01*
X189850000Y-195724005D01*
X210594500Y-195724005D01*
X210594500Y-197075967D01*
X210594567Y-197087589D01*
X210594567Y-197087592D01*
X210617481Y-197289745D01*
X210628685Y-197341246D01*
X210628693Y-197341279D01*
X210653214Y-197432931D01*
X210653218Y-197432945D01*
X210734306Y-197619523D01*
X210734307Y-197619526D01*
X210851300Y-197785975D01*
X210851305Y-197785980D01*
X210897055Y-197838778D01*
X211016168Y-197955179D01*
X211185264Y-198068308D01*
X211185265Y-198068308D01*
X211185266Y-198068309D01*
X211222945Y-198083663D01*
X211373671Y-198145083D01*
X211440710Y-198164768D01*
X211511964Y-198182518D01*
X211521598Y-198184918D01*
X211723331Y-198205432D01*
X211724000Y-198205500D01*
X211724006Y-198205500D01*
X217475967Y-198205500D01*
X217476000Y-198205500D01*
X217487588Y-198205433D01*
X217689743Y-198182519D01*
X217741254Y-198171313D01*
X217832938Y-198146784D01*
X218019527Y-198065692D01*
X218185974Y-197948700D01*
X218238778Y-197902945D01*
X218355179Y-197783832D01*
X218468308Y-197614736D01*
X218545083Y-197426329D01*
X218564768Y-197359290D01*
X218584917Y-197278406D01*
X218591692Y-197211790D01*
X218605498Y-197076019D01*
X218605500Y-197075994D01*
X218605500Y-196728712D01*
X233099500Y-196728712D01*
X233099500Y-196971287D01*
X233131162Y-197211790D01*
X233131163Y-197211795D01*
X233193940Y-197446082D01*
X233193948Y-197446105D01*
X233286770Y-197670201D01*
X233286778Y-197670217D01*
X233408058Y-197880279D01*
X233408064Y-197880289D01*
X233555729Y-198072731D01*
X233555738Y-198072741D01*
X233727258Y-198244261D01*
X233727268Y-198244270D01*
X233790634Y-198292892D01*
X233919711Y-198391936D01*
X233919720Y-198391941D01*
X234129782Y-198513221D01*
X234129798Y-198513229D01*
X234269858Y-198571242D01*
X234353900Y-198606054D01*
X234353911Y-198606057D01*
X234353917Y-198606059D01*
X234537021Y-198655121D01*
X234588211Y-198668838D01*
X234828712Y-198700500D01*
X235071288Y-198700500D01*
X235311789Y-198668838D01*
X235473275Y-198625567D01*
X235546082Y-198606059D01*
X235546084Y-198606058D01*
X235546100Y-198606054D01*
X235719873Y-198534075D01*
X235770201Y-198513229D01*
X235770206Y-198513226D01*
X235770212Y-198513224D01*
X235980289Y-198391936D01*
X236172738Y-198244265D01*
X236344265Y-198072738D01*
X236491936Y-197880289D01*
X236613224Y-197670212D01*
X236614477Y-197667189D01*
X236662153Y-197552087D01*
X236706054Y-197446100D01*
X236711353Y-197426326D01*
X236734150Y-197341246D01*
X236768838Y-197211789D01*
X236800500Y-196971288D01*
X236800500Y-196728712D01*
X236768838Y-196488211D01*
X236706054Y-196253900D01*
X236664257Y-196152993D01*
X236613229Y-196029798D01*
X236613221Y-196029782D01*
X236491941Y-195819720D01*
X236491935Y-195819710D01*
X236491848Y-195819597D01*
X236393199Y-195691034D01*
X236344270Y-195627268D01*
X236344261Y-195627258D01*
X236172741Y-195455738D01*
X236172731Y-195455729D01*
X235980289Y-195308064D01*
X235980279Y-195308058D01*
X235770217Y-195186778D01*
X235770201Y-195186770D01*
X235546105Y-195093948D01*
X235546103Y-195093947D01*
X235546100Y-195093946D01*
X235546096Y-195093945D01*
X235546082Y-195093940D01*
X235311795Y-195031163D01*
X235311790Y-195031162D01*
X235071288Y-194999500D01*
X234828712Y-194999500D01*
X234588209Y-195031162D01*
X234588204Y-195031163D01*
X234353917Y-195093940D01*
X234353894Y-195093948D01*
X234129798Y-195186770D01*
X234129782Y-195186778D01*
X233919720Y-195308058D01*
X233919710Y-195308064D01*
X233727268Y-195455729D01*
X233727258Y-195455738D01*
X233555738Y-195627258D01*
X233555729Y-195627268D01*
X233408064Y-195819710D01*
X233408058Y-195819720D01*
X233286778Y-196029782D01*
X233286770Y-196029798D01*
X233193948Y-196253894D01*
X233193940Y-196253917D01*
X233131163Y-196488204D01*
X233131162Y-196488209D01*
X233099500Y-196728712D01*
X218605500Y-196728712D01*
X218605500Y-196232662D01*
X218624454Y-196137374D01*
X218678430Y-196056592D01*
X218759212Y-196002616D01*
X218814718Y-195986861D01*
X218825592Y-195985100D01*
X218911240Y-195971239D01*
X218985740Y-195951277D01*
X219098490Y-195913799D01*
X219278819Y-195819602D01*
X219436496Y-195691034D01*
X219491034Y-195636496D01*
X219569939Y-195547663D01*
X219679010Y-195375922D01*
X219751277Y-195185740D01*
X219771239Y-195111240D01*
X219784917Y-195053406D01*
X219788704Y-195016172D01*
X219805498Y-194851019D01*
X219805500Y-194850994D01*
X219805500Y-192909274D01*
X221383099Y-192909274D01*
X221383099Y-193170725D01*
X221423993Y-193428917D01*
X221423998Y-193428934D01*
X221469709Y-193569621D01*
X221504782Y-193677564D01*
X221623470Y-193910501D01*
X221777135Y-194122004D01*
X221961995Y-194306864D01*
X222173498Y-194460529D01*
X222406435Y-194579217D01*
X222655071Y-194660003D01*
X222655077Y-194660004D01*
X222655081Y-194660005D01*
X222913273Y-194700899D01*
X222913280Y-194700899D01*
X222913283Y-194700900D01*
X222913286Y-194700900D01*
X223174712Y-194700900D01*
X223174715Y-194700900D01*
X223174718Y-194700899D01*
X223174724Y-194700899D01*
X223432916Y-194660005D01*
X223432917Y-194660004D01*
X223432927Y-194660003D01*
X223681563Y-194579217D01*
X223914500Y-194460529D01*
X224126003Y-194306864D01*
X224284439Y-194148427D01*
X224365214Y-194094456D01*
X224460502Y-194075501D01*
X224555791Y-194094454D01*
X224573546Y-194102640D01*
X224598554Y-194115382D01*
X224598565Y-194115386D01*
X224772274Y-194171827D01*
X224952664Y-194200398D01*
X224952679Y-194200400D01*
X225135321Y-194200400D01*
X225135335Y-194200398D01*
X225315723Y-194171828D01*
X225315725Y-194171827D01*
X225431200Y-194134306D01*
X224866516Y-193569621D01*
X224812540Y-193488840D01*
X224793586Y-193393552D01*
X224798734Y-193367666D01*
X224887135Y-193418705D01*
X224990496Y-193446400D01*
X225097504Y-193446400D01*
X225200865Y-193418705D01*
X225293536Y-193365201D01*
X225369201Y-193289536D01*
X225422705Y-193196865D01*
X225450400Y-193093504D01*
X225450400Y-193039999D01*
X225751106Y-193039999D01*
X226138307Y-193427200D01*
X226175827Y-193311725D01*
X226175828Y-193311723D01*
X226204398Y-193131335D01*
X226204400Y-193131320D01*
X226204400Y-192948679D01*
X226204398Y-192948664D01*
X226175828Y-192768277D01*
X226138306Y-192652798D01*
X225751106Y-193039999D01*
X225450400Y-193039999D01*
X225450400Y-192986496D01*
X225422705Y-192883135D01*
X225369201Y-192790464D01*
X225293536Y-192714799D01*
X225200865Y-192661295D01*
X225097504Y-192633600D01*
X224990496Y-192633600D01*
X224887135Y-192661295D01*
X224798735Y-192712332D01*
X224793586Y-192686446D01*
X224812540Y-192591157D01*
X224866517Y-192510376D01*
X225431200Y-191945692D01*
X225431200Y-191945691D01*
X225315734Y-191908175D01*
X225315715Y-191908170D01*
X225135335Y-191879601D01*
X225135321Y-191879600D01*
X224952679Y-191879600D01*
X224952664Y-191879601D01*
X224772274Y-191908172D01*
X224598565Y-191964613D01*
X224598563Y-191964613D01*
X224573545Y-191977361D01*
X224480037Y-192003731D01*
X224383555Y-191992310D01*
X224298789Y-191944836D01*
X224284435Y-191931568D01*
X224126004Y-191773137D01*
X224126003Y-191773136D01*
X223914500Y-191619471D01*
X223914497Y-191619469D01*
X223914491Y-191619466D01*
X223681573Y-191500788D01*
X223681571Y-191500787D01*
X223681563Y-191500783D01*
X223681556Y-191500780D01*
X223681552Y-191500779D01*
X223432933Y-191419999D01*
X223432934Y-191419999D01*
X223432927Y-191419997D01*
X223432925Y-191419996D01*
X223432916Y-191419994D01*
X223174724Y-191379100D01*
X223174715Y-191379100D01*
X222913283Y-191379100D01*
X222913273Y-191379100D01*
X222655081Y-191419994D01*
X222655064Y-191419999D01*
X222406445Y-191500779D01*
X222406437Y-191500782D01*
X222406435Y-191500783D01*
X222406431Y-191500784D01*
X222406424Y-191500788D01*
X222173506Y-191619466D01*
X222173499Y-191619470D01*
X221961993Y-191773137D01*
X221777136Y-191957994D01*
X221623469Y-192169500D01*
X221623465Y-192169507D01*
X221504787Y-192402425D01*
X221504778Y-192402446D01*
X221423998Y-192651065D01*
X221423993Y-192651082D01*
X221383099Y-192909274D01*
X219805500Y-192909274D01*
X219805500Y-190848993D01*
X219805198Y-190838809D01*
X219803744Y-190789596D01*
X219771239Y-190588760D01*
X219751277Y-190514260D01*
X219713799Y-190401510D01*
X219619602Y-190221181D01*
X219491034Y-190063504D01*
X219436496Y-190008966D01*
X219436487Y-190008958D01*
X219436483Y-190008954D01*
X219347664Y-189930062D01*
X219347663Y-189930061D01*
X219175922Y-189820990D01*
X218985740Y-189748723D01*
X218985739Y-189748722D01*
X218985732Y-189748720D01*
X218985733Y-189748720D01*
X218911235Y-189728759D01*
X218855482Y-189715574D01*
X218853406Y-189715083D01*
X218853404Y-189715082D01*
X218853391Y-189715080D01*
X218651019Y-189694501D01*
X218651003Y-189694500D01*
X218651000Y-189694500D01*
X218099000Y-189694500D01*
X218098993Y-189694500D01*
X218047021Y-189696036D01*
X218039596Y-189696256D01*
X218039594Y-189696256D01*
X218039585Y-189696257D01*
X217911863Y-189716929D01*
X217814770Y-189713443D01*
X217803600Y-189710526D01*
X217627418Y-189660114D01*
X217508037Y-189649500D01*
X217508035Y-189649500D01*
X215691968Y-189649500D01*
X215691956Y-189649501D01*
X215572582Y-189660113D01*
X215406145Y-189707736D01*
X215311552Y-189715541D01*
X215311515Y-189715907D01*
X215309548Y-189715707D01*
X215309319Y-189715726D01*
X215308241Y-189715574D01*
X215101019Y-189694501D01*
X215101003Y-189694500D01*
X215101000Y-189694500D01*
X214749000Y-189694500D01*
X214748993Y-189694500D01*
X214689596Y-189696256D01*
X214689585Y-189696257D01*
X214488760Y-189728760D01*
X214488749Y-189728763D01*
X214414267Y-189748720D01*
X214414245Y-189748727D01*
X214301510Y-189786200D01*
X214121185Y-189880395D01*
X214121175Y-189880402D01*
X213963510Y-190008960D01*
X213908954Y-190063516D01*
X213830062Y-190152335D01*
X213786339Y-190221181D01*
X213720990Y-190324078D01*
X213691567Y-190401510D01*
X213648720Y-190514267D01*
X213628759Y-190588764D01*
X213615084Y-190646589D01*
X213615080Y-190646608D01*
X213594501Y-190848980D01*
X213594500Y-190849005D01*
X213594500Y-194345500D01*
X213575546Y-194440788D01*
X213521570Y-194521570D01*
X213440788Y-194575546D01*
X213345500Y-194594500D01*
X211724000Y-194594500D01*
X211713074Y-194594563D01*
X211712410Y-194594567D01*
X211712407Y-194594567D01*
X211510254Y-194617481D01*
X211458753Y-194628685D01*
X211458720Y-194628693D01*
X211367068Y-194653214D01*
X211367054Y-194653218D01*
X211180476Y-194734306D01*
X211180473Y-194734307D01*
X211014024Y-194851300D01*
X211014019Y-194851305D01*
X210961231Y-194897046D01*
X210961217Y-194897059D01*
X210844825Y-195016163D01*
X210844818Y-195016172D01*
X210731692Y-195185264D01*
X210731690Y-195185266D01*
X210654920Y-195373663D01*
X210654916Y-195373673D01*
X210635233Y-195440705D01*
X210615081Y-195521598D01*
X210594501Y-195723980D01*
X210594500Y-195724005D01*
X189850000Y-195724005D01*
X189850000Y-195562175D01*
X189849999Y-195562167D01*
X189843598Y-195502628D01*
X189843596Y-195502621D01*
X189793353Y-195367912D01*
X189707189Y-195252812D01*
X189707187Y-195252810D01*
X189592087Y-195166646D01*
X189457378Y-195116403D01*
X189457371Y-195116401D01*
X189397832Y-195110000D01*
X189000001Y-195110000D01*
X189000000Y-195110001D01*
X188000000Y-195110001D01*
X187999999Y-195110000D01*
X187602167Y-195110000D01*
X187542628Y-195116401D01*
X187542621Y-195116403D01*
X187407912Y-195166646D01*
X187292812Y-195252810D01*
X187292810Y-195252812D01*
X187206646Y-195367912D01*
X187156403Y-195502621D01*
X187156401Y-195502628D01*
X187150000Y-195562167D01*
X186100500Y-195562167D01*
X186100500Y-181700001D01*
X190500000Y-181700001D01*
X190500000Y-181886581D01*
X190527085Y-182057583D01*
X190527085Y-182057584D01*
X190580586Y-182222245D01*
X190580592Y-182222258D01*
X190659191Y-182376516D01*
X190659195Y-182376523D01*
X190760968Y-182516603D01*
X190883396Y-182639031D01*
X191023479Y-182740806D01*
X191023484Y-182740809D01*
X191099998Y-182779795D01*
X191100000Y-182779794D01*
X191100000Y-181700001D01*
X191099999Y-181700000D01*
X190500001Y-181700000D01*
X190500000Y-181700001D01*
X186100500Y-181700001D01*
X186100500Y-180747339D01*
X191200000Y-180747339D01*
X191200000Y-181652661D01*
X191227259Y-181754394D01*
X191279920Y-181845606D01*
X191354394Y-181920080D01*
X191445606Y-181972741D01*
X191547339Y-182000000D01*
X191652661Y-182000000D01*
X191754394Y-181972741D01*
X191845606Y-181920080D01*
X191920080Y-181845606D01*
X191972741Y-181754394D01*
X192000000Y-181652661D01*
X192000000Y-180747339D01*
X191972741Y-180645606D01*
X191920080Y-180554394D01*
X191845606Y-180479920D01*
X191754394Y-180427259D01*
X191652661Y-180400000D01*
X191547339Y-180400000D01*
X191445606Y-180427259D01*
X191354394Y-180479920D01*
X191279920Y-180554394D01*
X191227259Y-180645606D01*
X191200000Y-180747339D01*
X186100500Y-180747339D01*
X186100500Y-180513418D01*
X190500000Y-180513418D01*
X190500000Y-180699999D01*
X190500001Y-180700000D01*
X191099999Y-180700000D01*
X191100000Y-180699999D01*
X191100000Y-179620204D01*
X191099999Y-179620203D01*
X192100000Y-179620203D01*
X192100000Y-182779794D01*
X192100001Y-182779795D01*
X192176515Y-182740809D01*
X192176520Y-182740806D01*
X192316603Y-182639031D01*
X192445951Y-182509684D01*
X192447210Y-182510943D01*
X192513259Y-182458862D01*
X192606764Y-182432480D01*
X192703247Y-182443888D01*
X192788019Y-182491351D01*
X192819305Y-182523354D01*
X192934891Y-182665109D01*
X193092593Y-182793698D01*
X193272951Y-182887909D01*
X193468582Y-182943886D01*
X193587963Y-182954500D01*
X195212036Y-182954499D01*
X195331418Y-182943886D01*
X195527049Y-182887909D01*
X195707407Y-182793698D01*
X195865109Y-182665109D01*
X195928705Y-182587114D01*
X196003608Y-182525244D01*
X196096489Y-182496747D01*
X196193206Y-182505963D01*
X196273262Y-182546923D01*
X196423160Y-182661944D01*
X196423169Y-182661949D01*
X196622333Y-182776937D01*
X196622336Y-182776938D01*
X196622339Y-182776940D01*
X196834824Y-182864954D01*
X197056980Y-182924480D01*
X197285004Y-182954500D01*
X197514996Y-182954500D01*
X197743020Y-182924480D01*
X197965176Y-182864954D01*
X198177661Y-182776940D01*
X198376840Y-182661944D01*
X198559305Y-182521934D01*
X198721934Y-182359305D01*
X198721934Y-182359304D01*
X198723930Y-182357309D01*
X198804712Y-182303333D01*
X198900000Y-182284379D01*
X198995288Y-182303333D01*
X199076070Y-182357309D01*
X199240691Y-182521930D01*
X199240701Y-182521939D01*
X199325643Y-182587117D01*
X199423160Y-182661944D01*
X199423169Y-182661949D01*
X199622333Y-182776937D01*
X199622336Y-182776938D01*
X199622339Y-182776940D01*
X199834824Y-182864954D01*
X200056980Y-182924480D01*
X200285004Y-182954500D01*
X200514996Y-182954500D01*
X200743020Y-182924480D01*
X200965176Y-182864954D01*
X201177661Y-182776940D01*
X201376840Y-182661944D01*
X201559305Y-182521934D01*
X201721934Y-182359305D01*
X201799289Y-182258492D01*
X201872331Y-182194437D01*
X201964330Y-182163207D01*
X202061277Y-182169561D01*
X202148413Y-182212531D01*
X202212472Y-182285576D01*
X202218692Y-182297033D01*
X202259191Y-182376516D01*
X202259195Y-182376523D01*
X202360968Y-182516603D01*
X202483396Y-182639031D01*
X202623479Y-182740806D01*
X202623484Y-182740809D01*
X202699998Y-182779795D01*
X202700000Y-182779794D01*
X202700000Y-180747339D01*
X202800000Y-180747339D01*
X202800000Y-181652661D01*
X202827259Y-181754394D01*
X202879920Y-181845606D01*
X202954394Y-181920080D01*
X203045606Y-181972741D01*
X203147339Y-182000000D01*
X203252661Y-182000000D01*
X203354394Y-181972741D01*
X203445606Y-181920080D01*
X203520080Y-181845606D01*
X203572741Y-181754394D01*
X203587315Y-181700001D01*
X203700000Y-181700001D01*
X203700000Y-182779794D01*
X203700001Y-182779795D01*
X203776515Y-182740809D01*
X203776520Y-182740806D01*
X203916603Y-182639031D01*
X204039031Y-182516603D01*
X204140804Y-182376523D01*
X204140808Y-182376516D01*
X204219407Y-182222258D01*
X204219413Y-182222245D01*
X204272914Y-182057584D01*
X204272914Y-182057583D01*
X204299999Y-181886581D01*
X204300000Y-181886569D01*
X204300000Y-181700001D01*
X204299999Y-181700000D01*
X203700001Y-181700000D01*
X203700000Y-181700001D01*
X203587315Y-181700001D01*
X203600000Y-181652661D01*
X203600000Y-180747339D01*
X203587315Y-180699999D01*
X203700000Y-180699999D01*
X203700001Y-180700000D01*
X204299999Y-180700000D01*
X204300000Y-180699999D01*
X204300000Y-180513430D01*
X204299999Y-180513418D01*
X204272914Y-180342416D01*
X204272914Y-180342415D01*
X204219413Y-180177754D01*
X204219407Y-180177741D01*
X204140808Y-180023483D01*
X204140804Y-180023476D01*
X204039031Y-179883396D01*
X203916603Y-179760968D01*
X203776523Y-179659195D01*
X203776516Y-179659190D01*
X203700000Y-179620203D01*
X203700000Y-180699999D01*
X203587315Y-180699999D01*
X203572741Y-180645606D01*
X203520080Y-180554394D01*
X203445606Y-180479920D01*
X203354394Y-180427259D01*
X203252661Y-180400000D01*
X203147339Y-180400000D01*
X203045606Y-180427259D01*
X202954394Y-180479920D01*
X202879920Y-180554394D01*
X202827259Y-180645606D01*
X202800000Y-180747339D01*
X202700000Y-180747339D01*
X202700000Y-179620204D01*
X202699999Y-179620203D01*
X202623483Y-179659190D01*
X202623476Y-179659195D01*
X202483396Y-179760968D01*
X202360968Y-179883396D01*
X202259195Y-180023476D01*
X202259193Y-180023479D01*
X202218692Y-180102967D01*
X202158543Y-180179264D01*
X202073776Y-180226736D01*
X201977294Y-180238154D01*
X201883787Y-180211782D01*
X201807490Y-180151633D01*
X201799287Y-180141504D01*
X201721934Y-180040695D01*
X201559305Y-179878066D01*
X201559302Y-179878064D01*
X201559298Y-179878060D01*
X201376840Y-179738056D01*
X201376830Y-179738050D01*
X201177666Y-179623062D01*
X201177655Y-179623057D01*
X200965182Y-179535048D01*
X200965179Y-179535047D01*
X200965177Y-179535046D01*
X200965176Y-179535046D01*
X200743020Y-179475520D01*
X200743017Y-179475519D01*
X200743016Y-179475519D01*
X200514996Y-179445500D01*
X200285004Y-179445500D01*
X200056984Y-179475519D01*
X199834820Y-179535047D01*
X199834817Y-179535048D01*
X199622344Y-179623057D01*
X199622333Y-179623062D01*
X199423169Y-179738050D01*
X199423159Y-179738056D01*
X199240701Y-179878060D01*
X199240691Y-179878069D01*
X199076070Y-180042691D01*
X198995288Y-180096667D01*
X198900000Y-180115621D01*
X198804712Y-180096667D01*
X198723930Y-180042691D01*
X198559308Y-179878069D01*
X198559298Y-179878060D01*
X198376840Y-179738056D01*
X198376830Y-179738050D01*
X198177666Y-179623062D01*
X198177655Y-179623057D01*
X197965182Y-179535048D01*
X197965179Y-179535047D01*
X197965177Y-179535046D01*
X197965176Y-179535046D01*
X197743020Y-179475520D01*
X197743017Y-179475519D01*
X197743016Y-179475519D01*
X197514996Y-179445500D01*
X197285004Y-179445500D01*
X197056984Y-179475519D01*
X196834820Y-179535047D01*
X196834817Y-179535048D01*
X196622344Y-179623057D01*
X196622333Y-179623062D01*
X196423169Y-179738050D01*
X196423164Y-179738053D01*
X196423160Y-179738056D01*
X196273263Y-179853076D01*
X196186127Y-179896046D01*
X196089180Y-179902400D01*
X195997181Y-179871170D01*
X195928703Y-179812883D01*
X195911647Y-179791966D01*
X195865109Y-179734891D01*
X195707407Y-179606302D01*
X195707402Y-179606299D01*
X195527053Y-179512093D01*
X195527052Y-179512092D01*
X195527049Y-179512091D01*
X195331418Y-179456114D01*
X195212037Y-179445500D01*
X195212035Y-179445500D01*
X193587968Y-179445500D01*
X193587956Y-179445501D01*
X193468585Y-179456113D01*
X193272954Y-179512090D01*
X193272946Y-179512093D01*
X193092597Y-179606299D01*
X193092592Y-179606302D01*
X192934893Y-179734889D01*
X192934883Y-179734899D01*
X192819306Y-179876643D01*
X192744400Y-179938515D01*
X192651518Y-179967012D01*
X192554801Y-179957795D01*
X192468974Y-179912267D01*
X192446230Y-179890036D01*
X192445951Y-179890316D01*
X192316603Y-179760968D01*
X192176523Y-179659195D01*
X192176516Y-179659190D01*
X192100000Y-179620203D01*
X191099999Y-179620203D01*
X191023483Y-179659190D01*
X191023476Y-179659195D01*
X190883396Y-179760968D01*
X190760968Y-179883396D01*
X190659195Y-180023476D01*
X190659191Y-180023483D01*
X190580592Y-180177741D01*
X190580586Y-180177754D01*
X190527085Y-180342415D01*
X190527085Y-180342416D01*
X190500000Y-180513418D01*
X186100500Y-180513418D01*
X186100500Y-175091963D01*
X192749500Y-175091963D01*
X192749500Y-176908031D01*
X192749501Y-176908043D01*
X192760113Y-177027414D01*
X192760113Y-177027417D01*
X192760114Y-177027418D01*
X192816091Y-177223049D01*
X192910302Y-177403407D01*
X193038891Y-177561109D01*
X193196593Y-177689698D01*
X193376951Y-177783909D01*
X193572582Y-177839886D01*
X193691963Y-177850500D01*
X195508036Y-177850499D01*
X195627418Y-177839886D01*
X195823049Y-177783909D01*
X196003407Y-177689698D01*
X196161109Y-177561109D01*
X196289698Y-177403407D01*
X196383909Y-177223049D01*
X196439886Y-177027418D01*
X196450500Y-176908037D01*
X196450499Y-175091964D01*
X196439886Y-174972582D01*
X196383909Y-174776951D01*
X196289698Y-174596593D01*
X196288581Y-174595223D01*
X196288580Y-174595221D01*
X196288577Y-174595218D01*
X196168241Y-174447638D01*
X203649500Y-174447638D01*
X203649500Y-174652361D01*
X203681522Y-174854531D01*
X203744778Y-175049214D01*
X203744782Y-175049224D01*
X203837711Y-175231607D01*
X203837713Y-175231610D01*
X203958034Y-175397219D01*
X204102781Y-175541966D01*
X204268390Y-175662287D01*
X204450781Y-175755220D01*
X204645466Y-175818477D01*
X204716575Y-175829739D01*
X204847638Y-175850499D01*
X204847645Y-175850499D01*
X204847648Y-175850500D01*
X204847651Y-175850500D01*
X205052349Y-175850500D01*
X205052352Y-175850500D01*
X205052355Y-175850499D01*
X205052361Y-175850499D01*
X205147870Y-175835371D01*
X205254534Y-175818477D01*
X205449219Y-175755220D01*
X205503350Y-175727639D01*
X205596857Y-175701268D01*
X205616393Y-175700500D01*
X207970307Y-175700500D01*
X208065595Y-175719454D01*
X208146377Y-175773430D01*
X211515263Y-179142315D01*
X211569239Y-179223097D01*
X211576006Y-179241439D01*
X211594779Y-179299217D01*
X211594782Y-179299224D01*
X211684609Y-179475519D01*
X211687713Y-179481610D01*
X211808034Y-179647219D01*
X211952781Y-179791966D01*
X212118390Y-179912287D01*
X212300781Y-180005220D01*
X212495466Y-180068477D01*
X212566575Y-180079739D01*
X212697638Y-180100499D01*
X212697645Y-180100499D01*
X212697648Y-180100500D01*
X212697651Y-180100500D01*
X212902349Y-180100500D01*
X212902352Y-180100500D01*
X212902355Y-180100499D01*
X212902361Y-180100499D01*
X212997870Y-180085371D01*
X213104534Y-180068477D01*
X213299219Y-180005220D01*
X213481610Y-179912287D01*
X213647219Y-179791966D01*
X213791966Y-179647219D01*
X213912287Y-179481610D01*
X214005220Y-179299219D01*
X214068477Y-179104534D01*
X214100500Y-178902352D01*
X214100500Y-178697648D01*
X214100499Y-178697645D01*
X214100499Y-178697638D01*
X214068477Y-178495468D01*
X214068477Y-178495466D01*
X214005220Y-178300781D01*
X213912287Y-178118390D01*
X213791966Y-177952781D01*
X213647219Y-177808034D01*
X213481610Y-177687713D01*
X213481609Y-177687712D01*
X213481607Y-177687711D01*
X213299224Y-177594782D01*
X213299217Y-177594779D01*
X213241439Y-177576006D01*
X213156672Y-177528534D01*
X213142315Y-177515263D01*
X211289340Y-175662288D01*
X209427555Y-173800502D01*
X209427553Y-173800499D01*
X209299501Y-173672447D01*
X209152994Y-173566004D01*
X209152991Y-173566002D01*
X209152985Y-173565999D01*
X208991649Y-173483794D01*
X208991647Y-173483793D01*
X208991639Y-173483789D01*
X208991632Y-173483786D01*
X208991628Y-173483785D01*
X208819417Y-173427831D01*
X208819411Y-173427829D01*
X208819409Y-173427829D01*
X208819403Y-173427828D01*
X208819397Y-173427827D01*
X208819363Y-173427821D01*
X208640553Y-173399499D01*
X208640546Y-173399499D01*
X208459454Y-173399499D01*
X208449180Y-173399499D01*
X208449156Y-173399500D01*
X205616393Y-173399500D01*
X205521105Y-173380546D01*
X205503350Y-173372361D01*
X205449219Y-173344780D01*
X205449214Y-173344778D01*
X205254531Y-173281522D01*
X205052361Y-173249500D01*
X205052352Y-173249500D01*
X204847648Y-173249500D01*
X204847638Y-173249500D01*
X204645468Y-173281522D01*
X204450785Y-173344778D01*
X204450775Y-173344782D01*
X204268392Y-173437711D01*
X204102779Y-173558035D01*
X203958035Y-173702779D01*
X203837711Y-173868392D01*
X203744782Y-174050775D01*
X203744778Y-174050785D01*
X203681522Y-174245468D01*
X203649500Y-174447638D01*
X196168241Y-174447638D01*
X196161114Y-174438897D01*
X196161113Y-174438896D01*
X196161109Y-174438891D01*
X196003407Y-174310302D01*
X196003402Y-174310299D01*
X195823053Y-174216093D01*
X195823052Y-174216092D01*
X195823049Y-174216091D01*
X195627418Y-174160114D01*
X195508037Y-174149500D01*
X195508035Y-174149500D01*
X193691968Y-174149500D01*
X193691956Y-174149501D01*
X193572585Y-174160113D01*
X193376954Y-174216090D01*
X193376946Y-174216093D01*
X193196597Y-174310299D01*
X193196592Y-174310302D01*
X193038893Y-174438889D01*
X193038889Y-174438893D01*
X192910302Y-174596592D01*
X192910299Y-174596597D01*
X192816093Y-174776946D01*
X192816090Y-174776954D01*
X192760115Y-174972578D01*
X192760114Y-174972582D01*
X192749500Y-175091963D01*
X186100500Y-175091963D01*
X186100500Y-170574005D01*
X187444500Y-170574005D01*
X187444500Y-171225967D01*
X187444567Y-171237589D01*
X187444567Y-171237592D01*
X187467481Y-171439745D01*
X187478685Y-171491246D01*
X187478693Y-171491279D01*
X187503214Y-171582931D01*
X187503218Y-171582945D01*
X187584306Y-171769523D01*
X187584307Y-171769526D01*
X187701300Y-171935975D01*
X187701305Y-171935980D01*
X187747055Y-171988778D01*
X187866168Y-172105179D01*
X188035264Y-172218308D01*
X188223671Y-172295083D01*
X188290710Y-172314768D01*
X188361964Y-172332518D01*
X188371598Y-172334918D01*
X188573331Y-172355432D01*
X188574000Y-172355500D01*
X188574006Y-172355500D01*
X192075967Y-172355500D01*
X192076000Y-172355500D01*
X192087588Y-172355433D01*
X192289743Y-172332519D01*
X192341254Y-172321313D01*
X192432938Y-172296784D01*
X192619527Y-172215692D01*
X192785974Y-172098700D01*
X192838778Y-172052945D01*
X192955179Y-171933832D01*
X193068308Y-171764736D01*
X193145083Y-171576329D01*
X193164768Y-171509290D01*
X193184917Y-171428406D01*
X193205500Y-171226000D01*
X193205500Y-171090009D01*
X193205075Y-171072705D01*
X193205000Y-171066592D01*
X193205000Y-170933413D01*
X193205075Y-170927302D01*
X193205500Y-170909990D01*
X193205500Y-170304500D01*
X193224454Y-170209212D01*
X193278430Y-170128430D01*
X193359212Y-170074454D01*
X193454500Y-170055500D01*
X194125967Y-170055500D01*
X194126000Y-170055500D01*
X194137588Y-170055433D01*
X194339743Y-170032519D01*
X194391254Y-170021313D01*
X194482938Y-169996784D01*
X194669527Y-169915692D01*
X194835974Y-169798700D01*
X194888778Y-169752945D01*
X195005179Y-169633832D01*
X195118308Y-169464736D01*
X195195083Y-169276329D01*
X195214768Y-169209290D01*
X195234917Y-169128406D01*
X195234918Y-169128401D01*
X195240419Y-169074309D01*
X195268916Y-168981427D01*
X195330788Y-168906521D01*
X195416616Y-168860994D01*
X195488141Y-168850500D01*
X195721288Y-168850500D01*
X195961789Y-168818838D01*
X196123275Y-168775567D01*
X196196082Y-168756059D01*
X196196084Y-168756058D01*
X196196100Y-168756054D01*
X196347766Y-168693231D01*
X196420201Y-168663229D01*
X196420206Y-168663226D01*
X196420212Y-168663224D01*
X196630289Y-168541936D01*
X196718423Y-168474308D01*
X196805554Y-168431341D01*
X196902501Y-168424986D01*
X196994500Y-168456216D01*
X197021568Y-168474301D01*
X197109711Y-168541936D01*
X197109718Y-168541940D01*
X197109720Y-168541941D01*
X197319782Y-168663221D01*
X197319798Y-168663229D01*
X197459858Y-168721242D01*
X197543900Y-168756054D01*
X197543911Y-168756057D01*
X197543917Y-168756059D01*
X197696383Y-168796912D01*
X197778211Y-168818838D01*
X198018712Y-168850500D01*
X198261288Y-168850500D01*
X198501789Y-168818838D01*
X198663275Y-168775567D01*
X198736082Y-168756059D01*
X198736084Y-168756058D01*
X198736100Y-168756054D01*
X198887766Y-168693231D01*
X198960201Y-168663229D01*
X198960206Y-168663226D01*
X198960212Y-168663224D01*
X199170289Y-168541936D01*
X199362738Y-168394265D01*
X199534265Y-168222738D01*
X199577003Y-168167039D01*
X199650045Y-168102983D01*
X199742043Y-168071753D01*
X199838990Y-168078106D01*
X199920906Y-168117177D01*
X199972446Y-168154624D01*
X200161769Y-168251088D01*
X200161783Y-168251095D01*
X200180000Y-168257013D01*
X200180000Y-167249000D01*
X200198954Y-167153712D01*
X200202234Y-167148802D01*
X200214075Y-167192993D01*
X200279901Y-167307007D01*
X200372993Y-167400099D01*
X200487007Y-167465925D01*
X200614174Y-167500000D01*
X200745826Y-167500000D01*
X200872993Y-167465925D01*
X200987007Y-167400099D01*
X201080099Y-167307007D01*
X201145925Y-167192993D01*
X201157765Y-167148802D01*
X201161046Y-167153712D01*
X201180000Y-167249000D01*
X201180000Y-168257013D01*
X201198216Y-168251095D01*
X201198230Y-168251088D01*
X201387554Y-168154623D01*
X201387555Y-168154622D01*
X201439091Y-168117179D01*
X201527321Y-168076503D01*
X201624401Y-168072687D01*
X201715551Y-168106313D01*
X201782997Y-168167041D01*
X201825735Y-168222738D01*
X201825738Y-168222741D01*
X201997258Y-168394261D01*
X201997268Y-168394270D01*
X202037298Y-168424986D01*
X202189711Y-168541936D01*
X202189718Y-168541940D01*
X202189720Y-168541941D01*
X202399782Y-168663221D01*
X202399798Y-168663229D01*
X202539858Y-168721242D01*
X202623900Y-168756054D01*
X202623911Y-168756057D01*
X202623917Y-168756059D01*
X202776383Y-168796912D01*
X202858211Y-168818838D01*
X203098712Y-168850500D01*
X203341288Y-168850500D01*
X203581789Y-168818838D01*
X203743275Y-168775567D01*
X203816082Y-168756059D01*
X203816084Y-168756058D01*
X203816100Y-168756054D01*
X203967766Y-168693231D01*
X204040201Y-168663229D01*
X204040206Y-168663226D01*
X204040212Y-168663224D01*
X204250289Y-168541936D01*
X204442738Y-168394265D01*
X204614265Y-168222738D01*
X204657003Y-168167039D01*
X204730045Y-168102983D01*
X204822043Y-168071753D01*
X204918990Y-168078106D01*
X205000906Y-168117177D01*
X205052446Y-168154624D01*
X205241769Y-168251088D01*
X205241783Y-168251095D01*
X205260000Y-168257013D01*
X205260000Y-167065826D01*
X205294075Y-167192993D01*
X205359901Y-167307007D01*
X205452993Y-167400099D01*
X205567007Y-167465925D01*
X205694174Y-167500000D01*
X205825826Y-167500000D01*
X205952993Y-167465925D01*
X206067007Y-167400099D01*
X206160099Y-167307007D01*
X206225925Y-167192993D01*
X206260000Y-167065826D01*
X206260000Y-168257013D01*
X206278216Y-168251095D01*
X206278230Y-168251088D01*
X206467554Y-168154623D01*
X206467555Y-168154622D01*
X206519091Y-168117179D01*
X206607321Y-168076503D01*
X206704401Y-168072687D01*
X206795551Y-168106313D01*
X206862997Y-168167041D01*
X206905735Y-168222738D01*
X206905738Y-168222741D01*
X207077258Y-168394261D01*
X207077268Y-168394270D01*
X207117298Y-168424986D01*
X207269711Y-168541936D01*
X207269718Y-168541940D01*
X207269720Y-168541941D01*
X207479782Y-168663221D01*
X207479798Y-168663229D01*
X207619858Y-168721242D01*
X207703900Y-168756054D01*
X207703911Y-168756057D01*
X207703917Y-168756059D01*
X207856383Y-168796912D01*
X207938211Y-168818838D01*
X208178712Y-168850500D01*
X208421288Y-168850500D01*
X208661789Y-168818838D01*
X208823275Y-168775567D01*
X208896082Y-168756059D01*
X208896084Y-168756058D01*
X208896100Y-168756054D01*
X209047766Y-168693231D01*
X209120201Y-168663229D01*
X209120206Y-168663226D01*
X209120212Y-168663224D01*
X209330289Y-168541936D01*
X209418423Y-168474308D01*
X209505554Y-168431341D01*
X209602501Y-168424986D01*
X209694500Y-168456216D01*
X209721568Y-168474301D01*
X209809711Y-168541936D01*
X209809718Y-168541940D01*
X209809720Y-168541941D01*
X210019782Y-168663221D01*
X210019798Y-168663229D01*
X210159858Y-168721242D01*
X210243900Y-168756054D01*
X210243911Y-168756057D01*
X210243917Y-168756059D01*
X210396383Y-168796912D01*
X210478211Y-168818838D01*
X210718712Y-168850500D01*
X210961288Y-168850500D01*
X211201789Y-168818838D01*
X211363275Y-168775567D01*
X211436082Y-168756059D01*
X211436084Y-168756058D01*
X211436100Y-168756054D01*
X211587766Y-168693231D01*
X211660201Y-168663229D01*
X211660206Y-168663226D01*
X211660212Y-168663224D01*
X211870289Y-168541936D01*
X211958423Y-168474308D01*
X212045554Y-168431341D01*
X212142501Y-168424986D01*
X212234500Y-168456216D01*
X212261568Y-168474301D01*
X212349711Y-168541936D01*
X212349718Y-168541940D01*
X212349720Y-168541941D01*
X212559782Y-168663221D01*
X212559798Y-168663229D01*
X212699858Y-168721242D01*
X212783900Y-168756054D01*
X212783911Y-168756057D01*
X212783917Y-168756059D01*
X212936383Y-168796912D01*
X213018211Y-168818838D01*
X213258712Y-168850500D01*
X213501288Y-168850500D01*
X213741789Y-168818838D01*
X213903275Y-168775567D01*
X213976082Y-168756059D01*
X213976084Y-168756058D01*
X213976100Y-168756054D01*
X214127766Y-168693231D01*
X214200201Y-168663229D01*
X214200206Y-168663226D01*
X214200212Y-168663224D01*
X214410289Y-168541936D01*
X214602738Y-168394265D01*
X214774265Y-168222738D01*
X214817003Y-168167039D01*
X214890045Y-168102983D01*
X214982043Y-168071753D01*
X215078990Y-168078106D01*
X215160906Y-168117177D01*
X215212446Y-168154624D01*
X215401769Y-168251088D01*
X215401783Y-168251095D01*
X215420000Y-168257013D01*
X215420000Y-167065826D01*
X215454075Y-167192993D01*
X215519901Y-167307007D01*
X215612993Y-167400099D01*
X215727007Y-167465925D01*
X215854174Y-167500000D01*
X215985826Y-167500000D01*
X216112993Y-167465925D01*
X216227007Y-167400099D01*
X216320099Y-167307007D01*
X216385925Y-167192993D01*
X216420000Y-167065826D01*
X216420000Y-168257013D01*
X216438216Y-168251095D01*
X216438230Y-168251088D01*
X216627554Y-168154623D01*
X216627555Y-168154622D01*
X216679091Y-168117179D01*
X216767321Y-168076503D01*
X216864401Y-168072687D01*
X216955551Y-168106313D01*
X217022997Y-168167041D01*
X217065735Y-168222738D01*
X217065738Y-168222741D01*
X217237258Y-168394261D01*
X217237268Y-168394270D01*
X217277298Y-168424986D01*
X217429711Y-168541936D01*
X217429718Y-168541940D01*
X217429720Y-168541941D01*
X217639782Y-168663221D01*
X217639798Y-168663229D01*
X217779858Y-168721242D01*
X217863900Y-168756054D01*
X217863911Y-168756057D01*
X217863917Y-168756059D01*
X218016383Y-168796912D01*
X218098211Y-168818838D01*
X218098220Y-168818839D01*
X218106209Y-168820429D01*
X218105802Y-168822474D01*
X218185111Y-168849399D01*
X218258155Y-168913459D01*
X218301123Y-169000596D01*
X218307475Y-169097543D01*
X218276243Y-169189541D01*
X218246265Y-169228611D01*
X218246871Y-169229105D01*
X218238892Y-169238889D01*
X218238891Y-169238891D01*
X218208359Y-169276336D01*
X218110302Y-169396592D01*
X218110299Y-169396597D01*
X218016093Y-169576946D01*
X218016090Y-169576954D01*
X217960115Y-169772578D01*
X217960114Y-169772582D01*
X217949500Y-169891963D01*
X217949500Y-171708031D01*
X217949501Y-171708043D01*
X217960113Y-171827414D01*
X217960113Y-171827417D01*
X217960114Y-171827418D01*
X217991178Y-171935980D01*
X218016090Y-172023045D01*
X218016093Y-172023053D01*
X218055604Y-172098694D01*
X218110302Y-172203407D01*
X218238891Y-172361109D01*
X218396593Y-172489698D01*
X218576951Y-172583909D01*
X218772582Y-172639886D01*
X218891963Y-172650500D01*
X220708036Y-172650499D01*
X220827418Y-172639886D01*
X221023049Y-172583909D01*
X221203407Y-172489698D01*
X221361109Y-172361109D01*
X221489698Y-172203407D01*
X221583909Y-172023049D01*
X221639886Y-171827418D01*
X221650500Y-171708037D01*
X221650499Y-169891964D01*
X221639886Y-169772582D01*
X221583909Y-169576951D01*
X221489698Y-169396593D01*
X221361109Y-169238891D01*
X221350702Y-169230405D01*
X221288831Y-169155498D01*
X221260335Y-169062616D01*
X221269553Y-168965899D01*
X221315081Y-168880072D01*
X221389988Y-168818201D01*
X221443604Y-168796915D01*
X221596100Y-168756054D01*
X221747766Y-168693231D01*
X221820201Y-168663229D01*
X221820206Y-168663226D01*
X221820212Y-168663224D01*
X222030289Y-168541936D01*
X222222738Y-168394265D01*
X222394265Y-168222738D01*
X222437003Y-168167039D01*
X222510045Y-168102983D01*
X222602043Y-168071753D01*
X222698990Y-168078106D01*
X222780906Y-168117177D01*
X222832446Y-168154624D01*
X223021769Y-168251088D01*
X223021783Y-168251095D01*
X223040000Y-168257013D01*
X223040000Y-167500001D01*
X224040000Y-167500001D01*
X224040000Y-168257013D01*
X224058216Y-168251095D01*
X224058230Y-168251088D01*
X224247553Y-168154623D01*
X224419462Y-168029724D01*
X224569724Y-167879462D01*
X224694623Y-167707553D01*
X224791088Y-167518230D01*
X224791095Y-167518216D01*
X224797014Y-167500000D01*
X224040001Y-167500000D01*
X224040000Y-167500001D01*
X223040000Y-167500001D01*
X223040000Y-167065826D01*
X223074075Y-167192993D01*
X223139901Y-167307007D01*
X223232993Y-167400099D01*
X223347007Y-167465925D01*
X223474174Y-167500000D01*
X223605826Y-167500000D01*
X223732993Y-167465925D01*
X223847007Y-167400099D01*
X223940099Y-167307007D01*
X224005925Y-167192993D01*
X224040000Y-167065826D01*
X224040000Y-166934174D01*
X224005925Y-166807007D01*
X223940099Y-166692993D01*
X223847007Y-166599901D01*
X223732993Y-166534075D01*
X223605826Y-166500000D01*
X223474174Y-166500000D01*
X223347007Y-166534075D01*
X223232993Y-166599901D01*
X223139901Y-166692993D01*
X223074075Y-166807007D01*
X223040000Y-166934174D01*
X223040000Y-166499999D01*
X224040000Y-166499999D01*
X224040001Y-166500000D01*
X224797013Y-166500000D01*
X224791095Y-166481783D01*
X224791088Y-166481769D01*
X224694623Y-166292446D01*
X224569724Y-166120537D01*
X224419462Y-165970275D01*
X224247553Y-165845376D01*
X224058231Y-165748911D01*
X224058208Y-165748901D01*
X224040000Y-165742984D01*
X224040000Y-166499999D01*
X223040000Y-166499999D01*
X223040000Y-165742984D01*
X223021791Y-165748901D01*
X223021768Y-165748911D01*
X222832445Y-165845376D01*
X222832443Y-165845377D01*
X222780904Y-165882823D01*
X222692673Y-165923497D01*
X222595593Y-165927311D01*
X222504443Y-165893684D01*
X222437004Y-165832960D01*
X222394265Y-165777262D01*
X222222738Y-165605735D01*
X222222734Y-165605732D01*
X222222731Y-165605729D01*
X222030289Y-165458064D01*
X222030279Y-165458058D01*
X221820217Y-165336778D01*
X221820201Y-165336770D01*
X221596105Y-165243948D01*
X221596103Y-165243947D01*
X221596100Y-165243946D01*
X221596096Y-165243945D01*
X221596082Y-165243940D01*
X221361795Y-165181163D01*
X221361790Y-165181162D01*
X221121288Y-165149500D01*
X220878712Y-165149500D01*
X220638209Y-165181162D01*
X220638204Y-165181163D01*
X220403917Y-165243940D01*
X220403894Y-165243948D01*
X220179798Y-165336770D01*
X220179782Y-165336778D01*
X219969720Y-165458058D01*
X219969715Y-165458061D01*
X219969711Y-165458064D01*
X219881578Y-165525690D01*
X219794445Y-165568659D01*
X219697498Y-165575013D01*
X219605499Y-165543783D01*
X219578425Y-165525693D01*
X219490289Y-165458064D01*
X219481177Y-165452803D01*
X219280217Y-165336778D01*
X219280201Y-165336770D01*
X219056105Y-165243948D01*
X219056103Y-165243947D01*
X219056100Y-165243946D01*
X219056096Y-165243945D01*
X219056082Y-165243940D01*
X218821795Y-165181163D01*
X218821790Y-165181162D01*
X218581288Y-165149500D01*
X218338712Y-165149500D01*
X218098209Y-165181162D01*
X218098204Y-165181163D01*
X217863917Y-165243940D01*
X217863894Y-165243948D01*
X217639798Y-165336770D01*
X217639782Y-165336778D01*
X217429720Y-165458058D01*
X217429710Y-165458064D01*
X217237268Y-165605729D01*
X217237258Y-165605738D01*
X217065732Y-165777264D01*
X217022996Y-165832960D01*
X216949951Y-165897018D01*
X216857951Y-165928247D01*
X216761004Y-165921892D01*
X216679093Y-165882822D01*
X216627553Y-165845376D01*
X216438231Y-165748911D01*
X216438208Y-165748901D01*
X216420000Y-165742984D01*
X216420000Y-166934174D01*
X216385925Y-166807007D01*
X216320099Y-166692993D01*
X216227007Y-166599901D01*
X216112993Y-166534075D01*
X215985826Y-166500000D01*
X215854174Y-166500000D01*
X215727007Y-166534075D01*
X215612993Y-166599901D01*
X215519901Y-166692993D01*
X215454075Y-166807007D01*
X215420000Y-166934174D01*
X215420000Y-165742984D01*
X215419999Y-165742984D01*
X215401791Y-165748901D01*
X215401768Y-165748911D01*
X215212445Y-165845376D01*
X215212443Y-165845377D01*
X215160904Y-165882823D01*
X215072673Y-165923497D01*
X214975593Y-165927311D01*
X214884443Y-165893684D01*
X214817004Y-165832960D01*
X214774265Y-165777262D01*
X214602738Y-165605735D01*
X214602734Y-165605732D01*
X214602731Y-165605729D01*
X214410289Y-165458064D01*
X214410279Y-165458058D01*
X214200217Y-165336778D01*
X214200201Y-165336770D01*
X213976105Y-165243948D01*
X213976103Y-165243947D01*
X213976100Y-165243946D01*
X213976096Y-165243945D01*
X213976082Y-165243940D01*
X213741795Y-165181163D01*
X213741790Y-165181162D01*
X213501288Y-165149500D01*
X213258712Y-165149500D01*
X213018209Y-165181162D01*
X213018204Y-165181163D01*
X212783917Y-165243940D01*
X212783894Y-165243948D01*
X212559798Y-165336770D01*
X212559782Y-165336778D01*
X212349720Y-165458058D01*
X212349715Y-165458061D01*
X212349711Y-165458064D01*
X212261578Y-165525690D01*
X212174445Y-165568659D01*
X212077498Y-165575013D01*
X211985499Y-165543783D01*
X211958425Y-165525693D01*
X211870289Y-165458064D01*
X211861177Y-165452803D01*
X211660217Y-165336778D01*
X211660201Y-165336770D01*
X211436105Y-165243948D01*
X211436103Y-165243947D01*
X211436100Y-165243946D01*
X211436096Y-165243945D01*
X211436082Y-165243940D01*
X211201795Y-165181163D01*
X211201790Y-165181162D01*
X210961288Y-165149500D01*
X210718712Y-165149500D01*
X210478209Y-165181162D01*
X210478204Y-165181163D01*
X210243917Y-165243940D01*
X210243894Y-165243948D01*
X210019798Y-165336770D01*
X210019782Y-165336778D01*
X209809720Y-165458058D01*
X209809715Y-165458061D01*
X209809711Y-165458064D01*
X209721578Y-165525690D01*
X209634445Y-165568659D01*
X209537498Y-165575013D01*
X209445499Y-165543783D01*
X209418425Y-165525693D01*
X209330289Y-165458064D01*
X209321177Y-165452803D01*
X209120217Y-165336778D01*
X209120201Y-165336770D01*
X208896105Y-165243948D01*
X208896103Y-165243947D01*
X208896100Y-165243946D01*
X208896096Y-165243945D01*
X208896082Y-165243940D01*
X208661795Y-165181163D01*
X208661790Y-165181162D01*
X208421288Y-165149500D01*
X208178712Y-165149500D01*
X207938209Y-165181162D01*
X207938204Y-165181163D01*
X207703917Y-165243940D01*
X207703894Y-165243948D01*
X207479798Y-165336770D01*
X207479782Y-165336778D01*
X207269720Y-165458058D01*
X207269710Y-165458064D01*
X207077268Y-165605729D01*
X207077258Y-165605738D01*
X206905732Y-165777264D01*
X206862996Y-165832960D01*
X206789951Y-165897018D01*
X206697951Y-165928247D01*
X206601004Y-165921892D01*
X206519093Y-165882822D01*
X206467553Y-165845376D01*
X206278231Y-165748911D01*
X206278208Y-165748901D01*
X206260000Y-165742984D01*
X206260000Y-166934174D01*
X206225925Y-166807007D01*
X206160099Y-166692993D01*
X206067007Y-166599901D01*
X205952993Y-166534075D01*
X205825826Y-166500000D01*
X205694174Y-166500000D01*
X205567007Y-166534075D01*
X205452993Y-166599901D01*
X205359901Y-166692993D01*
X205294075Y-166807007D01*
X205260000Y-166934174D01*
X205260000Y-165742984D01*
X205259999Y-165742984D01*
X205241791Y-165748901D01*
X205241768Y-165748911D01*
X205052445Y-165845376D01*
X205052443Y-165845377D01*
X205000904Y-165882823D01*
X204912673Y-165923497D01*
X204815593Y-165927311D01*
X204724443Y-165893684D01*
X204657004Y-165832960D01*
X204614265Y-165777262D01*
X204442738Y-165605735D01*
X204442734Y-165605732D01*
X204442731Y-165605729D01*
X204250289Y-165458064D01*
X204250279Y-165458058D01*
X204040217Y-165336778D01*
X204040201Y-165336770D01*
X203816105Y-165243948D01*
X203816103Y-165243947D01*
X203816100Y-165243946D01*
X203816096Y-165243945D01*
X203816082Y-165243940D01*
X203581795Y-165181163D01*
X203581790Y-165181162D01*
X203341288Y-165149500D01*
X203098712Y-165149500D01*
X202858209Y-165181162D01*
X202858204Y-165181163D01*
X202623917Y-165243940D01*
X202623894Y-165243948D01*
X202399798Y-165336770D01*
X202399782Y-165336778D01*
X202189720Y-165458058D01*
X202189710Y-165458064D01*
X201997268Y-165605729D01*
X201997258Y-165605738D01*
X201825732Y-165777264D01*
X201782996Y-165832960D01*
X201755756Y-165856848D01*
X201731065Y-165883362D01*
X201719505Y-165888639D01*
X201709951Y-165897018D01*
X201675640Y-165908664D01*
X201642684Y-165923710D01*
X201629985Y-165924162D01*
X201617951Y-165928247D01*
X201581798Y-165925877D01*
X201545591Y-165927166D01*
X201535152Y-165922819D01*
X201521004Y-165921892D01*
X201454566Y-165893202D01*
X201319607Y-165809811D01*
X201291413Y-165783555D01*
X201261150Y-165759697D01*
X201256088Y-165750658D01*
X201248508Y-165743599D01*
X201232508Y-165708551D01*
X201213679Y-165674929D01*
X201212461Y-165664640D01*
X201208160Y-165655218D01*
X201206789Y-165616711D01*
X201202261Y-165578447D01*
X201205072Y-165568478D01*
X201204704Y-165558125D01*
X201218173Y-165522026D01*
X201228633Y-165484940D01*
X201235578Y-165475380D01*
X201238668Y-165467100D01*
X201251981Y-165452803D01*
X201274417Y-165421923D01*
X217694912Y-149001430D01*
X217775694Y-148947454D01*
X217870982Y-148928500D01*
X228178607Y-148928500D01*
X228178611Y-148928500D01*
X228349701Y-148901402D01*
X228514445Y-148847873D01*
X228668788Y-148769232D01*
X228808928Y-148667414D01*
X232917071Y-144559270D01*
X232997847Y-144505299D01*
X233093135Y-144486345D01*
X233188423Y-144505299D01*
X233269205Y-144559275D01*
X233304930Y-144604410D01*
X233315495Y-144621500D01*
X233325541Y-144645752D01*
X233447649Y-144857248D01*
X233517580Y-144948384D01*
X233524183Y-144959065D01*
X233536868Y-144993038D01*
X233552904Y-145025556D01*
X233553732Y-145038204D01*
X233558168Y-145050082D01*
X233556886Y-145086318D01*
X233559258Y-145122503D01*
X233555182Y-145134509D01*
X233554734Y-145147177D01*
X233539684Y-145180161D01*
X233528027Y-145214502D01*
X233515382Y-145233425D01*
X233514406Y-145235566D01*
X233513204Y-145236685D01*
X233509934Y-145241580D01*
X233447649Y-145322752D01*
X233325540Y-145534249D01*
X233325538Y-145534253D01*
X233232083Y-145759874D01*
X233168876Y-145995770D01*
X233137000Y-146237893D01*
X233137000Y-146482106D01*
X233168876Y-146724229D01*
X233232083Y-146960125D01*
X233325538Y-147185746D01*
X233325540Y-147185750D01*
X233325541Y-147185752D01*
X233447649Y-147397248D01*
X233596317Y-147590997D01*
X233769003Y-147763683D01*
X233962752Y-147912351D01*
X234174248Y-148034459D01*
X234399873Y-148127916D01*
X234635767Y-148191123D01*
X234877893Y-148223000D01*
X235122107Y-148223000D01*
X235364233Y-148191123D01*
X235600127Y-148127916D01*
X235825752Y-148034459D01*
X236037248Y-147912351D01*
X236118423Y-147850063D01*
X236205554Y-147807095D01*
X236302501Y-147800741D01*
X236394500Y-147831971D01*
X236421567Y-147850056D01*
X236502752Y-147912351D01*
X236714248Y-148034459D01*
X236939873Y-148127916D01*
X237175767Y-148191123D01*
X237417893Y-148223000D01*
X237662107Y-148223000D01*
X237904233Y-148191123D01*
X238140127Y-148127916D01*
X238365752Y-148034459D01*
X238577248Y-147912351D01*
X238770997Y-147763683D01*
X238943683Y-147590997D01*
X238990956Y-147529389D01*
X239063998Y-147465332D01*
X239155997Y-147434102D01*
X239252944Y-147440455D01*
X239340080Y-147483425D01*
X239404139Y-147556469D01*
X239435369Y-147648468D01*
X239437500Y-147680971D01*
X239437500Y-168859018D01*
X239418546Y-168954306D01*
X239364570Y-169035088D01*
X222008072Y-186391586D01*
X222008071Y-186391585D01*
X221885586Y-186514071D01*
X221885582Y-186514076D01*
X221783770Y-186654207D01*
X221705126Y-186808555D01*
X221692546Y-186847272D01*
X221645072Y-186932038D01*
X221568773Y-186992184D01*
X221524239Y-187009712D01*
X221501961Y-187016086D01*
X221501951Y-187016090D01*
X221321597Y-187110299D01*
X221321592Y-187110302D01*
X221163893Y-187238889D01*
X221163889Y-187238893D01*
X221035302Y-187396592D01*
X221035299Y-187396597D01*
X220941093Y-187576946D01*
X220941090Y-187576954D01*
X220885115Y-187772578D01*
X220885114Y-187772582D01*
X220874500Y-187891963D01*
X220874500Y-189708031D01*
X220874501Y-189708043D01*
X220885113Y-189827414D01*
X220885113Y-189827417D01*
X220885114Y-189827418D01*
X220900274Y-189880398D01*
X220941090Y-190023045D01*
X220941093Y-190023053D01*
X221007404Y-190150000D01*
X221035302Y-190203407D01*
X221163891Y-190361109D01*
X221321593Y-190489698D01*
X221501951Y-190583909D01*
X221697582Y-190639886D01*
X221816963Y-190650500D01*
X223633036Y-190650499D01*
X223752418Y-190639886D01*
X223948049Y-190583909D01*
X224128407Y-190489698D01*
X224286109Y-190361109D01*
X224414698Y-190203407D01*
X224433688Y-190167051D01*
X224494601Y-190091372D01*
X224579845Y-190044761D01*
X224676437Y-190034318D01*
X224737104Y-190049211D01*
X224737475Y-190048071D01*
X224948876Y-190116758D01*
X225158743Y-190149999D01*
X225158756Y-190150000D01*
X225371244Y-190150000D01*
X225371256Y-190149999D01*
X225581123Y-190116758D01*
X225783219Y-190051094D01*
X225800289Y-190042395D01*
X225087516Y-189329622D01*
X225033540Y-189248841D01*
X225032388Y-189243051D01*
X225072007Y-189265925D01*
X225199174Y-189300000D01*
X225330826Y-189300000D01*
X225457993Y-189265925D01*
X225572007Y-189200099D01*
X225665099Y-189107007D01*
X225730925Y-188992993D01*
X225765000Y-188865826D01*
X225765000Y-188800000D01*
X225972106Y-188800000D01*
X226507395Y-189335289D01*
X226516094Y-189318219D01*
X226581758Y-189116123D01*
X226614999Y-188906256D01*
X226615000Y-188906244D01*
X226615000Y-188693755D01*
X226614999Y-188693743D01*
X226581758Y-188483876D01*
X226516094Y-188281780D01*
X226507396Y-188264710D01*
X225972106Y-188800000D01*
X225765000Y-188800000D01*
X225765000Y-188734174D01*
X225730925Y-188607007D01*
X225665099Y-188492993D01*
X225572007Y-188399901D01*
X225457993Y-188334075D01*
X225330826Y-188300000D01*
X225199174Y-188300000D01*
X225072007Y-188334075D01*
X225032387Y-188356949D01*
X225033540Y-188351157D01*
X225087516Y-188270377D01*
X225800288Y-187557603D01*
X225783214Y-187548904D01*
X225581123Y-187483241D01*
X225371256Y-187450000D01*
X225158743Y-187450000D01*
X224948876Y-187483241D01*
X224737475Y-187551929D01*
X224736927Y-187550242D01*
X224716583Y-187554288D01*
X224684545Y-187564826D01*
X224669338Y-187563684D01*
X224654381Y-187566659D01*
X224621301Y-187560077D01*
X224587662Y-187557552D01*
X224574047Y-187550676D01*
X224559093Y-187547701D01*
X224531049Y-187528961D01*
X224500939Y-187513755D01*
X224491725Y-187502683D01*
X224478314Y-187493722D01*
X224437577Y-187440105D01*
X224435575Y-187436560D01*
X224414698Y-187396593D01*
X224409185Y-187389831D01*
X224398753Y-187371360D01*
X224390009Y-187344774D01*
X224376936Y-187320025D01*
X224374975Y-187299064D01*
X224368399Y-187279069D01*
X224370494Y-187251158D01*
X224367888Y-187223292D01*
X224374096Y-187203179D01*
X224375673Y-187182186D01*
X224388290Y-187157201D01*
X224396546Y-187130460D01*
X224412822Y-187108625D01*
X224419470Y-187095463D01*
X224428292Y-187087872D01*
X224439493Y-187072847D01*
X241377414Y-170134928D01*
X241479232Y-169994788D01*
X241557873Y-169840446D01*
X241611402Y-169675701D01*
X241638500Y-169504611D01*
X241638500Y-169331389D01*
X241638500Y-110911389D01*
X241620937Y-110800500D01*
X241611403Y-110740300D01*
X241557873Y-110575555D01*
X241548776Y-110557701D01*
X241479232Y-110421212D01*
X241479230Y-110421209D01*
X241479229Y-110421207D01*
X241377417Y-110281076D01*
X241377413Y-110281071D01*
X241254928Y-110158585D01*
X241254928Y-110158586D01*
X236555928Y-105459586D01*
X236555924Y-105459583D01*
X236555922Y-105459581D01*
X236415792Y-105357770D01*
X236261443Y-105279126D01*
X236261437Y-105279124D01*
X236167195Y-105248503D01*
X236096701Y-105225598D01*
X236096699Y-105225597D01*
X236096697Y-105225597D01*
X235925621Y-105198501D01*
X235925614Y-105198500D01*
X235925611Y-105198500D01*
X216687610Y-105198500D01*
X216514389Y-105198500D01*
X216514386Y-105198500D01*
X216514378Y-105198501D01*
X216343302Y-105225597D01*
X216178558Y-105279125D01*
X216178553Y-105279127D01*
X216024210Y-105357768D01*
X215884077Y-105459581D01*
X212492223Y-108851433D01*
X212411441Y-108905409D01*
X212316153Y-108924363D01*
X212220865Y-108905409D01*
X212140083Y-108851433D01*
X212114707Y-108821721D01*
X211999999Y-108663838D01*
X211991966Y-108652781D01*
X211847219Y-108508034D01*
X211681610Y-108387713D01*
X211681609Y-108387712D01*
X211681607Y-108387711D01*
X211499224Y-108294782D01*
X211499214Y-108294778D01*
X211304531Y-108231522D01*
X211102361Y-108199500D01*
X211102352Y-108199500D01*
X210897648Y-108199500D01*
X210897638Y-108199500D01*
X210695468Y-108231522D01*
X210500785Y-108294778D01*
X210500775Y-108294782D01*
X210318392Y-108387711D01*
X210301756Y-108399798D01*
X210152781Y-108508034D01*
X210152779Y-108508035D01*
X210146358Y-108512701D01*
X210058127Y-108553375D01*
X209961047Y-108557189D01*
X209869897Y-108523562D01*
X209853642Y-108512701D01*
X209847220Y-108508035D01*
X209847219Y-108508034D01*
X209681610Y-108387713D01*
X209681609Y-108387712D01*
X209681607Y-108387711D01*
X209499224Y-108294782D01*
X209499214Y-108294778D01*
X209304531Y-108231522D01*
X209102361Y-108199500D01*
X209102352Y-108199500D01*
X208897648Y-108199500D01*
X208897638Y-108199500D01*
X208695468Y-108231522D01*
X208500785Y-108294778D01*
X208500775Y-108294782D01*
X208318392Y-108387711D01*
X208152779Y-108508035D01*
X208008035Y-108652779D01*
X207887711Y-108818392D01*
X207794782Y-109000775D01*
X207794778Y-109000785D01*
X207731522Y-109195468D01*
X207699500Y-109397638D01*
X207699500Y-109602361D01*
X207731522Y-109804531D01*
X207794778Y-109999214D01*
X207794782Y-109999224D01*
X207887711Y-110181607D01*
X207887713Y-110181610D01*
X208008034Y-110347219D01*
X208152781Y-110491966D01*
X208318390Y-110612287D01*
X208500781Y-110705220D01*
X208695466Y-110768477D01*
X208766575Y-110779739D01*
X208897638Y-110800499D01*
X208897645Y-110800499D01*
X208897648Y-110800500D01*
X208897651Y-110800500D01*
X209102349Y-110800500D01*
X209102352Y-110800500D01*
X209102355Y-110800499D01*
X209102361Y-110800499D01*
X209197870Y-110785371D01*
X209304534Y-110768477D01*
X209499219Y-110705220D01*
X209681610Y-110612287D01*
X209847219Y-110491966D01*
X209847220Y-110491964D01*
X209853642Y-110487299D01*
X209941872Y-110446624D01*
X210038952Y-110442810D01*
X210130102Y-110476437D01*
X210146358Y-110487299D01*
X210152779Y-110491964D01*
X210152781Y-110491966D01*
X210318390Y-110612287D01*
X210500781Y-110705220D01*
X210695466Y-110768477D01*
X210766575Y-110779739D01*
X210897638Y-110800499D01*
X210897645Y-110800499D01*
X210897648Y-110800500D01*
X210897651Y-110800500D01*
X211102349Y-110800500D01*
X211102352Y-110800500D01*
X211194865Y-110785847D01*
X211291942Y-110789660D01*
X211380173Y-110830334D01*
X211446123Y-110901677D01*
X211455677Y-110918736D01*
X211487713Y-110981610D01*
X211608034Y-111147219D01*
X211752781Y-111291966D01*
X211918390Y-111412287D01*
X212100781Y-111505220D01*
X212295466Y-111568477D01*
X212366575Y-111579739D01*
X212497638Y-111600499D01*
X212497645Y-111600499D01*
X212497648Y-111600500D01*
X212497651Y-111600500D01*
X212702349Y-111600500D01*
X212702352Y-111600500D01*
X212702355Y-111600499D01*
X212702361Y-111600499D01*
X212797870Y-111585371D01*
X212904534Y-111568477D01*
X213099219Y-111505220D01*
X213281610Y-111412287D01*
X213447219Y-111291966D01*
X213591966Y-111147219D01*
X213712287Y-110981610D01*
X213805220Y-110799219D01*
X213858028Y-110636690D01*
X213905497Y-110551930D01*
X213918756Y-110537584D01*
X216983912Y-107472430D01*
X217064694Y-107418454D01*
X217159982Y-107399500D01*
X233552357Y-107399500D01*
X233647645Y-107418454D01*
X233728427Y-107472430D01*
X233782403Y-107553212D01*
X233801357Y-107648500D01*
X233782403Y-107743788D01*
X233728427Y-107824570D01*
X233555738Y-107997258D01*
X233555729Y-107997268D01*
X233408064Y-108189710D01*
X233408058Y-108189720D01*
X233286778Y-108399782D01*
X233286770Y-108399798D01*
X233193948Y-108623894D01*
X233193940Y-108623917D01*
X233131163Y-108858204D01*
X233131162Y-108858209D01*
X233108345Y-109031523D01*
X233099500Y-109098712D01*
X233099500Y-109341288D01*
X233106920Y-109397648D01*
X233131162Y-109581790D01*
X233131163Y-109581795D01*
X233193940Y-109816082D01*
X233193948Y-109816105D01*
X233286770Y-110040201D01*
X233286778Y-110040217D01*
X233408058Y-110250279D01*
X233408064Y-110250289D01*
X233555729Y-110442731D01*
X233555738Y-110442741D01*
X233727258Y-110614261D01*
X233727268Y-110614270D01*
X233756496Y-110636697D01*
X233919711Y-110761936D01*
X233976602Y-110794782D01*
X234129782Y-110883221D01*
X234129798Y-110883229D01*
X234269858Y-110941242D01*
X234353900Y-110976054D01*
X234353911Y-110976057D01*
X234353917Y-110976059D01*
X234537021Y-111025121D01*
X234588211Y-111038838D01*
X234828712Y-111070500D01*
X235071288Y-111070500D01*
X235311789Y-111038838D01*
X235525369Y-110981609D01*
X235546082Y-110976059D01*
X235546084Y-110976058D01*
X235546100Y-110976054D01*
X235702232Y-110911382D01*
X235770201Y-110883229D01*
X235770206Y-110883226D01*
X235770212Y-110883224D01*
X235980289Y-110761936D01*
X236172738Y-110614265D01*
X236344265Y-110442738D01*
X236491936Y-110250289D01*
X236613224Y-110040212D01*
X236706054Y-109816100D01*
X236768838Y-109581789D01*
X236795606Y-109378455D01*
X236826835Y-109286459D01*
X236890893Y-109213414D01*
X236978029Y-109170443D01*
X237074976Y-109164088D01*
X237166975Y-109195317D01*
X237218546Y-109234888D01*
X239364570Y-111380912D01*
X239418546Y-111461694D01*
X239437500Y-111556982D01*
X239437500Y-117099028D01*
X239418546Y-117194316D01*
X239364570Y-117275098D01*
X239283788Y-117329074D01*
X239188500Y-117348028D01*
X239093212Y-117329074D01*
X239012430Y-117275098D01*
X238990955Y-117250609D01*
X238943688Y-117189009D01*
X238943679Y-117188999D01*
X238770999Y-117016319D01*
X238770997Y-117016317D01*
X238577248Y-116867649D01*
X238365752Y-116745541D01*
X238365750Y-116745540D01*
X238365746Y-116745538D01*
X238140125Y-116652083D01*
X238003926Y-116615589D01*
X237904233Y-116588877D01*
X237904230Y-116588876D01*
X237904231Y-116588876D01*
X237662107Y-116557000D01*
X237417893Y-116557000D01*
X237175770Y-116588876D01*
X236939874Y-116652083D01*
X236714253Y-116745538D01*
X236714249Y-116745540D01*
X236502752Y-116867649D01*
X236421580Y-116929934D01*
X236334444Y-116972904D01*
X236237497Y-116979258D01*
X236145498Y-116948027D01*
X236118420Y-116929934D01*
X236107778Y-116921768D01*
X236037248Y-116867649D01*
X235825752Y-116745541D01*
X235825750Y-116745540D01*
X235825746Y-116745538D01*
X235600125Y-116652083D01*
X235463926Y-116615589D01*
X235364233Y-116588877D01*
X235364230Y-116588876D01*
X235364231Y-116588876D01*
X235122107Y-116557000D01*
X234877893Y-116557000D01*
X234635770Y-116588876D01*
X234399874Y-116652083D01*
X234174253Y-116745538D01*
X234174249Y-116745540D01*
X233962756Y-116867646D01*
X233769000Y-117016319D01*
X233596319Y-117189000D01*
X233447646Y-117382756D01*
X233325540Y-117594249D01*
X233325538Y-117594253D01*
X233232083Y-117819874D01*
X233168876Y-118055770D01*
X233137000Y-118297893D01*
X233137000Y-118542106D01*
X233168876Y-118784229D01*
X233232083Y-119020125D01*
X233325538Y-119245746D01*
X233325540Y-119245750D01*
X233325541Y-119245752D01*
X233447649Y-119457248D01*
X233488708Y-119510757D01*
X233509934Y-119538420D01*
X233552904Y-119625556D01*
X233559258Y-119722503D01*
X233528027Y-119814502D01*
X233509934Y-119841580D01*
X233447649Y-119922752D01*
X233325540Y-120134249D01*
X233325538Y-120134253D01*
X233232083Y-120359874D01*
X233168876Y-120595770D01*
X233137000Y-120837893D01*
X233137000Y-121082106D01*
X233168876Y-121324229D01*
X233232083Y-121560125D01*
X233325538Y-121785746D01*
X233325540Y-121785750D01*
X233325541Y-121785752D01*
X233447649Y-121997248D01*
X233501768Y-122067778D01*
X233509934Y-122078420D01*
X233552904Y-122165556D01*
X233559258Y-122262503D01*
X233528027Y-122354502D01*
X233509934Y-122381580D01*
X233447649Y-122462752D01*
X233325540Y-122674249D01*
X233325538Y-122674253D01*
X233232083Y-122899874D01*
X233168876Y-123135770D01*
X233137000Y-123377893D01*
X233137000Y-123622106D01*
X233168876Y-123864229D01*
X233232083Y-124100125D01*
X233325538Y-124325746D01*
X233325540Y-124325750D01*
X233325541Y-124325752D01*
X233447649Y-124537248D01*
X233596317Y-124730997D01*
X233769003Y-124903683D01*
X233815689Y-124939506D01*
X233879747Y-125012551D01*
X233910977Y-125104550D01*
X233904623Y-125201497D01*
X233865554Y-125283408D01*
X233834687Y-125325892D01*
X233737320Y-125516985D01*
X233671047Y-125720952D01*
X233637501Y-125932757D01*
X233637500Y-125932773D01*
X233637500Y-126147226D01*
X233637501Y-126147242D01*
X233671047Y-126359047D01*
X233737320Y-126563014D01*
X233834690Y-126754112D01*
X233865552Y-126796590D01*
X233906227Y-126884820D01*
X233910041Y-126981900D01*
X233876414Y-127073050D01*
X233815691Y-127140491D01*
X233769008Y-127176312D01*
X233768999Y-127176320D01*
X233596319Y-127349000D01*
X233447646Y-127542756D01*
X233325540Y-127754249D01*
X233325538Y-127754253D01*
X233232083Y-127979874D01*
X233168876Y-128215770D01*
X233137000Y-128457893D01*
X233137000Y-128702106D01*
X233168876Y-128944229D01*
X233232083Y-129180125D01*
X233325538Y-129405746D01*
X233325540Y-129405750D01*
X233325541Y-129405752D01*
X233447649Y-129617248D01*
X233501768Y-129687778D01*
X233509934Y-129698420D01*
X233552904Y-129785556D01*
X233559258Y-129882503D01*
X233528027Y-129974502D01*
X233509934Y-130001580D01*
X233447649Y-130082752D01*
X233325540Y-130294249D01*
X233325538Y-130294253D01*
X233232083Y-130519874D01*
X233168876Y-130755770D01*
X233137000Y-130997893D01*
X233137000Y-131242106D01*
X233142442Y-131283443D01*
X233136088Y-131380390D01*
X233093117Y-131467526D01*
X233071642Y-131492013D01*
X231439072Y-133124585D01*
X231316586Y-133247071D01*
X231316582Y-133247076D01*
X231214770Y-133387207D01*
X231136126Y-133541556D01*
X231136124Y-133541562D01*
X231082597Y-133706302D01*
X231055501Y-133877378D01*
X231055500Y-133877393D01*
X231055500Y-143205018D01*
X231036546Y-143300306D01*
X230982570Y-143381088D01*
X227709088Y-146654570D01*
X227628306Y-146708546D01*
X227533018Y-146727500D01*
X222102461Y-146727500D01*
X222007173Y-146708546D01*
X221926391Y-146654570D01*
X221872415Y-146573788D01*
X221853461Y-146478500D01*
X221872415Y-146383212D01*
X221901016Y-146332141D01*
X221941229Y-146276792D01*
X221941228Y-146276792D01*
X221941232Y-146276788D01*
X222019873Y-146122445D01*
X222073402Y-145957701D01*
X222100500Y-145786611D01*
X222100500Y-145750854D01*
X222119454Y-145655566D01*
X222171253Y-145576989D01*
X222183733Y-145564194D01*
X222222738Y-145534265D01*
X222394265Y-145362738D01*
X222445995Y-145295320D01*
X222456300Y-145284757D01*
X222484412Y-145265462D01*
X222510045Y-145242983D01*
X222524134Y-145238200D01*
X222536403Y-145229780D01*
X222569759Y-145222712D01*
X222602043Y-145211753D01*
X222616889Y-145212725D01*
X222631448Y-145209641D01*
X222664972Y-145215876D01*
X222698990Y-145218106D01*
X222713076Y-145224824D01*
X222726965Y-145227408D01*
X222750275Y-145242567D01*
X222780906Y-145257177D01*
X222832446Y-145294624D01*
X223021769Y-145391088D01*
X223021783Y-145391095D01*
X223040000Y-145397013D01*
X223040000Y-144640001D01*
X224040000Y-144640001D01*
X224040000Y-145397013D01*
X224058216Y-145391095D01*
X224058230Y-145391088D01*
X224247553Y-145294623D01*
X224419462Y-145169724D01*
X224569724Y-145019462D01*
X224694623Y-144847553D01*
X224791088Y-144658230D01*
X224791095Y-144658216D01*
X224797014Y-144640000D01*
X224040001Y-144640000D01*
X224040000Y-144640001D01*
X223040000Y-144640001D01*
X223040000Y-144205826D01*
X223074075Y-144332993D01*
X223139901Y-144447007D01*
X223232993Y-144540099D01*
X223347007Y-144605925D01*
X223474174Y-144640000D01*
X223605826Y-144640000D01*
X223732993Y-144605925D01*
X223847007Y-144540099D01*
X223940099Y-144447007D01*
X224005925Y-144332993D01*
X224040000Y-144205826D01*
X224040000Y-144074174D01*
X224005925Y-143947007D01*
X223940099Y-143832993D01*
X223847007Y-143739901D01*
X223732993Y-143674075D01*
X223605826Y-143640000D01*
X223474174Y-143640000D01*
X223347007Y-143674075D01*
X223232993Y-143739901D01*
X223139901Y-143832993D01*
X223074075Y-143947007D01*
X223040000Y-144074174D01*
X223040000Y-143639999D01*
X224040000Y-143639999D01*
X224040001Y-143640000D01*
X224797013Y-143640000D01*
X224791095Y-143621783D01*
X224791088Y-143621769D01*
X224694623Y-143432446D01*
X224569724Y-143260537D01*
X224419462Y-143110275D01*
X224247553Y-142985376D01*
X224058231Y-142888911D01*
X224058208Y-142888901D01*
X224040000Y-142882984D01*
X224040000Y-143639999D01*
X223040000Y-143639999D01*
X223040000Y-142882984D01*
X223039999Y-142882984D01*
X223021791Y-142888901D01*
X223021768Y-142888911D01*
X222832445Y-142985376D01*
X222832443Y-142985377D01*
X222780904Y-143022823D01*
X222692673Y-143063497D01*
X222595593Y-143067311D01*
X222504443Y-143033684D01*
X222437004Y-142972960D01*
X222394265Y-142917262D01*
X222222738Y-142745735D01*
X222222735Y-142745733D01*
X222222731Y-142745729D01*
X222030289Y-142598064D01*
X222030279Y-142598058D01*
X221820217Y-142476778D01*
X221820201Y-142476770D01*
X221596105Y-142383948D01*
X221596103Y-142383947D01*
X221596100Y-142383946D01*
X221596096Y-142383945D01*
X221596082Y-142383940D01*
X221361795Y-142321163D01*
X221361790Y-142321162D01*
X221121288Y-142289500D01*
X220878712Y-142289500D01*
X220638209Y-142321162D01*
X220638204Y-142321163D01*
X220403917Y-142383940D01*
X220403894Y-142383948D01*
X220179798Y-142476770D01*
X220179787Y-142476776D01*
X219983999Y-142589814D01*
X219892000Y-142621043D01*
X219795053Y-142614688D01*
X219707918Y-142571718D01*
X219643859Y-142498672D01*
X219612630Y-142406673D01*
X219610500Y-142374173D01*
X219610500Y-141619692D01*
X219629454Y-141524404D01*
X219683427Y-141443624D01*
X231749497Y-129377555D01*
X231749501Y-129377553D01*
X231877553Y-129249501D01*
X231983996Y-129102994D01*
X232066211Y-128941639D01*
X232122171Y-128769409D01*
X232128319Y-128730591D01*
X232150501Y-128590546D01*
X232150501Y-128409454D01*
X232150500Y-128409447D01*
X232150500Y-126666392D01*
X232169454Y-126571104D01*
X232177640Y-126553347D01*
X232204763Y-126500115D01*
X232205220Y-126499219D01*
X232268477Y-126304534D01*
X232291036Y-126162107D01*
X232300499Y-126102361D01*
X232300500Y-126102349D01*
X232300500Y-125897650D01*
X232300499Y-125897638D01*
X232279739Y-125766575D01*
X232268477Y-125695466D01*
X232205220Y-125500781D01*
X232112287Y-125318390D01*
X231991966Y-125152781D01*
X231847219Y-125008034D01*
X231681610Y-124887713D01*
X231681609Y-124887712D01*
X231681607Y-124887711D01*
X231499224Y-124794782D01*
X231499214Y-124794778D01*
X231304531Y-124731522D01*
X231102361Y-124699500D01*
X231102352Y-124699500D01*
X230897648Y-124699500D01*
X230897638Y-124699500D01*
X230695468Y-124731522D01*
X230500785Y-124794778D01*
X230500775Y-124794782D01*
X230318392Y-124887711D01*
X230152779Y-125008035D01*
X230008035Y-125152779D01*
X229887711Y-125318392D01*
X229794782Y-125500775D01*
X229794778Y-125500785D01*
X229731522Y-125695468D01*
X229699500Y-125897638D01*
X229699500Y-126102361D01*
X229731522Y-126304531D01*
X229794778Y-126499214D01*
X229794779Y-126499218D01*
X229822360Y-126553347D01*
X229848732Y-126646855D01*
X229849500Y-126666392D01*
X229849500Y-127920307D01*
X229830546Y-128015595D01*
X229776570Y-128096377D01*
X227726570Y-130146377D01*
X227645788Y-130200353D01*
X227550500Y-130219307D01*
X227455212Y-130200353D01*
X227374430Y-130146377D01*
X227320454Y-130065595D01*
X227301500Y-129970307D01*
X227301500Y-127751845D01*
X227301501Y-127751820D01*
X227301501Y-127560458D01*
X227301501Y-127560454D01*
X227273172Y-127381591D01*
X227217211Y-127209361D01*
X227147757Y-127073050D01*
X227135001Y-127048014D01*
X227134998Y-127048010D01*
X227134996Y-127048006D01*
X227099550Y-126999219D01*
X227028553Y-126901499D01*
X227028551Y-126901497D01*
X227028549Y-126901494D01*
X227028547Y-126901492D01*
X226894253Y-126767199D01*
X226894252Y-126767199D01*
X226284735Y-126157682D01*
X226230759Y-126076900D01*
X226223997Y-126058573D01*
X226205220Y-126000781D01*
X226112287Y-125818390D01*
X225991966Y-125652781D01*
X225847219Y-125508034D01*
X225681610Y-125387713D01*
X225681609Y-125387712D01*
X225681607Y-125387711D01*
X225499224Y-125294782D01*
X225499214Y-125294778D01*
X225417163Y-125268118D01*
X225332395Y-125220646D01*
X225272247Y-125144349D01*
X225245876Y-125050841D01*
X225257294Y-124954362D01*
X225305977Y-124804534D01*
X225317624Y-124730999D01*
X225337999Y-124602361D01*
X225338000Y-124602349D01*
X225338000Y-124397650D01*
X225337999Y-124397638D01*
X225305977Y-124195468D01*
X225305977Y-124195466D01*
X225242720Y-124000781D01*
X225149787Y-123818390D01*
X225029466Y-123652781D01*
X224884719Y-123508034D01*
X224719110Y-123387713D01*
X224719109Y-123387712D01*
X224719107Y-123387711D01*
X224536724Y-123294782D01*
X224536714Y-123294778D01*
X224342031Y-123231522D01*
X224139861Y-123199500D01*
X224139852Y-123199500D01*
X223935148Y-123199500D01*
X223935138Y-123199500D01*
X223732968Y-123231522D01*
X223538285Y-123294778D01*
X223538275Y-123294782D01*
X223355892Y-123387711D01*
X223190279Y-123508035D01*
X223045535Y-123652779D01*
X222925211Y-123818392D01*
X222832282Y-124000775D01*
X222832278Y-124000785D01*
X222769022Y-124195468D01*
X222737000Y-124397638D01*
X222737000Y-124602361D01*
X222769022Y-124804531D01*
X222832278Y-124999214D01*
X222832282Y-124999224D01*
X222921569Y-125174459D01*
X222925213Y-125181610D01*
X223045534Y-125347219D01*
X223190281Y-125491966D01*
X223355890Y-125612287D01*
X223538281Y-125705220D01*
X223620339Y-125731882D01*
X223705102Y-125779352D01*
X223765251Y-125855649D01*
X223791623Y-125949156D01*
X223780205Y-126045638D01*
X223780204Y-126045638D01*
X223731522Y-126195465D01*
X223731522Y-126195466D01*
X223699500Y-126397638D01*
X223699500Y-126602361D01*
X223731522Y-126804531D01*
X223794778Y-126999214D01*
X223794782Y-126999224D01*
X223887711Y-127181607D01*
X223887713Y-127181610D01*
X224005472Y-127343693D01*
X224008035Y-127347220D01*
X224090810Y-127429995D01*
X224144786Y-127510777D01*
X224163740Y-127606065D01*
X224144786Y-127701353D01*
X224090810Y-127782135D01*
X222030570Y-129842376D01*
X221949788Y-129896352D01*
X221854500Y-129915306D01*
X221759212Y-129896352D01*
X221678430Y-129842376D01*
X221624454Y-129761594D01*
X221605500Y-129666306D01*
X221605500Y-119724533D01*
X221605488Y-119722503D01*
X221605433Y-119712912D01*
X221582519Y-119510757D01*
X221571313Y-119459246D01*
X221546784Y-119367562D01*
X221533707Y-119337473D01*
X221493842Y-119245746D01*
X221465692Y-119180973D01*
X221439523Y-119143742D01*
X221400238Y-119054891D01*
X221397944Y-118957763D01*
X221432993Y-118867151D01*
X221436237Y-118862172D01*
X221468308Y-118814236D01*
X221545083Y-118625829D01*
X221564768Y-118558790D01*
X221584917Y-118477906D01*
X221596554Y-118363478D01*
X221605498Y-118275519D01*
X221605500Y-118275494D01*
X221605500Y-118224504D01*
X221605498Y-118224473D01*
X221595265Y-118081403D01*
X221595265Y-118081399D01*
X221590242Y-118046464D01*
X221586679Y-118023562D01*
X221581721Y-118005452D01*
X221578578Y-117992647D01*
X221573605Y-117969785D01*
X221573606Y-117969785D01*
X221571319Y-117959271D01*
X221546788Y-117867573D01*
X221539197Y-117850106D01*
X221532963Y-117827332D01*
X221507558Y-117777305D01*
X221465698Y-117680983D01*
X221441481Y-117646529D01*
X221435720Y-117637959D01*
X221433825Y-117635009D01*
X221398272Y-117544593D01*
X221400026Y-117447454D01*
X221436370Y-117361974D01*
X221458381Y-117329074D01*
X221468308Y-117314236D01*
X221545083Y-117125829D01*
X221564768Y-117058790D01*
X221584917Y-116977906D01*
X221587956Y-116948027D01*
X221605498Y-116775519D01*
X221605500Y-116775494D01*
X221605500Y-115540704D01*
X221605500Y-115540670D01*
X221605433Y-115529097D01*
X221582522Y-115326941D01*
X221571317Y-115275431D01*
X221546788Y-115183744D01*
X221524636Y-115132773D01*
X221465700Y-114997156D01*
X221348710Y-114830708D01*
X221348706Y-114830703D01*
X221302954Y-114777901D01*
X221302934Y-114777881D01*
X221183863Y-114661515D01*
X221183857Y-114661510D01*
X221014763Y-114548376D01*
X221014760Y-114548374D01*
X220826368Y-114471599D01*
X220826358Y-114471596D01*
X220826356Y-114471595D01*
X220759320Y-114451909D01*
X220759318Y-114451908D01*
X220759313Y-114451907D01*
X220678432Y-114431756D01*
X220476032Y-114411170D01*
X220476018Y-114411169D01*
X219565357Y-114411155D01*
X219565246Y-114411155D01*
X219565245Y-114411155D01*
X219565238Y-114411155D01*
X219529224Y-114411799D01*
X219520418Y-114412114D01*
X219401853Y-114423420D01*
X219205022Y-114474868D01*
X219205016Y-114474869D01*
X219139554Y-114499286D01*
X219139541Y-114499291D01*
X219105489Y-114515319D01*
X219011202Y-114538748D01*
X218915125Y-114524311D01*
X218905486Y-114520614D01*
X218785113Y-114471561D01*
X218785110Y-114471560D01*
X218785111Y-114471560D01*
X218785108Y-114471559D01*
X218718069Y-114451873D01*
X218688635Y-114444540D01*
X218637189Y-114431723D01*
X218434793Y-114411137D01*
X218434779Y-114411136D01*
X210807218Y-114411011D01*
X210801472Y-114411011D01*
X210801471Y-114411011D01*
X210801426Y-114411011D01*
X210791965Y-114411055D01*
X210589765Y-114433547D01*
X210538721Y-114444540D01*
X210538712Y-114444542D01*
X210448960Y-114468254D01*
X210448958Y-114468255D01*
X210262039Y-114548570D01*
X210262032Y-114548574D01*
X210095111Y-114664868D01*
X210095105Y-114664873D01*
X210042125Y-114710397D01*
X210042124Y-114710398D01*
X209925230Y-114829022D01*
X209925225Y-114829029D01*
X209811397Y-114997646D01*
X209811394Y-114997653D01*
X209733838Y-115185733D01*
X209713875Y-115252684D01*
X209693387Y-115333497D01*
X209693386Y-115333501D01*
X209671963Y-115535826D01*
X209666718Y-116799874D01*
X209668371Y-116861839D01*
X209669243Y-116876997D01*
X209669245Y-116877021D01*
X209688010Y-117020907D01*
X209688012Y-117020917D01*
X209748764Y-117215074D01*
X209776267Y-117279300D01*
X209776277Y-117279321D01*
X209827249Y-117375460D01*
X209855139Y-117468526D01*
X209845290Y-117565181D01*
X209813639Y-117631409D01*
X209800384Y-117651045D01*
X209800381Y-117651049D01*
X209722823Y-117839140D01*
X209722822Y-117839142D01*
X209702861Y-117906092D01*
X209682377Y-117986890D01*
X209682376Y-117986895D01*
X209682376Y-117986897D01*
X209678494Y-118023559D01*
X209660953Y-118189220D01*
X209660487Y-118301577D01*
X209662138Y-118363468D01*
X209662543Y-118370514D01*
X209662544Y-118370525D01*
X209663014Y-118378688D01*
X209674149Y-118464081D01*
X209672861Y-118464261D01*
X209675009Y-118479651D01*
X209678471Y-118502528D01*
X209679811Y-118507507D01*
X209681589Y-118521141D01*
X209681604Y-118521255D01*
X209681772Y-118522541D01*
X209681775Y-118522556D01*
X209695261Y-118565661D01*
X209698055Y-118575265D01*
X209711671Y-118625829D01*
X209731369Y-118698980D01*
X209760771Y-118757482D01*
X209760101Y-118757769D01*
X209770040Y-118780979D01*
X209818855Y-118873055D01*
X209820066Y-118875464D01*
X209820087Y-118875504D01*
X209822443Y-118880191D01*
X209848303Y-118973841D01*
X209836357Y-119070259D01*
X209806348Y-119131336D01*
X209794166Y-119149382D01*
X209794164Y-119149384D01*
X209716606Y-119337474D01*
X209696645Y-119404423D01*
X209676160Y-119485225D01*
X209676159Y-119485230D01*
X209673456Y-119510757D01*
X209654736Y-119687554D01*
X209648950Y-121082106D01*
X209645902Y-121816771D01*
X209632883Y-124954359D01*
X209630943Y-125421763D01*
X209634253Y-125507568D01*
X209635967Y-125528614D01*
X209635970Y-125528642D01*
X209663782Y-125695270D01*
X209663784Y-125695278D01*
X209733706Y-125886330D01*
X209733708Y-125886334D01*
X209764236Y-125949181D01*
X209780332Y-125976333D01*
X209812618Y-126067966D01*
X209807380Y-126164980D01*
X209772519Y-126242620D01*
X209764687Y-126254220D01*
X209764683Y-126254228D01*
X209687125Y-126442318D01*
X209667161Y-126509277D01*
X209646679Y-126590068D01*
X209625255Y-126792398D01*
X209624140Y-127061532D01*
X209604791Y-127156741D01*
X209550480Y-127237298D01*
X209469476Y-127290939D01*
X209375142Y-127309500D01*
X188799000Y-127309500D01*
X188788074Y-127309563D01*
X188787410Y-127309567D01*
X188787407Y-127309567D01*
X188585254Y-127332481D01*
X188533753Y-127343685D01*
X188533720Y-127343693D01*
X188442068Y-127368214D01*
X188442054Y-127368218D01*
X188255476Y-127449306D01*
X188255473Y-127449307D01*
X188089024Y-127566300D01*
X188089019Y-127566305D01*
X188036231Y-127612046D01*
X188036217Y-127612059D01*
X187919825Y-127731163D01*
X187919818Y-127731172D01*
X187806692Y-127900264D01*
X187806690Y-127900266D01*
X187729920Y-128088663D01*
X187729916Y-128088673D01*
X187710233Y-128155705D01*
X187690081Y-128236598D01*
X187669501Y-128438980D01*
X187669500Y-128439005D01*
X187669500Y-132662648D01*
X187669562Y-132673838D01*
X187692400Y-132876002D01*
X187692400Y-132876004D01*
X187703568Y-132927432D01*
X187703568Y-132927434D01*
X187727954Y-133018781D01*
X187727955Y-133018784D01*
X187749482Y-133068417D01*
X187808907Y-133205428D01*
X187808908Y-133205429D01*
X187808910Y-133205433D01*
X187925781Y-133371965D01*
X187925785Y-133371969D01*
X187925786Y-133371971D01*
X187971492Y-133424797D01*
X187971497Y-133424802D01*
X188090526Y-133541292D01*
X188259539Y-133654544D01*
X188447891Y-133731456D01*
X188514916Y-133751190D01*
X188595783Y-133771398D01*
X188798173Y-133792129D01*
X195045864Y-133796700D01*
X195045955Y-133796700D01*
X213748983Y-133796700D01*
X213748991Y-133796700D01*
X213880231Y-133788098D01*
X213912324Y-133783873D01*
X213951426Y-133776094D01*
X214048568Y-133776094D01*
X214087676Y-133783873D01*
X214119769Y-133788098D01*
X214251009Y-133796700D01*
X217475107Y-133796700D01*
X217570395Y-133815654D01*
X217651177Y-133869630D01*
X217705153Y-133950412D01*
X217724107Y-134045700D01*
X217705153Y-134140988D01*
X217651177Y-134221769D01*
X213847055Y-138025891D01*
X210090502Y-141782444D01*
X209962446Y-141910499D01*
X209962443Y-141910503D01*
X209881113Y-142022445D01*
X209881113Y-142022446D01*
X209856003Y-142057006D01*
X209773794Y-142218350D01*
X209773789Y-142218359D01*
X209773789Y-142218361D01*
X209717829Y-142390591D01*
X209717828Y-142390594D01*
X209717828Y-142390596D01*
X209711873Y-142428191D01*
X209678244Y-142519340D01*
X209612293Y-142590681D01*
X209524062Y-142631354D01*
X209426981Y-142635167D01*
X209337367Y-142602104D01*
X209337348Y-142602139D01*
X209337148Y-142602023D01*
X209335832Y-142601538D01*
X209331470Y-142598745D01*
X209120217Y-142476778D01*
X209120201Y-142476770D01*
X208896105Y-142383948D01*
X208896103Y-142383947D01*
X208896100Y-142383946D01*
X208896096Y-142383945D01*
X208896082Y-142383940D01*
X208661795Y-142321163D01*
X208661790Y-142321162D01*
X208421288Y-142289500D01*
X208178712Y-142289500D01*
X208178709Y-142289500D01*
X208147693Y-142293583D01*
X208050746Y-142287228D01*
X207963611Y-142244256D01*
X207939125Y-142222783D01*
X207213980Y-141497638D01*
X206476928Y-140760586D01*
X206476924Y-140760583D01*
X206476922Y-140760581D01*
X206336792Y-140658770D01*
X206182443Y-140580126D01*
X206182437Y-140580124D01*
X206088195Y-140549503D01*
X206017701Y-140526598D01*
X206017699Y-140526597D01*
X206017697Y-140526597D01*
X205846621Y-140499501D01*
X205846614Y-140499500D01*
X205846611Y-140499500D01*
X205846607Y-140499500D01*
X204764524Y-140499500D01*
X204669236Y-140480546D01*
X204651481Y-140472361D01*
X204499219Y-140394780D01*
X204499214Y-140394778D01*
X204304531Y-140331522D01*
X204102361Y-140299500D01*
X204102352Y-140299500D01*
X203897648Y-140299500D01*
X203897638Y-140299500D01*
X203695468Y-140331522D01*
X203500785Y-140394778D01*
X203500775Y-140394782D01*
X203318392Y-140487711D01*
X203152779Y-140608035D01*
X203008035Y-140752779D01*
X202887711Y-140918392D01*
X202794782Y-141100775D01*
X202794778Y-141100785D01*
X202731522Y-141295468D01*
X202699500Y-141497638D01*
X202699500Y-141702361D01*
X202731522Y-141904531D01*
X202794778Y-142099214D01*
X202794782Y-142099224D01*
X202857739Y-142222783D01*
X202887713Y-142281610D01*
X203005884Y-142444260D01*
X203007717Y-142446782D01*
X203048391Y-142535013D01*
X203052205Y-142632093D01*
X203018578Y-142723243D01*
X202952629Y-142794586D01*
X202883217Y-142829953D01*
X202701781Y-142888905D01*
X202701774Y-142888908D01*
X202512445Y-142985376D01*
X202512443Y-142985377D01*
X202460904Y-143022823D01*
X202372673Y-143063497D01*
X202275593Y-143067311D01*
X202184443Y-143033684D01*
X202117004Y-142972960D01*
X202074265Y-142917262D01*
X201902738Y-142745735D01*
X201902735Y-142745733D01*
X201902731Y-142745729D01*
X201710289Y-142598064D01*
X201710279Y-142598058D01*
X201500217Y-142476778D01*
X201500201Y-142476770D01*
X201276105Y-142383948D01*
X201276103Y-142383947D01*
X201276100Y-142383946D01*
X201276096Y-142383945D01*
X201276082Y-142383940D01*
X201041795Y-142321163D01*
X201041790Y-142321162D01*
X200801288Y-142289500D01*
X200558712Y-142289500D01*
X200318209Y-142321162D01*
X200318204Y-142321163D01*
X200083917Y-142383940D01*
X200083894Y-142383948D01*
X199859798Y-142476770D01*
X199859782Y-142476778D01*
X199649720Y-142598058D01*
X199649715Y-142598061D01*
X199649711Y-142598064D01*
X199561578Y-142665690D01*
X199474445Y-142708659D01*
X199377498Y-142715013D01*
X199285499Y-142683783D01*
X199258425Y-142665693D01*
X199170289Y-142598064D01*
X199159727Y-142591966D01*
X198960217Y-142476778D01*
X198960201Y-142476770D01*
X198736105Y-142383948D01*
X198736103Y-142383947D01*
X198736100Y-142383946D01*
X198736096Y-142383945D01*
X198736082Y-142383940D01*
X198501795Y-142321163D01*
X198501790Y-142321162D01*
X198261288Y-142289500D01*
X198018712Y-142289500D01*
X198018710Y-142289500D01*
X197899326Y-142305216D01*
X197802379Y-142298861D01*
X197715244Y-142255890D01*
X197690765Y-142234423D01*
X196418769Y-140962427D01*
X196364793Y-140881645D01*
X196358026Y-140863301D01*
X196305223Y-140700788D01*
X196305217Y-140700775D01*
X196212288Y-140518392D01*
X196198563Y-140499501D01*
X196091966Y-140352781D01*
X195947219Y-140208034D01*
X195781610Y-140087713D01*
X195781609Y-140087712D01*
X195781607Y-140087711D01*
X195599224Y-139994782D01*
X195599214Y-139994778D01*
X195404531Y-139931522D01*
X195202361Y-139899500D01*
X195202352Y-139899500D01*
X194997648Y-139899500D01*
X194997638Y-139899500D01*
X194795468Y-139931522D01*
X194600785Y-139994778D01*
X194600775Y-139994782D01*
X194418392Y-140087711D01*
X194252779Y-140208035D01*
X194108035Y-140352779D01*
X193987711Y-140518392D01*
X193894782Y-140700775D01*
X193894778Y-140700785D01*
X193831522Y-140895468D01*
X193799500Y-141097638D01*
X193799500Y-141302361D01*
X193831522Y-141504531D01*
X193894778Y-141699214D01*
X193894782Y-141699224D01*
X193986957Y-141880127D01*
X193987713Y-141881610D01*
X194014654Y-141918692D01*
X194108035Y-142047220D01*
X194117265Y-142056450D01*
X194171241Y-142137232D01*
X194190195Y-142232520D01*
X194171241Y-142327808D01*
X194117265Y-142408590D01*
X194036483Y-142462566D01*
X193941195Y-142481520D01*
X193845908Y-142462566D01*
X193656105Y-142383948D01*
X193656103Y-142383947D01*
X193656100Y-142383946D01*
X193656096Y-142383945D01*
X193656082Y-142383940D01*
X193421795Y-142321163D01*
X193421790Y-142321162D01*
X193181288Y-142289500D01*
X192938712Y-142289500D01*
X192698209Y-142321162D01*
X192698204Y-142321163D01*
X192463917Y-142383940D01*
X192463894Y-142383948D01*
X192239798Y-142476770D01*
X192239782Y-142476778D01*
X192029720Y-142598058D01*
X192029715Y-142598061D01*
X192029711Y-142598064D01*
X191941578Y-142665690D01*
X191854445Y-142708659D01*
X191757498Y-142715013D01*
X191665499Y-142683783D01*
X191638425Y-142665693D01*
X191550289Y-142598064D01*
X191539727Y-142591966D01*
X191340217Y-142476778D01*
X191340201Y-142476770D01*
X191116105Y-142383948D01*
X191116103Y-142383947D01*
X191116100Y-142383946D01*
X191116096Y-142383945D01*
X191116082Y-142383940D01*
X190881795Y-142321163D01*
X190881790Y-142321162D01*
X190641288Y-142289500D01*
X190398712Y-142289500D01*
X190158209Y-142321162D01*
X190158204Y-142321163D01*
X189923917Y-142383940D01*
X189923894Y-142383948D01*
X189699798Y-142476770D01*
X189699782Y-142476778D01*
X189489720Y-142598058D01*
X189489710Y-142598064D01*
X189297268Y-142745729D01*
X189297258Y-142745738D01*
X189125732Y-142917264D01*
X189082996Y-142972960D01*
X189009951Y-143037018D01*
X188917951Y-143068247D01*
X188821004Y-143061892D01*
X188739093Y-143022822D01*
X188687553Y-142985376D01*
X188498225Y-142888908D01*
X188498215Y-142888904D01*
X188296123Y-142823241D01*
X188086256Y-142790000D01*
X187873743Y-142790000D01*
X187663874Y-142823241D01*
X187663873Y-142823241D01*
X187461793Y-142888900D01*
X187461779Y-142888906D01*
X187444709Y-142897603D01*
X188157483Y-143610377D01*
X188211459Y-143691158D01*
X188212610Y-143696948D01*
X188172993Y-143674075D01*
X188045826Y-143640000D01*
X187914174Y-143640000D01*
X187787007Y-143674075D01*
X187672993Y-143739901D01*
X187579901Y-143832993D01*
X187514075Y-143947007D01*
X187480000Y-144074174D01*
X187480000Y-144205826D01*
X187514075Y-144332993D01*
X187579901Y-144447007D01*
X187672993Y-144540099D01*
X187787007Y-144605925D01*
X187914174Y-144640000D01*
X188045826Y-144640000D01*
X188172993Y-144605925D01*
X188212610Y-144583051D01*
X188211459Y-144588840D01*
X188157483Y-144669621D01*
X187444710Y-145382395D01*
X187444710Y-145382396D01*
X187461781Y-145391094D01*
X187461780Y-145391094D01*
X187663876Y-145456758D01*
X187873743Y-145489999D01*
X187873756Y-145490000D01*
X188086244Y-145490000D01*
X188086256Y-145489999D01*
X188296123Y-145456758D01*
X188498215Y-145391095D01*
X188498225Y-145391091D01*
X188687554Y-145294623D01*
X188687555Y-145294622D01*
X188739091Y-145257179D01*
X188827321Y-145216503D01*
X188924401Y-145212687D01*
X189015551Y-145246313D01*
X189082997Y-145307041D01*
X189125735Y-145362738D01*
X189125738Y-145362741D01*
X189297258Y-145534261D01*
X189297268Y-145534270D01*
X189337298Y-145564986D01*
X189489711Y-145681936D01*
X189497826Y-145686621D01*
X189699782Y-145803221D01*
X189699798Y-145803229D01*
X189831298Y-145857697D01*
X189923900Y-145896054D01*
X189923911Y-145896057D01*
X189923917Y-145896059D01*
X190107021Y-145945121D01*
X190158211Y-145958838D01*
X190398712Y-145990500D01*
X190641288Y-145990500D01*
X190881789Y-145958838D01*
X191043275Y-145915567D01*
X191116082Y-145896059D01*
X191116084Y-145896058D01*
X191116100Y-145896054D01*
X191267766Y-145833231D01*
X191340201Y-145803229D01*
X191340206Y-145803226D01*
X191340212Y-145803224D01*
X191550289Y-145681936D01*
X191638423Y-145614308D01*
X191725554Y-145571341D01*
X191822501Y-145564986D01*
X191914500Y-145596216D01*
X191941568Y-145614301D01*
X192029711Y-145681936D01*
X192037826Y-145686621D01*
X192239782Y-145803221D01*
X192239798Y-145803229D01*
X192371298Y-145857697D01*
X192463900Y-145896054D01*
X192463911Y-145896057D01*
X192463917Y-145896059D01*
X192647021Y-145945121D01*
X192698211Y-145958838D01*
X192938712Y-145990500D01*
X193181288Y-145990500D01*
X193421789Y-145958838D01*
X193583275Y-145915567D01*
X193656082Y-145896059D01*
X193656084Y-145896058D01*
X193656100Y-145896054D01*
X193807766Y-145833231D01*
X193880201Y-145803229D01*
X193880206Y-145803226D01*
X193880212Y-145803224D01*
X194090289Y-145681936D01*
X194282738Y-145534265D01*
X194454265Y-145362738D01*
X194497003Y-145307039D01*
X194570045Y-145242983D01*
X194662043Y-145211753D01*
X194758990Y-145218106D01*
X194840906Y-145257177D01*
X194892446Y-145294624D01*
X195081769Y-145391088D01*
X195081783Y-145391095D01*
X195100000Y-145397013D01*
X195100000Y-144389000D01*
X195118954Y-144293712D01*
X195122234Y-144288802D01*
X195134075Y-144332993D01*
X195199901Y-144447007D01*
X195292993Y-144540099D01*
X195407007Y-144605925D01*
X195534174Y-144640000D01*
X195665826Y-144640000D01*
X195792993Y-144605925D01*
X195799500Y-144602168D01*
X195799500Y-145686606D01*
X195799501Y-145686621D01*
X195817970Y-145803229D01*
X195826598Y-145857701D01*
X195849503Y-145928195D01*
X195880124Y-146022437D01*
X195880126Y-146022443D01*
X195958770Y-146176792D01*
X196060581Y-146316922D01*
X196060583Y-146316924D01*
X196060586Y-146316928D01*
X197083072Y-147339414D01*
X197083075Y-147339416D01*
X197083077Y-147339418D01*
X197223210Y-147441231D01*
X197223212Y-147441232D01*
X197377554Y-147519873D01*
X197542299Y-147573402D01*
X197713389Y-147600500D01*
X197886611Y-147600500D01*
X215382018Y-147600500D01*
X215477306Y-147619454D01*
X215558088Y-147673430D01*
X215612064Y-147754212D01*
X215631018Y-147849500D01*
X215612064Y-147944788D01*
X215558088Y-148025570D01*
X198500873Y-165082783D01*
X198420091Y-165136759D01*
X198324803Y-165155713D01*
X198292303Y-165153583D01*
X198261288Y-165149500D01*
X198018712Y-165149500D01*
X197778209Y-165181162D01*
X197778204Y-165181163D01*
X197543917Y-165243940D01*
X197543894Y-165243948D01*
X197319798Y-165336770D01*
X197319782Y-165336778D01*
X197109720Y-165458058D01*
X197109715Y-165458061D01*
X197109711Y-165458064D01*
X197021578Y-165525690D01*
X196934445Y-165568659D01*
X196837498Y-165575013D01*
X196745499Y-165543783D01*
X196718425Y-165525693D01*
X196630289Y-165458064D01*
X196621177Y-165452803D01*
X196420217Y-165336778D01*
X196420201Y-165336770D01*
X196196105Y-165243948D01*
X196196103Y-165243947D01*
X196196100Y-165243946D01*
X196196096Y-165243945D01*
X196196082Y-165243940D01*
X195961795Y-165181163D01*
X195961790Y-165181162D01*
X195721288Y-165149500D01*
X195478712Y-165149500D01*
X195238209Y-165181162D01*
X195238204Y-165181163D01*
X195003917Y-165243940D01*
X195003894Y-165243948D01*
X194779798Y-165336770D01*
X194779782Y-165336778D01*
X194569720Y-165458058D01*
X194569715Y-165458061D01*
X194569711Y-165458064D01*
X194481578Y-165525690D01*
X194394445Y-165568659D01*
X194297498Y-165575013D01*
X194205499Y-165543783D01*
X194178425Y-165525693D01*
X194090289Y-165458064D01*
X194081177Y-165452803D01*
X193880217Y-165336778D01*
X193880201Y-165336770D01*
X193656105Y-165243948D01*
X193656103Y-165243947D01*
X193656100Y-165243946D01*
X193656096Y-165243945D01*
X193656082Y-165243940D01*
X193421795Y-165181163D01*
X193421790Y-165181162D01*
X193181288Y-165149500D01*
X192938712Y-165149500D01*
X192698209Y-165181162D01*
X192698204Y-165181163D01*
X192463917Y-165243940D01*
X192463894Y-165243948D01*
X192239798Y-165336770D01*
X192239782Y-165336778D01*
X192029720Y-165458058D01*
X192029715Y-165458061D01*
X192029711Y-165458064D01*
X191941578Y-165525690D01*
X191854445Y-165568659D01*
X191757498Y-165575013D01*
X191665499Y-165543783D01*
X191638425Y-165525693D01*
X191550289Y-165458064D01*
X191541177Y-165452803D01*
X191340217Y-165336778D01*
X191340201Y-165336770D01*
X191116105Y-165243948D01*
X191116103Y-165243947D01*
X191116100Y-165243946D01*
X191116096Y-165243945D01*
X191116082Y-165243940D01*
X190881795Y-165181163D01*
X190881790Y-165181162D01*
X190641288Y-165149500D01*
X190398712Y-165149500D01*
X190158209Y-165181162D01*
X190158204Y-165181163D01*
X189923917Y-165243940D01*
X189923894Y-165243948D01*
X189699798Y-165336770D01*
X189699782Y-165336778D01*
X189489720Y-165458058D01*
X189489710Y-165458064D01*
X189297265Y-165605732D01*
X189297258Y-165605738D01*
X189275739Y-165627256D01*
X189194956Y-165681229D01*
X189099667Y-165700180D01*
X189012661Y-165684481D01*
X188937381Y-165656403D01*
X188937371Y-165656401D01*
X188877832Y-165650000D01*
X188480001Y-165650000D01*
X188480000Y-165650001D01*
X188480000Y-166934174D01*
X188445925Y-166807007D01*
X188380099Y-166692993D01*
X188287007Y-166599901D01*
X188172993Y-166534075D01*
X188045826Y-166500000D01*
X187914174Y-166500000D01*
X187787007Y-166534075D01*
X187672993Y-166599901D01*
X187579901Y-166692993D01*
X187514075Y-166807007D01*
X187480000Y-166934174D01*
X187480000Y-167065826D01*
X187514075Y-167192993D01*
X187579901Y-167307007D01*
X187672993Y-167400099D01*
X187787007Y-167465925D01*
X187914174Y-167500000D01*
X188045826Y-167500000D01*
X188172993Y-167465925D01*
X188287007Y-167400099D01*
X188380099Y-167307007D01*
X188445925Y-167192993D01*
X188480000Y-167065826D01*
X188480000Y-167351997D01*
X188479181Y-167356114D01*
X188479863Y-167360256D01*
X188473835Y-167382985D01*
X188461046Y-167447285D01*
X188457759Y-167454863D01*
X188454704Y-167461596D01*
X188391860Y-167580787D01*
X188391261Y-167582270D01*
X188381475Y-167607469D01*
X188348847Y-167694950D01*
X188345304Y-167702761D01*
X188343838Y-167704804D01*
X188338879Y-167715887D01*
X188332490Y-167728022D01*
X188332487Y-167728029D01*
X188326441Y-167743023D01*
X188326440Y-167743025D01*
X188271902Y-167927507D01*
X188262907Y-167973871D01*
X188244500Y-168165384D01*
X188244500Y-169328008D01*
X188225546Y-169423296D01*
X188171570Y-169504078D01*
X188094750Y-169556373D01*
X188030472Y-169584308D01*
X187864024Y-169701300D01*
X187864019Y-169701305D01*
X187811231Y-169747046D01*
X187811217Y-169747059D01*
X187694825Y-169866163D01*
X187694818Y-169866172D01*
X187581692Y-170035264D01*
X187581690Y-170035266D01*
X187504920Y-170223663D01*
X187504916Y-170223673D01*
X187485233Y-170290705D01*
X187465081Y-170371598D01*
X187444501Y-170573980D01*
X187444500Y-170574005D01*
X186100500Y-170574005D01*
X186100500Y-167500001D01*
X186630000Y-167500001D01*
X186630000Y-167897832D01*
X186636401Y-167957371D01*
X186636403Y-167957378D01*
X186686646Y-168092087D01*
X186772810Y-168207187D01*
X186772812Y-168207189D01*
X186887912Y-168293353D01*
X187022621Y-168343596D01*
X187022628Y-168343598D01*
X187082167Y-168349999D01*
X187082175Y-168350000D01*
X187479999Y-168350000D01*
X187480000Y-168349999D01*
X187480000Y-167500001D01*
X187479999Y-167500000D01*
X186630001Y-167500000D01*
X186630000Y-167500001D01*
X186100500Y-167500001D01*
X186100500Y-166102167D01*
X186630000Y-166102167D01*
X186630000Y-166499999D01*
X186630001Y-166500000D01*
X187479999Y-166500000D01*
X187480000Y-166499999D01*
X187480000Y-165650001D01*
X187479999Y-165650000D01*
X187082167Y-165650000D01*
X187022628Y-165656401D01*
X187022621Y-165656403D01*
X186887912Y-165706646D01*
X186772812Y-165792810D01*
X186772810Y-165792812D01*
X186686646Y-165907912D01*
X186636403Y-166042621D01*
X186636401Y-166042628D01*
X186630000Y-166102167D01*
X186100500Y-166102167D01*
X186100500Y-144033743D01*
X186630000Y-144033743D01*
X186630000Y-144246256D01*
X186663241Y-144456123D01*
X186728904Y-144658214D01*
X186737603Y-144675288D01*
X187272892Y-144140000D01*
X186737602Y-143604710D01*
X186728906Y-143621779D01*
X186728900Y-143621793D01*
X186663241Y-143823873D01*
X186663241Y-143823874D01*
X186630000Y-144033743D01*
X186100500Y-144033743D01*
X186100500Y-136422638D01*
X206691150Y-136422638D01*
X206691150Y-136627361D01*
X206723172Y-136829531D01*
X206786428Y-137024214D01*
X206786432Y-137024224D01*
X206787211Y-137025752D01*
X206879363Y-137206610D01*
X206999684Y-137372219D01*
X207144431Y-137516966D01*
X207310040Y-137637287D01*
X207492431Y-137730220D01*
X207687116Y-137793477D01*
X207758225Y-137804739D01*
X207889288Y-137825499D01*
X207889295Y-137825499D01*
X207889298Y-137825500D01*
X207889301Y-137825500D01*
X208093999Y-137825500D01*
X208094002Y-137825500D01*
X208094005Y-137825499D01*
X208094011Y-137825499D01*
X208189520Y-137810371D01*
X208296184Y-137793477D01*
X208490869Y-137730220D01*
X208673260Y-137637287D01*
X208838869Y-137516966D01*
X208983616Y-137372219D01*
X209103937Y-137206610D01*
X209196870Y-137024219D01*
X209260127Y-136829534D01*
X209292150Y-136627352D01*
X209292150Y-136422648D01*
X209292149Y-136422645D01*
X209292149Y-136422638D01*
X209260127Y-136220468D01*
X209260127Y-136220466D01*
X209196870Y-136025781D01*
X209103937Y-135843390D01*
X208983616Y-135677781D01*
X208838869Y-135533034D01*
X208673260Y-135412713D01*
X208673259Y-135412712D01*
X208673257Y-135412711D01*
X208490874Y-135319782D01*
X208490864Y-135319778D01*
X208296181Y-135256522D01*
X208094011Y-135224500D01*
X208094002Y-135224500D01*
X207889298Y-135224500D01*
X207889288Y-135224500D01*
X207687118Y-135256522D01*
X207492435Y-135319778D01*
X207492425Y-135319782D01*
X207310042Y-135412711D01*
X207144429Y-135533035D01*
X206999685Y-135677779D01*
X206879361Y-135843392D01*
X206786432Y-136025775D01*
X206786428Y-136025785D01*
X206723172Y-136220468D01*
X206691150Y-136422638D01*
X186100500Y-136422638D01*
X186100500Y-111897638D01*
X217199500Y-111897638D01*
X217199500Y-112102361D01*
X217231522Y-112304531D01*
X217294778Y-112499214D01*
X217294782Y-112499224D01*
X217387711Y-112681607D01*
X217387713Y-112681610D01*
X217508034Y-112847219D01*
X217652781Y-112991966D01*
X217818390Y-113112287D01*
X218000781Y-113205220D01*
X218195466Y-113268477D01*
X218266575Y-113279739D01*
X218397638Y-113300499D01*
X218397645Y-113300499D01*
X218397648Y-113300500D01*
X218397651Y-113300500D01*
X218602349Y-113300500D01*
X218602352Y-113300500D01*
X218602355Y-113300499D01*
X218602361Y-113300499D01*
X218697870Y-113285371D01*
X218804534Y-113268477D01*
X218999219Y-113205220D01*
X219181610Y-113112287D01*
X219347219Y-112991966D01*
X219491966Y-112847219D01*
X219612287Y-112681610D01*
X219705220Y-112499219D01*
X219768477Y-112304534D01*
X219800500Y-112102352D01*
X219800500Y-111897648D01*
X219800499Y-111897645D01*
X219800499Y-111897638D01*
X219768477Y-111695468D01*
X219768477Y-111695466D01*
X219705220Y-111500781D01*
X219660130Y-111412288D01*
X219612288Y-111318392D01*
X219593089Y-111291966D01*
X219491966Y-111152781D01*
X219347219Y-111008034D01*
X219181610Y-110887713D01*
X219181609Y-110887712D01*
X219181607Y-110887711D01*
X218999224Y-110794782D01*
X218999214Y-110794778D01*
X218804531Y-110731522D01*
X218602361Y-110699500D01*
X218602352Y-110699500D01*
X218397648Y-110699500D01*
X218397638Y-110699500D01*
X218195468Y-110731522D01*
X218000785Y-110794778D01*
X218000775Y-110794782D01*
X217818392Y-110887711D01*
X217652779Y-111008035D01*
X217508035Y-111152779D01*
X217387711Y-111318392D01*
X217294782Y-111500775D01*
X217294778Y-111500785D01*
X217231522Y-111695468D01*
X217199500Y-111897638D01*
X186100500Y-111897638D01*
X186100500Y-109098712D01*
X188266837Y-109098712D01*
X188266837Y-109341288D01*
X188274257Y-109397648D01*
X188298499Y-109581790D01*
X188298500Y-109581795D01*
X188361277Y-109816082D01*
X188361285Y-109816105D01*
X188454107Y-110040201D01*
X188454115Y-110040217D01*
X188575395Y-110250279D01*
X188575401Y-110250289D01*
X188723066Y-110442731D01*
X188723075Y-110442741D01*
X188894595Y-110614261D01*
X188894605Y-110614270D01*
X188923833Y-110636697D01*
X189087048Y-110761936D01*
X189143939Y-110794782D01*
X189297119Y-110883221D01*
X189297135Y-110883229D01*
X189437195Y-110941242D01*
X189521237Y-110976054D01*
X189521248Y-110976057D01*
X189521254Y-110976059D01*
X189704358Y-111025121D01*
X189755548Y-111038838D01*
X189996049Y-111070500D01*
X190238625Y-111070500D01*
X190479126Y-111038838D01*
X190692706Y-110981609D01*
X190713419Y-110976059D01*
X190713421Y-110976058D01*
X190713437Y-110976054D01*
X190869569Y-110911382D01*
X190937538Y-110883229D01*
X190937543Y-110883226D01*
X190937549Y-110883224D01*
X191147626Y-110761936D01*
X191340075Y-110614265D01*
X191511602Y-110442738D01*
X191659273Y-110250289D01*
X191780561Y-110040212D01*
X191873391Y-109816100D01*
X191936175Y-109581789D01*
X191967837Y-109341288D01*
X191967837Y-109098712D01*
X191936175Y-108858211D01*
X191909443Y-108758448D01*
X191873396Y-108623917D01*
X191873394Y-108623911D01*
X191873391Y-108623900D01*
X191825398Y-108508034D01*
X191780566Y-108399798D01*
X191780558Y-108399782D01*
X191659278Y-108189720D01*
X191659272Y-108189710D01*
X191511607Y-107997268D01*
X191511598Y-107997258D01*
X191340078Y-107825738D01*
X191340068Y-107825729D01*
X191147626Y-107678064D01*
X191147616Y-107678058D01*
X190937554Y-107556778D01*
X190937538Y-107556770D01*
X190713442Y-107463948D01*
X190713440Y-107463947D01*
X190713437Y-107463946D01*
X190713433Y-107463945D01*
X190713419Y-107463940D01*
X190479132Y-107401163D01*
X190479127Y-107401162D01*
X190238625Y-107369500D01*
X189996049Y-107369500D01*
X189755546Y-107401162D01*
X189755541Y-107401163D01*
X189521254Y-107463940D01*
X189521231Y-107463948D01*
X189297135Y-107556770D01*
X189297119Y-107556778D01*
X189087057Y-107678058D01*
X189087047Y-107678064D01*
X188894605Y-107825729D01*
X188894595Y-107825738D01*
X188723075Y-107997258D01*
X188723066Y-107997268D01*
X188575401Y-108189710D01*
X188575395Y-108189720D01*
X188454115Y-108399782D01*
X188454107Y-108399798D01*
X188361285Y-108623894D01*
X188361277Y-108623917D01*
X188298500Y-108858204D01*
X188298499Y-108858209D01*
X188275682Y-109031523D01*
X188266837Y-109098712D01*
X186100500Y-109098712D01*
X186100500Y-104149500D01*
X186119454Y-104054212D01*
X186173430Y-103973430D01*
X186254212Y-103919454D01*
X186349500Y-103900500D01*
X242290500Y-103900500D01*
X242385788Y-103919454D01*
G37*
G04 #@! TD.AperFunction*
G04 #@! TA.AperFunction,Conductor*
G36*
X217543039Y-195619685D02*
G01*
X217588794Y-195672489D01*
X217600000Y-195724000D01*
X217600000Y-197076000D01*
X217580315Y-197143039D01*
X217527511Y-197188794D01*
X217476000Y-197200000D01*
X213000000Y-197200000D01*
X211724000Y-197200000D01*
X211656961Y-197180315D01*
X211611206Y-197127511D01*
X211600000Y-197076000D01*
X211600000Y-195724000D01*
X211619685Y-195656961D01*
X211672489Y-195611206D01*
X211724000Y-195600000D01*
X217476000Y-195600000D01*
X217543039Y-195619685D01*
G37*
G04 #@! TD.AperFunction*
G04 #@! TA.AperFunction,Conductor*
G36*
X193310000Y-168327230D02*
G01*
X193376126Y-168316757D01*
X193376129Y-168316757D01*
X193578217Y-168251095D01*
X193767557Y-168154620D01*
X193939459Y-168029727D01*
X193939464Y-168029723D01*
X194038319Y-167930869D01*
X194099642Y-167897384D01*
X194169334Y-167902368D01*
X194225267Y-167944240D01*
X194249684Y-168009704D01*
X194250000Y-168018550D01*
X194250000Y-168926000D01*
X194230315Y-168993039D01*
X194177511Y-169038794D01*
X194126000Y-169050000D01*
X192200000Y-169050000D01*
X192200000Y-169918644D01*
X192199500Y-169921158D01*
X192199500Y-170078842D01*
X192200000Y-170081355D01*
X192200000Y-170909990D01*
X192199500Y-170920168D01*
X192199500Y-171079841D01*
X192200000Y-171090009D01*
X192200000Y-171226000D01*
X192180315Y-171293039D01*
X192127511Y-171338794D01*
X192076000Y-171350000D01*
X188574000Y-171350000D01*
X188506961Y-171330315D01*
X188461206Y-171277511D01*
X188450000Y-171226000D01*
X188450000Y-170574000D01*
X188469685Y-170506961D01*
X188522489Y-170461206D01*
X188574000Y-170450000D01*
X189250000Y-170450000D01*
X189250000Y-168165389D01*
X189258997Y-168119017D01*
X189265042Y-168104024D01*
X189273796Y-168092331D01*
X189323582Y-167958845D01*
X189324181Y-167957362D01*
X189344880Y-167931174D01*
X189364872Y-167904468D01*
X189366457Y-167903876D01*
X189367508Y-167902548D01*
X189399078Y-167891709D01*
X189430337Y-167880050D01*
X189431990Y-167880409D01*
X189433592Y-167879860D01*
X189466005Y-167887808D01*
X189498610Y-167894901D01*
X189500404Y-167896244D01*
X189501451Y-167896501D01*
X189503176Y-167898319D01*
X189526865Y-167916053D01*
X189640535Y-168029723D01*
X189640540Y-168029727D01*
X189812442Y-168154620D01*
X190001782Y-168251095D01*
X190203871Y-168316757D01*
X190270000Y-168327231D01*
X190270000Y-167433012D01*
X190327007Y-167465925D01*
X190454174Y-167500000D01*
X190585826Y-167500000D01*
X190712993Y-167465925D01*
X190770000Y-167433012D01*
X190770000Y-168327230D01*
X190836126Y-168316757D01*
X190836129Y-168316757D01*
X191038217Y-168251095D01*
X191227557Y-168154620D01*
X191399459Y-168029727D01*
X191399464Y-168029723D01*
X191549723Y-167879464D01*
X191549727Y-167879459D01*
X191674620Y-167707558D01*
X191679514Y-167697954D01*
X191727488Y-167647157D01*
X191795308Y-167630361D01*
X191861444Y-167652897D01*
X191900486Y-167697954D01*
X191905379Y-167707558D01*
X192030272Y-167879459D01*
X192030276Y-167879464D01*
X192180535Y-168029723D01*
X192180540Y-168029727D01*
X192352442Y-168154620D01*
X192541782Y-168251095D01*
X192743871Y-168316757D01*
X192810000Y-168327231D01*
X192810000Y-167433012D01*
X192867007Y-167465925D01*
X192994174Y-167500000D01*
X193125826Y-167500000D01*
X193252993Y-167465925D01*
X193310000Y-167433012D01*
X193310000Y-168327230D01*
G37*
G04 #@! TD.AperFunction*
G04 #@! TA.AperFunction,Conductor*
G36*
X192594075Y-166807007D02*
G01*
X192560000Y-166934174D01*
X192560000Y-167065826D01*
X192594075Y-167192993D01*
X192626988Y-167250000D01*
X190953012Y-167250000D01*
X190985925Y-167192993D01*
X191020000Y-167065826D01*
X191020000Y-166934174D01*
X190985925Y-166807007D01*
X190953012Y-166750000D01*
X192626988Y-166750000D01*
X192594075Y-166807007D01*
G37*
G04 #@! TD.AperFunction*
G04 #@! TA.AperFunction,Conductor*
G36*
X215175500Y-190719962D02*
G01*
X215230038Y-190774500D01*
X215250000Y-190849000D01*
X215250000Y-191250000D01*
X216166988Y-191250000D01*
X216134075Y-191307007D01*
X216100000Y-191434174D01*
X216100000Y-191565826D01*
X216134075Y-191692993D01*
X216166988Y-191750000D01*
X215250000Y-191750000D01*
X215250000Y-192397822D01*
X215250001Y-192397842D01*
X215256401Y-192457377D01*
X215306645Y-192592084D01*
X215306650Y-192592094D01*
X215392809Y-192707187D01*
X215392812Y-192707190D01*
X215507905Y-192793349D01*
X215507915Y-192793354D01*
X215642623Y-192843598D01*
X215642621Y-192843598D01*
X215702157Y-192849998D01*
X215702177Y-192850000D01*
X216350000Y-192850000D01*
X216350000Y-191933012D01*
X216407007Y-191965925D01*
X216534174Y-192000000D01*
X216665826Y-192000000D01*
X216792993Y-191965925D01*
X216850000Y-191933012D01*
X216850000Y-192850000D01*
X217497823Y-192850000D01*
X217497842Y-192849998D01*
X217557377Y-192843598D01*
X217692084Y-192793354D01*
X217692094Y-192793349D01*
X217807187Y-192707190D01*
X217807190Y-192707187D01*
X217893349Y-192592094D01*
X217893354Y-192592084D01*
X217943598Y-192457377D01*
X217949998Y-192397842D01*
X217950000Y-192397822D01*
X217950000Y-191750000D01*
X217033012Y-191750000D01*
X217065925Y-191692993D01*
X217100000Y-191565826D01*
X217100000Y-191434174D01*
X217065925Y-191307007D01*
X217033012Y-191250000D01*
X217950000Y-191250000D01*
X217950000Y-190849000D01*
X217969962Y-190774500D01*
X218024500Y-190719962D01*
X218099000Y-190700000D01*
X218651000Y-190700000D01*
X218725500Y-190719962D01*
X218780038Y-190774500D01*
X218800000Y-190849000D01*
X218800000Y-194851000D01*
X218780038Y-194925500D01*
X218725500Y-194980038D01*
X218651000Y-195000000D01*
X214749000Y-195000000D01*
X214674500Y-194980038D01*
X214619962Y-194925500D01*
X214600000Y-194851000D01*
X214600000Y-190849000D01*
X214619962Y-190774500D01*
X214674500Y-190719962D01*
X214749000Y-190700000D01*
X215101000Y-190700000D01*
X215175500Y-190719962D01*
G37*
G04 #@! TD.AperFunction*
G04 #@! TA.AperFunction,Conductor*
G36*
X218434766Y-115416637D02*
G01*
X218501805Y-115436323D01*
X218547559Y-115489127D01*
X218557502Y-115558286D01*
X218528476Y-115621841D01*
X218522450Y-115628313D01*
X218519483Y-115631279D01*
X218519475Y-115631290D01*
X218440426Y-115768209D01*
X218440423Y-115768216D01*
X218399500Y-115920943D01*
X218399500Y-116079056D01*
X218440423Y-116231783D01*
X218440426Y-116231790D01*
X218519475Y-116368709D01*
X218519479Y-116368714D01*
X218519480Y-116368716D01*
X218631284Y-116480520D01*
X218631286Y-116480521D01*
X218631290Y-116480524D01*
X218768209Y-116559573D01*
X218768216Y-116559577D01*
X218920943Y-116600500D01*
X218920945Y-116600500D01*
X219079055Y-116600500D01*
X219079057Y-116600500D01*
X219231784Y-116559577D01*
X219368716Y-116480520D01*
X219480520Y-116368716D01*
X219559577Y-116231784D01*
X219600500Y-116079057D01*
X219600500Y-115920943D01*
X219559577Y-115768216D01*
X219559573Y-115768209D01*
X219480524Y-115631290D01*
X219480518Y-115631282D01*
X219477572Y-115628336D01*
X219475880Y-115625238D01*
X219475574Y-115624839D01*
X219475636Y-115624791D01*
X219444087Y-115567013D01*
X219449071Y-115497321D01*
X219490943Y-115441388D01*
X219556407Y-115416971D01*
X219565229Y-115416655D01*
X220476005Y-115416670D01*
X220543041Y-115436356D01*
X220588795Y-115489160D01*
X220600000Y-115540670D01*
X220600000Y-116775500D01*
X220580315Y-116842539D01*
X220527511Y-116888294D01*
X220476000Y-116899500D01*
X220420943Y-116899500D01*
X220268216Y-116940423D01*
X220268209Y-116940426D01*
X220131290Y-117019475D01*
X220131282Y-117019481D01*
X220019481Y-117131282D01*
X220019475Y-117131290D01*
X219940426Y-117268209D01*
X219940423Y-117268216D01*
X219899500Y-117420943D01*
X219899500Y-117579056D01*
X219940423Y-117731783D01*
X219940426Y-117731790D01*
X220019475Y-117868709D01*
X220019479Y-117868714D01*
X220019480Y-117868716D01*
X220131284Y-117980520D01*
X220131286Y-117980521D01*
X220131290Y-117980524D01*
X220268209Y-118059573D01*
X220268216Y-118059577D01*
X220420943Y-118100500D01*
X220420945Y-118100500D01*
X220476000Y-118100500D01*
X220484685Y-118103050D01*
X220493647Y-118101762D01*
X220517687Y-118112740D01*
X220543039Y-118120185D01*
X220548966Y-118127025D01*
X220557203Y-118130787D01*
X220571492Y-118153021D01*
X220588794Y-118172989D01*
X220591081Y-118183503D01*
X220594977Y-118189565D01*
X220600000Y-118224500D01*
X220600000Y-118275500D01*
X220580315Y-118342539D01*
X220527511Y-118388294D01*
X220476000Y-118399500D01*
X220420943Y-118399500D01*
X220268216Y-118440423D01*
X220268209Y-118440426D01*
X220131290Y-118519475D01*
X220131282Y-118519481D01*
X220019481Y-118631282D01*
X220019475Y-118631290D01*
X219940426Y-118768209D01*
X219940423Y-118768216D01*
X219899500Y-118920943D01*
X219899500Y-119079056D01*
X219940423Y-119231783D01*
X219940426Y-119231790D01*
X220019475Y-119368709D01*
X220019479Y-119368714D01*
X220019480Y-119368716D01*
X220131284Y-119480520D01*
X220131286Y-119480521D01*
X220131290Y-119480524D01*
X220268209Y-119559573D01*
X220268216Y-119559577D01*
X220420943Y-119600500D01*
X220420945Y-119600500D01*
X220476000Y-119600500D01*
X220543039Y-119620185D01*
X220588794Y-119672989D01*
X220600000Y-119724500D01*
X220600000Y-132211533D01*
X220580315Y-132278572D01*
X220563681Y-132299214D01*
X220108014Y-132754881D01*
X220046691Y-132788366D01*
X220020333Y-132791200D01*
X214251009Y-132791200D01*
X214218916Y-132786975D01*
X214143976Y-132766895D01*
X214079057Y-132749500D01*
X213920943Y-132749500D01*
X213781084Y-132786975D01*
X213748991Y-132791200D01*
X195046600Y-132791200D01*
X188798909Y-132786629D01*
X188731884Y-132766895D01*
X188686168Y-132714058D01*
X188675000Y-132662629D01*
X188675000Y-130920943D01*
X214899500Y-130920943D01*
X214899500Y-131079056D01*
X214940423Y-131231783D01*
X214940426Y-131231790D01*
X215019475Y-131368709D01*
X215019479Y-131368714D01*
X215019480Y-131368716D01*
X215131284Y-131480520D01*
X215131286Y-131480521D01*
X215131290Y-131480524D01*
X215268209Y-131559573D01*
X215268216Y-131559577D01*
X215420943Y-131600500D01*
X215420945Y-131600500D01*
X215579055Y-131600500D01*
X215579057Y-131600500D01*
X215731784Y-131559577D01*
X215868716Y-131480520D01*
X215980520Y-131368716D01*
X216059577Y-131231784D01*
X216100500Y-131079057D01*
X216100500Y-130920943D01*
X216899500Y-130920943D01*
X216899500Y-131079056D01*
X216940423Y-131231783D01*
X216940426Y-131231790D01*
X217019475Y-131368709D01*
X217019479Y-131368714D01*
X217019480Y-131368716D01*
X217131284Y-131480520D01*
X217131286Y-131480521D01*
X217131290Y-131480524D01*
X217268209Y-131559573D01*
X217268216Y-131559577D01*
X217420943Y-131600500D01*
X217420945Y-131600500D01*
X217579055Y-131600500D01*
X217579057Y-131600500D01*
X217731784Y-131559577D01*
X217868716Y-131480520D01*
X217980520Y-131368716D01*
X218059577Y-131231784D01*
X218100500Y-131079057D01*
X218100500Y-130920943D01*
X218059577Y-130768216D01*
X218005825Y-130675114D01*
X217980524Y-130631290D01*
X217980518Y-130631282D01*
X217868717Y-130519481D01*
X217868709Y-130519475D01*
X217731790Y-130440426D01*
X217731786Y-130440424D01*
X217731784Y-130440423D01*
X217579057Y-130399500D01*
X217420943Y-130399500D01*
X217268216Y-130440423D01*
X217268209Y-130440426D01*
X217131290Y-130519475D01*
X217131282Y-130519481D01*
X217019481Y-130631282D01*
X217019475Y-130631290D01*
X216940426Y-130768209D01*
X216940423Y-130768216D01*
X216899500Y-130920943D01*
X216100500Y-130920943D01*
X216059577Y-130768216D01*
X216005825Y-130675114D01*
X215980524Y-130631290D01*
X215980518Y-130631282D01*
X215868717Y-130519481D01*
X215868709Y-130519475D01*
X215731790Y-130440426D01*
X215731786Y-130440424D01*
X215731784Y-130440423D01*
X215579057Y-130399500D01*
X215420943Y-130399500D01*
X215268216Y-130440423D01*
X215268209Y-130440426D01*
X215131290Y-130519475D01*
X215131282Y-130519481D01*
X215019481Y-130631282D01*
X215019475Y-130631290D01*
X214940426Y-130768209D01*
X214940423Y-130768216D01*
X214899500Y-130920943D01*
X188675000Y-130920943D01*
X188675000Y-129920943D01*
X203899500Y-129920943D01*
X203899500Y-130079056D01*
X203940423Y-130231783D01*
X203940426Y-130231790D01*
X204019475Y-130368709D01*
X204019479Y-130368714D01*
X204019480Y-130368716D01*
X204131284Y-130480520D01*
X204131286Y-130480521D01*
X204131290Y-130480524D01*
X204198765Y-130519480D01*
X204268216Y-130559577D01*
X204420943Y-130600500D01*
X204420945Y-130600500D01*
X204579055Y-130600500D01*
X204579057Y-130600500D01*
X204731784Y-130559577D01*
X204868716Y-130480520D01*
X204980520Y-130368716D01*
X205059577Y-130231784D01*
X205100500Y-130079057D01*
X205100500Y-129920943D01*
X205059577Y-129768216D01*
X205059573Y-129768209D01*
X204980524Y-129631290D01*
X204980518Y-129631282D01*
X204868717Y-129519481D01*
X204868709Y-129519475D01*
X204731790Y-129440426D01*
X204731786Y-129440424D01*
X204731784Y-129440423D01*
X204579057Y-129399500D01*
X204420943Y-129399500D01*
X204268216Y-129440423D01*
X204268209Y-129440426D01*
X204131290Y-129519475D01*
X204131282Y-129519481D01*
X204019481Y-129631282D01*
X204019475Y-129631290D01*
X203940426Y-129768209D01*
X203940423Y-129768216D01*
X203899500Y-129920943D01*
X188675000Y-129920943D01*
X188675000Y-128439000D01*
X188694685Y-128371961D01*
X188747489Y-128326206D01*
X188799000Y-128315000D01*
X210624446Y-128315000D01*
X210624447Y-128315000D01*
X210630747Y-126796565D01*
X210650709Y-126729613D01*
X210703702Y-126684078D01*
X210722643Y-126677313D01*
X210747784Y-126670577D01*
X210747788Y-126670574D01*
X210747790Y-126670574D01*
X210884709Y-126591524D01*
X210884708Y-126591524D01*
X210884716Y-126591520D01*
X210996520Y-126479716D01*
X211075577Y-126342784D01*
X211116500Y-126190057D01*
X211116500Y-126031943D01*
X211075577Y-125879216D01*
X211075573Y-125879209D01*
X210996524Y-125742290D01*
X210996518Y-125742282D01*
X210884717Y-125630481D01*
X210884709Y-125630475D01*
X210747790Y-125551426D01*
X210747786Y-125551424D01*
X210747784Y-125551423D01*
X210747782Y-125551422D01*
X210747779Y-125551421D01*
X210728338Y-125546212D01*
X210668678Y-125509847D01*
X210638150Y-125447000D01*
X210636434Y-125425933D01*
X210651393Y-121820943D01*
X215399500Y-121820943D01*
X215399500Y-121979056D01*
X215440423Y-122131783D01*
X215440426Y-122131790D01*
X215519475Y-122268709D01*
X215519479Y-122268714D01*
X215519480Y-122268716D01*
X215631284Y-122380520D01*
X215631286Y-122380521D01*
X215631290Y-122380524D01*
X215735040Y-122440423D01*
X215768216Y-122459577D01*
X215920943Y-122500500D01*
X215920945Y-122500500D01*
X216079055Y-122500500D01*
X216079057Y-122500500D01*
X216231784Y-122459577D01*
X216368716Y-122380520D01*
X216480520Y-122268716D01*
X216559577Y-122131784D01*
X216600500Y-121979057D01*
X216600500Y-121820943D01*
X216559577Y-121668216D01*
X216559573Y-121668209D01*
X216480524Y-121531290D01*
X216480518Y-121531282D01*
X216368717Y-121419481D01*
X216368709Y-121419475D01*
X216231790Y-121340426D01*
X216231786Y-121340424D01*
X216231784Y-121340423D01*
X216079057Y-121299500D01*
X215920943Y-121299500D01*
X215768216Y-121340423D01*
X215768209Y-121340426D01*
X215631290Y-121419475D01*
X215631282Y-121419481D01*
X215519481Y-121531282D01*
X215519475Y-121531290D01*
X215440426Y-121668209D01*
X215440423Y-121668216D01*
X215399500Y-121820943D01*
X210651393Y-121820943D01*
X210660228Y-119691721D01*
X210680190Y-119624769D01*
X210733183Y-119579234D01*
X210802382Y-119569577D01*
X210816316Y-119572465D01*
X210920943Y-119600500D01*
X210920945Y-119600500D01*
X211079055Y-119600500D01*
X211079057Y-119600500D01*
X211231784Y-119559577D01*
X211368716Y-119480520D01*
X211480520Y-119368716D01*
X211559577Y-119231784D01*
X211600500Y-119079057D01*
X211600500Y-118920943D01*
X218399500Y-118920943D01*
X218399500Y-119079056D01*
X218440423Y-119231783D01*
X218440426Y-119231790D01*
X218519475Y-119368709D01*
X218519479Y-119368714D01*
X218519480Y-119368716D01*
X218631284Y-119480520D01*
X218631286Y-119480521D01*
X218631290Y-119480524D01*
X218768209Y-119559573D01*
X218768216Y-119559577D01*
X218920943Y-119600500D01*
X218920945Y-119600500D01*
X219079055Y-119600500D01*
X219079057Y-119600500D01*
X219231784Y-119559577D01*
X219368716Y-119480520D01*
X219480520Y-119368716D01*
X219559577Y-119231784D01*
X219600500Y-119079057D01*
X219600500Y-118920943D01*
X219559577Y-118768216D01*
X219559573Y-118768209D01*
X219480524Y-118631290D01*
X219480518Y-118631282D01*
X219368717Y-118519481D01*
X219368709Y-118519475D01*
X219231790Y-118440426D01*
X219231786Y-118440424D01*
X219231784Y-118440423D01*
X219079057Y-118399500D01*
X218920943Y-118399500D01*
X218768216Y-118440423D01*
X218768209Y-118440426D01*
X218631290Y-118519475D01*
X218631282Y-118519481D01*
X218519481Y-118631282D01*
X218519475Y-118631290D01*
X218440426Y-118768209D01*
X218440423Y-118768216D01*
X218399500Y-118920943D01*
X211600500Y-118920943D01*
X211559577Y-118768216D01*
X211559573Y-118768209D01*
X211480524Y-118631290D01*
X211480518Y-118631282D01*
X211368717Y-118519481D01*
X211368709Y-118519475D01*
X211231790Y-118440426D01*
X211231786Y-118440424D01*
X211231784Y-118440423D01*
X211079057Y-118399500D01*
X210920943Y-118399500D01*
X210827366Y-118424574D01*
X210822070Y-118425993D01*
X210796828Y-118425392D01*
X210771821Y-118428882D01*
X210762491Y-118424574D01*
X210752220Y-118424330D01*
X210731310Y-118410177D01*
X210708386Y-118399593D01*
X210702866Y-118390926D01*
X210694358Y-118385167D01*
X210684419Y-118361957D01*
X210670856Y-118340659D01*
X210668708Y-118325269D01*
X210666854Y-118320939D01*
X210665979Y-118305729D01*
X210666445Y-118193386D01*
X210686407Y-118126434D01*
X210739400Y-118080899D01*
X210808599Y-118071242D01*
X210822516Y-118074126D01*
X210920943Y-118100500D01*
X210920946Y-118100500D01*
X211079055Y-118100500D01*
X211079057Y-118100500D01*
X211231784Y-118059577D01*
X211368716Y-117980520D01*
X211480520Y-117868716D01*
X211559577Y-117731784D01*
X211600500Y-117579057D01*
X211600500Y-117420943D01*
X218399500Y-117420943D01*
X218399500Y-117579056D01*
X218440423Y-117731783D01*
X218440426Y-117731790D01*
X218519475Y-117868709D01*
X218519479Y-117868714D01*
X218519480Y-117868716D01*
X218631284Y-117980520D01*
X218631286Y-117980521D01*
X218631290Y-117980524D01*
X218768209Y-118059573D01*
X218768216Y-118059577D01*
X218920943Y-118100500D01*
X218920945Y-118100500D01*
X219079055Y-118100500D01*
X219079057Y-118100500D01*
X219231784Y-118059577D01*
X219368716Y-117980520D01*
X219480520Y-117868716D01*
X219559577Y-117731784D01*
X219600500Y-117579057D01*
X219600500Y-117420943D01*
X219559577Y-117268216D01*
X219525225Y-117208716D01*
X219480524Y-117131290D01*
X219480518Y-117131282D01*
X219368717Y-117019481D01*
X219368709Y-117019475D01*
X219231790Y-116940426D01*
X219231786Y-116940424D01*
X219231784Y-116940423D01*
X219079057Y-116899500D01*
X218920943Y-116899500D01*
X218768216Y-116940423D01*
X218768209Y-116940426D01*
X218631290Y-117019475D01*
X218631282Y-117019481D01*
X218519481Y-117131282D01*
X218519475Y-117131290D01*
X218440426Y-117268209D01*
X218440423Y-117268216D01*
X218399500Y-117420943D01*
X211600500Y-117420943D01*
X211559577Y-117268216D01*
X211525225Y-117208716D01*
X211480524Y-117131290D01*
X211480518Y-117131282D01*
X211368717Y-117019481D01*
X211368709Y-117019475D01*
X211231790Y-116940426D01*
X211231786Y-116940424D01*
X211231784Y-116940423D01*
X211079057Y-116899500D01*
X210920943Y-116899500D01*
X210828301Y-116924323D01*
X210758451Y-116922660D01*
X210700589Y-116883497D01*
X210673085Y-116819268D01*
X210672210Y-116804059D01*
X210677455Y-115539993D01*
X210697418Y-115473039D01*
X210750411Y-115427504D01*
X210801455Y-115416511D01*
X218434766Y-115416637D01*
G37*
G04 #@! TD.AperFunction*
M02*
