G04 #@! TF.GenerationSoftware,KiCad,Pcbnew,9.0.1*
G04 #@! TF.CreationDate,2025-04-17T02:19:35-07:00*
G04 #@! TF.ProjectId,EE 447,45452034-3437-42e6-9b69-6361645f7063,rev?*
G04 #@! TF.SameCoordinates,Original*
G04 #@! TF.FileFunction,Copper,L2,Inr*
G04 #@! TF.FilePolarity,Positive*
%FSLAX46Y46*%
G04 Gerber Fmt 4.6, Leading zero omitted, Abs format (unit mm)*
G04 Created by KiCad (PCBNEW 9.0.1) date 2025-04-17 02:19:35*
%MOMM*%
%LPD*%
G01*
G04 APERTURE LIST*
G04 #@! TA.AperFunction,ComponentPad*
%ADD10R,1.508000X1.508000*%
G04 #@! TD*
G04 #@! TA.AperFunction,ComponentPad*
%ADD11C,1.508000*%
G04 #@! TD*
G04 #@! TA.AperFunction,ComponentPad*
%ADD12O,1.200000X2.400000*%
G04 #@! TD*
G04 #@! TA.AperFunction,ComponentPad*
%ADD13R,1.700000X1.700000*%
G04 #@! TD*
G04 #@! TA.AperFunction,ComponentPad*
%ADD14O,1.700000X1.700000*%
G04 #@! TD*
G04 #@! TA.AperFunction,ComponentPad*
%ADD15C,1.700000*%
G04 #@! TD*
G04 #@! TA.AperFunction,ComponentPad*
%ADD16C,1.320800*%
G04 #@! TD*
G04 #@! TA.AperFunction,ComponentPad*
%ADD17C,1.725000*%
G04 #@! TD*
G04 #@! TA.AperFunction,ViaPad*
%ADD18C,0.600000*%
G04 #@! TD*
G04 #@! TA.AperFunction,Conductor*
%ADD19C,0.300000*%
G04 #@! TD*
G04 APERTURE END LIST*
D10*
X194400000Y-181200000D03*
D11*
X197400000Y-181200000D03*
X200400000Y-181200000D03*
D12*
X191600000Y-181200000D03*
X203200000Y-181200000D03*
D13*
X187980000Y-167000000D03*
D14*
X190520000Y-167000000D03*
X193060000Y-167000000D03*
X195600000Y-167000000D03*
X198140000Y-167000000D03*
X200680000Y-167000000D03*
X203220000Y-167000000D03*
X205760000Y-167000000D03*
X208300000Y-167000000D03*
X210840000Y-167000000D03*
X213380000Y-167000000D03*
X215920000Y-167000000D03*
X218460000Y-167000000D03*
X221000000Y-167000000D03*
X223540000Y-167000000D03*
D15*
X187980000Y-144140000D03*
D14*
X190520000Y-144140000D03*
X193060000Y-144140000D03*
X195600000Y-144140000D03*
X198140000Y-144140000D03*
X200680000Y-144140000D03*
X203220000Y-144140000D03*
X205760000Y-144140000D03*
X208300000Y-144140000D03*
X210840000Y-144140000D03*
X213380000Y-144140000D03*
X215920000Y-144140000D03*
X218460000Y-144140000D03*
X221000000Y-144140000D03*
X223540000Y-144140000D03*
D13*
X216600000Y-191500000D03*
X219800000Y-170800000D03*
X188500000Y-196460000D03*
D15*
X188500000Y-199000000D03*
D16*
X223043999Y-193040000D03*
X225044000Y-193040000D03*
D13*
X194600000Y-176000000D03*
D17*
X235000000Y-118420000D03*
X237540000Y-118420000D03*
X235000000Y-120960000D03*
X237540000Y-120960000D03*
X235000000Y-123500000D03*
X237540000Y-123500000D03*
X235000000Y-126040000D03*
X237540000Y-126040000D03*
X235000000Y-128580000D03*
X237540000Y-128580000D03*
X235000000Y-131120000D03*
X237540000Y-131120000D03*
X235000000Y-133660000D03*
X237540000Y-133660000D03*
X235000000Y-136200000D03*
X237540000Y-136200000D03*
X235000000Y-138740000D03*
X237540000Y-138740000D03*
X235000000Y-141280000D03*
X237540000Y-141280000D03*
X235000000Y-143820000D03*
X237540000Y-143820000D03*
X235000000Y-146360000D03*
X237540000Y-146360000D03*
D13*
X222725000Y-188800000D03*
D15*
X225265000Y-188800000D03*
D18*
X208800000Y-194600000D03*
X220218000Y-162306000D03*
X239522000Y-118364000D03*
X222000000Y-117500000D03*
X228000000Y-119000000D03*
X220218000Y-160020000D03*
X211400000Y-188600000D03*
X220218000Y-157480000D03*
X187000000Y-125000000D03*
X190000000Y-196000000D03*
X214000000Y-170000000D03*
X214000000Y-135350000D03*
X186600000Y-176000000D03*
X210000000Y-170000000D03*
X229000000Y-122000000D03*
X221600000Y-174000000D03*
X241808000Y-156464000D03*
X231648000Y-154940000D03*
X241808000Y-171704000D03*
X241808000Y-194818000D03*
X187000000Y-192000000D03*
X187960000Y-201930000D03*
X231648000Y-157480000D03*
X200800000Y-186800000D03*
X188600000Y-174200000D03*
X235458000Y-157480000D03*
X237490000Y-185420000D03*
X210820000Y-162306000D03*
X188000000Y-194000000D03*
X214630000Y-157480000D03*
X212598000Y-157480000D03*
X203200000Y-106680000D03*
X227200000Y-200800000D03*
X241808000Y-181864000D03*
X205400000Y-196000000D03*
X190000000Y-198000000D03*
X221962500Y-124500000D03*
X241808000Y-153670000D03*
X233680000Y-168910000D03*
X241808000Y-148590000D03*
X206000000Y-165000000D03*
X195400000Y-174200000D03*
X221962500Y-121500000D03*
X241808000Y-159004000D03*
X241808000Y-125730000D03*
X241808000Y-127000000D03*
X231648000Y-160020000D03*
X191500000Y-117500000D03*
X241808000Y-130810000D03*
X188600000Y-176400000D03*
X241808000Y-142240000D03*
X241808000Y-111506000D03*
X229037500Y-139000000D03*
X241808000Y-172974000D03*
X241808000Y-145034000D03*
X187000000Y-128000000D03*
X186600000Y-169200000D03*
X200000000Y-172000000D03*
X203400000Y-192000000D03*
X241808000Y-170434000D03*
X203400000Y-186000000D03*
X241808000Y-188468000D03*
X187400000Y-174000000D03*
X187600000Y-164400000D03*
X241808000Y-139700000D03*
X220218000Y-150368000D03*
X224028000Y-152654000D03*
X226500000Y-119000000D03*
X193500000Y-114500000D03*
X233680000Y-190500000D03*
X241808000Y-135890000D03*
X237490000Y-154940000D03*
X241808000Y-198628000D03*
X219000000Y-107000000D03*
X189500000Y-116000000D03*
X219000000Y-116000000D03*
X203200000Y-175200000D03*
X239522000Y-119634000D03*
X186800000Y-157400000D03*
X241808000Y-115316000D03*
X219962500Y-135000000D03*
X190600000Y-173000000D03*
X211000000Y-105500000D03*
X186800000Y-149400000D03*
X210516000Y-126111000D03*
X193500000Y-113000000D03*
X187600000Y-152400000D03*
X231140000Y-116840000D03*
X202000000Y-172000000D03*
X218440000Y-152654000D03*
X241808000Y-149860000D03*
X229870000Y-201930000D03*
X212090000Y-201930000D03*
X205400000Y-198000000D03*
X213800000Y-175800000D03*
X216662000Y-152654000D03*
X214630000Y-154940000D03*
X241808000Y-106426000D03*
X239000000Y-106000000D03*
X186800000Y-146400000D03*
X218440000Y-162306000D03*
X204500000Y-130000000D03*
X235000000Y-115000000D03*
X203200000Y-154940000D03*
X223500000Y-119000000D03*
X230000000Y-182000000D03*
X226400000Y-178600000D03*
X217000000Y-175800000D03*
X193500000Y-117500000D03*
X212000000Y-170000000D03*
X203200000Y-160020000D03*
X203200000Y-149860000D03*
X241808000Y-179324000D03*
X224028000Y-154940000D03*
X241808000Y-120396000D03*
X187000000Y-134000000D03*
X241808000Y-187198000D03*
X186800000Y-159400000D03*
X211000000Y-113000000D03*
X237490000Y-160020000D03*
X226400000Y-177800000D03*
X229000000Y-135500000D03*
X241808000Y-193548000D03*
X216000000Y-165000000D03*
X186800000Y-151400000D03*
X217000000Y-105500000D03*
X187600000Y-151400000D03*
X187000000Y-137000000D03*
X197000000Y-157000000D03*
X191400000Y-185000000D03*
X186800000Y-152400000D03*
X207010000Y-139801600D03*
X225000000Y-119000000D03*
X187600000Y-147400000D03*
X237490000Y-162306000D03*
X187400000Y-173000000D03*
X187600000Y-158400000D03*
X228600000Y-198600000D03*
X196850000Y-201930000D03*
X189400000Y-174200000D03*
X187400000Y-172000000D03*
X233680000Y-173990000D03*
X217000000Y-107000000D03*
X205400000Y-185000000D03*
X203400000Y-185000000D03*
X216408000Y-154940000D03*
X186800000Y-150400000D03*
X187600000Y-150400000D03*
X241808000Y-129540000D03*
X241808000Y-122936000D03*
X198200000Y-191600000D03*
X187500000Y-116000000D03*
X191000000Y-125000000D03*
X186800000Y-154400000D03*
X210500000Y-137033000D03*
X187400000Y-169200000D03*
X216000000Y-175200000D03*
X187500000Y-105500000D03*
X205400000Y-190000000D03*
X195400000Y-172000000D03*
X187600000Y-148400000D03*
X186600000Y-174000000D03*
X223520000Y-201930000D03*
X187600000Y-159400000D03*
X231140000Y-111760000D03*
X241808000Y-196088000D03*
X208280000Y-201930000D03*
X216000000Y-170000000D03*
X200000000Y-170000000D03*
X215400000Y-200400000D03*
X226000000Y-198600000D03*
X237490000Y-179070000D03*
X241808000Y-133350000D03*
X202000000Y-170000000D03*
X187600000Y-154400000D03*
X195400000Y-170000000D03*
X206000000Y-170000000D03*
X187600000Y-176000000D03*
X189500000Y-117500000D03*
X205400000Y-180800000D03*
X197000000Y-153000000D03*
X210800000Y-200400000D03*
X219000000Y-117500000D03*
X239522000Y-128524000D03*
X203400000Y-188000000D03*
X191500000Y-105500000D03*
X198000000Y-123000000D03*
X241808000Y-162814000D03*
X237490000Y-168910000D03*
X211200000Y-194600000D03*
X209950001Y-192200000D03*
X228000000Y-117500000D03*
X217500000Y-131000000D03*
X199000000Y-191600000D03*
X208600000Y-187200000D03*
X195400000Y-185000000D03*
X188600000Y-175600000D03*
X239522000Y-122174000D03*
X241808000Y-116586000D03*
X193040000Y-201930000D03*
X191500000Y-119000000D03*
X241808000Y-112776000D03*
X241808000Y-197358000D03*
X187600000Y-163400000D03*
X241808000Y-121666000D03*
X241808000Y-184658000D03*
X207500000Y-107000000D03*
X241808000Y-157734000D03*
X239268000Y-160020000D03*
X208000000Y-170000000D03*
X209000000Y-105500000D03*
X239522000Y-131064000D03*
X220218000Y-152654000D03*
X197400000Y-191600000D03*
X209400000Y-188600000D03*
X204800000Y-172000000D03*
X241808000Y-178054000D03*
X191500000Y-116000000D03*
X193400000Y-185000000D03*
X239522000Y-125984000D03*
X186600000Y-171000000D03*
X220500000Y-117500000D03*
X191000000Y-122000000D03*
X215000000Y-105500000D03*
X237490000Y-165100000D03*
X209800000Y-198400000D03*
X197000000Y-149000000D03*
X186600000Y-173000000D03*
X191500000Y-113000000D03*
X193000000Y-172000000D03*
X193000000Y-171000000D03*
X218440000Y-154940000D03*
X222000000Y-119000000D03*
X241808000Y-143510000D03*
X233680000Y-157480000D03*
X212598000Y-162306000D03*
X214630000Y-162306000D03*
X218962500Y-139000000D03*
X203400000Y-196000000D03*
X186600000Y-172000000D03*
X241808000Y-169164000D03*
X187500000Y-113000000D03*
X222250000Y-160020000D03*
X241808000Y-165354000D03*
X204000000Y-170000000D03*
X233680000Y-154940000D03*
X241808000Y-175768000D03*
X215900000Y-201930000D03*
X237490000Y-157480000D03*
X195580000Y-196088000D03*
X186800000Y-162400000D03*
X193000000Y-125000000D03*
X200800000Y-187600000D03*
X188000000Y-146000000D03*
X189000000Y-125000000D03*
X187600000Y-162400000D03*
X239522000Y-120904000D03*
X241808000Y-138430000D03*
X241808000Y-137160000D03*
X219000000Y-119000000D03*
X201400000Y-185000000D03*
X219000000Y-105500000D03*
X218440000Y-150368000D03*
X190000000Y-200000000D03*
X222250000Y-154940000D03*
X208400000Y-188600000D03*
X219710000Y-201930000D03*
X216408000Y-162306000D03*
X222962500Y-139000000D03*
X211200000Y-192200000D03*
X239268000Y-154940000D03*
X187000000Y-131000000D03*
X214630000Y-160020000D03*
X231648000Y-152654000D03*
X239268000Y-162306000D03*
X203400000Y-194000000D03*
X239268000Y-157480000D03*
X241808000Y-199898000D03*
X210400000Y-188600000D03*
X241808000Y-108966000D03*
X241808000Y-146050000D03*
X210820000Y-160020000D03*
X239522000Y-115570000D03*
X190000000Y-194000000D03*
X222250000Y-162306000D03*
X186800000Y-147400000D03*
X189500000Y-105500000D03*
X187600000Y-149400000D03*
X209950001Y-194600000D03*
X218200000Y-137100000D03*
X186600000Y-175000000D03*
X241808000Y-164084000D03*
X241808000Y-151130000D03*
X241808000Y-140970000D03*
X188000000Y-165500000D03*
X237490000Y-201930000D03*
X203200000Y-111760000D03*
X241808000Y-128270000D03*
X189000000Y-122000000D03*
X187000000Y-122000000D03*
X241808000Y-134620000D03*
X233680000Y-201930000D03*
X216408000Y-157480000D03*
X231648000Y-162306000D03*
X186800000Y-156400000D03*
X193500000Y-116000000D03*
X241808000Y-117856000D03*
X197000000Y-194700000D03*
X222250000Y-157480000D03*
X221800000Y-198600000D03*
X241808000Y-174244000D03*
X224028000Y-162306000D03*
X208800000Y-192200000D03*
X239522000Y-127254000D03*
X189500000Y-119000000D03*
X235458000Y-152654000D03*
X186600000Y-170000000D03*
X199400000Y-185000000D03*
X241808000Y-183134000D03*
X228000000Y-126000000D03*
X241808000Y-119126000D03*
X187000000Y-140000000D03*
X187600000Y-161400000D03*
X229500000Y-119000000D03*
X201000000Y-165500000D03*
X193000000Y-122000000D03*
X204470000Y-201930000D03*
X205400000Y-192000000D03*
X225000000Y-117500000D03*
X214000000Y-111000000D03*
X211000000Y-117500000D03*
X207010000Y-149860000D03*
X235458000Y-154940000D03*
X186800000Y-161400000D03*
X196450000Y-188950000D03*
X187400000Y-170000000D03*
X226500000Y-117500000D03*
X203400000Y-190000000D03*
X187600000Y-156400000D03*
X223500000Y-165000000D03*
X200000000Y-174000000D03*
X241808000Y-186182000D03*
X191500000Y-114500000D03*
X241808000Y-155194000D03*
X186800000Y-164400000D03*
X196000000Y-145800000D03*
X193000000Y-170000000D03*
X241808000Y-201168000D03*
X186800000Y-160400000D03*
X214000000Y-133350000D03*
X241808000Y-110236000D03*
X203220000Y-145700000D03*
X207010000Y-154940000D03*
X241808000Y-114046000D03*
X207500000Y-105500000D03*
X198000000Y-170000000D03*
X187600000Y-153400000D03*
X187400000Y-171000000D03*
X219200000Y-198600000D03*
X229500000Y-117500000D03*
X239522000Y-132334000D03*
X221462500Y-131000000D03*
X198120000Y-116840000D03*
X241808000Y-132080000D03*
X235458000Y-162306000D03*
X212598000Y-160020000D03*
X187600000Y-157400000D03*
X235458000Y-160020000D03*
X241808000Y-107696000D03*
X215400000Y-199600000D03*
X187600000Y-175000000D03*
X237490000Y-152654000D03*
X187500000Y-114500000D03*
X205400000Y-182800000D03*
X241808000Y-180594000D03*
X241808000Y-192278000D03*
X241808000Y-167894000D03*
X189500000Y-113000000D03*
X222250000Y-150368000D03*
X187500000Y-117500000D03*
X205400000Y-186000000D03*
X210800000Y-199600000D03*
X241808000Y-147320000D03*
X187600000Y-160400000D03*
X241808000Y-161544000D03*
X193500000Y-105500000D03*
X216408000Y-160020000D03*
X241808000Y-105156000D03*
X237490000Y-190500000D03*
X208800000Y-193400000D03*
X193500000Y-119000000D03*
X199136000Y-196088000D03*
X220218000Y-154940000D03*
X198120000Y-111760000D03*
X186800000Y-153400000D03*
X239522000Y-123444000D03*
X222250000Y-152654000D03*
X223500000Y-117500000D03*
X221500000Y-128500000D03*
X187600000Y-155400000D03*
X186800000Y-163400000D03*
X187500000Y-119000000D03*
X233680000Y-179070000D03*
X227330000Y-201930000D03*
X233680000Y-185420000D03*
X186800000Y-148400000D03*
X203200000Y-116840000D03*
X207010000Y-160020000D03*
X239522000Y-116840000D03*
X218440000Y-157480000D03*
X233680000Y-162306000D03*
X215500000Y-131000000D03*
X211000000Y-119000000D03*
X200660000Y-201930000D03*
X224028000Y-157480000D03*
X213000000Y-105500000D03*
X203400000Y-198000000D03*
X233680000Y-165100000D03*
X197800000Y-194700000D03*
X186800000Y-155400000D03*
X241808000Y-124460000D03*
X233680000Y-152654000D03*
X239522000Y-124714000D03*
X209950001Y-193400000D03*
X220600000Y-200800000D03*
X241808000Y-152400000D03*
X224028000Y-160020000D03*
X239522000Y-129794000D03*
X215920000Y-145600000D03*
X241808000Y-176784000D03*
X186800000Y-158400000D03*
X216800000Y-135300000D03*
X233680000Y-160020000D03*
X190500000Y-201930000D03*
X189500000Y-114500000D03*
X228000000Y-130500000D03*
X211200000Y-193400000D03*
X224028000Y-150368000D03*
X205400000Y-194000000D03*
X186800000Y-165400000D03*
X241808000Y-191008000D03*
X241808000Y-189738000D03*
X220500000Y-119000000D03*
X197000000Y-161000000D03*
X229870000Y-195580000D03*
X241808000Y-166624000D03*
X223500000Y-146000000D03*
X239268000Y-152654000D03*
X204500000Y-126700000D03*
X241808000Y-160274000D03*
X205400000Y-188000000D03*
X198120000Y-106680000D03*
X218440000Y-160020000D03*
X197400000Y-185000000D03*
X215000000Y-193200000D03*
X209000000Y-109500000D03*
X218500000Y-112000000D03*
X216600000Y-193200000D03*
X218200000Y-193200000D03*
X211000000Y-109500000D03*
X218200000Y-194400000D03*
X215000000Y-194400000D03*
X212600000Y-110300000D03*
X191400000Y-169000000D03*
X190000000Y-170000000D03*
X216950000Y-123875000D03*
X193400000Y-130400000D03*
X190200000Y-129000000D03*
X215500000Y-126500000D03*
X190200000Y-130400000D03*
X191800000Y-129000000D03*
X191800000Y-131800000D03*
X190000000Y-169000000D03*
X190200000Y-131800000D03*
X219500000Y-128500000D03*
X219537500Y-131000000D03*
X191400000Y-170000000D03*
X213099698Y-116500302D03*
X191800000Y-130400000D03*
X193400000Y-129000000D03*
X204000000Y-141600000D03*
X225000000Y-126500000D03*
X225500000Y-128000000D03*
X231000000Y-126000000D03*
X224037500Y-124500000D03*
X225500000Y-130000000D03*
X216000000Y-121900000D03*
X207991650Y-136525000D03*
X195100000Y-141200000D03*
X213600000Y-196550000D03*
X214600000Y-196550000D03*
X215400000Y-196550000D03*
X212800000Y-178800000D03*
X204950000Y-174550000D03*
D19*
X236300000Y-137500000D02*
X228500000Y-137500000D01*
X237540000Y-138740000D02*
X236300000Y-137500000D01*
X237540000Y-138740000D02*
X238760000Y-138740000D01*
X238760000Y-138740000D02*
X239000000Y-138500000D01*
G04 #@! TA.AperFunction,Conductor*
G36*
X242385788Y-103919454D02*
G01*
X242466570Y-103973430D01*
X242520546Y-104054212D01*
X242539500Y-104149500D01*
X242539500Y-202650500D01*
X242520546Y-202745788D01*
X242466570Y-202826570D01*
X242385788Y-202880546D01*
X242290500Y-202899500D01*
X186349500Y-202899500D01*
X186254212Y-202880546D01*
X186173430Y-202826570D01*
X186119454Y-202745788D01*
X186100500Y-202650500D01*
X186100500Y-200242396D01*
X187964710Y-200242396D01*
X187981781Y-200251094D01*
X187981780Y-200251094D01*
X188183876Y-200316758D01*
X188393743Y-200349999D01*
X188393756Y-200350000D01*
X188606244Y-200350000D01*
X188606256Y-200349999D01*
X188816123Y-200316758D01*
X189018219Y-200251094D01*
X189035289Y-200242395D01*
X188500000Y-199707106D01*
X187964710Y-200242396D01*
X186100500Y-200242396D01*
X186100500Y-198893743D01*
X187150000Y-198893743D01*
X187150000Y-199106256D01*
X187183241Y-199316123D01*
X187248904Y-199518214D01*
X187257603Y-199535288D01*
X187792892Y-199000000D01*
X187727066Y-198934174D01*
X188000000Y-198934174D01*
X188000000Y-199065826D01*
X188034075Y-199192993D01*
X188099901Y-199307007D01*
X188192993Y-199400099D01*
X188307007Y-199465925D01*
X188434174Y-199500000D01*
X188565826Y-199500000D01*
X188692993Y-199465925D01*
X188807007Y-199400099D01*
X188900099Y-199307007D01*
X188965925Y-199192993D01*
X189000000Y-199065826D01*
X189000000Y-199000000D01*
X189207106Y-199000000D01*
X189742395Y-199535289D01*
X189751094Y-199518219D01*
X189816758Y-199316123D01*
X189849999Y-199106256D01*
X189850000Y-199106244D01*
X189850000Y-198893755D01*
X189849999Y-198893743D01*
X189816758Y-198683876D01*
X189751094Y-198481780D01*
X189742396Y-198464710D01*
X189207106Y-199000000D01*
X189000000Y-199000000D01*
X189000000Y-198934174D01*
X188965925Y-198807007D01*
X188900099Y-198692993D01*
X188807007Y-198599901D01*
X188692993Y-198534075D01*
X188565826Y-198500000D01*
X188434174Y-198500000D01*
X188307007Y-198534075D01*
X188192993Y-198599901D01*
X188099901Y-198692993D01*
X188034075Y-198807007D01*
X188000000Y-198934174D01*
X187727066Y-198934174D01*
X187257602Y-198464710D01*
X187248906Y-198481779D01*
X187248900Y-198481793D01*
X187183241Y-198683873D01*
X187183241Y-198683874D01*
X187150000Y-198893743D01*
X186100500Y-198893743D01*
X186100500Y-196960001D01*
X187150000Y-196960001D01*
X187150000Y-197357832D01*
X187156401Y-197417371D01*
X187156403Y-197417378D01*
X187206646Y-197552087D01*
X187292810Y-197667187D01*
X187292812Y-197667189D01*
X187407911Y-197753352D01*
X187458110Y-197772075D01*
X187542576Y-197687610D01*
X187623357Y-197633633D01*
X187718645Y-197614679D01*
X187813933Y-197633633D01*
X187894715Y-197687609D01*
X188499999Y-198292892D01*
X189105283Y-197687609D01*
X189186065Y-197633633D01*
X189281353Y-197614679D01*
X189376641Y-197633633D01*
X189457423Y-197687609D01*
X189457423Y-197687610D01*
X189541888Y-197772075D01*
X189592088Y-197753352D01*
X189707187Y-197667189D01*
X189707189Y-197667187D01*
X189793353Y-197552087D01*
X189843596Y-197417378D01*
X189843598Y-197417371D01*
X189849999Y-197357832D01*
X189850000Y-197357825D01*
X189850000Y-196960001D01*
X189849999Y-196960000D01*
X188565826Y-196960000D01*
X188692993Y-196925925D01*
X188807007Y-196860099D01*
X188900099Y-196767007D01*
X188965925Y-196652993D01*
X189000000Y-196525826D01*
X189000000Y-196471153D01*
X212799500Y-196471153D01*
X212799500Y-196628846D01*
X212830261Y-196783492D01*
X212830263Y-196783497D01*
X212890603Y-196929173D01*
X212890606Y-196929180D01*
X212918742Y-196971288D01*
X212978211Y-197060289D01*
X213089711Y-197171789D01*
X213089714Y-197171791D01*
X213220819Y-197259393D01*
X213220820Y-197259393D01*
X213220821Y-197259394D01*
X213366503Y-197319737D01*
X213366505Y-197319737D01*
X213366507Y-197319738D01*
X213517148Y-197349702D01*
X213521158Y-197350500D01*
X213678842Y-197350500D01*
X213833497Y-197319737D01*
X213979179Y-197259394D01*
X213979182Y-197259391D01*
X213982624Y-197257553D01*
X213986362Y-197256419D01*
X213990481Y-197254713D01*
X213990649Y-197255118D01*
X214075596Y-197229351D01*
X214172283Y-197238874D01*
X214217376Y-197257553D01*
X214220821Y-197259394D01*
X214366503Y-197319737D01*
X214366505Y-197319737D01*
X214366507Y-197319738D01*
X214517148Y-197349702D01*
X214521158Y-197350500D01*
X214678842Y-197350500D01*
X214833497Y-197319737D01*
X214904717Y-197290236D01*
X214999999Y-197271284D01*
X215095284Y-197290237D01*
X215166503Y-197319737D01*
X215321158Y-197350500D01*
X215478842Y-197350500D01*
X215633497Y-197319737D01*
X215779179Y-197259394D01*
X215910289Y-197171789D01*
X216021789Y-197060289D01*
X216109394Y-196929179D01*
X216169737Y-196783497D01*
X216173017Y-196767007D01*
X216180635Y-196728712D01*
X233099500Y-196728712D01*
X233099500Y-196971288D01*
X233111217Y-197060289D01*
X233131162Y-197211790D01*
X233131163Y-197211795D01*
X233193940Y-197446082D01*
X233193948Y-197446105D01*
X233286770Y-197670201D01*
X233286778Y-197670217D01*
X233408058Y-197880279D01*
X233408064Y-197880289D01*
X233555729Y-198072731D01*
X233555738Y-198072741D01*
X233727258Y-198244261D01*
X233727268Y-198244270D01*
X233790634Y-198292892D01*
X233919711Y-198391936D01*
X233919720Y-198391941D01*
X234129782Y-198513221D01*
X234129798Y-198513229D01*
X234269858Y-198571242D01*
X234353900Y-198606054D01*
X234353911Y-198606057D01*
X234353917Y-198606059D01*
X234537021Y-198655121D01*
X234588211Y-198668838D01*
X234828712Y-198700500D01*
X235071288Y-198700500D01*
X235311789Y-198668838D01*
X235473275Y-198625567D01*
X235546082Y-198606059D01*
X235546084Y-198606058D01*
X235546100Y-198606054D01*
X235719873Y-198534075D01*
X235770201Y-198513229D01*
X235770206Y-198513226D01*
X235770212Y-198513224D01*
X235980289Y-198391936D01*
X236172738Y-198244265D01*
X236344265Y-198072738D01*
X236491936Y-197880289D01*
X236613224Y-197670212D01*
X236614477Y-197667189D01*
X236662153Y-197552087D01*
X236706054Y-197446100D01*
X236768838Y-197211789D01*
X236800500Y-196971288D01*
X236800500Y-196728712D01*
X236768838Y-196488211D01*
X236722829Y-196316503D01*
X236706059Y-196253917D01*
X236706057Y-196253911D01*
X236706054Y-196253900D01*
X236664257Y-196152993D01*
X236613229Y-196029798D01*
X236613221Y-196029782D01*
X236491941Y-195819720D01*
X236491935Y-195819710D01*
X236461666Y-195780263D01*
X236344265Y-195627262D01*
X236172738Y-195455735D01*
X236172735Y-195455733D01*
X236172731Y-195455729D01*
X235980289Y-195308064D01*
X235980279Y-195308058D01*
X235770217Y-195186778D01*
X235770201Y-195186770D01*
X235546105Y-195093948D01*
X235546103Y-195093947D01*
X235546100Y-195093946D01*
X235546096Y-195093945D01*
X235546082Y-195093940D01*
X235311795Y-195031163D01*
X235311790Y-195031162D01*
X235071288Y-194999500D01*
X234828712Y-194999500D01*
X234588209Y-195031162D01*
X234588204Y-195031163D01*
X234353917Y-195093940D01*
X234353894Y-195093948D01*
X234129798Y-195186770D01*
X234129782Y-195186778D01*
X233919720Y-195308058D01*
X233919710Y-195308064D01*
X233727268Y-195455729D01*
X233727258Y-195455738D01*
X233555738Y-195627258D01*
X233555729Y-195627268D01*
X233408064Y-195819710D01*
X233408058Y-195819720D01*
X233286778Y-196029782D01*
X233286770Y-196029798D01*
X233193948Y-196253894D01*
X233193940Y-196253917D01*
X233131163Y-196488204D01*
X233131162Y-196488209D01*
X233131162Y-196488211D01*
X233099500Y-196728712D01*
X216180635Y-196728712D01*
X216191919Y-196671983D01*
X216200499Y-196628846D01*
X216200500Y-196628841D01*
X216200500Y-196471158D01*
X216200499Y-196471153D01*
X216169738Y-196316507D01*
X216169737Y-196316505D01*
X216169737Y-196316503D01*
X216109394Y-196170821D01*
X216021789Y-196039711D01*
X215910289Y-195928211D01*
X215900000Y-195921336D01*
X215779180Y-195840606D01*
X215779173Y-195840603D01*
X215633497Y-195780263D01*
X215633492Y-195780261D01*
X215478846Y-195749500D01*
X215478842Y-195749500D01*
X215321158Y-195749500D01*
X215321153Y-195749500D01*
X215166509Y-195780261D01*
X215166505Y-195780262D01*
X215166503Y-195780263D01*
X215095284Y-195809762D01*
X214999998Y-195828715D01*
X214904715Y-195809762D01*
X214833497Y-195780263D01*
X214833492Y-195780262D01*
X214833490Y-195780261D01*
X214678846Y-195749500D01*
X214678842Y-195749500D01*
X214521158Y-195749500D01*
X214521153Y-195749500D01*
X214366507Y-195780261D01*
X214366502Y-195780263D01*
X214220821Y-195840605D01*
X214217376Y-195842447D01*
X214213637Y-195843580D01*
X214209519Y-195845287D01*
X214209350Y-195844881D01*
X214124404Y-195870649D01*
X214027717Y-195861126D01*
X213982624Y-195842447D01*
X213979178Y-195840605D01*
X213833497Y-195780263D01*
X213833492Y-195780261D01*
X213678846Y-195749500D01*
X213678842Y-195749500D01*
X213521158Y-195749500D01*
X213521153Y-195749500D01*
X213366507Y-195780261D01*
X213366502Y-195780263D01*
X213220826Y-195840603D01*
X213220819Y-195840606D01*
X213089714Y-195928208D01*
X212978208Y-196039714D01*
X212890606Y-196170819D01*
X212890603Y-196170826D01*
X212830263Y-196316502D01*
X212830261Y-196316507D01*
X212799500Y-196471153D01*
X189000000Y-196471153D01*
X189000000Y-196394174D01*
X188965925Y-196267007D01*
X188900099Y-196152993D01*
X188807007Y-196059901D01*
X188692993Y-195994075D01*
X188565826Y-195960000D01*
X188434174Y-195960000D01*
X188307007Y-195994075D01*
X188192993Y-196059901D01*
X188099901Y-196152993D01*
X188034075Y-196267007D01*
X188000000Y-196394174D01*
X188000000Y-196525826D01*
X188034075Y-196652993D01*
X188099901Y-196767007D01*
X188192993Y-196860099D01*
X188307007Y-196925925D01*
X188434174Y-196960000D01*
X187150001Y-196960000D01*
X187150000Y-196960001D01*
X186100500Y-196960001D01*
X186100500Y-195562167D01*
X187150000Y-195562167D01*
X187150000Y-195959999D01*
X187150001Y-195960000D01*
X187999999Y-195960000D01*
X188000000Y-195959999D01*
X188000000Y-195110001D01*
X189000000Y-195110001D01*
X189000000Y-195959999D01*
X189000001Y-195960000D01*
X189849999Y-195960000D01*
X189850000Y-195959999D01*
X189850000Y-195562175D01*
X189849999Y-195562167D01*
X189843598Y-195502628D01*
X189843596Y-195502621D01*
X189793353Y-195367912D01*
X189707189Y-195252812D01*
X189707187Y-195252810D01*
X189592087Y-195166646D01*
X189457378Y-195116403D01*
X189457371Y-195116401D01*
X189397832Y-195110000D01*
X189000001Y-195110000D01*
X189000000Y-195110001D01*
X188000000Y-195110001D01*
X187999999Y-195110000D01*
X187602167Y-195110000D01*
X187542628Y-195116401D01*
X187542621Y-195116403D01*
X187407912Y-195166646D01*
X187292812Y-195252810D01*
X187292810Y-195252812D01*
X187206646Y-195367912D01*
X187156403Y-195502621D01*
X187156401Y-195502628D01*
X187150000Y-195562167D01*
X186100500Y-195562167D01*
X186100500Y-193121153D01*
X214199500Y-193121153D01*
X214199500Y-193278846D01*
X214230261Y-193433492D01*
X214230263Y-193433497D01*
X214290603Y-193579173D01*
X214290607Y-193579180D01*
X214345720Y-193661663D01*
X214382900Y-193751423D01*
X214382900Y-193848578D01*
X214345720Y-193938337D01*
X214290607Y-194020819D01*
X214290603Y-194020826D01*
X214230263Y-194166502D01*
X214230261Y-194166507D01*
X214199500Y-194321153D01*
X214199500Y-194478846D01*
X214230261Y-194633492D01*
X214230263Y-194633497D01*
X214290603Y-194779173D01*
X214290606Y-194779180D01*
X214378208Y-194910285D01*
X214378211Y-194910289D01*
X214489711Y-195021789D01*
X214489714Y-195021791D01*
X214620819Y-195109393D01*
X214620820Y-195109393D01*
X214620821Y-195109394D01*
X214766503Y-195169737D01*
X214766505Y-195169737D01*
X214766507Y-195169738D01*
X214852133Y-195186770D01*
X214921158Y-195200500D01*
X215078842Y-195200500D01*
X215233497Y-195169737D01*
X215379179Y-195109394D01*
X215510289Y-195021789D01*
X215621789Y-194910289D01*
X215709394Y-194779179D01*
X215769737Y-194633497D01*
X215800500Y-194478842D01*
X215800500Y-194321158D01*
X215769737Y-194166503D01*
X215763983Y-194152611D01*
X215745030Y-194057322D01*
X215763985Y-193962034D01*
X215817963Y-193881254D01*
X215898745Y-193827279D01*
X215994034Y-193808326D01*
X216089322Y-193827281D01*
X216132364Y-193850288D01*
X216132369Y-193850292D01*
X216220817Y-193909392D01*
X216220820Y-193909393D01*
X216220821Y-193909394D01*
X216366503Y-193969737D01*
X216366505Y-193969737D01*
X216366507Y-193969738D01*
X216517148Y-193999702D01*
X216521158Y-194000500D01*
X216678842Y-194000500D01*
X216833497Y-193969737D01*
X216979179Y-193909394D01*
X216979182Y-193909391D01*
X216979184Y-193909391D01*
X217022016Y-193880771D01*
X217067633Y-193850290D01*
X217157389Y-193813111D01*
X217254544Y-193813110D01*
X217344304Y-193850289D01*
X217413003Y-193918987D01*
X217450184Y-194008746D01*
X217450185Y-194105901D01*
X217436020Y-194152603D01*
X217430262Y-194166504D01*
X217430261Y-194166507D01*
X217399500Y-194321153D01*
X217399500Y-194478846D01*
X217430261Y-194633492D01*
X217430263Y-194633497D01*
X217490603Y-194779173D01*
X217490606Y-194779180D01*
X217578208Y-194910285D01*
X217578211Y-194910289D01*
X217689711Y-195021789D01*
X217689714Y-195021791D01*
X217820819Y-195109393D01*
X217820820Y-195109393D01*
X217820821Y-195109394D01*
X217966503Y-195169737D01*
X217966505Y-195169737D01*
X217966507Y-195169738D01*
X218052133Y-195186770D01*
X218121158Y-195200500D01*
X218278842Y-195200500D01*
X218433497Y-195169737D01*
X218579179Y-195109394D01*
X218710289Y-195021789D01*
X218821789Y-194910289D01*
X218909394Y-194779179D01*
X218969737Y-194633497D01*
X219000500Y-194478842D01*
X219000500Y-194321158D01*
X218969737Y-194166503D01*
X218909394Y-194020821D01*
X218909393Y-194020819D01*
X218909392Y-194020817D01*
X218870114Y-193962034D01*
X218854279Y-193938335D01*
X218817100Y-193848579D01*
X218817099Y-193751424D01*
X218854276Y-193661668D01*
X218909394Y-193579179D01*
X218969737Y-193433497D01*
X219000500Y-193278842D01*
X219000500Y-193121158D01*
X218969737Y-192966503D01*
X218962338Y-192948639D01*
X221883099Y-192948639D01*
X221883099Y-193131360D01*
X221883100Y-193131376D01*
X221911665Y-193311725D01*
X221911684Y-193311845D01*
X221968151Y-193485631D01*
X222051108Y-193648444D01*
X222051111Y-193648448D01*
X222051112Y-193648450D01*
X222158508Y-193796269D01*
X222158510Y-193796271D01*
X222158514Y-193796276D01*
X222287723Y-193925485D01*
X222287726Y-193925487D01*
X222287729Y-193925490D01*
X222418939Y-194020819D01*
X222435555Y-194032891D01*
X222598368Y-194115848D01*
X222772154Y-194172315D01*
X222952634Y-194200900D01*
X222952638Y-194200900D01*
X223135360Y-194200900D01*
X223135364Y-194200900D01*
X223315844Y-194172315D01*
X223432823Y-194134306D01*
X224656798Y-194134306D01*
X224772277Y-194171828D01*
X224952664Y-194200398D01*
X224952679Y-194200400D01*
X225135321Y-194200400D01*
X225135335Y-194200398D01*
X225315723Y-194171828D01*
X225315725Y-194171827D01*
X225431200Y-194134307D01*
X225043999Y-193747106D01*
X224656798Y-194134306D01*
X223432823Y-194134306D01*
X223489630Y-194115848D01*
X223652443Y-194032891D01*
X223800275Y-193925485D01*
X223929484Y-193796276D01*
X224036890Y-193648444D01*
X224119847Y-193485631D01*
X224176314Y-193311845D01*
X224184597Y-193259544D01*
X224201749Y-193200214D01*
X224290507Y-192993612D01*
X224283391Y-192986496D01*
X224637600Y-192986496D01*
X224637600Y-193093504D01*
X224665295Y-193196865D01*
X224718799Y-193289536D01*
X224794464Y-193365201D01*
X224887135Y-193418705D01*
X224990496Y-193446400D01*
X225097504Y-193446400D01*
X225200865Y-193418705D01*
X225293536Y-193365201D01*
X225369201Y-193289536D01*
X225422705Y-193196865D01*
X225450400Y-193093504D01*
X225450400Y-193039999D01*
X225751106Y-193039999D01*
X226138307Y-193427200D01*
X226175827Y-193311725D01*
X226175828Y-193311723D01*
X226204398Y-193131335D01*
X226204400Y-193131320D01*
X226204400Y-192948679D01*
X226204398Y-192948664D01*
X226175828Y-192768277D01*
X226138306Y-192652798D01*
X225751106Y-193039999D01*
X225450400Y-193039999D01*
X225450400Y-192986496D01*
X225422705Y-192883135D01*
X225369201Y-192790464D01*
X225293536Y-192714799D01*
X225200865Y-192661295D01*
X225097504Y-192633600D01*
X224990496Y-192633600D01*
X224887135Y-192661295D01*
X224794464Y-192714799D01*
X224718799Y-192790464D01*
X224665295Y-192883135D01*
X224637600Y-192986496D01*
X224283391Y-192986496D01*
X224254460Y-192957565D01*
X224200484Y-192876783D01*
X224184596Y-192820451D01*
X224176314Y-192768155D01*
X224119847Y-192594369D01*
X224036890Y-192431556D01*
X223999829Y-192380546D01*
X223929489Y-192283730D01*
X223929486Y-192283727D01*
X223929484Y-192283724D01*
X223800275Y-192154515D01*
X223800271Y-192154512D01*
X223800268Y-192154509D01*
X223652449Y-192047113D01*
X223652447Y-192047112D01*
X223652443Y-192047109D01*
X223489630Y-191964152D01*
X223489627Y-191964151D01*
X223489625Y-191964150D01*
X223432817Y-191945692D01*
X224656797Y-191945692D01*
X225043999Y-192332893D01*
X225431200Y-191945692D01*
X225431200Y-191945691D01*
X225315734Y-191908175D01*
X225315715Y-191908170D01*
X225135335Y-191879601D01*
X225135321Y-191879600D01*
X224952679Y-191879600D01*
X224952664Y-191879601D01*
X224772279Y-191908171D01*
X224772258Y-191908176D01*
X224656798Y-191945691D01*
X224656797Y-191945692D01*
X223432817Y-191945692D01*
X223392989Y-191932751D01*
X223315844Y-191907685D01*
X223315842Y-191907684D01*
X223315840Y-191907684D01*
X223135375Y-191879101D01*
X223135366Y-191879100D01*
X223135364Y-191879100D01*
X222952634Y-191879100D01*
X222952631Y-191879100D01*
X222952622Y-191879101D01*
X222772157Y-191907684D01*
X222598372Y-191964150D01*
X222598368Y-191964151D01*
X222598368Y-191964152D01*
X222435555Y-192047109D01*
X222435553Y-192047110D01*
X222435548Y-192047113D01*
X222287729Y-192154509D01*
X222158508Y-192283730D01*
X222051112Y-192431549D01*
X221968149Y-192594373D01*
X221911683Y-192768158D01*
X221883100Y-192948623D01*
X221883099Y-192948639D01*
X218962338Y-192948639D01*
X218909394Y-192820821D01*
X218874202Y-192768153D01*
X218821791Y-192689714D01*
X218821789Y-192689711D01*
X218710289Y-192578211D01*
X218710285Y-192578208D01*
X218579180Y-192490606D01*
X218579173Y-192490603D01*
X218433497Y-192430263D01*
X218433492Y-192430261D01*
X218278846Y-192399500D01*
X218278842Y-192399500D01*
X218199500Y-192399500D01*
X218104212Y-192380546D01*
X218023430Y-192326570D01*
X217969454Y-192245788D01*
X217950500Y-192150500D01*
X217950499Y-190602134D01*
X217950499Y-190602128D01*
X217944091Y-190542517D01*
X217893796Y-190407669D01*
X217807546Y-190292454D01*
X217692331Y-190206204D01*
X217612117Y-190176286D01*
X217557481Y-190155908D01*
X217497873Y-190149500D01*
X215702134Y-190149500D01*
X215702130Y-190149500D01*
X215702128Y-190149501D01*
X215692835Y-190150500D01*
X215642519Y-190155908D01*
X215642515Y-190155909D01*
X215507670Y-190206203D01*
X215392455Y-190292453D01*
X215392453Y-190292455D01*
X215306204Y-190407669D01*
X215255908Y-190542518D01*
X215249500Y-190602123D01*
X215249500Y-190602128D01*
X215249501Y-192150500D01*
X215230547Y-192245788D01*
X215176571Y-192326569D01*
X215095789Y-192380546D01*
X215000501Y-192399500D01*
X214921153Y-192399500D01*
X214766507Y-192430261D01*
X214766502Y-192430263D01*
X214620826Y-192490603D01*
X214620819Y-192490606D01*
X214489714Y-192578208D01*
X214378208Y-192689714D01*
X214290606Y-192820819D01*
X214290603Y-192820826D01*
X214230263Y-192966502D01*
X214230261Y-192966507D01*
X214199500Y-193121153D01*
X186100500Y-193121153D01*
X186100500Y-187902123D01*
X221374500Y-187902123D01*
X221374500Y-189697865D01*
X221374500Y-189697868D01*
X221374501Y-189697872D01*
X221376567Y-189717093D01*
X221380908Y-189757480D01*
X221380909Y-189757483D01*
X221431204Y-189892331D01*
X221517454Y-190007546D01*
X221632669Y-190093796D01*
X221767517Y-190144091D01*
X221827127Y-190150500D01*
X223622872Y-190150499D01*
X223682483Y-190144091D01*
X223817331Y-190093796D01*
X223885992Y-190042396D01*
X224729710Y-190042396D01*
X224746781Y-190051094D01*
X224746780Y-190051094D01*
X224948876Y-190116758D01*
X225158743Y-190149999D01*
X225158756Y-190150000D01*
X225371244Y-190150000D01*
X225371256Y-190149999D01*
X225581123Y-190116758D01*
X225783219Y-190051094D01*
X225800289Y-190042395D01*
X225265000Y-189507106D01*
X224729710Y-190042396D01*
X223885992Y-190042396D01*
X223932546Y-190007546D01*
X224018796Y-189892331D01*
X224069091Y-189757483D01*
X224075500Y-189697873D01*
X224075499Y-189385527D01*
X224094453Y-189290244D01*
X224148429Y-189209462D01*
X224148430Y-189209461D01*
X224557893Y-188799999D01*
X224492068Y-188734174D01*
X224765000Y-188734174D01*
X224765000Y-188865826D01*
X224799075Y-188992993D01*
X224864901Y-189107007D01*
X224957993Y-189200099D01*
X225072007Y-189265925D01*
X225199174Y-189300000D01*
X225330826Y-189300000D01*
X225457993Y-189265925D01*
X225572007Y-189200099D01*
X225665099Y-189107007D01*
X225730925Y-188992993D01*
X225765000Y-188865826D01*
X225765000Y-188800000D01*
X225972106Y-188800000D01*
X226507395Y-189335289D01*
X226516094Y-189318219D01*
X226581758Y-189116123D01*
X226614999Y-188906256D01*
X226615000Y-188906244D01*
X226615000Y-188693755D01*
X226614999Y-188693743D01*
X226581758Y-188483876D01*
X226516094Y-188281780D01*
X226507396Y-188264710D01*
X225972106Y-188800000D01*
X225765000Y-188800000D01*
X225765000Y-188734174D01*
X225730925Y-188607007D01*
X225665099Y-188492993D01*
X225572007Y-188399901D01*
X225457993Y-188334075D01*
X225330826Y-188300000D01*
X225199174Y-188300000D01*
X225072007Y-188334075D01*
X224957993Y-188399901D01*
X224864901Y-188492993D01*
X224799075Y-188607007D01*
X224765000Y-188734174D01*
X224492068Y-188734174D01*
X224148429Y-188390535D01*
X224094453Y-188309754D01*
X224075499Y-188214466D01*
X224075499Y-187902134D01*
X224075499Y-187902128D01*
X224069091Y-187842517D01*
X224018796Y-187707669D01*
X223932546Y-187592454D01*
X223885990Y-187557602D01*
X224729710Y-187557602D01*
X225265000Y-188092892D01*
X225800288Y-187557603D01*
X225783214Y-187548904D01*
X225581123Y-187483241D01*
X225371256Y-187450000D01*
X225158743Y-187450000D01*
X224948874Y-187483241D01*
X224948873Y-187483241D01*
X224746793Y-187548900D01*
X224746779Y-187548906D01*
X224729710Y-187557602D01*
X223885990Y-187557602D01*
X223817331Y-187506204D01*
X223737117Y-187476286D01*
X223682481Y-187455908D01*
X223622873Y-187449500D01*
X221827134Y-187449500D01*
X221827130Y-187449500D01*
X221827128Y-187449501D01*
X221814314Y-187450878D01*
X221767519Y-187455908D01*
X221767515Y-187455909D01*
X221632670Y-187506203D01*
X221517455Y-187592453D01*
X221517453Y-187592455D01*
X221431204Y-187707669D01*
X221380908Y-187842518D01*
X221374500Y-187902123D01*
X186100500Y-187902123D01*
X186100500Y-181700001D01*
X190500000Y-181700001D01*
X190500000Y-181886581D01*
X190527085Y-182057583D01*
X190527085Y-182057584D01*
X190580586Y-182222245D01*
X190580592Y-182222258D01*
X190659191Y-182376516D01*
X190659195Y-182376523D01*
X190760968Y-182516603D01*
X190883396Y-182639031D01*
X191023479Y-182740806D01*
X191023484Y-182740809D01*
X191099998Y-182779795D01*
X191100000Y-182779794D01*
X192100000Y-182779794D01*
X192100001Y-182779795D01*
X192176515Y-182740809D01*
X192176520Y-182740806D01*
X192316603Y-182639031D01*
X192439031Y-182516603D01*
X192540804Y-182376523D01*
X192540808Y-182376516D01*
X192619407Y-182222258D01*
X192619409Y-182222253D01*
X192674988Y-182051196D01*
X192722459Y-181966428D01*
X192798756Y-181906279D01*
X192892263Y-181879907D01*
X192988745Y-181891325D01*
X193073513Y-181938796D01*
X193133662Y-182015093D01*
X193145466Y-182047261D01*
X193146466Y-182046889D01*
X193187488Y-182156877D01*
X193202204Y-182196331D01*
X193288454Y-182311546D01*
X193403669Y-182397796D01*
X193538517Y-182448091D01*
X193598127Y-182454500D01*
X195201872Y-182454499D01*
X195261483Y-182448091D01*
X195396331Y-182397796D01*
X195511546Y-182311546D01*
X195597796Y-182196331D01*
X195648091Y-182061483D01*
X195654500Y-182001873D01*
X195654499Y-181101269D01*
X196145500Y-181101269D01*
X196145500Y-181298731D01*
X196152499Y-181342920D01*
X196152499Y-181342926D01*
X196176389Y-181493760D01*
X196237407Y-181681556D01*
X196237408Y-181681560D01*
X196327053Y-181857497D01*
X196327054Y-181857498D01*
X196327056Y-181857501D01*
X196443121Y-182017252D01*
X196582748Y-182156879D01*
X196742499Y-182272944D01*
X196742501Y-182272945D01*
X196742502Y-182272946D01*
X196918439Y-182362591D01*
X197106237Y-182423610D01*
X197301269Y-182454500D01*
X197301273Y-182454500D01*
X197498727Y-182454500D01*
X197498731Y-182454500D01*
X197693763Y-182423610D01*
X197881561Y-182362591D01*
X198057501Y-182272944D01*
X198217252Y-182156879D01*
X198356879Y-182017252D01*
X198472944Y-181857501D01*
X198562591Y-181681561D01*
X198623610Y-181493763D01*
X198654500Y-181298731D01*
X198654500Y-181101269D01*
X199145500Y-181101269D01*
X199145500Y-181298731D01*
X199149000Y-181320829D01*
X199149000Y-181320831D01*
X199176389Y-181493760D01*
X199237407Y-181681556D01*
X199237408Y-181681560D01*
X199327053Y-181857497D01*
X199327054Y-181857498D01*
X199327056Y-181857501D01*
X199443121Y-182017252D01*
X199582748Y-182156879D01*
X199742499Y-182272944D01*
X199742501Y-182272945D01*
X199742502Y-182272946D01*
X199918439Y-182362591D01*
X200106237Y-182423610D01*
X200301269Y-182454500D01*
X200301273Y-182454500D01*
X200498727Y-182454500D01*
X200498731Y-182454500D01*
X200693763Y-182423610D01*
X200881561Y-182362591D01*
X201057501Y-182272944D01*
X201217252Y-182156879D01*
X201356879Y-182017252D01*
X201472944Y-181857501D01*
X201562591Y-181681561D01*
X201571982Y-181652661D01*
X201614187Y-181522765D01*
X201661658Y-181437997D01*
X201737956Y-181377849D01*
X201831463Y-181351477D01*
X201927944Y-181362896D01*
X202012712Y-181410367D01*
X202072860Y-181486665D01*
X202099232Y-181580172D01*
X202100000Y-181599709D01*
X202100000Y-181886581D01*
X202127085Y-182057583D01*
X202127085Y-182057584D01*
X202180586Y-182222245D01*
X202180592Y-182222258D01*
X202259191Y-182376516D01*
X202259195Y-182376523D01*
X202360968Y-182516603D01*
X202483396Y-182639031D01*
X202623479Y-182740806D01*
X202623484Y-182740809D01*
X202699998Y-182779795D01*
X202700000Y-182779794D01*
X202700000Y-180747339D01*
X202800000Y-180747339D01*
X202800000Y-181652661D01*
X202827259Y-181754394D01*
X202879920Y-181845606D01*
X202954394Y-181920080D01*
X203045606Y-181972741D01*
X203147339Y-182000000D01*
X203252661Y-182000000D01*
X203354394Y-181972741D01*
X203445606Y-181920080D01*
X203520080Y-181845606D01*
X203572741Y-181754394D01*
X203587315Y-181700001D01*
X203700000Y-181700001D01*
X203700000Y-182779794D01*
X203700001Y-182779795D01*
X203776515Y-182740809D01*
X203776520Y-182740806D01*
X203916603Y-182639031D01*
X204039031Y-182516603D01*
X204140804Y-182376523D01*
X204140808Y-182376516D01*
X204219407Y-182222258D01*
X204219413Y-182222245D01*
X204272914Y-182057584D01*
X204272914Y-182057583D01*
X204299999Y-181886581D01*
X204300000Y-181886569D01*
X204300000Y-181700001D01*
X204299999Y-181700000D01*
X203700001Y-181700000D01*
X203700000Y-181700001D01*
X203587315Y-181700001D01*
X203600000Y-181652661D01*
X203600000Y-180747339D01*
X203587315Y-180699999D01*
X203700000Y-180699999D01*
X203700001Y-180700000D01*
X204299999Y-180700000D01*
X204300000Y-180699999D01*
X204300000Y-180513430D01*
X204299999Y-180513418D01*
X204272914Y-180342416D01*
X204272914Y-180342415D01*
X204219413Y-180177754D01*
X204219407Y-180177741D01*
X204140808Y-180023483D01*
X204140804Y-180023476D01*
X204039031Y-179883396D01*
X203916603Y-179760968D01*
X203776523Y-179659195D01*
X203776516Y-179659190D01*
X203700000Y-179620203D01*
X203700000Y-180699999D01*
X203587315Y-180699999D01*
X203572741Y-180645606D01*
X203520080Y-180554394D01*
X203445606Y-180479920D01*
X203354394Y-180427259D01*
X203252661Y-180400000D01*
X203147339Y-180400000D01*
X203045606Y-180427259D01*
X202954394Y-180479920D01*
X202879920Y-180554394D01*
X202827259Y-180645606D01*
X202800000Y-180747339D01*
X202700000Y-180747339D01*
X202700000Y-179620204D01*
X202699999Y-179620203D01*
X202623483Y-179659190D01*
X202623476Y-179659195D01*
X202483396Y-179760968D01*
X202360968Y-179883396D01*
X202259195Y-180023476D01*
X202259191Y-180023483D01*
X202180592Y-180177741D01*
X202180586Y-180177754D01*
X202127085Y-180342415D01*
X202127085Y-180342416D01*
X202100000Y-180513418D01*
X202100000Y-180800290D01*
X202081046Y-180895578D01*
X202027070Y-180976360D01*
X201946288Y-181030336D01*
X201851000Y-181049290D01*
X201755712Y-181030336D01*
X201674930Y-180976360D01*
X201620954Y-180895578D01*
X201614187Y-180877235D01*
X201562592Y-180718443D01*
X201562591Y-180718439D01*
X201472946Y-180542502D01*
X201472945Y-180542501D01*
X201472944Y-180542499D01*
X201356879Y-180382748D01*
X201217252Y-180243121D01*
X201057501Y-180127056D01*
X201057498Y-180127054D01*
X201057497Y-180127053D01*
X200881560Y-180037408D01*
X200881556Y-180037407D01*
X200693760Y-179976389D01*
X200498741Y-179945501D01*
X200498734Y-179945500D01*
X200498731Y-179945500D01*
X200301269Y-179945500D01*
X200301266Y-179945500D01*
X200301258Y-179945501D01*
X200106239Y-179976389D01*
X199918443Y-180037407D01*
X199918439Y-180037408D01*
X199742502Y-180127053D01*
X199742500Y-180127055D01*
X199582746Y-180243122D01*
X199443122Y-180382746D01*
X199327055Y-180542500D01*
X199327053Y-180542502D01*
X199237408Y-180718439D01*
X199237407Y-180718443D01*
X199176389Y-180906239D01*
X199149000Y-181079167D01*
X199149000Y-181079170D01*
X199145500Y-181101269D01*
X198654500Y-181101269D01*
X198651000Y-181079170D01*
X198651000Y-181079167D01*
X198623610Y-180906239D01*
X198623610Y-180906237D01*
X198562591Y-180718439D01*
X198472944Y-180542499D01*
X198356879Y-180382748D01*
X198217252Y-180243121D01*
X198057501Y-180127056D01*
X198057498Y-180127054D01*
X198057497Y-180127053D01*
X197881560Y-180037408D01*
X197881556Y-180037407D01*
X197693760Y-179976389D01*
X197498741Y-179945501D01*
X197498734Y-179945500D01*
X197498731Y-179945500D01*
X197301269Y-179945500D01*
X197301266Y-179945500D01*
X197301258Y-179945501D01*
X197106239Y-179976389D01*
X196918443Y-180037407D01*
X196918439Y-180037408D01*
X196742502Y-180127053D01*
X196742500Y-180127055D01*
X196582746Y-180243122D01*
X196443122Y-180382746D01*
X196327055Y-180542500D01*
X196327053Y-180542502D01*
X196237408Y-180718439D01*
X196237407Y-180718443D01*
X196176389Y-180906239D01*
X196152499Y-181057074D01*
X196152499Y-181057079D01*
X196145500Y-181101269D01*
X195654499Y-181101269D01*
X195654499Y-180398128D01*
X195648091Y-180338517D01*
X195597796Y-180203669D01*
X195511546Y-180088454D01*
X195396331Y-180002204D01*
X195316117Y-179972286D01*
X195261481Y-179951908D01*
X195201873Y-179945500D01*
X193598134Y-179945500D01*
X193598130Y-179945500D01*
X193598128Y-179945501D01*
X193585314Y-179946878D01*
X193538519Y-179951908D01*
X193538515Y-179951909D01*
X193403670Y-180002203D01*
X193288455Y-180088453D01*
X193288453Y-180088455D01*
X193202204Y-180203669D01*
X193146466Y-180353111D01*
X193143655Y-180352062D01*
X193113746Y-180417528D01*
X193042629Y-180483721D01*
X192951594Y-180517659D01*
X192854502Y-180514176D01*
X192766133Y-180473803D01*
X192699940Y-180402686D01*
X192674988Y-180348803D01*
X192619408Y-180177743D01*
X192619407Y-180177741D01*
X192540808Y-180023483D01*
X192540804Y-180023476D01*
X192439031Y-179883396D01*
X192316603Y-179760968D01*
X192176523Y-179659195D01*
X192176516Y-179659190D01*
X192100000Y-179620203D01*
X192100000Y-182779794D01*
X191100000Y-182779794D01*
X191100000Y-181700001D01*
X191099999Y-181700000D01*
X190500001Y-181700000D01*
X190500000Y-181700001D01*
X186100500Y-181700001D01*
X186100500Y-180747339D01*
X191200000Y-180747339D01*
X191200000Y-181652661D01*
X191227259Y-181754394D01*
X191279920Y-181845606D01*
X191354394Y-181920080D01*
X191445606Y-181972741D01*
X191547339Y-182000000D01*
X191652661Y-182000000D01*
X191754394Y-181972741D01*
X191845606Y-181920080D01*
X191920080Y-181845606D01*
X191972741Y-181754394D01*
X192000000Y-181652661D01*
X192000000Y-180747339D01*
X191972741Y-180645606D01*
X191920080Y-180554394D01*
X191845606Y-180479920D01*
X191754394Y-180427259D01*
X191652661Y-180400000D01*
X191547339Y-180400000D01*
X191445606Y-180427259D01*
X191354394Y-180479920D01*
X191279920Y-180554394D01*
X191227259Y-180645606D01*
X191200000Y-180747339D01*
X186100500Y-180747339D01*
X186100500Y-180513418D01*
X190500000Y-180513418D01*
X190500000Y-180699999D01*
X190500001Y-180700000D01*
X191099999Y-180700000D01*
X191100000Y-180699999D01*
X191100000Y-179620204D01*
X191099999Y-179620203D01*
X191023483Y-179659190D01*
X191023476Y-179659195D01*
X190883396Y-179760968D01*
X190760968Y-179883396D01*
X190659195Y-180023476D01*
X190659191Y-180023483D01*
X190580592Y-180177741D01*
X190580586Y-180177754D01*
X190527085Y-180342415D01*
X190527085Y-180342416D01*
X190500000Y-180513418D01*
X186100500Y-180513418D01*
X186100500Y-178721153D01*
X211999500Y-178721153D01*
X211999500Y-178878846D01*
X212030261Y-179033492D01*
X212030263Y-179033497D01*
X212090603Y-179179173D01*
X212090606Y-179179180D01*
X212178208Y-179310285D01*
X212178211Y-179310289D01*
X212289711Y-179421789D01*
X212289714Y-179421791D01*
X212420819Y-179509393D01*
X212420820Y-179509393D01*
X212420821Y-179509394D01*
X212566503Y-179569737D01*
X212566505Y-179569737D01*
X212566507Y-179569738D01*
X212717148Y-179599702D01*
X212721158Y-179600500D01*
X212878842Y-179600500D01*
X213033497Y-179569737D01*
X213179179Y-179509394D01*
X213310289Y-179421789D01*
X213421789Y-179310289D01*
X213509394Y-179179179D01*
X213569737Y-179033497D01*
X213600500Y-178878842D01*
X213600500Y-178721158D01*
X213569737Y-178566503D01*
X213509394Y-178420821D01*
X213421789Y-178289711D01*
X213310289Y-178178211D01*
X213310285Y-178178208D01*
X213179180Y-178090606D01*
X213179173Y-178090603D01*
X213033497Y-178030263D01*
X213033492Y-178030261D01*
X212878846Y-177999500D01*
X212878842Y-177999500D01*
X212721158Y-177999500D01*
X212721153Y-177999500D01*
X212566507Y-178030261D01*
X212566502Y-178030263D01*
X212420826Y-178090603D01*
X212420819Y-178090606D01*
X212289714Y-178178208D01*
X212178208Y-178289714D01*
X212090606Y-178420819D01*
X212090603Y-178420826D01*
X212030263Y-178566502D01*
X212030261Y-178566507D01*
X211999500Y-178721153D01*
X186100500Y-178721153D01*
X186100500Y-175102123D01*
X193249500Y-175102123D01*
X193249500Y-176897865D01*
X193249500Y-176897868D01*
X193249501Y-176897872D01*
X193251567Y-176917093D01*
X193255908Y-176957480D01*
X193255909Y-176957483D01*
X193306204Y-177092331D01*
X193392454Y-177207546D01*
X193507669Y-177293796D01*
X193642517Y-177344091D01*
X193702127Y-177350500D01*
X195497872Y-177350499D01*
X195557483Y-177344091D01*
X195692331Y-177293796D01*
X195807546Y-177207546D01*
X195893796Y-177092331D01*
X195944091Y-176957483D01*
X195950500Y-176897873D01*
X195950499Y-175102128D01*
X195944091Y-175042517D01*
X195893796Y-174907669D01*
X195807546Y-174792454D01*
X195692331Y-174706204D01*
X195596760Y-174670558D01*
X195557481Y-174655908D01*
X195497873Y-174649500D01*
X193702134Y-174649500D01*
X193702130Y-174649500D01*
X193702128Y-174649501D01*
X193689314Y-174650878D01*
X193642519Y-174655908D01*
X193642515Y-174655909D01*
X193507670Y-174706203D01*
X193392455Y-174792453D01*
X193392453Y-174792455D01*
X193306204Y-174907669D01*
X193255908Y-175042518D01*
X193249500Y-175102123D01*
X186100500Y-175102123D01*
X186100500Y-174471153D01*
X204149500Y-174471153D01*
X204149500Y-174628846D01*
X204180261Y-174783492D01*
X204180263Y-174783497D01*
X204240603Y-174929173D01*
X204240606Y-174929180D01*
X204316337Y-175042519D01*
X204328211Y-175060289D01*
X204439711Y-175171789D01*
X204439714Y-175171791D01*
X204570819Y-175259393D01*
X204570820Y-175259393D01*
X204570821Y-175259394D01*
X204716503Y-175319737D01*
X204716505Y-175319737D01*
X204716507Y-175319738D01*
X204867148Y-175349702D01*
X204871158Y-175350500D01*
X205028842Y-175350500D01*
X205183497Y-175319737D01*
X205329179Y-175259394D01*
X205460289Y-175171789D01*
X205571789Y-175060289D01*
X205659394Y-174929179D01*
X205719737Y-174783497D01*
X205750500Y-174628842D01*
X205750500Y-174471158D01*
X205719737Y-174316503D01*
X205659394Y-174170821D01*
X205571789Y-174039711D01*
X205460289Y-173928211D01*
X205460285Y-173928208D01*
X205329180Y-173840606D01*
X205329173Y-173840603D01*
X205183497Y-173780263D01*
X205183492Y-173780261D01*
X205028846Y-173749500D01*
X205028842Y-173749500D01*
X204871158Y-173749500D01*
X204871153Y-173749500D01*
X204716507Y-173780261D01*
X204716502Y-173780263D01*
X204570826Y-173840603D01*
X204570819Y-173840606D01*
X204439714Y-173928208D01*
X204328208Y-174039714D01*
X204240606Y-174170819D01*
X204240603Y-174170826D01*
X204180263Y-174316502D01*
X204180261Y-174316507D01*
X204149500Y-174471153D01*
X186100500Y-174471153D01*
X186100500Y-167500001D01*
X186630000Y-167500001D01*
X186630000Y-167897832D01*
X186636401Y-167957371D01*
X186636403Y-167957378D01*
X186686646Y-168092087D01*
X186772810Y-168207187D01*
X186772812Y-168207189D01*
X186887912Y-168293353D01*
X187022621Y-168343596D01*
X187022628Y-168343598D01*
X187082167Y-168349999D01*
X187082175Y-168350000D01*
X187479999Y-168350000D01*
X187480000Y-168349999D01*
X187480000Y-167500001D01*
X187479999Y-167500000D01*
X186630001Y-167500000D01*
X186630000Y-167500001D01*
X186100500Y-167500001D01*
X186100500Y-166934174D01*
X187480000Y-166934174D01*
X187480000Y-167065826D01*
X187514075Y-167192993D01*
X187579901Y-167307007D01*
X187672993Y-167400099D01*
X187787007Y-167465925D01*
X187914174Y-167500000D01*
X188045826Y-167500000D01*
X188172993Y-167465925D01*
X188287007Y-167400099D01*
X188380099Y-167307007D01*
X188445925Y-167192993D01*
X188480000Y-167065826D01*
X188480000Y-168349999D01*
X188480001Y-168350000D01*
X188877825Y-168350000D01*
X188877832Y-168349999D01*
X188937371Y-168343598D01*
X188937373Y-168343598D01*
X188954982Y-168337030D01*
X189050886Y-168321487D01*
X189145438Y-168343828D01*
X189224242Y-168400652D01*
X189275303Y-168483307D01*
X189290846Y-168579211D01*
X189272051Y-168665614D01*
X189230263Y-168766502D01*
X189230261Y-168766507D01*
X189199500Y-168921153D01*
X189199500Y-169078846D01*
X189230261Y-169233492D01*
X189230263Y-169233497D01*
X189290605Y-169379178D01*
X189292447Y-169382624D01*
X189293580Y-169386362D01*
X189295287Y-169390481D01*
X189294881Y-169390649D01*
X189320649Y-169475596D01*
X189311126Y-169572283D01*
X189292447Y-169617376D01*
X189290605Y-169620821D01*
X189230263Y-169766502D01*
X189230261Y-169766507D01*
X189199500Y-169921153D01*
X189199500Y-170078846D01*
X189230261Y-170233492D01*
X189230263Y-170233497D01*
X189290603Y-170379173D01*
X189290606Y-170379180D01*
X189378208Y-170510285D01*
X189378211Y-170510289D01*
X189489711Y-170621789D01*
X189489714Y-170621791D01*
X189620819Y-170709393D01*
X189620820Y-170709393D01*
X189620821Y-170709394D01*
X189766503Y-170769737D01*
X189766505Y-170769737D01*
X189766507Y-170769738D01*
X189917148Y-170799702D01*
X189921158Y-170800500D01*
X190078842Y-170800500D01*
X190233497Y-170769737D01*
X190379179Y-170709394D01*
X190510289Y-170621789D01*
X190523933Y-170608144D01*
X190604712Y-170554171D01*
X190700000Y-170535217D01*
X190795288Y-170554171D01*
X190876066Y-170608144D01*
X190889711Y-170621789D01*
X190889714Y-170621791D01*
X191020819Y-170709393D01*
X191020820Y-170709393D01*
X191020821Y-170709394D01*
X191166503Y-170769737D01*
X191166505Y-170769737D01*
X191166507Y-170769738D01*
X191317148Y-170799702D01*
X191321158Y-170800500D01*
X191478842Y-170800500D01*
X191633497Y-170769737D01*
X191779179Y-170709394D01*
X191910289Y-170621789D01*
X192021789Y-170510289D01*
X192109394Y-170379179D01*
X192169737Y-170233497D01*
X192200500Y-170078842D01*
X192200500Y-169921158D01*
X192196714Y-169902123D01*
X218449500Y-169902123D01*
X218449500Y-171697865D01*
X218449500Y-171697868D01*
X218449501Y-171697872D01*
X218451567Y-171717093D01*
X218455908Y-171757480D01*
X218455909Y-171757483D01*
X218506204Y-171892331D01*
X218592454Y-172007546D01*
X218707669Y-172093796D01*
X218842517Y-172144091D01*
X218902127Y-172150500D01*
X220697872Y-172150499D01*
X220757483Y-172144091D01*
X220892331Y-172093796D01*
X221007546Y-172007546D01*
X221093796Y-171892331D01*
X221144091Y-171757483D01*
X221150500Y-171697873D01*
X221150499Y-169902128D01*
X221144091Y-169842517D01*
X221093796Y-169707669D01*
X221007546Y-169592454D01*
X220892331Y-169506204D01*
X220810267Y-169475596D01*
X220757481Y-169455908D01*
X220697873Y-169449500D01*
X218902134Y-169449500D01*
X218902130Y-169449500D01*
X218902128Y-169449501D01*
X218889314Y-169450878D01*
X218842519Y-169455908D01*
X218842515Y-169455909D01*
X218707670Y-169506203D01*
X218592455Y-169592453D01*
X218592453Y-169592455D01*
X218506204Y-169707669D01*
X218455908Y-169842518D01*
X218449500Y-169902123D01*
X192196714Y-169902123D01*
X192169737Y-169766503D01*
X192109394Y-169620821D01*
X192098939Y-169605174D01*
X192089052Y-169572866D01*
X192086557Y-169548161D01*
X192079351Y-169524404D01*
X192081725Y-169500299D01*
X192079292Y-169476202D01*
X192086440Y-169452427D01*
X192088874Y-169427717D01*
X192107096Y-169383726D01*
X192107266Y-169383162D01*
X192107396Y-169383002D01*
X192107553Y-169382624D01*
X192109391Y-169379182D01*
X192109394Y-169379179D01*
X192169737Y-169233497D01*
X192200500Y-169078842D01*
X192200500Y-168921158D01*
X192169737Y-168766503D01*
X192109394Y-168620821D01*
X192042335Y-168520461D01*
X192005156Y-168430702D01*
X192005155Y-168333547D01*
X192042335Y-168243788D01*
X192111033Y-168175089D01*
X192200793Y-168137909D01*
X192297948Y-168137908D01*
X192362415Y-168160264D01*
X192540667Y-168251088D01*
X192541588Y-168251557D01*
X192743757Y-168317246D01*
X192817601Y-168328941D01*
X192953703Y-168350499D01*
X192953710Y-168350499D01*
X192953713Y-168350500D01*
X192953716Y-168350500D01*
X193166284Y-168350500D01*
X193166287Y-168350500D01*
X193166290Y-168350499D01*
X193166296Y-168350499D01*
X193273323Y-168333547D01*
X193376243Y-168317246D01*
X193578412Y-168251557D01*
X193767816Y-168155051D01*
X193939792Y-168030104D01*
X194090104Y-167879792D01*
X194128555Y-167826867D01*
X194199897Y-167760920D01*
X194291047Y-167727293D01*
X194388127Y-167731107D01*
X194476358Y-167771781D01*
X194531444Y-167826867D01*
X194569896Y-167879792D01*
X194720208Y-168030104D01*
X194892184Y-168155051D01*
X195081588Y-168251557D01*
X195283757Y-168317246D01*
X195357601Y-168328941D01*
X195493703Y-168350499D01*
X195493710Y-168350499D01*
X195493713Y-168350500D01*
X195493716Y-168350500D01*
X195706284Y-168350500D01*
X195706287Y-168350500D01*
X195706290Y-168350499D01*
X195706296Y-168350499D01*
X195813323Y-168333547D01*
X195916243Y-168317246D01*
X196118412Y-168251557D01*
X196307816Y-168155051D01*
X196479792Y-168030104D01*
X196630104Y-167879792D01*
X196668555Y-167826867D01*
X196739897Y-167760920D01*
X196831047Y-167727293D01*
X196928127Y-167731107D01*
X197016358Y-167771781D01*
X197071444Y-167826867D01*
X197109896Y-167879792D01*
X197260208Y-168030104D01*
X197432184Y-168155051D01*
X197621588Y-168251557D01*
X197823757Y-168317246D01*
X197897601Y-168328941D01*
X198033703Y-168350499D01*
X198033710Y-168350499D01*
X198033713Y-168350500D01*
X198033716Y-168350500D01*
X198246284Y-168350500D01*
X198246287Y-168350500D01*
X198246290Y-168350499D01*
X198246296Y-168350499D01*
X198353323Y-168333547D01*
X198456243Y-168317246D01*
X198658412Y-168251557D01*
X198847816Y-168155051D01*
X199019792Y-168030104D01*
X199170104Y-167879792D01*
X199208866Y-167826440D01*
X199280205Y-167760495D01*
X199371354Y-167726867D01*
X199468435Y-167730680D01*
X199556666Y-167771354D01*
X199611754Y-167826443D01*
X199650272Y-167879459D01*
X199800537Y-168029724D01*
X199972446Y-168154623D01*
X200161769Y-168251088D01*
X200161783Y-168251095D01*
X200180000Y-168257013D01*
X200180000Y-167065826D01*
X200214075Y-167192993D01*
X200279901Y-167307007D01*
X200372993Y-167400099D01*
X200487007Y-167465925D01*
X200614174Y-167500000D01*
X200745826Y-167500000D01*
X200872993Y-167465925D01*
X200987007Y-167400099D01*
X201080099Y-167307007D01*
X201145925Y-167192993D01*
X201180000Y-167065826D01*
X201180000Y-168257013D01*
X201198216Y-168251095D01*
X201198230Y-168251088D01*
X201387553Y-168154623D01*
X201559462Y-168029724D01*
X201709724Y-167879462D01*
X201748243Y-167826445D01*
X201819585Y-167760495D01*
X201910735Y-167726867D01*
X202007815Y-167730680D01*
X202096046Y-167771354D01*
X202151135Y-167826442D01*
X202151137Y-167826445D01*
X202189896Y-167879792D01*
X202340208Y-168030104D01*
X202512184Y-168155051D01*
X202701588Y-168251557D01*
X202903757Y-168317246D01*
X202977601Y-168328941D01*
X203113703Y-168350499D01*
X203113710Y-168350499D01*
X203113713Y-168350500D01*
X203113716Y-168350500D01*
X203326284Y-168350500D01*
X203326287Y-168350500D01*
X203326290Y-168350499D01*
X203326296Y-168350499D01*
X203433323Y-168333547D01*
X203536243Y-168317246D01*
X203738412Y-168251557D01*
X203927816Y-168155051D01*
X204099792Y-168030104D01*
X204250104Y-167879792D01*
X204288866Y-167826440D01*
X204360205Y-167760495D01*
X204451354Y-167726867D01*
X204548435Y-167730680D01*
X204636666Y-167771354D01*
X204691754Y-167826443D01*
X204730272Y-167879459D01*
X204880537Y-168029724D01*
X205052446Y-168154623D01*
X205241769Y-168251088D01*
X205241783Y-168251095D01*
X205260000Y-168257013D01*
X205260000Y-167065826D01*
X205294075Y-167192993D01*
X205359901Y-167307007D01*
X205452993Y-167400099D01*
X205567007Y-167465925D01*
X205694174Y-167500000D01*
X205825826Y-167500000D01*
X205952993Y-167465925D01*
X206067007Y-167400099D01*
X206160099Y-167307007D01*
X206225925Y-167192993D01*
X206260000Y-167065826D01*
X206260000Y-168257013D01*
X206278216Y-168251095D01*
X206278230Y-168251088D01*
X206467553Y-168154623D01*
X206639462Y-168029724D01*
X206789724Y-167879462D01*
X206828243Y-167826445D01*
X206899585Y-167760495D01*
X206990735Y-167726867D01*
X207087815Y-167730680D01*
X207176046Y-167771354D01*
X207231135Y-167826442D01*
X207231137Y-167826445D01*
X207269896Y-167879792D01*
X207420208Y-168030104D01*
X207592184Y-168155051D01*
X207781588Y-168251557D01*
X207983757Y-168317246D01*
X208057601Y-168328941D01*
X208193703Y-168350499D01*
X208193710Y-168350499D01*
X208193713Y-168350500D01*
X208193716Y-168350500D01*
X208406284Y-168350500D01*
X208406287Y-168350500D01*
X208406290Y-168350499D01*
X208406296Y-168350499D01*
X208513323Y-168333547D01*
X208616243Y-168317246D01*
X208818412Y-168251557D01*
X209007816Y-168155051D01*
X209179792Y-168030104D01*
X209330104Y-167879792D01*
X209368555Y-167826867D01*
X209439897Y-167760920D01*
X209531047Y-167727293D01*
X209628127Y-167731107D01*
X209716358Y-167771781D01*
X209771444Y-167826867D01*
X209809896Y-167879792D01*
X209960208Y-168030104D01*
X210132184Y-168155051D01*
X210321588Y-168251557D01*
X210523757Y-168317246D01*
X210597601Y-168328941D01*
X210733703Y-168350499D01*
X210733710Y-168350499D01*
X210733713Y-168350500D01*
X210733716Y-168350500D01*
X210946284Y-168350500D01*
X210946287Y-168350500D01*
X210946290Y-168350499D01*
X210946296Y-168350499D01*
X211053323Y-168333547D01*
X211156243Y-168317246D01*
X211358412Y-168251557D01*
X211547816Y-168155051D01*
X211719792Y-168030104D01*
X211870104Y-167879792D01*
X211908555Y-167826867D01*
X211979897Y-167760920D01*
X212071047Y-167727293D01*
X212168127Y-167731107D01*
X212256358Y-167771781D01*
X212311444Y-167826867D01*
X212349896Y-167879792D01*
X212500208Y-168030104D01*
X212672184Y-168155051D01*
X212861588Y-168251557D01*
X213063757Y-168317246D01*
X213137601Y-168328941D01*
X213273703Y-168350499D01*
X213273710Y-168350499D01*
X213273713Y-168350500D01*
X213273716Y-168350500D01*
X213486284Y-168350500D01*
X213486287Y-168350500D01*
X213486290Y-168350499D01*
X213486296Y-168350499D01*
X213593323Y-168333547D01*
X213696243Y-168317246D01*
X213898412Y-168251557D01*
X214087816Y-168155051D01*
X214259792Y-168030104D01*
X214410104Y-167879792D01*
X214448866Y-167826440D01*
X214520205Y-167760495D01*
X214611354Y-167726867D01*
X214708435Y-167730680D01*
X214796666Y-167771354D01*
X214851754Y-167826443D01*
X214890272Y-167879459D01*
X215040537Y-168029724D01*
X215212446Y-168154623D01*
X215401769Y-168251088D01*
X215401783Y-168251095D01*
X215420000Y-168257013D01*
X215420000Y-167065826D01*
X215454075Y-167192993D01*
X215519901Y-167307007D01*
X215612993Y-167400099D01*
X215727007Y-167465925D01*
X215854174Y-167500000D01*
X215985826Y-167500000D01*
X216112993Y-167465925D01*
X216227007Y-167400099D01*
X216320099Y-167307007D01*
X216385925Y-167192993D01*
X216420000Y-167065826D01*
X216420000Y-168257013D01*
X216438216Y-168251095D01*
X216438230Y-168251088D01*
X216627553Y-168154623D01*
X216799462Y-168029724D01*
X216949724Y-167879462D01*
X216988243Y-167826445D01*
X217059585Y-167760495D01*
X217150735Y-167726867D01*
X217247815Y-167730680D01*
X217336046Y-167771354D01*
X217391135Y-167826442D01*
X217391137Y-167826445D01*
X217429896Y-167879792D01*
X217580208Y-168030104D01*
X217752184Y-168155051D01*
X217941588Y-168251557D01*
X218143757Y-168317246D01*
X218217601Y-168328941D01*
X218353703Y-168350499D01*
X218353710Y-168350499D01*
X218353713Y-168350500D01*
X218353716Y-168350500D01*
X218566284Y-168350500D01*
X218566287Y-168350500D01*
X218566290Y-168350499D01*
X218566296Y-168350499D01*
X218673323Y-168333547D01*
X218776243Y-168317246D01*
X218978412Y-168251557D01*
X219167816Y-168155051D01*
X219339792Y-168030104D01*
X219490104Y-167879792D01*
X219528555Y-167826867D01*
X219599897Y-167760920D01*
X219691047Y-167727293D01*
X219788127Y-167731107D01*
X219876358Y-167771781D01*
X219931444Y-167826867D01*
X219969896Y-167879792D01*
X220120208Y-168030104D01*
X220292184Y-168155051D01*
X220481588Y-168251557D01*
X220683757Y-168317246D01*
X220757601Y-168328941D01*
X220893703Y-168350499D01*
X220893710Y-168350499D01*
X220893713Y-168350500D01*
X220893716Y-168350500D01*
X221106284Y-168350500D01*
X221106287Y-168350500D01*
X221106290Y-168350499D01*
X221106296Y-168350499D01*
X221213323Y-168333547D01*
X221316243Y-168317246D01*
X221518412Y-168251557D01*
X221707816Y-168155051D01*
X221879792Y-168030104D01*
X222030104Y-167879792D01*
X222068866Y-167826440D01*
X222140205Y-167760495D01*
X222231354Y-167726867D01*
X222328435Y-167730680D01*
X222416666Y-167771354D01*
X222471754Y-167826443D01*
X222510272Y-167879459D01*
X222660537Y-168029724D01*
X222832446Y-168154623D01*
X223021769Y-168251088D01*
X223021783Y-168251095D01*
X223040000Y-168257013D01*
X223040000Y-167500001D01*
X224040000Y-167500001D01*
X224040000Y-168257013D01*
X224058216Y-168251095D01*
X224058230Y-168251088D01*
X224247553Y-168154623D01*
X224419462Y-168029724D01*
X224569724Y-167879462D01*
X224694623Y-167707553D01*
X224791088Y-167518230D01*
X224791095Y-167518216D01*
X224797014Y-167500000D01*
X224040001Y-167500000D01*
X224040000Y-167500001D01*
X223040000Y-167500001D01*
X223040000Y-167065826D01*
X223074075Y-167192993D01*
X223139901Y-167307007D01*
X223232993Y-167400099D01*
X223347007Y-167465925D01*
X223474174Y-167500000D01*
X223605826Y-167500000D01*
X223732993Y-167465925D01*
X223847007Y-167400099D01*
X223940099Y-167307007D01*
X224005925Y-167192993D01*
X224040000Y-167065826D01*
X224040000Y-166934174D01*
X224005925Y-166807007D01*
X223940099Y-166692993D01*
X223847007Y-166599901D01*
X223732993Y-166534075D01*
X223605826Y-166500000D01*
X223474174Y-166500000D01*
X223347007Y-166534075D01*
X223232993Y-166599901D01*
X223139901Y-166692993D01*
X223074075Y-166807007D01*
X223040000Y-166934174D01*
X223040000Y-166499999D01*
X224040000Y-166499999D01*
X224040001Y-166500000D01*
X224797013Y-166500000D01*
X224791095Y-166481783D01*
X224791088Y-166481769D01*
X224694623Y-166292446D01*
X224569724Y-166120537D01*
X224419462Y-165970275D01*
X224247553Y-165845376D01*
X224058231Y-165748911D01*
X224058208Y-165748901D01*
X224040000Y-165742984D01*
X224040000Y-166499999D01*
X223040000Y-166499999D01*
X223040000Y-165742984D01*
X223039999Y-165742984D01*
X223021791Y-165748901D01*
X223021768Y-165748911D01*
X222832446Y-165845376D01*
X222660537Y-165970275D01*
X222510274Y-166120538D01*
X222471753Y-166173558D01*
X222400410Y-166239506D01*
X222309259Y-166273133D01*
X222212179Y-166269318D01*
X222123949Y-166228642D01*
X222068863Y-166173556D01*
X222030104Y-166120208D01*
X221879792Y-165969896D01*
X221707816Y-165844949D01*
X221518412Y-165748443D01*
X221518409Y-165748442D01*
X221518407Y-165748441D01*
X221316240Y-165682753D01*
X221106296Y-165649500D01*
X221106287Y-165649500D01*
X220893713Y-165649500D01*
X220893703Y-165649500D01*
X220683759Y-165682753D01*
X220481592Y-165748441D01*
X220481588Y-165748442D01*
X220481588Y-165748443D01*
X220394513Y-165792810D01*
X220292182Y-165844950D01*
X220120206Y-165969897D01*
X219969896Y-166120207D01*
X219931445Y-166173131D01*
X219860101Y-166239080D01*
X219768951Y-166272707D01*
X219671871Y-166268892D01*
X219583641Y-166228217D01*
X219528555Y-166173131D01*
X219504440Y-166139941D01*
X219490104Y-166120208D01*
X219339792Y-165969896D01*
X219167816Y-165844949D01*
X218978412Y-165748443D01*
X218978409Y-165748442D01*
X218978407Y-165748441D01*
X218776240Y-165682753D01*
X218566296Y-165649500D01*
X218566287Y-165649500D01*
X218353713Y-165649500D01*
X218353703Y-165649500D01*
X218143759Y-165682753D01*
X217941592Y-165748441D01*
X217941588Y-165748442D01*
X217941588Y-165748443D01*
X217854513Y-165792810D01*
X217752182Y-165844950D01*
X217580206Y-165969897D01*
X217429894Y-166120209D01*
X217391134Y-166173558D01*
X217319790Y-166239507D01*
X217228640Y-166273133D01*
X217131560Y-166269318D01*
X217043330Y-166228642D01*
X216988244Y-166173556D01*
X216949722Y-166120535D01*
X216799462Y-165970275D01*
X216627553Y-165845376D01*
X216438231Y-165748911D01*
X216438208Y-165748901D01*
X216420000Y-165742984D01*
X216420000Y-166934174D01*
X216385925Y-166807007D01*
X216320099Y-166692993D01*
X216227007Y-166599901D01*
X216112993Y-166534075D01*
X215985826Y-166500000D01*
X215854174Y-166500000D01*
X215727007Y-166534075D01*
X215612993Y-166599901D01*
X215519901Y-166692993D01*
X215454075Y-166807007D01*
X215420000Y-166934174D01*
X215420000Y-165742984D01*
X215401791Y-165748901D01*
X215401768Y-165748911D01*
X215212446Y-165845376D01*
X215040537Y-165970275D01*
X214890274Y-166120538D01*
X214851753Y-166173558D01*
X214780410Y-166239506D01*
X214689259Y-166273133D01*
X214592179Y-166269318D01*
X214503949Y-166228642D01*
X214448863Y-166173556D01*
X214410104Y-166120208D01*
X214259792Y-165969896D01*
X214087816Y-165844949D01*
X213898412Y-165748443D01*
X213898409Y-165748442D01*
X213898407Y-165748441D01*
X213696240Y-165682753D01*
X213486296Y-165649500D01*
X213486287Y-165649500D01*
X213273713Y-165649500D01*
X213273703Y-165649500D01*
X213063759Y-165682753D01*
X212861592Y-165748441D01*
X212861588Y-165748442D01*
X212861588Y-165748443D01*
X212774513Y-165792810D01*
X212672182Y-165844950D01*
X212500206Y-165969897D01*
X212349896Y-166120207D01*
X212311445Y-166173131D01*
X212240101Y-166239080D01*
X212148951Y-166272707D01*
X212051871Y-166268892D01*
X211963641Y-166228217D01*
X211908555Y-166173131D01*
X211884440Y-166139941D01*
X211870104Y-166120208D01*
X211719792Y-165969896D01*
X211547816Y-165844949D01*
X211358412Y-165748443D01*
X211358409Y-165748442D01*
X211358407Y-165748441D01*
X211156240Y-165682753D01*
X210946296Y-165649500D01*
X210946287Y-165649500D01*
X210733713Y-165649500D01*
X210733703Y-165649500D01*
X210523759Y-165682753D01*
X210321592Y-165748441D01*
X210321588Y-165748442D01*
X210321588Y-165748443D01*
X210234513Y-165792810D01*
X210132182Y-165844950D01*
X209960206Y-165969897D01*
X209809896Y-166120207D01*
X209771445Y-166173131D01*
X209700101Y-166239080D01*
X209608951Y-166272707D01*
X209511871Y-166268892D01*
X209423641Y-166228217D01*
X209368555Y-166173131D01*
X209344440Y-166139941D01*
X209330104Y-166120208D01*
X209179792Y-165969896D01*
X209007816Y-165844949D01*
X208818412Y-165748443D01*
X208818409Y-165748442D01*
X208818407Y-165748441D01*
X208616240Y-165682753D01*
X208406296Y-165649500D01*
X208406287Y-165649500D01*
X208193713Y-165649500D01*
X208193703Y-165649500D01*
X207983759Y-165682753D01*
X207781592Y-165748441D01*
X207781588Y-165748442D01*
X207781588Y-165748443D01*
X207694513Y-165792810D01*
X207592182Y-165844950D01*
X207420206Y-165969897D01*
X207269894Y-166120209D01*
X207231134Y-166173558D01*
X207159790Y-166239507D01*
X207068640Y-166273133D01*
X206971560Y-166269318D01*
X206883330Y-166228642D01*
X206828244Y-166173556D01*
X206789722Y-166120535D01*
X206639462Y-165970275D01*
X206467553Y-165845376D01*
X206278231Y-165748911D01*
X206278208Y-165748901D01*
X206260000Y-165742984D01*
X206260000Y-166934174D01*
X206225925Y-166807007D01*
X206160099Y-166692993D01*
X206067007Y-166599901D01*
X205952993Y-166534075D01*
X205825826Y-166500000D01*
X205694174Y-166500000D01*
X205567007Y-166534075D01*
X205452993Y-166599901D01*
X205359901Y-166692993D01*
X205294075Y-166807007D01*
X205260000Y-166934174D01*
X205260000Y-165742984D01*
X205259999Y-165742984D01*
X205241791Y-165748901D01*
X205241768Y-165748911D01*
X205052446Y-165845376D01*
X204880537Y-165970275D01*
X204730274Y-166120538D01*
X204691753Y-166173558D01*
X204620410Y-166239506D01*
X204529259Y-166273133D01*
X204432179Y-166269318D01*
X204343949Y-166228642D01*
X204288863Y-166173556D01*
X204250104Y-166120208D01*
X204099792Y-165969896D01*
X203927816Y-165844949D01*
X203738412Y-165748443D01*
X203738409Y-165748442D01*
X203738407Y-165748441D01*
X203536240Y-165682753D01*
X203326296Y-165649500D01*
X203326287Y-165649500D01*
X203113713Y-165649500D01*
X203113703Y-165649500D01*
X202903759Y-165682753D01*
X202701592Y-165748441D01*
X202701588Y-165748442D01*
X202701588Y-165748443D01*
X202614513Y-165792810D01*
X202512182Y-165844950D01*
X202340206Y-165969897D01*
X202189894Y-166120209D01*
X202151134Y-166173558D01*
X202079790Y-166239507D01*
X201988640Y-166273133D01*
X201891560Y-166269318D01*
X201803330Y-166228642D01*
X201748244Y-166173556D01*
X201709722Y-166120535D01*
X201559462Y-165970275D01*
X201387553Y-165845376D01*
X201198231Y-165748911D01*
X201198208Y-165748901D01*
X201180000Y-165742984D01*
X201180000Y-166934174D01*
X201145925Y-166807007D01*
X201080099Y-166692993D01*
X200987007Y-166599901D01*
X200872993Y-166534075D01*
X200745826Y-166500000D01*
X200614174Y-166500000D01*
X200487007Y-166534075D01*
X200372993Y-166599901D01*
X200279901Y-166692993D01*
X200214075Y-166807007D01*
X200180000Y-166934174D01*
X200180000Y-165742984D01*
X200161791Y-165748901D01*
X200161768Y-165748911D01*
X199972446Y-165845376D01*
X199800537Y-165970275D01*
X199650274Y-166120538D01*
X199611753Y-166173558D01*
X199540410Y-166239506D01*
X199449259Y-166273133D01*
X199352179Y-166269318D01*
X199263949Y-166228642D01*
X199208863Y-166173556D01*
X199170104Y-166120208D01*
X199019792Y-165969896D01*
X198847816Y-165844949D01*
X198658412Y-165748443D01*
X198658409Y-165748442D01*
X198658407Y-165748441D01*
X198456240Y-165682753D01*
X198246296Y-165649500D01*
X198246287Y-165649500D01*
X198033713Y-165649500D01*
X198033703Y-165649500D01*
X197823759Y-165682753D01*
X197621592Y-165748441D01*
X197621588Y-165748442D01*
X197621588Y-165748443D01*
X197534513Y-165792810D01*
X197432182Y-165844950D01*
X197260206Y-165969897D01*
X197109896Y-166120207D01*
X197071445Y-166173131D01*
X197000101Y-166239080D01*
X196908951Y-166272707D01*
X196811871Y-166268892D01*
X196723641Y-166228217D01*
X196668555Y-166173131D01*
X196644440Y-166139941D01*
X196630104Y-166120208D01*
X196479792Y-165969896D01*
X196307816Y-165844949D01*
X196118412Y-165748443D01*
X196118409Y-165748442D01*
X196118407Y-165748441D01*
X195916240Y-165682753D01*
X195706296Y-165649500D01*
X195706287Y-165649500D01*
X195493713Y-165649500D01*
X195493703Y-165649500D01*
X195283759Y-165682753D01*
X195081592Y-165748441D01*
X195081588Y-165748442D01*
X195081588Y-165748443D01*
X194994513Y-165792810D01*
X194892182Y-165844950D01*
X194720206Y-165969897D01*
X194569896Y-166120207D01*
X194531445Y-166173131D01*
X194460101Y-166239080D01*
X194368951Y-166272707D01*
X194271871Y-166268892D01*
X194183641Y-166228217D01*
X194128555Y-166173131D01*
X194104440Y-166139941D01*
X194090104Y-166120208D01*
X193939792Y-165969896D01*
X193767816Y-165844949D01*
X193578412Y-165748443D01*
X193578409Y-165748442D01*
X193578407Y-165748441D01*
X193376240Y-165682753D01*
X193166296Y-165649500D01*
X193166287Y-165649500D01*
X192953713Y-165649500D01*
X192953703Y-165649500D01*
X192743759Y-165682753D01*
X192541592Y-165748441D01*
X192541588Y-165748442D01*
X192541588Y-165748443D01*
X192454513Y-165792810D01*
X192352182Y-165844950D01*
X192180206Y-165969897D01*
X192029896Y-166120207D01*
X191991445Y-166173131D01*
X191920101Y-166239080D01*
X191828951Y-166272707D01*
X191731871Y-166268892D01*
X191643641Y-166228217D01*
X191588555Y-166173131D01*
X191564440Y-166139941D01*
X191550104Y-166120208D01*
X191399792Y-165969896D01*
X191227816Y-165844949D01*
X191038412Y-165748443D01*
X191038409Y-165748442D01*
X191038407Y-165748441D01*
X190836240Y-165682753D01*
X190626296Y-165649500D01*
X190626287Y-165649500D01*
X190413713Y-165649500D01*
X190413703Y-165649500D01*
X190203759Y-165682753D01*
X190001592Y-165748441D01*
X190001588Y-165748442D01*
X190001588Y-165748443D01*
X189914513Y-165792810D01*
X189812182Y-165844950D01*
X189811596Y-165845376D01*
X189640208Y-165969896D01*
X189640206Y-165969897D01*
X189632293Y-165975647D01*
X189630691Y-165973443D01*
X189561403Y-166012175D01*
X189464912Y-166023518D01*
X189371426Y-165997072D01*
X189295176Y-165936864D01*
X189284708Y-165921657D01*
X189284026Y-165922169D01*
X189187189Y-165792812D01*
X189187187Y-165792810D01*
X189072087Y-165706646D01*
X188937378Y-165656403D01*
X188937371Y-165656401D01*
X188877832Y-165650000D01*
X188480001Y-165650000D01*
X188480000Y-165650001D01*
X188480000Y-166934174D01*
X188445925Y-166807007D01*
X188380099Y-166692993D01*
X188287007Y-166599901D01*
X188172993Y-166534075D01*
X188045826Y-166500000D01*
X187914174Y-166500000D01*
X187787007Y-166534075D01*
X187672993Y-166599901D01*
X187579901Y-166692993D01*
X187514075Y-166807007D01*
X187480000Y-166934174D01*
X186100500Y-166934174D01*
X186100500Y-166102167D01*
X186630000Y-166102167D01*
X186630000Y-166499999D01*
X186630001Y-166500000D01*
X187479999Y-166500000D01*
X187480000Y-166499999D01*
X187480000Y-165650001D01*
X187479999Y-165650000D01*
X187082167Y-165650000D01*
X187022628Y-165656401D01*
X187022621Y-165656403D01*
X186887912Y-165706646D01*
X186772812Y-165792810D01*
X186772810Y-165792812D01*
X186686646Y-165907912D01*
X186636403Y-166042621D01*
X186636401Y-166042628D01*
X186630000Y-166102167D01*
X186100500Y-166102167D01*
X186100500Y-145382396D01*
X187444710Y-145382396D01*
X187461781Y-145391094D01*
X187461780Y-145391094D01*
X187663876Y-145456758D01*
X187873743Y-145489999D01*
X187873756Y-145490000D01*
X188086244Y-145490000D01*
X188086256Y-145489999D01*
X188296123Y-145456758D01*
X188498219Y-145391094D01*
X188515289Y-145382395D01*
X187980000Y-144847106D01*
X187444710Y-145382396D01*
X186100500Y-145382396D01*
X186100500Y-144033743D01*
X186630000Y-144033743D01*
X186630000Y-144246256D01*
X186663241Y-144456123D01*
X186728904Y-144658214D01*
X186737603Y-144675288D01*
X187272892Y-144140000D01*
X187207066Y-144074174D01*
X187480000Y-144074174D01*
X187480000Y-144205826D01*
X187514075Y-144332993D01*
X187579901Y-144447007D01*
X187672993Y-144540099D01*
X187787007Y-144605925D01*
X187914174Y-144640000D01*
X188045826Y-144640000D01*
X188172993Y-144605925D01*
X188287007Y-144540099D01*
X188380099Y-144447007D01*
X188445925Y-144332993D01*
X188480000Y-144205826D01*
X188480000Y-144139999D01*
X188687106Y-144139999D01*
X189305924Y-144758817D01*
X189351715Y-144821843D01*
X189364949Y-144847816D01*
X189489896Y-145019792D01*
X189640208Y-145170104D01*
X189812184Y-145295051D01*
X190001588Y-145391557D01*
X190203757Y-145457246D01*
X190277601Y-145468941D01*
X190413703Y-145490499D01*
X190413710Y-145490499D01*
X190413713Y-145490500D01*
X190413716Y-145490500D01*
X190626284Y-145490500D01*
X190626287Y-145490500D01*
X190626290Y-145490499D01*
X190626296Y-145490499D01*
X190742661Y-145472068D01*
X190836243Y-145457246D01*
X191038412Y-145391557D01*
X191227816Y-145295051D01*
X191399792Y-145170104D01*
X191550104Y-145019792D01*
X191588555Y-144966867D01*
X191659897Y-144900920D01*
X191751047Y-144867293D01*
X191848127Y-144871107D01*
X191936358Y-144911781D01*
X191991444Y-144966867D01*
X192029896Y-145019792D01*
X192180208Y-145170104D01*
X192352184Y-145295051D01*
X192541588Y-145391557D01*
X192743757Y-145457246D01*
X192817601Y-145468941D01*
X192953703Y-145490499D01*
X192953710Y-145490499D01*
X192953713Y-145490500D01*
X192953716Y-145490500D01*
X193166284Y-145490500D01*
X193166287Y-145490500D01*
X193166290Y-145490499D01*
X193166296Y-145490499D01*
X193282661Y-145472068D01*
X193376243Y-145457246D01*
X193578412Y-145391557D01*
X193767816Y-145295051D01*
X193939792Y-145170104D01*
X194090104Y-145019792D01*
X194128866Y-144966440D01*
X194200205Y-144900495D01*
X194291354Y-144866867D01*
X194388435Y-144870680D01*
X194476666Y-144911354D01*
X194531754Y-144966443D01*
X194570272Y-145019459D01*
X194720537Y-145169724D01*
X194892446Y-145294623D01*
X195081769Y-145391088D01*
X195081783Y-145391095D01*
X195100000Y-145397013D01*
X195100000Y-144205826D01*
X195134075Y-144332993D01*
X195199901Y-144447007D01*
X195292993Y-144540099D01*
X195407007Y-144605925D01*
X195534174Y-144640000D01*
X195665826Y-144640000D01*
X195792993Y-144605925D01*
X195907007Y-144540099D01*
X196000099Y-144447007D01*
X196065925Y-144332993D01*
X196100000Y-144205826D01*
X196100000Y-145397013D01*
X196118216Y-145391095D01*
X196118230Y-145391088D01*
X196307553Y-145294623D01*
X196479462Y-145169724D01*
X196629724Y-145019462D01*
X196668243Y-144966445D01*
X196739585Y-144900495D01*
X196830735Y-144866867D01*
X196927815Y-144870680D01*
X197016046Y-144911354D01*
X197071135Y-144966442D01*
X197071137Y-144966445D01*
X197109896Y-145019792D01*
X197260208Y-145170104D01*
X197432184Y-145295051D01*
X197621588Y-145391557D01*
X197823757Y-145457246D01*
X197897601Y-145468941D01*
X198033703Y-145490499D01*
X198033710Y-145490499D01*
X198033713Y-145490500D01*
X198033716Y-145490500D01*
X198246284Y-145490500D01*
X198246287Y-145490500D01*
X198246290Y-145490499D01*
X198246296Y-145490499D01*
X198362661Y-145472068D01*
X198456243Y-145457246D01*
X198658412Y-145391557D01*
X198847816Y-145295051D01*
X199019792Y-145170104D01*
X199170104Y-145019792D01*
X199208555Y-144966867D01*
X199279897Y-144900920D01*
X199371047Y-144867293D01*
X199468127Y-144871107D01*
X199556358Y-144911781D01*
X199611444Y-144966867D01*
X199649896Y-145019792D01*
X199800208Y-145170104D01*
X199972184Y-145295051D01*
X200161588Y-145391557D01*
X200363757Y-145457246D01*
X200437601Y-145468941D01*
X200573703Y-145490499D01*
X200573710Y-145490499D01*
X200573713Y-145490500D01*
X200573716Y-145490500D01*
X200786284Y-145490500D01*
X200786287Y-145490500D01*
X200786290Y-145490499D01*
X200786296Y-145490499D01*
X200902661Y-145472068D01*
X200996243Y-145457246D01*
X201198412Y-145391557D01*
X201387816Y-145295051D01*
X201559792Y-145170104D01*
X201710104Y-145019792D01*
X201748866Y-144966440D01*
X201820205Y-144900495D01*
X201911354Y-144866867D01*
X202008435Y-144870680D01*
X202096666Y-144911354D01*
X202151754Y-144966443D01*
X202190272Y-145019459D01*
X202340537Y-145169724D01*
X202512446Y-145294623D01*
X202701769Y-145391088D01*
X202701783Y-145391095D01*
X202720000Y-145397013D01*
X202720000Y-144205826D01*
X202754075Y-144332993D01*
X202819901Y-144447007D01*
X202912993Y-144540099D01*
X203027007Y-144605925D01*
X203154174Y-144640000D01*
X203285826Y-144640000D01*
X203412993Y-144605925D01*
X203527007Y-144540099D01*
X203620099Y-144447007D01*
X203685925Y-144332993D01*
X203720000Y-144205826D01*
X203720000Y-145397013D01*
X203738216Y-145391095D01*
X203738230Y-145391088D01*
X203927553Y-145294623D01*
X204099462Y-145169724D01*
X204249724Y-145019462D01*
X204288243Y-144966445D01*
X204359585Y-144900495D01*
X204450735Y-144866867D01*
X204547815Y-144870680D01*
X204636046Y-144911354D01*
X204691135Y-144966442D01*
X204691137Y-144966445D01*
X204729896Y-145019792D01*
X204880208Y-145170104D01*
X205052184Y-145295051D01*
X205241588Y-145391557D01*
X205443757Y-145457246D01*
X205517601Y-145468941D01*
X205653703Y-145490499D01*
X205653710Y-145490499D01*
X205653713Y-145490500D01*
X205653716Y-145490500D01*
X205866284Y-145490500D01*
X205866287Y-145490500D01*
X205866290Y-145490499D01*
X205866296Y-145490499D01*
X205982661Y-145472068D01*
X206076243Y-145457246D01*
X206278412Y-145391557D01*
X206467816Y-145295051D01*
X206639792Y-145170104D01*
X206790104Y-145019792D01*
X206828555Y-144966867D01*
X206899897Y-144900920D01*
X206991047Y-144867293D01*
X207088127Y-144871107D01*
X207176358Y-144911781D01*
X207231444Y-144966867D01*
X207269896Y-145019792D01*
X207420208Y-145170104D01*
X207592184Y-145295051D01*
X207781588Y-145391557D01*
X207983757Y-145457246D01*
X208057601Y-145468941D01*
X208193703Y-145490499D01*
X208193710Y-145490499D01*
X208193713Y-145490500D01*
X208193716Y-145490500D01*
X208406284Y-145490500D01*
X208406287Y-145490500D01*
X208406290Y-145490499D01*
X208406296Y-145490499D01*
X208522661Y-145472068D01*
X208616243Y-145457246D01*
X208818412Y-145391557D01*
X209007816Y-145295051D01*
X209179792Y-145170104D01*
X209330104Y-145019792D01*
X209368555Y-144966867D01*
X209439897Y-144900920D01*
X209531047Y-144867293D01*
X209628127Y-144871107D01*
X209716358Y-144911781D01*
X209771444Y-144966867D01*
X209809896Y-145019792D01*
X209960208Y-145170104D01*
X210132184Y-145295051D01*
X210321588Y-145391557D01*
X210523757Y-145457246D01*
X210597601Y-145468941D01*
X210733703Y-145490499D01*
X210733710Y-145490499D01*
X210733713Y-145490500D01*
X210733716Y-145490500D01*
X210946284Y-145490500D01*
X210946287Y-145490500D01*
X210946290Y-145490499D01*
X210946296Y-145490499D01*
X211062661Y-145472068D01*
X211156243Y-145457246D01*
X211358412Y-145391557D01*
X211547816Y-145295051D01*
X211719792Y-145170104D01*
X211870104Y-145019792D01*
X211908555Y-144966867D01*
X211979897Y-144900920D01*
X212071047Y-144867293D01*
X212168127Y-144871107D01*
X212256358Y-144911781D01*
X212311444Y-144966867D01*
X212349896Y-145019792D01*
X212500208Y-145170104D01*
X212672184Y-145295051D01*
X212861588Y-145391557D01*
X213063757Y-145457246D01*
X213137601Y-145468941D01*
X213273703Y-145490499D01*
X213273710Y-145490499D01*
X213273713Y-145490500D01*
X213273716Y-145490500D01*
X213486284Y-145490500D01*
X213486287Y-145490500D01*
X213486290Y-145490499D01*
X213486296Y-145490499D01*
X213602661Y-145472068D01*
X213696243Y-145457246D01*
X213898412Y-145391557D01*
X214087816Y-145295051D01*
X214259792Y-145170104D01*
X214410104Y-145019792D01*
X214448866Y-144966440D01*
X214520205Y-144900495D01*
X214611354Y-144866867D01*
X214708435Y-144870680D01*
X214796666Y-144911354D01*
X214851754Y-144966443D01*
X214890272Y-145019459D01*
X215040537Y-145169724D01*
X215212446Y-145294623D01*
X215401769Y-145391088D01*
X215401783Y-145391095D01*
X215420000Y-145397013D01*
X215420000Y-144205826D01*
X215454075Y-144332993D01*
X215519901Y-144447007D01*
X215612993Y-144540099D01*
X215727007Y-144605925D01*
X215854174Y-144640000D01*
X215985826Y-144640000D01*
X216112993Y-144605925D01*
X216227007Y-144540099D01*
X216320099Y-144447007D01*
X216385925Y-144332993D01*
X216420000Y-144205826D01*
X216420000Y-145397013D01*
X216438216Y-145391095D01*
X216438230Y-145391088D01*
X216627553Y-145294623D01*
X216799462Y-145169724D01*
X216949724Y-145019462D01*
X216988243Y-144966445D01*
X217059585Y-144900495D01*
X217150735Y-144866867D01*
X217247815Y-144870680D01*
X217336046Y-144911354D01*
X217391135Y-144966442D01*
X217391137Y-144966445D01*
X217429896Y-145019792D01*
X217580208Y-145170104D01*
X217752184Y-145295051D01*
X217941588Y-145391557D01*
X218143757Y-145457246D01*
X218217601Y-145468941D01*
X218353703Y-145490499D01*
X218353710Y-145490499D01*
X218353713Y-145490500D01*
X218353716Y-145490500D01*
X218566284Y-145490500D01*
X218566287Y-145490500D01*
X218566290Y-145490499D01*
X218566296Y-145490499D01*
X218682661Y-145472068D01*
X218776243Y-145457246D01*
X218978412Y-145391557D01*
X219167816Y-145295051D01*
X219339792Y-145170104D01*
X219490104Y-145019792D01*
X219528555Y-144966867D01*
X219599897Y-144900920D01*
X219691047Y-144867293D01*
X219788127Y-144871107D01*
X219876358Y-144911781D01*
X219931444Y-144966867D01*
X219969896Y-145019792D01*
X220120208Y-145170104D01*
X220292184Y-145295051D01*
X220481588Y-145391557D01*
X220683757Y-145457246D01*
X220757601Y-145468941D01*
X220893703Y-145490499D01*
X220893710Y-145490499D01*
X220893713Y-145490500D01*
X220893716Y-145490500D01*
X221106284Y-145490500D01*
X221106287Y-145490500D01*
X221106290Y-145490499D01*
X221106296Y-145490499D01*
X221222661Y-145472068D01*
X221316243Y-145457246D01*
X221518412Y-145391557D01*
X221707816Y-145295051D01*
X221879792Y-145170104D01*
X222030104Y-145019792D01*
X222068866Y-144966440D01*
X222140205Y-144900495D01*
X222231354Y-144866867D01*
X222328435Y-144870680D01*
X222416666Y-144911354D01*
X222471754Y-144966443D01*
X222510272Y-145019459D01*
X222660537Y-145169724D01*
X222832446Y-145294623D01*
X223021769Y-145391088D01*
X223021783Y-145391095D01*
X223040000Y-145397013D01*
X223040000Y-144640001D01*
X224040000Y-144640001D01*
X224040000Y-145397013D01*
X224058216Y-145391095D01*
X224058230Y-145391088D01*
X224247553Y-145294623D01*
X224419462Y-145169724D01*
X224569724Y-145019462D01*
X224694623Y-144847553D01*
X224791088Y-144658230D01*
X224791095Y-144658216D01*
X224797014Y-144640000D01*
X224040001Y-144640000D01*
X224040000Y-144640001D01*
X223040000Y-144640001D01*
X223040000Y-144205826D01*
X223074075Y-144332993D01*
X223139901Y-144447007D01*
X223232993Y-144540099D01*
X223347007Y-144605925D01*
X223474174Y-144640000D01*
X223605826Y-144640000D01*
X223732993Y-144605925D01*
X223847007Y-144540099D01*
X223940099Y-144447007D01*
X224005925Y-144332993D01*
X224040000Y-144205826D01*
X224040000Y-144074174D01*
X224005925Y-143947007D01*
X223940099Y-143832993D01*
X223847007Y-143739901D01*
X223732993Y-143674075D01*
X223605826Y-143640000D01*
X223474174Y-143640000D01*
X223347007Y-143674075D01*
X223232993Y-143739901D01*
X223139901Y-143832993D01*
X223074075Y-143947007D01*
X223040000Y-144074174D01*
X223040000Y-143639999D01*
X224040000Y-143639999D01*
X224040001Y-143640000D01*
X224797013Y-143640000D01*
X224791095Y-143621783D01*
X224791088Y-143621769D01*
X224694623Y-143432446D01*
X224569724Y-143260537D01*
X224419462Y-143110275D01*
X224247553Y-142985376D01*
X224058231Y-142888911D01*
X224058208Y-142888901D01*
X224040000Y-142882984D01*
X224040000Y-143639999D01*
X223040000Y-143639999D01*
X223040000Y-142882984D01*
X223021791Y-142888901D01*
X223021768Y-142888911D01*
X222832446Y-142985376D01*
X222660537Y-143110275D01*
X222510274Y-143260538D01*
X222471753Y-143313558D01*
X222400410Y-143379506D01*
X222309259Y-143413133D01*
X222212179Y-143409318D01*
X222123949Y-143368642D01*
X222068863Y-143313556D01*
X222030104Y-143260208D01*
X221879792Y-143109896D01*
X221707816Y-142984949D01*
X221518412Y-142888443D01*
X221518409Y-142888442D01*
X221518407Y-142888441D01*
X221316240Y-142822753D01*
X221106296Y-142789500D01*
X221106287Y-142789500D01*
X220893713Y-142789500D01*
X220893703Y-142789500D01*
X220683759Y-142822753D01*
X220481592Y-142888441D01*
X220481588Y-142888442D01*
X220481588Y-142888443D01*
X220395975Y-142932065D01*
X220292182Y-142984950D01*
X220120206Y-143109897D01*
X219969896Y-143260207D01*
X219931445Y-143313131D01*
X219860101Y-143379080D01*
X219768951Y-143412707D01*
X219671871Y-143408892D01*
X219583641Y-143368217D01*
X219528555Y-143313131D01*
X219504440Y-143279941D01*
X219490104Y-143260208D01*
X219339792Y-143109896D01*
X219167816Y-142984949D01*
X218978412Y-142888443D01*
X218978409Y-142888442D01*
X218978407Y-142888441D01*
X218776240Y-142822753D01*
X218566296Y-142789500D01*
X218566287Y-142789500D01*
X218353713Y-142789500D01*
X218353703Y-142789500D01*
X218143759Y-142822753D01*
X217941592Y-142888441D01*
X217941588Y-142888442D01*
X217941588Y-142888443D01*
X217855975Y-142932065D01*
X217752182Y-142984950D01*
X217580206Y-143109897D01*
X217429894Y-143260209D01*
X217391134Y-143313558D01*
X217319790Y-143379507D01*
X217228640Y-143413133D01*
X217131560Y-143409318D01*
X217043330Y-143368642D01*
X216988244Y-143313556D01*
X216949722Y-143260535D01*
X216799462Y-143110275D01*
X216627553Y-142985376D01*
X216438231Y-142888911D01*
X216438208Y-142888901D01*
X216420000Y-142882984D01*
X216420000Y-144074174D01*
X216385925Y-143947007D01*
X216320099Y-143832993D01*
X216227007Y-143739901D01*
X216112993Y-143674075D01*
X215985826Y-143640000D01*
X215854174Y-143640000D01*
X215727007Y-143674075D01*
X215612993Y-143739901D01*
X215519901Y-143832993D01*
X215454075Y-143947007D01*
X215420000Y-144074174D01*
X215420000Y-142882984D01*
X215401791Y-142888901D01*
X215401768Y-142888911D01*
X215212446Y-142985376D01*
X215040537Y-143110275D01*
X214890274Y-143260538D01*
X214851753Y-143313558D01*
X214780410Y-143379506D01*
X214689259Y-143413133D01*
X214592179Y-143409318D01*
X214503949Y-143368642D01*
X214448863Y-143313556D01*
X214410104Y-143260208D01*
X214259792Y-143109896D01*
X214087816Y-142984949D01*
X213898412Y-142888443D01*
X213898409Y-142888442D01*
X213898407Y-142888441D01*
X213696240Y-142822753D01*
X213486296Y-142789500D01*
X213486287Y-142789500D01*
X213273713Y-142789500D01*
X213273703Y-142789500D01*
X213063759Y-142822753D01*
X212861592Y-142888441D01*
X212861588Y-142888442D01*
X212861588Y-142888443D01*
X212775975Y-142932065D01*
X212672182Y-142984950D01*
X212500206Y-143109897D01*
X212349896Y-143260207D01*
X212311445Y-143313131D01*
X212240101Y-143379080D01*
X212148951Y-143412707D01*
X212051871Y-143408892D01*
X211963641Y-143368217D01*
X211908555Y-143313131D01*
X211884440Y-143279941D01*
X211870104Y-143260208D01*
X211719792Y-143109896D01*
X211547816Y-142984949D01*
X211358412Y-142888443D01*
X211358409Y-142888442D01*
X211358407Y-142888441D01*
X211156240Y-142822753D01*
X210946296Y-142789500D01*
X210946287Y-142789500D01*
X210733713Y-142789500D01*
X210733703Y-142789500D01*
X210523759Y-142822753D01*
X210321592Y-142888441D01*
X210321588Y-142888442D01*
X210321588Y-142888443D01*
X210235975Y-142932065D01*
X210132182Y-142984950D01*
X209960206Y-143109897D01*
X209809896Y-143260207D01*
X209771445Y-143313131D01*
X209700101Y-143379080D01*
X209608951Y-143412707D01*
X209511871Y-143408892D01*
X209423641Y-143368217D01*
X209368555Y-143313131D01*
X209344440Y-143279941D01*
X209330104Y-143260208D01*
X209179792Y-143109896D01*
X209007816Y-142984949D01*
X208818412Y-142888443D01*
X208818409Y-142888442D01*
X208818407Y-142888441D01*
X208616240Y-142822753D01*
X208406296Y-142789500D01*
X208406287Y-142789500D01*
X208193713Y-142789500D01*
X208193703Y-142789500D01*
X207983759Y-142822753D01*
X207781592Y-142888441D01*
X207781588Y-142888442D01*
X207781588Y-142888443D01*
X207695975Y-142932065D01*
X207592182Y-142984950D01*
X207420206Y-143109897D01*
X207269896Y-143260207D01*
X207231445Y-143313131D01*
X207160101Y-143379080D01*
X207068951Y-143412707D01*
X206971871Y-143408892D01*
X206883641Y-143368217D01*
X206828555Y-143313131D01*
X206804440Y-143279941D01*
X206790104Y-143260208D01*
X206639792Y-143109896D01*
X206467816Y-142984949D01*
X206278412Y-142888443D01*
X206278409Y-142888442D01*
X206278407Y-142888441D01*
X206076240Y-142822753D01*
X205866296Y-142789500D01*
X205866287Y-142789500D01*
X205653713Y-142789500D01*
X205653703Y-142789500D01*
X205443759Y-142822753D01*
X205241592Y-142888441D01*
X205241588Y-142888442D01*
X205241588Y-142888443D01*
X205155975Y-142932065D01*
X205052182Y-142984950D01*
X204880206Y-143109897D01*
X204729894Y-143260209D01*
X204691134Y-143313558D01*
X204619790Y-143379507D01*
X204528640Y-143413133D01*
X204431560Y-143409318D01*
X204343330Y-143368642D01*
X204288244Y-143313556D01*
X204249722Y-143260535D01*
X204099462Y-143110275D01*
X203927553Y-142985376D01*
X203738231Y-142888911D01*
X203738208Y-142888901D01*
X203720000Y-142882984D01*
X203720000Y-144074174D01*
X203685925Y-143947007D01*
X203620099Y-143832993D01*
X203527007Y-143739901D01*
X203412993Y-143674075D01*
X203285826Y-143640000D01*
X203154174Y-143640000D01*
X203027007Y-143674075D01*
X202912993Y-143739901D01*
X202819901Y-143832993D01*
X202754075Y-143947007D01*
X202720000Y-144074174D01*
X202720000Y-142882984D01*
X202701791Y-142888901D01*
X202701768Y-142888911D01*
X202512446Y-142985376D01*
X202340537Y-143110275D01*
X202190274Y-143260538D01*
X202151753Y-143313558D01*
X202080410Y-143379506D01*
X201989259Y-143413133D01*
X201892179Y-143409318D01*
X201803949Y-143368642D01*
X201748863Y-143313556D01*
X201710104Y-143260208D01*
X201559792Y-143109896D01*
X201387816Y-142984949D01*
X201198412Y-142888443D01*
X201198409Y-142888442D01*
X201198407Y-142888441D01*
X200996240Y-142822753D01*
X200786296Y-142789500D01*
X200786287Y-142789500D01*
X200573713Y-142789500D01*
X200573703Y-142789500D01*
X200363759Y-142822753D01*
X200161592Y-142888441D01*
X200161588Y-142888442D01*
X200161588Y-142888443D01*
X200075975Y-142932065D01*
X199972182Y-142984950D01*
X199800206Y-143109897D01*
X199649896Y-143260207D01*
X199611445Y-143313131D01*
X199540101Y-143379080D01*
X199448951Y-143412707D01*
X199351871Y-143408892D01*
X199263641Y-143368217D01*
X199208555Y-143313131D01*
X199184440Y-143279941D01*
X199170104Y-143260208D01*
X199019792Y-143109896D01*
X198847816Y-142984949D01*
X198658412Y-142888443D01*
X198658409Y-142888442D01*
X198658407Y-142888441D01*
X198456240Y-142822753D01*
X198246296Y-142789500D01*
X198246287Y-142789500D01*
X198033713Y-142789500D01*
X198033703Y-142789500D01*
X197823759Y-142822753D01*
X197621592Y-142888441D01*
X197621588Y-142888442D01*
X197621588Y-142888443D01*
X197535975Y-142932065D01*
X197432182Y-142984950D01*
X197260206Y-143109897D01*
X197109894Y-143260209D01*
X197071134Y-143313558D01*
X196999790Y-143379507D01*
X196908640Y-143413133D01*
X196811560Y-143409318D01*
X196723330Y-143368642D01*
X196668244Y-143313556D01*
X196629722Y-143260535D01*
X196479462Y-143110275D01*
X196307553Y-142985376D01*
X196118231Y-142888911D01*
X196118208Y-142888901D01*
X196100000Y-142882984D01*
X196100000Y-144074174D01*
X196065925Y-143947007D01*
X196000099Y-143832993D01*
X195907007Y-143739901D01*
X195792993Y-143674075D01*
X195665826Y-143640000D01*
X195534174Y-143640000D01*
X195407007Y-143674075D01*
X195292993Y-143739901D01*
X195199901Y-143832993D01*
X195134075Y-143947007D01*
X195100000Y-144074174D01*
X195100000Y-142882984D01*
X195081791Y-142888901D01*
X195081768Y-142888911D01*
X194892446Y-142985376D01*
X194720537Y-143110275D01*
X194570274Y-143260538D01*
X194531753Y-143313558D01*
X194460410Y-143379506D01*
X194369259Y-143413133D01*
X194272179Y-143409318D01*
X194183949Y-143368642D01*
X194128863Y-143313556D01*
X194090104Y-143260208D01*
X193939792Y-143109896D01*
X193767816Y-142984949D01*
X193578412Y-142888443D01*
X193578409Y-142888442D01*
X193578407Y-142888441D01*
X193376240Y-142822753D01*
X193166296Y-142789500D01*
X193166287Y-142789500D01*
X192953713Y-142789500D01*
X192953703Y-142789500D01*
X192743759Y-142822753D01*
X192541592Y-142888441D01*
X192541588Y-142888442D01*
X192541588Y-142888443D01*
X192455975Y-142932065D01*
X192352182Y-142984950D01*
X192180206Y-143109897D01*
X192029896Y-143260207D01*
X191991445Y-143313131D01*
X191920101Y-143379080D01*
X191828951Y-143412707D01*
X191731871Y-143408892D01*
X191643641Y-143368217D01*
X191588555Y-143313131D01*
X191564440Y-143279941D01*
X191550104Y-143260208D01*
X191399792Y-143109896D01*
X191227816Y-142984949D01*
X191038412Y-142888443D01*
X191038409Y-142888442D01*
X191038407Y-142888441D01*
X190836240Y-142822753D01*
X190626296Y-142789500D01*
X190626287Y-142789500D01*
X190413713Y-142789500D01*
X190413703Y-142789500D01*
X190203759Y-142822753D01*
X190001592Y-142888441D01*
X190001588Y-142888442D01*
X190001588Y-142888443D01*
X189915975Y-142932065D01*
X189812182Y-142984950D01*
X189640206Y-143109897D01*
X189489897Y-143260206D01*
X189364948Y-143432184D01*
X189351715Y-143458157D01*
X189305926Y-143521179D01*
X188687106Y-144139999D01*
X188480000Y-144139999D01*
X188480000Y-144074174D01*
X188445925Y-143947007D01*
X188380099Y-143832993D01*
X188287007Y-143739901D01*
X188172993Y-143674075D01*
X188045826Y-143640000D01*
X187914174Y-143640000D01*
X187787007Y-143674075D01*
X187672993Y-143739901D01*
X187579901Y-143832993D01*
X187514075Y-143947007D01*
X187480000Y-144074174D01*
X187207066Y-144074174D01*
X186737602Y-143604710D01*
X186728906Y-143621779D01*
X186728900Y-143621793D01*
X186663241Y-143823873D01*
X186663241Y-143823874D01*
X186630000Y-144033743D01*
X186100500Y-144033743D01*
X186100500Y-142897602D01*
X187444710Y-142897602D01*
X187980000Y-143432892D01*
X188515288Y-142897603D01*
X188498214Y-142888904D01*
X188296123Y-142823241D01*
X188086256Y-142790000D01*
X187873743Y-142790000D01*
X187663874Y-142823241D01*
X187663873Y-142823241D01*
X187461793Y-142888900D01*
X187461779Y-142888906D01*
X187444710Y-142897602D01*
X186100500Y-142897602D01*
X186100500Y-141121153D01*
X194299500Y-141121153D01*
X194299500Y-141278846D01*
X194330261Y-141433492D01*
X194330263Y-141433497D01*
X194390603Y-141579173D01*
X194390606Y-141579180D01*
X194457201Y-141678846D01*
X194478211Y-141710289D01*
X194589711Y-141821789D01*
X194589714Y-141821791D01*
X194720819Y-141909393D01*
X194720820Y-141909393D01*
X194720821Y-141909394D01*
X194866503Y-141969737D01*
X194866505Y-141969737D01*
X194866507Y-141969738D01*
X195017148Y-141999702D01*
X195021158Y-142000500D01*
X195178842Y-142000500D01*
X195333497Y-141969737D01*
X195479179Y-141909394D01*
X195610289Y-141821789D01*
X195721789Y-141710289D01*
X195809394Y-141579179D01*
X195833429Y-141521153D01*
X203199500Y-141521153D01*
X203199500Y-141678846D01*
X203230261Y-141833492D01*
X203230263Y-141833497D01*
X203290603Y-141979173D01*
X203290606Y-141979180D01*
X203353327Y-142073048D01*
X203378211Y-142110289D01*
X203489711Y-142221789D01*
X203489714Y-142221791D01*
X203620819Y-142309393D01*
X203620820Y-142309393D01*
X203620821Y-142309394D01*
X203766503Y-142369737D01*
X203766505Y-142369737D01*
X203766507Y-142369738D01*
X203917148Y-142399702D01*
X203921158Y-142400500D01*
X204078842Y-142400500D01*
X204233497Y-142369737D01*
X204379179Y-142309394D01*
X204510289Y-142221789D01*
X204621789Y-142110289D01*
X204709394Y-141979179D01*
X204769737Y-141833497D01*
X204800500Y-141678842D01*
X204800500Y-141521158D01*
X204769737Y-141366503D01*
X204709394Y-141220821D01*
X204621789Y-141089711D01*
X204510289Y-140978211D01*
X204492767Y-140966503D01*
X204379180Y-140890606D01*
X204379173Y-140890603D01*
X204233497Y-140830263D01*
X204233492Y-140830261D01*
X204078846Y-140799500D01*
X204078842Y-140799500D01*
X203921158Y-140799500D01*
X203921153Y-140799500D01*
X203766507Y-140830261D01*
X203766502Y-140830263D01*
X203620826Y-140890603D01*
X203620819Y-140890606D01*
X203489714Y-140978208D01*
X203378208Y-141089714D01*
X203290606Y-141220819D01*
X203290603Y-141220826D01*
X203230263Y-141366502D01*
X203230261Y-141366507D01*
X203199500Y-141521153D01*
X195833429Y-141521153D01*
X195869737Y-141433497D01*
X195900500Y-141278842D01*
X195900500Y-141121158D01*
X195869737Y-140966503D01*
X195809394Y-140820821D01*
X195721789Y-140689711D01*
X195610289Y-140578211D01*
X195610285Y-140578208D01*
X195479180Y-140490606D01*
X195479173Y-140490603D01*
X195333497Y-140430263D01*
X195333492Y-140430261D01*
X195178846Y-140399500D01*
X195178842Y-140399500D01*
X195021158Y-140399500D01*
X195021153Y-140399500D01*
X194866507Y-140430261D01*
X194866502Y-140430263D01*
X194720826Y-140490603D01*
X194720819Y-140490606D01*
X194589714Y-140578208D01*
X194478208Y-140689714D01*
X194390606Y-140820819D01*
X194390603Y-140820826D01*
X194330263Y-140966502D01*
X194330261Y-140966507D01*
X194299500Y-141121153D01*
X186100500Y-141121153D01*
X186100500Y-136446153D01*
X207191150Y-136446153D01*
X207191150Y-136603846D01*
X207221911Y-136758492D01*
X207221913Y-136758497D01*
X207282253Y-136904173D01*
X207282256Y-136904180D01*
X207358591Y-137018423D01*
X207369861Y-137035289D01*
X207481361Y-137146789D01*
X207481364Y-137146791D01*
X207612469Y-137234393D01*
X207612470Y-137234393D01*
X207612471Y-137234394D01*
X207758153Y-137294737D01*
X207758155Y-137294737D01*
X207758157Y-137294738D01*
X207903462Y-137323641D01*
X207912808Y-137325500D01*
X208070492Y-137325500D01*
X208225147Y-137294737D01*
X208370829Y-137234394D01*
X208501939Y-137146789D01*
X208613439Y-137035289D01*
X208701044Y-136904179D01*
X208761387Y-136758497D01*
X208792150Y-136603842D01*
X208792150Y-136446158D01*
X208791352Y-136442148D01*
X208761388Y-136291507D01*
X208761387Y-136291505D01*
X208761387Y-136291503D01*
X208701044Y-136145821D01*
X208665572Y-136092734D01*
X208613441Y-136014714D01*
X208613439Y-136014711D01*
X208501939Y-135903211D01*
X208501935Y-135903208D01*
X208370830Y-135815606D01*
X208370823Y-135815603D01*
X208225147Y-135755263D01*
X208225142Y-135755261D01*
X208070496Y-135724500D01*
X208070492Y-135724500D01*
X207912808Y-135724500D01*
X207912803Y-135724500D01*
X207758157Y-135755261D01*
X207758152Y-135755263D01*
X207612476Y-135815603D01*
X207612469Y-135815606D01*
X207481364Y-135903208D01*
X207369858Y-136014714D01*
X207282256Y-136145819D01*
X207282253Y-136145826D01*
X207221913Y-136291502D01*
X207221911Y-136291507D01*
X207191150Y-136446153D01*
X186100500Y-136446153D01*
X186100500Y-128921153D01*
X189399500Y-128921153D01*
X189399500Y-129078846D01*
X189430261Y-129233492D01*
X189430263Y-129233497D01*
X189490603Y-129379173D01*
X189490606Y-129379180D01*
X189564461Y-129489711D01*
X189578211Y-129510289D01*
X189591855Y-129523933D01*
X189645829Y-129604712D01*
X189664783Y-129700000D01*
X189645829Y-129795288D01*
X189591855Y-129876066D01*
X189578970Y-129888952D01*
X189578208Y-129889714D01*
X189490606Y-130020819D01*
X189490603Y-130020826D01*
X189430263Y-130166502D01*
X189430261Y-130166507D01*
X189399500Y-130321153D01*
X189399500Y-130478846D01*
X189430261Y-130633492D01*
X189430263Y-130633497D01*
X189490603Y-130779173D01*
X189490606Y-130779180D01*
X189578208Y-130910285D01*
X189578211Y-130910289D01*
X189591855Y-130923933D01*
X189645829Y-131004712D01*
X189664783Y-131100000D01*
X189645829Y-131195288D01*
X189591855Y-131276066D01*
X189578211Y-131289711D01*
X189578208Y-131289714D01*
X189490606Y-131420819D01*
X189490603Y-131420826D01*
X189430263Y-131566502D01*
X189430261Y-131566507D01*
X189399500Y-131721153D01*
X189399500Y-131878846D01*
X189430261Y-132033492D01*
X189430263Y-132033497D01*
X189490603Y-132179173D01*
X189490606Y-132179180D01*
X189578208Y-132310285D01*
X189578211Y-132310289D01*
X189689711Y-132421789D01*
X189689714Y-132421791D01*
X189820819Y-132509393D01*
X189820820Y-132509393D01*
X189820821Y-132509394D01*
X189966503Y-132569737D01*
X189966505Y-132569737D01*
X189966507Y-132569738D01*
X190117148Y-132599702D01*
X190121158Y-132600500D01*
X190278842Y-132600500D01*
X190433497Y-132569737D01*
X190579179Y-132509394D01*
X190710289Y-132421789D01*
X190821789Y-132310289D01*
X190821791Y-132310285D01*
X190823930Y-132308147D01*
X190904712Y-132254171D01*
X191000000Y-132235217D01*
X191095288Y-132254171D01*
X191176070Y-132308147D01*
X191178208Y-132310285D01*
X191178211Y-132310289D01*
X191289711Y-132421789D01*
X191289714Y-132421791D01*
X191420819Y-132509393D01*
X191420820Y-132509393D01*
X191420821Y-132509394D01*
X191566503Y-132569737D01*
X191566505Y-132569737D01*
X191566507Y-132569738D01*
X191717148Y-132599702D01*
X191721158Y-132600500D01*
X191878842Y-132600500D01*
X192033497Y-132569737D01*
X192179179Y-132509394D01*
X192310289Y-132421789D01*
X192421789Y-132310289D01*
X192509394Y-132179179D01*
X192569737Y-132033497D01*
X192600500Y-131878842D01*
X192600500Y-131721158D01*
X192569737Y-131566503D01*
X192509394Y-131420821D01*
X192481570Y-131379180D01*
X192421791Y-131289714D01*
X192421789Y-131289711D01*
X192408144Y-131276066D01*
X192354171Y-131195288D01*
X192335217Y-131100000D01*
X192354171Y-131004712D01*
X192408144Y-130923933D01*
X192421789Y-130910289D01*
X192421791Y-130910285D01*
X192423930Y-130908147D01*
X192504712Y-130854171D01*
X192600000Y-130835217D01*
X192695288Y-130854171D01*
X192776070Y-130908147D01*
X192778208Y-130910285D01*
X192778211Y-130910289D01*
X192889711Y-131021789D01*
X192889714Y-131021791D01*
X193020819Y-131109393D01*
X193020820Y-131109393D01*
X193020821Y-131109394D01*
X193166503Y-131169737D01*
X193166505Y-131169737D01*
X193166507Y-131169738D01*
X193209104Y-131178211D01*
X193321158Y-131200500D01*
X193478842Y-131200500D01*
X193633497Y-131169737D01*
X193779179Y-131109394D01*
X193910289Y-131021789D01*
X194010925Y-130921153D01*
X218737000Y-130921153D01*
X218737000Y-131078846D01*
X218767761Y-131233492D01*
X218767763Y-131233497D01*
X218828103Y-131379173D01*
X218828106Y-131379180D01*
X218915708Y-131510285D01*
X218915711Y-131510289D01*
X219027211Y-131621789D01*
X219027214Y-131621791D01*
X219158319Y-131709393D01*
X219158320Y-131709393D01*
X219158321Y-131709394D01*
X219304003Y-131769737D01*
X219304005Y-131769737D01*
X219304007Y-131769738D01*
X219454648Y-131799702D01*
X219458658Y-131800500D01*
X219616342Y-131800500D01*
X219770997Y-131769737D01*
X219916679Y-131709394D01*
X220047789Y-131621789D01*
X220159289Y-131510289D01*
X220246894Y-131379179D01*
X220307237Y-131233497D01*
X220338000Y-131078842D01*
X220338000Y-130921158D01*
X220314065Y-130800829D01*
X220307238Y-130766507D01*
X220307237Y-130766505D01*
X220307237Y-130766503D01*
X220246894Y-130620821D01*
X220230836Y-130596789D01*
X220159291Y-130489714D01*
X220159289Y-130489711D01*
X220047789Y-130378211D01*
X220047785Y-130378208D01*
X219916680Y-130290606D01*
X219916673Y-130290603D01*
X219770997Y-130230263D01*
X219770992Y-130230261D01*
X219616346Y-130199500D01*
X219616342Y-130199500D01*
X219458658Y-130199500D01*
X219458653Y-130199500D01*
X219304007Y-130230261D01*
X219304002Y-130230263D01*
X219158326Y-130290603D01*
X219158319Y-130290606D01*
X219027214Y-130378208D01*
X218915708Y-130489714D01*
X218828106Y-130620819D01*
X218828103Y-130620826D01*
X218767763Y-130766502D01*
X218767761Y-130766507D01*
X218737000Y-130921153D01*
X194010925Y-130921153D01*
X194021789Y-130910289D01*
X194109394Y-130779179D01*
X194169737Y-130633497D01*
X194200500Y-130478842D01*
X194200500Y-130321158D01*
X194169737Y-130166503D01*
X194109394Y-130020821D01*
X194093050Y-129996361D01*
X194021791Y-129889714D01*
X194021789Y-129889711D01*
X194008144Y-129876066D01*
X193954171Y-129795288D01*
X193935217Y-129700000D01*
X193954171Y-129604712D01*
X194008144Y-129523933D01*
X194021789Y-129510289D01*
X194109394Y-129379179D01*
X194169737Y-129233497D01*
X194200500Y-129078842D01*
X194200500Y-128921158D01*
X194181160Y-128823930D01*
X194169738Y-128766507D01*
X194169737Y-128766505D01*
X194169737Y-128766503D01*
X194109394Y-128620821D01*
X194035539Y-128510289D01*
X194021793Y-128489716D01*
X194021791Y-128489714D01*
X194021789Y-128489711D01*
X193953231Y-128421153D01*
X218699500Y-128421153D01*
X218699500Y-128578846D01*
X218730261Y-128733492D01*
X218730263Y-128733497D01*
X218790603Y-128879173D01*
X218790606Y-128879180D01*
X218878208Y-129010285D01*
X218878211Y-129010289D01*
X218989711Y-129121789D01*
X218989714Y-129121791D01*
X219120819Y-129209393D01*
X219120820Y-129209393D01*
X219120821Y-129209394D01*
X219266503Y-129269737D01*
X219266505Y-129269737D01*
X219266507Y-129269738D01*
X219417148Y-129299702D01*
X219421158Y-129300500D01*
X219578842Y-129300500D01*
X219733497Y-129269737D01*
X219879179Y-129209394D01*
X220010289Y-129121789D01*
X220121789Y-129010289D01*
X220209394Y-128879179D01*
X220269737Y-128733497D01*
X220300500Y-128578842D01*
X220300500Y-128421158D01*
X220291957Y-128378208D01*
X220269738Y-128266507D01*
X220269737Y-128266505D01*
X220269737Y-128266503D01*
X220209394Y-128120821D01*
X220181344Y-128078842D01*
X220121791Y-127989714D01*
X220121789Y-127989711D01*
X220010289Y-127878211D01*
X220010285Y-127878208D01*
X219879180Y-127790606D01*
X219879173Y-127790603D01*
X219733497Y-127730263D01*
X219733492Y-127730261D01*
X219578846Y-127699500D01*
X219578842Y-127699500D01*
X219421158Y-127699500D01*
X219421153Y-127699500D01*
X219266507Y-127730261D01*
X219266502Y-127730263D01*
X219120826Y-127790603D01*
X219120819Y-127790606D01*
X218989714Y-127878208D01*
X218878208Y-127989714D01*
X218790606Y-128120819D01*
X218790603Y-128120826D01*
X218730263Y-128266502D01*
X218730261Y-128266507D01*
X218699500Y-128421153D01*
X193953231Y-128421153D01*
X193910289Y-128378211D01*
X193910285Y-128378208D01*
X193779180Y-128290606D01*
X193779173Y-128290603D01*
X193633497Y-128230263D01*
X193633492Y-128230261D01*
X193478846Y-128199500D01*
X193478842Y-128199500D01*
X193321158Y-128199500D01*
X193321153Y-128199500D01*
X193166507Y-128230261D01*
X193166502Y-128230263D01*
X193020826Y-128290603D01*
X193020819Y-128290606D01*
X192889714Y-128378208D01*
X192889711Y-128378210D01*
X192889711Y-128378211D01*
X192778211Y-128489711D01*
X192778209Y-128489713D01*
X192776070Y-128491853D01*
X192695288Y-128545829D01*
X192600000Y-128564783D01*
X192504712Y-128545829D01*
X192423930Y-128491853D01*
X192421791Y-128489714D01*
X192421789Y-128489711D01*
X192310289Y-128378211D01*
X192310285Y-128378208D01*
X192179180Y-128290606D01*
X192179173Y-128290603D01*
X192033497Y-128230263D01*
X192033492Y-128230261D01*
X191878846Y-128199500D01*
X191878842Y-128199500D01*
X191721158Y-128199500D01*
X191721153Y-128199500D01*
X191566507Y-128230261D01*
X191566502Y-128230263D01*
X191420826Y-128290603D01*
X191420819Y-128290606D01*
X191289714Y-128378208D01*
X191289711Y-128378210D01*
X191289711Y-128378211D01*
X191178211Y-128489711D01*
X191178209Y-128489713D01*
X191176070Y-128491853D01*
X191095288Y-128545829D01*
X191000000Y-128564783D01*
X190904712Y-128545829D01*
X190823930Y-128491853D01*
X190821791Y-128489714D01*
X190821789Y-128489711D01*
X190710289Y-128378211D01*
X190710285Y-128378208D01*
X190579180Y-128290606D01*
X190579173Y-128290603D01*
X190433497Y-128230263D01*
X190433492Y-128230261D01*
X190278846Y-128199500D01*
X190278842Y-128199500D01*
X190121158Y-128199500D01*
X190121153Y-128199500D01*
X189966507Y-128230261D01*
X189966502Y-128230263D01*
X189820826Y-128290603D01*
X189820819Y-128290606D01*
X189689714Y-128378208D01*
X189578208Y-128489714D01*
X189490606Y-128620819D01*
X189490603Y-128620826D01*
X189430263Y-128766502D01*
X189430261Y-128766507D01*
X189399500Y-128921153D01*
X186100500Y-128921153D01*
X186100500Y-126421153D01*
X214699500Y-126421153D01*
X214699500Y-126578846D01*
X214730261Y-126733492D01*
X214730263Y-126733497D01*
X214790603Y-126879173D01*
X214790606Y-126879180D01*
X214878208Y-127010285D01*
X214878211Y-127010289D01*
X214989711Y-127121789D01*
X214989714Y-127121791D01*
X215120819Y-127209393D01*
X215120820Y-127209393D01*
X215120821Y-127209394D01*
X215266503Y-127269737D01*
X215266505Y-127269737D01*
X215266507Y-127269738D01*
X215371418Y-127290606D01*
X215421158Y-127300500D01*
X215578842Y-127300500D01*
X215733497Y-127269737D01*
X215879179Y-127209394D01*
X216010289Y-127121789D01*
X216121789Y-127010289D01*
X216209394Y-126879179D01*
X216269737Y-126733497D01*
X216300500Y-126578842D01*
X216300500Y-126421158D01*
X216300499Y-126421153D01*
X224199500Y-126421153D01*
X224199500Y-126578846D01*
X224230261Y-126733492D01*
X224230263Y-126733497D01*
X224290603Y-126879173D01*
X224290606Y-126879180D01*
X224378208Y-127010285D01*
X224378211Y-127010289D01*
X224489711Y-127121789D01*
X224489714Y-127121791D01*
X224620819Y-127209393D01*
X224620821Y-127209394D01*
X224671204Y-127230263D01*
X224688803Y-127237553D01*
X224769584Y-127291529D01*
X224823561Y-127372311D01*
X224842515Y-127467599D01*
X224823561Y-127562887D01*
X224800554Y-127605931D01*
X224790609Y-127620814D01*
X224790603Y-127620826D01*
X224730263Y-127766502D01*
X224730261Y-127766507D01*
X224699500Y-127921153D01*
X224699500Y-128078846D01*
X224730261Y-128233492D01*
X224730263Y-128233497D01*
X224790603Y-128379173D01*
X224790606Y-128379180D01*
X224865892Y-128491853D01*
X224878211Y-128510289D01*
X224989711Y-128621789D01*
X224989714Y-128621791D01*
X225120819Y-128709393D01*
X225120820Y-128709393D01*
X225120821Y-128709394D01*
X225258705Y-128766507D01*
X225267027Y-128769954D01*
X225347808Y-128823930D01*
X225401785Y-128904711D01*
X225420739Y-128999999D01*
X225401785Y-129095288D01*
X225347809Y-129176069D01*
X225267028Y-129230046D01*
X225267027Y-129230046D01*
X225120822Y-129290605D01*
X225120819Y-129290606D01*
X224989714Y-129378208D01*
X224878208Y-129489714D01*
X224790606Y-129620819D01*
X224790603Y-129620826D01*
X224730263Y-129766502D01*
X224730261Y-129766507D01*
X224699500Y-129921153D01*
X224699500Y-130078846D01*
X224730261Y-130233492D01*
X224730263Y-130233497D01*
X224790603Y-130379173D01*
X224790606Y-130379180D01*
X224864461Y-130489711D01*
X224878211Y-130510289D01*
X224989711Y-130621789D01*
X224989714Y-130621791D01*
X225120819Y-130709393D01*
X225120820Y-130709393D01*
X225120821Y-130709394D01*
X225266503Y-130769737D01*
X225266505Y-130769737D01*
X225266507Y-130769738D01*
X225417148Y-130799702D01*
X225421158Y-130800500D01*
X225578842Y-130800500D01*
X225733497Y-130769737D01*
X225879179Y-130709394D01*
X226010289Y-130621789D01*
X226121789Y-130510289D01*
X226209394Y-130379179D01*
X226269737Y-130233497D01*
X226300500Y-130078842D01*
X226300500Y-129921158D01*
X226269737Y-129766503D01*
X226209394Y-129620821D01*
X226198630Y-129604712D01*
X226121791Y-129489714D01*
X226121789Y-129489711D01*
X226010289Y-129378211D01*
X226010285Y-129378208D01*
X225879180Y-129290606D01*
X225879173Y-129290603D01*
X225732973Y-129230046D01*
X225652191Y-129176070D01*
X225598214Y-129095289D01*
X225579260Y-129000001D01*
X225598214Y-128904713D01*
X225652190Y-128823931D01*
X225732971Y-128769954D01*
X225732973Y-128769954D01*
X225741295Y-128766507D01*
X225879179Y-128709394D01*
X226010289Y-128621789D01*
X226121789Y-128510289D01*
X226209394Y-128379179D01*
X226269737Y-128233497D01*
X226300500Y-128078842D01*
X226300500Y-127921158D01*
X226276249Y-127799242D01*
X226269738Y-127766507D01*
X226269737Y-127766505D01*
X226269737Y-127766503D01*
X226209394Y-127620821D01*
X226209389Y-127620814D01*
X226121791Y-127489714D01*
X226121789Y-127489711D01*
X226010289Y-127378211D01*
X226010285Y-127378208D01*
X225879180Y-127290606D01*
X225879171Y-127290602D01*
X225811195Y-127262445D01*
X225730413Y-127208469D01*
X225676437Y-127127687D01*
X225657484Y-127032399D01*
X225676439Y-126937111D01*
X225699451Y-126894059D01*
X225709394Y-126879179D01*
X225769737Y-126733497D01*
X225800500Y-126578842D01*
X225800500Y-126421158D01*
X225769737Y-126266503D01*
X225709394Y-126120821D01*
X225660243Y-126047261D01*
X225621793Y-125989716D01*
X225621791Y-125989714D01*
X225621789Y-125989711D01*
X225553231Y-125921153D01*
X230199500Y-125921153D01*
X230199500Y-126078846D01*
X230230261Y-126233492D01*
X230230263Y-126233497D01*
X230290603Y-126379173D01*
X230290606Y-126379180D01*
X230371413Y-126500115D01*
X230378211Y-126510289D01*
X230489711Y-126621789D01*
X230489714Y-126621791D01*
X230620819Y-126709393D01*
X230620820Y-126709393D01*
X230620821Y-126709394D01*
X230766503Y-126769737D01*
X230766505Y-126769737D01*
X230766507Y-126769738D01*
X230917148Y-126799702D01*
X230921158Y-126800500D01*
X231078842Y-126800500D01*
X231233497Y-126769737D01*
X231379179Y-126709394D01*
X231510289Y-126621789D01*
X231621789Y-126510289D01*
X231709394Y-126379179D01*
X231769737Y-126233497D01*
X231800500Y-126078842D01*
X231800500Y-125932773D01*
X233637500Y-125932773D01*
X233637500Y-126147226D01*
X233637501Y-126147242D01*
X233671047Y-126359047D01*
X233737321Y-126563016D01*
X233737321Y-126563017D01*
X233748309Y-126584582D01*
X234292893Y-126039999D01*
X234217194Y-125964300D01*
X234425000Y-125964300D01*
X234425000Y-126115700D01*
X234464185Y-126261942D01*
X234539885Y-126393058D01*
X234646942Y-126500115D01*
X234778058Y-126575815D01*
X234924300Y-126615000D01*
X235075700Y-126615000D01*
X235221942Y-126575815D01*
X235353058Y-126500115D01*
X235460115Y-126393058D01*
X235535815Y-126261942D01*
X235575000Y-126115700D01*
X235575000Y-125964300D01*
X235535815Y-125818058D01*
X235460115Y-125686942D01*
X235353058Y-125579885D01*
X235221942Y-125504185D01*
X235075700Y-125465000D01*
X234924300Y-125465000D01*
X234778058Y-125504185D01*
X234646942Y-125579885D01*
X234539885Y-125686942D01*
X234464185Y-125818058D01*
X234425000Y-125964300D01*
X234217194Y-125964300D01*
X233748310Y-125495416D01*
X233737321Y-125516985D01*
X233671047Y-125720952D01*
X233637501Y-125932757D01*
X233637500Y-125932773D01*
X231800500Y-125932773D01*
X231800500Y-125921158D01*
X231779992Y-125818058D01*
X231769738Y-125766507D01*
X231769737Y-125766505D01*
X231769737Y-125766503D01*
X231709394Y-125620821D01*
X231682041Y-125579885D01*
X231621791Y-125489714D01*
X231621789Y-125489711D01*
X231510289Y-125378211D01*
X231510285Y-125378208D01*
X231379180Y-125290606D01*
X231379173Y-125290603D01*
X231233497Y-125230263D01*
X231233492Y-125230261D01*
X231078846Y-125199500D01*
X231078842Y-125199500D01*
X230921158Y-125199500D01*
X230921153Y-125199500D01*
X230766507Y-125230261D01*
X230766502Y-125230263D01*
X230620826Y-125290603D01*
X230620819Y-125290606D01*
X230489714Y-125378208D01*
X230378208Y-125489714D01*
X230290606Y-125620819D01*
X230290603Y-125620826D01*
X230230263Y-125766502D01*
X230230261Y-125766507D01*
X230199500Y-125921153D01*
X225553231Y-125921153D01*
X225510289Y-125878211D01*
X225510285Y-125878208D01*
X225379180Y-125790606D01*
X225379173Y-125790603D01*
X225233497Y-125730263D01*
X225233492Y-125730261D01*
X225078846Y-125699500D01*
X225078842Y-125699500D01*
X224921158Y-125699500D01*
X224921153Y-125699500D01*
X224766507Y-125730261D01*
X224766502Y-125730263D01*
X224620826Y-125790603D01*
X224620819Y-125790606D01*
X224489714Y-125878208D01*
X224378208Y-125989714D01*
X224290606Y-126120819D01*
X224290603Y-126120826D01*
X224230263Y-126266502D01*
X224230261Y-126266507D01*
X224199500Y-126421153D01*
X216300499Y-126421153D01*
X216269737Y-126266503D01*
X216209394Y-126120821D01*
X216209391Y-126120817D01*
X216121791Y-125989714D01*
X216121789Y-125989711D01*
X216010289Y-125878211D01*
X216010285Y-125878208D01*
X215879180Y-125790606D01*
X215879173Y-125790603D01*
X215733497Y-125730263D01*
X215733492Y-125730261D01*
X215578846Y-125699500D01*
X215578842Y-125699500D01*
X215421158Y-125699500D01*
X215421153Y-125699500D01*
X215266507Y-125730261D01*
X215266502Y-125730263D01*
X215120826Y-125790603D01*
X215120819Y-125790606D01*
X214989714Y-125878208D01*
X214878208Y-125989714D01*
X214790606Y-126120819D01*
X214790603Y-126120826D01*
X214730263Y-126266502D01*
X214730261Y-126266507D01*
X214699500Y-126421153D01*
X186100500Y-126421153D01*
X186100500Y-123796153D01*
X216149500Y-123796153D01*
X216149500Y-123953846D01*
X216180261Y-124108492D01*
X216180263Y-124108497D01*
X216240603Y-124254173D01*
X216240606Y-124254180D01*
X216328208Y-124385285D01*
X216328211Y-124385289D01*
X216439711Y-124496789D01*
X216439714Y-124496791D01*
X216570819Y-124584393D01*
X216570820Y-124584393D01*
X216570821Y-124584394D01*
X216716503Y-124644737D01*
X216716505Y-124644737D01*
X216716507Y-124644738D01*
X216867148Y-124674702D01*
X216871158Y-124675500D01*
X217028842Y-124675500D01*
X217183497Y-124644737D01*
X217329179Y-124584394D01*
X217460289Y-124496789D01*
X217535925Y-124421153D01*
X223237000Y-124421153D01*
X223237000Y-124578846D01*
X223267761Y-124733492D01*
X223267763Y-124733497D01*
X223328103Y-124879173D01*
X223328106Y-124879180D01*
X223389756Y-124971445D01*
X223415711Y-125010289D01*
X223527211Y-125121789D01*
X223527214Y-125121791D01*
X223658319Y-125209393D01*
X223658320Y-125209393D01*
X223658321Y-125209394D01*
X223804003Y-125269737D01*
X223804005Y-125269737D01*
X223804007Y-125269738D01*
X223908918Y-125290606D01*
X223958658Y-125300500D01*
X224116342Y-125300500D01*
X224270997Y-125269737D01*
X224416679Y-125209394D01*
X224547789Y-125121789D01*
X224659289Y-125010289D01*
X224746894Y-124879179D01*
X224807237Y-124733497D01*
X224838000Y-124578842D01*
X224838000Y-124421158D01*
X224837202Y-124417148D01*
X224807238Y-124266507D01*
X224807237Y-124266505D01*
X224807237Y-124266503D01*
X224746894Y-124120821D01*
X224738659Y-124108497D01*
X224659291Y-123989714D01*
X224659289Y-123989711D01*
X224547789Y-123878211D01*
X224547785Y-123878208D01*
X224416680Y-123790606D01*
X224416673Y-123790603D01*
X224270997Y-123730263D01*
X224270992Y-123730261D01*
X224116346Y-123699500D01*
X224116342Y-123699500D01*
X223958658Y-123699500D01*
X223958653Y-123699500D01*
X223804007Y-123730261D01*
X223804002Y-123730263D01*
X223658326Y-123790603D01*
X223658319Y-123790606D01*
X223527214Y-123878208D01*
X223415708Y-123989714D01*
X223328106Y-124120819D01*
X223328103Y-124120826D01*
X223267763Y-124266502D01*
X223267761Y-124266507D01*
X223237000Y-124421153D01*
X217535925Y-124421153D01*
X217571789Y-124385289D01*
X217659394Y-124254179D01*
X217719737Y-124108497D01*
X217750500Y-123953842D01*
X217750500Y-123796158D01*
X217737392Y-123730261D01*
X217719738Y-123641507D01*
X217719737Y-123641505D01*
X217719737Y-123641503D01*
X217659394Y-123495821D01*
X217571789Y-123364711D01*
X217460289Y-123253211D01*
X217460285Y-123253208D01*
X217329180Y-123165606D01*
X217329173Y-123165603D01*
X217183497Y-123105263D01*
X217183492Y-123105261D01*
X217028846Y-123074500D01*
X217028842Y-123074500D01*
X216871158Y-123074500D01*
X216871153Y-123074500D01*
X216716507Y-123105261D01*
X216716502Y-123105263D01*
X216570826Y-123165603D01*
X216570819Y-123165606D01*
X216439714Y-123253208D01*
X216328208Y-123364714D01*
X216240606Y-123495819D01*
X216240603Y-123495826D01*
X216180263Y-123641502D01*
X216180261Y-123641507D01*
X216149500Y-123796153D01*
X186100500Y-123796153D01*
X186100500Y-121821153D01*
X215199500Y-121821153D01*
X215199500Y-121978846D01*
X215230261Y-122133492D01*
X215230263Y-122133497D01*
X215290603Y-122279173D01*
X215290606Y-122279180D01*
X215344677Y-122360102D01*
X215378211Y-122410289D01*
X215489711Y-122521789D01*
X215489714Y-122521791D01*
X215620819Y-122609393D01*
X215620820Y-122609393D01*
X215620821Y-122609394D01*
X215766503Y-122669737D01*
X215766505Y-122669737D01*
X215766507Y-122669738D01*
X215908017Y-122697886D01*
X215921158Y-122700500D01*
X216078842Y-122700500D01*
X216233497Y-122669737D01*
X216379179Y-122609394D01*
X216510289Y-122521789D01*
X216621789Y-122410289D01*
X216709394Y-122279179D01*
X216769737Y-122133497D01*
X216800500Y-121978842D01*
X216800500Y-121821158D01*
X216778103Y-121708559D01*
X216769738Y-121666507D01*
X216769737Y-121666505D01*
X216769737Y-121666503D01*
X216709394Y-121520821D01*
X216684260Y-121483206D01*
X216621791Y-121389714D01*
X216621789Y-121389711D01*
X216510289Y-121278211D01*
X216510285Y-121278208D01*
X216379180Y-121190606D01*
X216379173Y-121190603D01*
X216233497Y-121130263D01*
X216233492Y-121130261D01*
X216078846Y-121099500D01*
X216078842Y-121099500D01*
X215921158Y-121099500D01*
X215921153Y-121099500D01*
X215766507Y-121130261D01*
X215766502Y-121130263D01*
X215620826Y-121190603D01*
X215620819Y-121190606D01*
X215489714Y-121278208D01*
X215378208Y-121389714D01*
X215290606Y-121520819D01*
X215290603Y-121520826D01*
X215230263Y-121666502D01*
X215230261Y-121666507D01*
X215199500Y-121821153D01*
X186100500Y-121821153D01*
X186100500Y-118312734D01*
X233637000Y-118312734D01*
X233637000Y-118527265D01*
X233637001Y-118527281D01*
X233670559Y-118739164D01*
X233670561Y-118739170D01*
X233736856Y-118943206D01*
X233736860Y-118943216D01*
X233834257Y-119134367D01*
X233834258Y-119134368D01*
X233960362Y-119307935D01*
X234112065Y-119459638D01*
X234146632Y-119484752D01*
X234151867Y-119488556D01*
X234217815Y-119559900D01*
X234251441Y-119651050D01*
X234247626Y-119748130D01*
X234206950Y-119836361D01*
X234151867Y-119891444D01*
X234112066Y-119920361D01*
X233960359Y-120072068D01*
X233834257Y-120245632D01*
X233736860Y-120436783D01*
X233736856Y-120436793D01*
X233670561Y-120640829D01*
X233670559Y-120640835D01*
X233637001Y-120852718D01*
X233637000Y-120852734D01*
X233637000Y-121067265D01*
X233637001Y-121067281D01*
X233670559Y-121279164D01*
X233670561Y-121279170D01*
X233736856Y-121483206D01*
X233736860Y-121483216D01*
X233834257Y-121674367D01*
X233834258Y-121674368D01*
X233960362Y-121847935D01*
X234112065Y-121999638D01*
X234146632Y-122024752D01*
X234151867Y-122028556D01*
X234217815Y-122099900D01*
X234251441Y-122191050D01*
X234247626Y-122288130D01*
X234206950Y-122376361D01*
X234151867Y-122431444D01*
X234112066Y-122460361D01*
X233960359Y-122612068D01*
X233834257Y-122785632D01*
X233736860Y-122976783D01*
X233736856Y-122976793D01*
X233670561Y-123180829D01*
X233670559Y-123180835D01*
X233637001Y-123392718D01*
X233637000Y-123392734D01*
X233637000Y-123607265D01*
X233637001Y-123607281D01*
X233670559Y-123819164D01*
X233670561Y-123819170D01*
X233736856Y-124023206D01*
X233736860Y-124023216D01*
X233834257Y-124214367D01*
X233960359Y-124387931D01*
X233960362Y-124387935D01*
X234112065Y-124539638D01*
X234227685Y-124623641D01*
X234285632Y-124665742D01*
X234346760Y-124696889D01*
X234409785Y-124742679D01*
X234999999Y-125332892D01*
X235590211Y-124742681D01*
X235653235Y-124696890D01*
X235714368Y-124665742D01*
X235887935Y-124539638D01*
X236039638Y-124387935D01*
X236068555Y-124348133D01*
X236139898Y-124282186D01*
X236231048Y-124248559D01*
X236328128Y-124252373D01*
X236416359Y-124293048D01*
X236446070Y-124318424D01*
X236459926Y-124332280D01*
X236500362Y-124387935D01*
X236652065Y-124539638D01*
X236707715Y-124580070D01*
X236721576Y-124593931D01*
X236737885Y-124618339D01*
X236757815Y-124639900D01*
X236764623Y-124658356D01*
X236775552Y-124674712D01*
X236781279Y-124703504D01*
X236791441Y-124731050D01*
X236790668Y-124750707D01*
X236794506Y-124770000D01*
X236788778Y-124798792D01*
X236787626Y-124828130D01*
X236779389Y-124845995D01*
X236775552Y-124865289D01*
X236759241Y-124889698D01*
X236746950Y-124916361D01*
X236730302Y-124933008D01*
X236721575Y-124946070D01*
X236708513Y-124954797D01*
X236691867Y-124971444D01*
X236652066Y-125000361D01*
X236500359Y-125152068D01*
X236374258Y-125325630D01*
X236343110Y-125386761D01*
X236297321Y-125449783D01*
X235707106Y-126039999D01*
X236297321Y-126630214D01*
X236343111Y-126693240D01*
X236374257Y-126754367D01*
X236500359Y-126927931D01*
X236500362Y-126927935D01*
X236652065Y-127079638D01*
X236686632Y-127104752D01*
X236691867Y-127108556D01*
X236757815Y-127179900D01*
X236791441Y-127271050D01*
X236787626Y-127368130D01*
X236746950Y-127456361D01*
X236721576Y-127486070D01*
X236707719Y-127499926D01*
X236652065Y-127540362D01*
X236500362Y-127692065D01*
X236459926Y-127747719D01*
X236446070Y-127761576D01*
X236421658Y-127777886D01*
X236400100Y-127797815D01*
X236381643Y-127804623D01*
X236365288Y-127815552D01*
X236336495Y-127821279D01*
X236308950Y-127831441D01*
X236289292Y-127830668D01*
X236270000Y-127834506D01*
X236241208Y-127828778D01*
X236211870Y-127827626D01*
X236194003Y-127819389D01*
X236174712Y-127815552D01*
X236150302Y-127799242D01*
X236123639Y-127786950D01*
X236106993Y-127770304D01*
X236093930Y-127761576D01*
X236085201Y-127748512D01*
X236068556Y-127731867D01*
X236064752Y-127726632D01*
X236039638Y-127692065D01*
X235887935Y-127540362D01*
X235813209Y-127486070D01*
X235714367Y-127414257D01*
X235653240Y-127383111D01*
X235590214Y-127337321D01*
X234999999Y-126747106D01*
X234409783Y-127337321D01*
X234346761Y-127383110D01*
X234285630Y-127414258D01*
X234112068Y-127540359D01*
X233960359Y-127692068D01*
X233834257Y-127865632D01*
X233736860Y-128056783D01*
X233736856Y-128056793D01*
X233670561Y-128260829D01*
X233670559Y-128260835D01*
X233637001Y-128472718D01*
X233637000Y-128472734D01*
X233637000Y-128687265D01*
X233637001Y-128687281D01*
X233670559Y-128899164D01*
X233670561Y-128899170D01*
X233736856Y-129103206D01*
X233736860Y-129103216D01*
X233834257Y-129294367D01*
X233931445Y-129428134D01*
X233960362Y-129467935D01*
X234112065Y-129619638D01*
X234146632Y-129644752D01*
X234151867Y-129648556D01*
X234217815Y-129719900D01*
X234251441Y-129811050D01*
X234247626Y-129908130D01*
X234206950Y-129996361D01*
X234151867Y-130051444D01*
X234112066Y-130080361D01*
X233960359Y-130232068D01*
X233834257Y-130405632D01*
X233736860Y-130596783D01*
X233736856Y-130596793D01*
X233670561Y-130800829D01*
X233670559Y-130800835D01*
X233637001Y-131012718D01*
X233637000Y-131012734D01*
X233637000Y-131227265D01*
X233637001Y-131227281D01*
X233670559Y-131439164D01*
X233670561Y-131439170D01*
X233736856Y-131643206D01*
X233736860Y-131643216D01*
X233834257Y-131834367D01*
X233866570Y-131878842D01*
X233960362Y-132007935D01*
X234112065Y-132159638D01*
X234138953Y-132179173D01*
X234151867Y-132188556D01*
X234217815Y-132259900D01*
X234251441Y-132351050D01*
X234247626Y-132448130D01*
X234206950Y-132536361D01*
X234151867Y-132591444D01*
X234112066Y-132620361D01*
X233960359Y-132772068D01*
X233834257Y-132945632D01*
X233736860Y-133136783D01*
X233736856Y-133136793D01*
X233670561Y-133340829D01*
X233670559Y-133340835D01*
X233637001Y-133552718D01*
X233637000Y-133552734D01*
X233637000Y-133767265D01*
X233637001Y-133767281D01*
X233670559Y-133979164D01*
X233670561Y-133979170D01*
X233736856Y-134183206D01*
X233736860Y-134183216D01*
X233834257Y-134374367D01*
X233834258Y-134374368D01*
X233960362Y-134547935D01*
X234112065Y-134699638D01*
X234146632Y-134724752D01*
X234151867Y-134728556D01*
X234217815Y-134799900D01*
X234251441Y-134891050D01*
X234247626Y-134988130D01*
X234206950Y-135076361D01*
X234151867Y-135131444D01*
X234112066Y-135160361D01*
X233960359Y-135312068D01*
X233834257Y-135485632D01*
X233736860Y-135676783D01*
X233736856Y-135676793D01*
X233670561Y-135880829D01*
X233670559Y-135880835D01*
X233637001Y-136092718D01*
X233637000Y-136092734D01*
X233637000Y-136307265D01*
X233637001Y-136307281D01*
X233670559Y-136519164D01*
X233670561Y-136519170D01*
X233736856Y-136723206D01*
X233736860Y-136723216D01*
X233834257Y-136914367D01*
X233922109Y-137035285D01*
X233960362Y-137087935D01*
X234112065Y-137239638D01*
X234146632Y-137264752D01*
X234151867Y-137268556D01*
X234217815Y-137339900D01*
X234251441Y-137431050D01*
X234247626Y-137528130D01*
X234206950Y-137616361D01*
X234151867Y-137671444D01*
X234112066Y-137700361D01*
X233960359Y-137852068D01*
X233834257Y-138025632D01*
X233736860Y-138216783D01*
X233736856Y-138216793D01*
X233670561Y-138420829D01*
X233670559Y-138420835D01*
X233637001Y-138632718D01*
X233637000Y-138632734D01*
X233637000Y-138847265D01*
X233637001Y-138847281D01*
X233670559Y-139059164D01*
X233670561Y-139059170D01*
X233736856Y-139263206D01*
X233736860Y-139263216D01*
X233834257Y-139454367D01*
X233960359Y-139627931D01*
X233960362Y-139627935D01*
X234112065Y-139779638D01*
X234146632Y-139804752D01*
X234151867Y-139808556D01*
X234217815Y-139879900D01*
X234251441Y-139971050D01*
X234247626Y-140068130D01*
X234206950Y-140156361D01*
X234151867Y-140211444D01*
X234112066Y-140240361D01*
X233960359Y-140392068D01*
X233834257Y-140565632D01*
X233736860Y-140756783D01*
X233736856Y-140756793D01*
X233670561Y-140960829D01*
X233670559Y-140960835D01*
X233637001Y-141172718D01*
X233637000Y-141172734D01*
X233637000Y-141387265D01*
X233637001Y-141387281D01*
X233670559Y-141599164D01*
X233670561Y-141599170D01*
X233736856Y-141803206D01*
X233736860Y-141803216D01*
X233826519Y-141979180D01*
X233834258Y-141994368D01*
X233960362Y-142167935D01*
X234112065Y-142319638D01*
X234146632Y-142344752D01*
X234151867Y-142348556D01*
X234217815Y-142419900D01*
X234251441Y-142511050D01*
X234247626Y-142608130D01*
X234206950Y-142696361D01*
X234151867Y-142751444D01*
X234112066Y-142780361D01*
X233960359Y-142932068D01*
X233834257Y-143105632D01*
X233736860Y-143296783D01*
X233736856Y-143296793D01*
X233670561Y-143500829D01*
X233670559Y-143500835D01*
X233637001Y-143712718D01*
X233637000Y-143712734D01*
X233637000Y-143927265D01*
X233637001Y-143927281D01*
X233670559Y-144139164D01*
X233670561Y-144139170D01*
X233736856Y-144343206D01*
X233736860Y-144343216D01*
X233834257Y-144534367D01*
X233960359Y-144707931D01*
X233960362Y-144707935D01*
X234112065Y-144859638D01*
X234127851Y-144871107D01*
X234151867Y-144888556D01*
X234217815Y-144959900D01*
X234251441Y-145051050D01*
X234247626Y-145148130D01*
X234206950Y-145236361D01*
X234151867Y-145291444D01*
X234112066Y-145320361D01*
X233960359Y-145472068D01*
X233834257Y-145645632D01*
X233736860Y-145836783D01*
X233736856Y-145836793D01*
X233670561Y-146040829D01*
X233670559Y-146040835D01*
X233637001Y-146252718D01*
X233637000Y-146252734D01*
X233637000Y-146467265D01*
X233637001Y-146467281D01*
X233670559Y-146679164D01*
X233670561Y-146679170D01*
X233736856Y-146883206D01*
X233736860Y-146883216D01*
X233834257Y-147074367D01*
X233834258Y-147074368D01*
X233960362Y-147247935D01*
X234112065Y-147399638D01*
X234285632Y-147525742D01*
X234476789Y-147623142D01*
X234680830Y-147689439D01*
X234680833Y-147689439D01*
X234680835Y-147689440D01*
X234824213Y-147712148D01*
X234892730Y-147723000D01*
X234892734Y-147723000D01*
X235107266Y-147723000D01*
X235107270Y-147723000D01*
X235319170Y-147689439D01*
X235523211Y-147623142D01*
X235714368Y-147525742D01*
X235887935Y-147399638D01*
X236039638Y-147247935D01*
X236068555Y-147208133D01*
X236139898Y-147142186D01*
X236231048Y-147108559D01*
X236328128Y-147112373D01*
X236416359Y-147153048D01*
X236471444Y-147208133D01*
X236500362Y-147247935D01*
X236652065Y-147399638D01*
X236825632Y-147525742D01*
X237016789Y-147623142D01*
X237220830Y-147689439D01*
X237220833Y-147689439D01*
X237220835Y-147689440D01*
X237364213Y-147712148D01*
X237432730Y-147723000D01*
X237432734Y-147723000D01*
X237647266Y-147723000D01*
X237647270Y-147723000D01*
X237859170Y-147689439D01*
X238063211Y-147623142D01*
X238254368Y-147525742D01*
X238427935Y-147399638D01*
X238579638Y-147247935D01*
X238705742Y-147074368D01*
X238803142Y-146883211D01*
X238869439Y-146679170D01*
X238903000Y-146467270D01*
X238903000Y-146252730D01*
X238869439Y-146040830D01*
X238803142Y-145836789D01*
X238705742Y-145645632D01*
X238579638Y-145472065D01*
X238427935Y-145320362D01*
X238388133Y-145291444D01*
X238322186Y-145220102D01*
X238288559Y-145128952D01*
X238292373Y-145031872D01*
X238333048Y-144943641D01*
X238388134Y-144888555D01*
X238427935Y-144859638D01*
X238579638Y-144707935D01*
X238705742Y-144534368D01*
X238803142Y-144343211D01*
X238869439Y-144139170D01*
X238903000Y-143927270D01*
X238903000Y-143712730D01*
X238888595Y-143621779D01*
X238869440Y-143500835D01*
X238869439Y-143500833D01*
X238869439Y-143500830D01*
X238803142Y-143296789D01*
X238705742Y-143105632D01*
X238579638Y-142932065D01*
X238427935Y-142780362D01*
X238388133Y-142751444D01*
X238322186Y-142680102D01*
X238288559Y-142588952D01*
X238292373Y-142491872D01*
X238333048Y-142403641D01*
X238388134Y-142348555D01*
X238427935Y-142319638D01*
X238579638Y-142167935D01*
X238705742Y-141994368D01*
X238803142Y-141803211D01*
X238869439Y-141599170D01*
X238903000Y-141387270D01*
X238903000Y-141172730D01*
X238872192Y-140978211D01*
X238869440Y-140960835D01*
X238869439Y-140960833D01*
X238869439Y-140960830D01*
X238803142Y-140756789D01*
X238705742Y-140565632D01*
X238579638Y-140392065D01*
X238427935Y-140240362D01*
X238353209Y-140186070D01*
X238254367Y-140114257D01*
X238193240Y-140083111D01*
X238130214Y-140037321D01*
X237539999Y-139447106D01*
X236949783Y-140037321D01*
X236886761Y-140083110D01*
X236825630Y-140114258D01*
X236652068Y-140240359D01*
X236500361Y-140392066D01*
X236471444Y-140431867D01*
X236400100Y-140497815D01*
X236308950Y-140531441D01*
X236211870Y-140527626D01*
X236123639Y-140486950D01*
X236093931Y-140461576D01*
X236080070Y-140447715D01*
X236039638Y-140392065D01*
X235887935Y-140240362D01*
X235832280Y-140199926D01*
X235818424Y-140186070D01*
X235802112Y-140161658D01*
X235782186Y-140140102D01*
X235775378Y-140121648D01*
X235764447Y-140105289D01*
X235758718Y-140076491D01*
X235748559Y-140048952D01*
X235749331Y-140029296D01*
X235745493Y-140010000D01*
X235751220Y-139981205D01*
X235752373Y-139951872D01*
X235760609Y-139934006D01*
X235764447Y-139914712D01*
X235780756Y-139890302D01*
X235793048Y-139863641D01*
X235809693Y-139846995D01*
X235818423Y-139833931D01*
X235831487Y-139825201D01*
X235848134Y-139808555D01*
X235887935Y-139779638D01*
X236039638Y-139627935D01*
X236165742Y-139454368D01*
X236196890Y-139393235D01*
X236242681Y-139330211D01*
X236832893Y-138739999D01*
X236757194Y-138664300D01*
X236965000Y-138664300D01*
X236965000Y-138815700D01*
X237004185Y-138961942D01*
X237079885Y-139093058D01*
X237186942Y-139200115D01*
X237318058Y-139275815D01*
X237464300Y-139315000D01*
X237615700Y-139315000D01*
X237761942Y-139275815D01*
X237893058Y-139200115D01*
X238000115Y-139093058D01*
X238075815Y-138961942D01*
X238115000Y-138815700D01*
X238115000Y-138739999D01*
X238247106Y-138739999D01*
X238791689Y-139284582D01*
X238802678Y-139263017D01*
X238868952Y-139059047D01*
X238902498Y-138847242D01*
X238902500Y-138847226D01*
X238902500Y-138632773D01*
X238902498Y-138632757D01*
X238868952Y-138420952D01*
X238802676Y-138216978D01*
X238802675Y-138216976D01*
X238791689Y-138195416D01*
X238791688Y-138195416D01*
X238247106Y-138739999D01*
X238115000Y-138739999D01*
X238115000Y-138664300D01*
X238075815Y-138518058D01*
X238000115Y-138386942D01*
X237893058Y-138279885D01*
X237761942Y-138204185D01*
X237615700Y-138165000D01*
X237464300Y-138165000D01*
X237318058Y-138204185D01*
X237186942Y-138279885D01*
X237079885Y-138386942D01*
X237004185Y-138518058D01*
X236965000Y-138664300D01*
X236757194Y-138664300D01*
X236242679Y-138149785D01*
X236196889Y-138086760D01*
X236165742Y-138025632D01*
X236039640Y-137852068D01*
X236039638Y-137852065D01*
X235887935Y-137700362D01*
X235848133Y-137671444D01*
X235782186Y-137600102D01*
X235748559Y-137508952D01*
X235752373Y-137411872D01*
X235793048Y-137323641D01*
X235818423Y-137293930D01*
X235832277Y-137280075D01*
X235887935Y-137239638D01*
X236039638Y-137087935D01*
X236080075Y-137032277D01*
X236093930Y-137018423D01*
X236118342Y-137002111D01*
X236139898Y-136982186D01*
X236158352Y-136975377D01*
X236174712Y-136964447D01*
X236203507Y-136958719D01*
X236231048Y-136948559D01*
X236250703Y-136949331D01*
X236270000Y-136945493D01*
X236298794Y-136951220D01*
X236328128Y-136952373D01*
X236345993Y-136960609D01*
X236365288Y-136964447D01*
X236389698Y-136980757D01*
X236416359Y-136993048D01*
X236433003Y-137009692D01*
X236446070Y-137018423D01*
X236454800Y-137031489D01*
X236471444Y-137048133D01*
X236500362Y-137087935D01*
X236652065Y-137239638D01*
X236727901Y-137294736D01*
X236825632Y-137365742D01*
X236886760Y-137396889D01*
X236949785Y-137442679D01*
X237539999Y-138032892D01*
X238130211Y-137442681D01*
X238193235Y-137396890D01*
X238254368Y-137365742D01*
X238427935Y-137239638D01*
X238579638Y-137087935D01*
X238705742Y-136914368D01*
X238803142Y-136723211D01*
X238869439Y-136519170D01*
X238903000Y-136307270D01*
X238903000Y-136092730D01*
X238869439Y-135880830D01*
X238803142Y-135676789D01*
X238705742Y-135485632D01*
X238579638Y-135312065D01*
X238427935Y-135160362D01*
X238388133Y-135131444D01*
X238322186Y-135060102D01*
X238288559Y-134968952D01*
X238292373Y-134871872D01*
X238333048Y-134783641D01*
X238388134Y-134728555D01*
X238427935Y-134699638D01*
X238579638Y-134547935D01*
X238705742Y-134374368D01*
X238803142Y-134183211D01*
X238869439Y-133979170D01*
X238903000Y-133767270D01*
X238903000Y-133552730D01*
X238869439Y-133340830D01*
X238803142Y-133136789D01*
X238705742Y-132945632D01*
X238579638Y-132772065D01*
X238427935Y-132620362D01*
X238388133Y-132591444D01*
X238322186Y-132520102D01*
X238288559Y-132428952D01*
X238292373Y-132331872D01*
X238333048Y-132243641D01*
X238388134Y-132188555D01*
X238427935Y-132159638D01*
X238579638Y-132007935D01*
X238705742Y-131834368D01*
X238803142Y-131643211D01*
X238869439Y-131439170D01*
X238903000Y-131227270D01*
X238903000Y-131012730D01*
X238869439Y-130800830D01*
X238803142Y-130596789D01*
X238705742Y-130405632D01*
X238579638Y-130232065D01*
X238427935Y-130080362D01*
X238425848Y-130078846D01*
X238388134Y-130051445D01*
X238322186Y-129980102D01*
X238288559Y-129888952D01*
X238292373Y-129791872D01*
X238333048Y-129703641D01*
X238388134Y-129648555D01*
X238427935Y-129619638D01*
X238579638Y-129467935D01*
X238705742Y-129294368D01*
X238803142Y-129103211D01*
X238869439Y-128899170D01*
X238903000Y-128687270D01*
X238903000Y-128472730D01*
X238888030Y-128378211D01*
X238869440Y-128260835D01*
X238869439Y-128260833D01*
X238869439Y-128260830D01*
X238803142Y-128056789D01*
X238705742Y-127865632D01*
X238579638Y-127692065D01*
X238427935Y-127540362D01*
X238388133Y-127511444D01*
X238322186Y-127440102D01*
X238288559Y-127348952D01*
X238292373Y-127251872D01*
X238333048Y-127163641D01*
X238388134Y-127108555D01*
X238427935Y-127079638D01*
X238579638Y-126927935D01*
X238705742Y-126754368D01*
X238803142Y-126563211D01*
X238869439Y-126359170D01*
X238869459Y-126359047D01*
X238902998Y-126147281D01*
X238903000Y-126147270D01*
X238903000Y-125932730D01*
X238880490Y-125790603D01*
X238869440Y-125720835D01*
X238869439Y-125720833D01*
X238869439Y-125720830D01*
X238803142Y-125516789D01*
X238705742Y-125325632D01*
X238579638Y-125152065D01*
X238427935Y-125000362D01*
X238388133Y-124971444D01*
X238322186Y-124900102D01*
X238288559Y-124808952D01*
X238292373Y-124711872D01*
X238333048Y-124623641D01*
X238388134Y-124568555D01*
X238427935Y-124539638D01*
X238579638Y-124387935D01*
X238705742Y-124214368D01*
X238803142Y-124023211D01*
X238869439Y-123819170D01*
X238903000Y-123607270D01*
X238903000Y-123392730D01*
X238869439Y-123180830D01*
X238803142Y-122976789D01*
X238705742Y-122785632D01*
X238579638Y-122612065D01*
X238427935Y-122460362D01*
X238388133Y-122431444D01*
X238322186Y-122360102D01*
X238288559Y-122268952D01*
X238292373Y-122171872D01*
X238333048Y-122083641D01*
X238388134Y-122028555D01*
X238427935Y-121999638D01*
X238579638Y-121847935D01*
X238705742Y-121674368D01*
X238803142Y-121483211D01*
X238869439Y-121279170D01*
X238903000Y-121067270D01*
X238903000Y-120852730D01*
X238869439Y-120640830D01*
X238803142Y-120436789D01*
X238705742Y-120245632D01*
X238579638Y-120072065D01*
X238427935Y-119920362D01*
X238388133Y-119891444D01*
X238322186Y-119820102D01*
X238288559Y-119728952D01*
X238292373Y-119631872D01*
X238333048Y-119543641D01*
X238388134Y-119488555D01*
X238427935Y-119459638D01*
X238579638Y-119307935D01*
X238705742Y-119134368D01*
X238803142Y-118943211D01*
X238869439Y-118739170D01*
X238903000Y-118527270D01*
X238903000Y-118312730D01*
X238869439Y-118100830D01*
X238803142Y-117896789D01*
X238705742Y-117705632D01*
X238579638Y-117532065D01*
X238427935Y-117380362D01*
X238427931Y-117380359D01*
X238254367Y-117254257D01*
X238063216Y-117156860D01*
X238063206Y-117156856D01*
X237859170Y-117090561D01*
X237859164Y-117090559D01*
X237647281Y-117057001D01*
X237647272Y-117057000D01*
X237647270Y-117057000D01*
X237432730Y-117057000D01*
X237432727Y-117057000D01*
X237432718Y-117057001D01*
X237220835Y-117090559D01*
X237220829Y-117090561D01*
X237016793Y-117156856D01*
X237016783Y-117156860D01*
X236825632Y-117254257D01*
X236652068Y-117380359D01*
X236500361Y-117532066D01*
X236471444Y-117571867D01*
X236400100Y-117637815D01*
X236308950Y-117671441D01*
X236211870Y-117667626D01*
X236123639Y-117626950D01*
X236068556Y-117571867D01*
X236064752Y-117566632D01*
X236039638Y-117532065D01*
X235887935Y-117380362D01*
X235887931Y-117380359D01*
X235714367Y-117254257D01*
X235523216Y-117156860D01*
X235523206Y-117156856D01*
X235319170Y-117090561D01*
X235319164Y-117090559D01*
X235107281Y-117057001D01*
X235107272Y-117057000D01*
X235107270Y-117057000D01*
X234892730Y-117057000D01*
X234892727Y-117057000D01*
X234892718Y-117057001D01*
X234680835Y-117090559D01*
X234680829Y-117090561D01*
X234476793Y-117156856D01*
X234476783Y-117156860D01*
X234285632Y-117254257D01*
X234112068Y-117380359D01*
X233960359Y-117532068D01*
X233834257Y-117705632D01*
X233736860Y-117896783D01*
X233736856Y-117896793D01*
X233670561Y-118100829D01*
X233670559Y-118100835D01*
X233637001Y-118312718D01*
X233637000Y-118312734D01*
X186100500Y-118312734D01*
X186100500Y-116421455D01*
X212299198Y-116421455D01*
X212299198Y-116579148D01*
X212329959Y-116733794D01*
X212329961Y-116733799D01*
X212390301Y-116879475D01*
X212390304Y-116879482D01*
X212477906Y-117010587D01*
X212477909Y-117010591D01*
X212589409Y-117122091D01*
X212589412Y-117122093D01*
X212720517Y-117209695D01*
X212720518Y-117209695D01*
X212720519Y-117209696D01*
X212866201Y-117270039D01*
X212866203Y-117270039D01*
X212866205Y-117270040D01*
X213016846Y-117300004D01*
X213020856Y-117300802D01*
X213178540Y-117300802D01*
X213333195Y-117270039D01*
X213478877Y-117209696D01*
X213609987Y-117122091D01*
X213721487Y-117010591D01*
X213809092Y-116879481D01*
X213869435Y-116733799D01*
X213900198Y-116579144D01*
X213900198Y-116421460D01*
X213869435Y-116266805D01*
X213809092Y-116121123D01*
X213721487Y-115990013D01*
X213609987Y-115878513D01*
X213609983Y-115878510D01*
X213478878Y-115790908D01*
X213478871Y-115790905D01*
X213333195Y-115730565D01*
X213333190Y-115730563D01*
X213178544Y-115699802D01*
X213178540Y-115699802D01*
X213020856Y-115699802D01*
X213020851Y-115699802D01*
X212866205Y-115730563D01*
X212866200Y-115730565D01*
X212720524Y-115790905D01*
X212720517Y-115790908D01*
X212589412Y-115878510D01*
X212477906Y-115990016D01*
X212390304Y-116121121D01*
X212390301Y-116121128D01*
X212329961Y-116266804D01*
X212329959Y-116266809D01*
X212299198Y-116421455D01*
X186100500Y-116421455D01*
X186100500Y-111921153D01*
X217699500Y-111921153D01*
X217699500Y-112078846D01*
X217730261Y-112233492D01*
X217730263Y-112233497D01*
X217790603Y-112379173D01*
X217790606Y-112379180D01*
X217878208Y-112510285D01*
X217878211Y-112510289D01*
X217989711Y-112621789D01*
X217989714Y-112621791D01*
X218120819Y-112709393D01*
X218120820Y-112709393D01*
X218120821Y-112709394D01*
X218266503Y-112769737D01*
X218266505Y-112769737D01*
X218266507Y-112769738D01*
X218417148Y-112799702D01*
X218421158Y-112800500D01*
X218578842Y-112800500D01*
X218733497Y-112769737D01*
X218879179Y-112709394D01*
X219010289Y-112621789D01*
X219121789Y-112510289D01*
X219209394Y-112379179D01*
X219269737Y-112233497D01*
X219300500Y-112078842D01*
X219300500Y-111921158D01*
X219269737Y-111766503D01*
X219209394Y-111620821D01*
X219121789Y-111489711D01*
X219010289Y-111378211D01*
X219010285Y-111378208D01*
X218879180Y-111290606D01*
X218879173Y-111290603D01*
X218733497Y-111230263D01*
X218733492Y-111230261D01*
X218578846Y-111199500D01*
X218578842Y-111199500D01*
X218421158Y-111199500D01*
X218421153Y-111199500D01*
X218266507Y-111230261D01*
X218266502Y-111230263D01*
X218120826Y-111290603D01*
X218120819Y-111290606D01*
X217989714Y-111378208D01*
X217878208Y-111489714D01*
X217790606Y-111620819D01*
X217790603Y-111620826D01*
X217730263Y-111766502D01*
X217730261Y-111766507D01*
X217699500Y-111921153D01*
X186100500Y-111921153D01*
X186100500Y-109098712D01*
X188266837Y-109098712D01*
X188266837Y-109341288D01*
X188277297Y-109420739D01*
X188298499Y-109581790D01*
X188298500Y-109581795D01*
X188361277Y-109816082D01*
X188361285Y-109816105D01*
X188454107Y-110040201D01*
X188454115Y-110040217D01*
X188575395Y-110250279D01*
X188575401Y-110250289D01*
X188723066Y-110442731D01*
X188723075Y-110442741D01*
X188894595Y-110614261D01*
X188894605Y-110614270D01*
X188979189Y-110679173D01*
X189087048Y-110761936D01*
X189087057Y-110761941D01*
X189297119Y-110883221D01*
X189297135Y-110883229D01*
X189390229Y-110921789D01*
X189521237Y-110976054D01*
X189521248Y-110976057D01*
X189521254Y-110976059D01*
X189704358Y-111025121D01*
X189755548Y-111038838D01*
X189996049Y-111070500D01*
X190238625Y-111070500D01*
X190479126Y-111038838D01*
X190640612Y-110995567D01*
X190713419Y-110976059D01*
X190713421Y-110976058D01*
X190713437Y-110976054D01*
X190865103Y-110913231D01*
X190937538Y-110883229D01*
X190937543Y-110883226D01*
X190937549Y-110883224D01*
X191147626Y-110761936D01*
X191340075Y-110614265D01*
X191511602Y-110442738D01*
X191659273Y-110250289D01*
X191780561Y-110040212D01*
X191792956Y-110010289D01*
X191847262Y-109879180D01*
X191873391Y-109816100D01*
X191936175Y-109581789D01*
X191957323Y-109421153D01*
X208199500Y-109421153D01*
X208199500Y-109578846D01*
X208230261Y-109733492D01*
X208230263Y-109733497D01*
X208290603Y-109879173D01*
X208290606Y-109879180D01*
X208378208Y-110010285D01*
X208378211Y-110010289D01*
X208489711Y-110121789D01*
X208489714Y-110121791D01*
X208620819Y-110209393D01*
X208620820Y-110209393D01*
X208620821Y-110209394D01*
X208766503Y-110269737D01*
X208766505Y-110269737D01*
X208766507Y-110269738D01*
X208917148Y-110299702D01*
X208921158Y-110300500D01*
X209078842Y-110300500D01*
X209233497Y-110269737D01*
X209379179Y-110209394D01*
X209510289Y-110121789D01*
X209621789Y-110010289D01*
X209709394Y-109879179D01*
X209769737Y-109733497D01*
X209769737Y-109733496D01*
X209769954Y-109732973D01*
X209823930Y-109652191D01*
X209904711Y-109598214D01*
X209999999Y-109579260D01*
X210095287Y-109598214D01*
X210176069Y-109652190D01*
X210230046Y-109732971D01*
X210230046Y-109732973D01*
X210290603Y-109879173D01*
X210290606Y-109879180D01*
X210378208Y-110010285D01*
X210378211Y-110010289D01*
X210489711Y-110121789D01*
X210489714Y-110121791D01*
X210620819Y-110209393D01*
X210620820Y-110209393D01*
X210620821Y-110209394D01*
X210766503Y-110269737D01*
X210766505Y-110269737D01*
X210766507Y-110269738D01*
X210917148Y-110299702D01*
X210921158Y-110300500D01*
X211078842Y-110300500D01*
X211233497Y-110269737D01*
X211379179Y-110209394D01*
X211412468Y-110187151D01*
X211502227Y-110149971D01*
X211599382Y-110149970D01*
X211689142Y-110187149D01*
X211757841Y-110255848D01*
X211795021Y-110345607D01*
X211798606Y-110369775D01*
X211799498Y-110378838D01*
X211830261Y-110533492D01*
X211830263Y-110533497D01*
X211890603Y-110679173D01*
X211890606Y-110679180D01*
X211978208Y-110810285D01*
X211978211Y-110810289D01*
X212089711Y-110921789D01*
X212089714Y-110921791D01*
X212220819Y-111009393D01*
X212220820Y-111009393D01*
X212220821Y-111009394D01*
X212366503Y-111069737D01*
X212366505Y-111069737D01*
X212366507Y-111069738D01*
X212517148Y-111099702D01*
X212521158Y-111100500D01*
X212678842Y-111100500D01*
X212833497Y-111069737D01*
X212979179Y-111009394D01*
X213110289Y-110921789D01*
X213221789Y-110810289D01*
X213309394Y-110679179D01*
X213369737Y-110533497D01*
X213400500Y-110378842D01*
X213400500Y-110221158D01*
X213369737Y-110066503D01*
X213309394Y-109920821D01*
X213281570Y-109879180D01*
X213221791Y-109789714D01*
X213221789Y-109789711D01*
X213110289Y-109678211D01*
X213110285Y-109678208D01*
X212979180Y-109590606D01*
X212979173Y-109590603D01*
X212833497Y-109530263D01*
X212833492Y-109530261D01*
X212678846Y-109499500D01*
X212678842Y-109499500D01*
X212521158Y-109499500D01*
X212521153Y-109499500D01*
X212366507Y-109530261D01*
X212366502Y-109530263D01*
X212220826Y-109590603D01*
X212220814Y-109590609D01*
X212187525Y-109612852D01*
X212097765Y-109650030D01*
X212000610Y-109650027D01*
X211910851Y-109612846D01*
X211842154Y-109544145D01*
X211808365Y-109469080D01*
X211800500Y-109439141D01*
X211800500Y-109421158D01*
X211769737Y-109266503D01*
X211709394Y-109120821D01*
X211694621Y-109098712D01*
X233099500Y-109098712D01*
X233099500Y-109341288D01*
X233109960Y-109420739D01*
X233131162Y-109581790D01*
X233131163Y-109581795D01*
X233193940Y-109816082D01*
X233193948Y-109816105D01*
X233286770Y-110040201D01*
X233286778Y-110040217D01*
X233408058Y-110250279D01*
X233408064Y-110250289D01*
X233555729Y-110442731D01*
X233555738Y-110442741D01*
X233727258Y-110614261D01*
X233727268Y-110614270D01*
X233811852Y-110679173D01*
X233919711Y-110761936D01*
X233919720Y-110761941D01*
X234129782Y-110883221D01*
X234129798Y-110883229D01*
X234222892Y-110921789D01*
X234353900Y-110976054D01*
X234353911Y-110976057D01*
X234353917Y-110976059D01*
X234537021Y-111025121D01*
X234588211Y-111038838D01*
X234828712Y-111070500D01*
X235071288Y-111070500D01*
X235311789Y-111038838D01*
X235473275Y-110995567D01*
X235546082Y-110976059D01*
X235546084Y-110976058D01*
X235546100Y-110976054D01*
X235697766Y-110913231D01*
X235770201Y-110883229D01*
X235770206Y-110883226D01*
X235770212Y-110883224D01*
X235980289Y-110761936D01*
X236172738Y-110614265D01*
X236344265Y-110442738D01*
X236491936Y-110250289D01*
X236613224Y-110040212D01*
X236625619Y-110010289D01*
X236679925Y-109879180D01*
X236706054Y-109816100D01*
X236768838Y-109581789D01*
X236800500Y-109341288D01*
X236800500Y-109098712D01*
X236768838Y-108858211D01*
X236706054Y-108623900D01*
X236671242Y-108539858D01*
X236613229Y-108399798D01*
X236613221Y-108399782D01*
X236491941Y-108189720D01*
X236491935Y-108189710D01*
X236344270Y-107997268D01*
X236344261Y-107997258D01*
X236172741Y-107825738D01*
X236172731Y-107825729D01*
X235980289Y-107678064D01*
X235980279Y-107678058D01*
X235770217Y-107556778D01*
X235770201Y-107556770D01*
X235546105Y-107463948D01*
X235546103Y-107463947D01*
X235546100Y-107463946D01*
X235546096Y-107463945D01*
X235546082Y-107463940D01*
X235311795Y-107401163D01*
X235311790Y-107401162D01*
X235071288Y-107369500D01*
X234828712Y-107369500D01*
X234588209Y-107401162D01*
X234588204Y-107401163D01*
X234353917Y-107463940D01*
X234353894Y-107463948D01*
X234129798Y-107556770D01*
X234129782Y-107556778D01*
X233919720Y-107678058D01*
X233919710Y-107678064D01*
X233727268Y-107825729D01*
X233727258Y-107825738D01*
X233555738Y-107997258D01*
X233555729Y-107997268D01*
X233408064Y-108189710D01*
X233408058Y-108189720D01*
X233286778Y-108399782D01*
X233286770Y-108399798D01*
X233193948Y-108623894D01*
X233193940Y-108623917D01*
X233131163Y-108858204D01*
X233131162Y-108858209D01*
X233099500Y-109098712D01*
X211694621Y-109098712D01*
X211621789Y-108989711D01*
X211510289Y-108878211D01*
X211510285Y-108878208D01*
X211379180Y-108790606D01*
X211379173Y-108790603D01*
X211233497Y-108730263D01*
X211233492Y-108730261D01*
X211078846Y-108699500D01*
X211078842Y-108699500D01*
X210921158Y-108699500D01*
X210921153Y-108699500D01*
X210766507Y-108730261D01*
X210766502Y-108730263D01*
X210620826Y-108790603D01*
X210620819Y-108790606D01*
X210489714Y-108878208D01*
X210378208Y-108989714D01*
X210290606Y-109120819D01*
X210290605Y-109120822D01*
X210230046Y-109267027D01*
X210176070Y-109347808D01*
X210095289Y-109401785D01*
X210000001Y-109420739D01*
X209904712Y-109401785D01*
X209823931Y-109347809D01*
X209769954Y-109267028D01*
X209769954Y-109267027D01*
X209709394Y-109120822D01*
X209709393Y-109120819D01*
X209621791Y-108989714D01*
X209621789Y-108989711D01*
X209510289Y-108878211D01*
X209510285Y-108878208D01*
X209379180Y-108790606D01*
X209379173Y-108790603D01*
X209233497Y-108730263D01*
X209233492Y-108730261D01*
X209078846Y-108699500D01*
X209078842Y-108699500D01*
X208921158Y-108699500D01*
X208921153Y-108699500D01*
X208766507Y-108730261D01*
X208766502Y-108730263D01*
X208620826Y-108790603D01*
X208620819Y-108790606D01*
X208489714Y-108878208D01*
X208378208Y-108989714D01*
X208290606Y-109120819D01*
X208290603Y-109120826D01*
X208230263Y-109266502D01*
X208230261Y-109266507D01*
X208199500Y-109421153D01*
X191957323Y-109421153D01*
X191967837Y-109341288D01*
X191967837Y-109098712D01*
X191936175Y-108858211D01*
X191873391Y-108623900D01*
X191838579Y-108539858D01*
X191780566Y-108399798D01*
X191780558Y-108399782D01*
X191659278Y-108189720D01*
X191659272Y-108189710D01*
X191511607Y-107997268D01*
X191511598Y-107997258D01*
X191340078Y-107825738D01*
X191340068Y-107825729D01*
X191147626Y-107678064D01*
X191147616Y-107678058D01*
X190937554Y-107556778D01*
X190937538Y-107556770D01*
X190713442Y-107463948D01*
X190713440Y-107463947D01*
X190713437Y-107463946D01*
X190713433Y-107463945D01*
X190713419Y-107463940D01*
X190479132Y-107401163D01*
X190479127Y-107401162D01*
X190238625Y-107369500D01*
X189996049Y-107369500D01*
X189755546Y-107401162D01*
X189755541Y-107401163D01*
X189521254Y-107463940D01*
X189521231Y-107463948D01*
X189297135Y-107556770D01*
X189297119Y-107556778D01*
X189087057Y-107678058D01*
X189087047Y-107678064D01*
X188894605Y-107825729D01*
X188894595Y-107825738D01*
X188723075Y-107997258D01*
X188723066Y-107997268D01*
X188575401Y-108189710D01*
X188575395Y-108189720D01*
X188454115Y-108399782D01*
X188454107Y-108399798D01*
X188361285Y-108623894D01*
X188361277Y-108623917D01*
X188298500Y-108858204D01*
X188298499Y-108858209D01*
X188266837Y-109098712D01*
X186100500Y-109098712D01*
X186100500Y-104149500D01*
X186119454Y-104054212D01*
X186173430Y-103973430D01*
X186254212Y-103919454D01*
X186349500Y-103900500D01*
X242290500Y-103900500D01*
X242385788Y-103919454D01*
G37*
G04 #@! TD.AperFunction*
M02*
