M48
; DRILL file {KiCad 9.0.1} date 2025-04-17T02:20:08-0700
; FORMAT={-:-/ absolute / metric / decimal}
; #@! TF.CreationDate,2025-04-17T02:20:08-07:00
; #@! TF.GenerationSoftware,Kicad,Pcbnew,9.0.1
; #@! TF.FileFunction,Plated,1,4,PTH
FMAT,2
METRIC
; #@! TA.AperFunction,Plated,PTH,ViaDrill
T1C0.300
; #@! TA.AperFunction,Plated,PTH,ComponentDrill
T2C0.800
; #@! TA.AperFunction,Plated,PTH,ComponentDrill
T3C0.813
; #@! TA.AperFunction,Plated,PTH,ComponentDrill
T4C1.000
; #@! TA.AperFunction,Plated,PTH,ComponentDrill
T5C1.150
%
G90
G05
T1
X186.6Y-169.2
X186.6Y-170.0
X186.6Y-171.0
X186.6Y-172.0
X186.6Y-173.0
X186.6Y-174.0
X186.6Y-175.0
X186.6Y-176.0
X186.8Y-146.4
X186.8Y-147.4
X186.8Y-148.4
X186.8Y-149.4
X186.8Y-150.4
X186.8Y-151.4
X186.8Y-152.4
X186.8Y-153.4
X186.8Y-154.4
X186.8Y-155.4
X186.8Y-156.4
X186.8Y-157.4
X186.8Y-158.4
X186.8Y-159.4
X186.8Y-160.4
X186.8Y-161.4
X186.8Y-162.4
X186.8Y-163.4
X186.8Y-164.4
X186.8Y-165.4
X187.0Y-122.0
X187.0Y-125.0
X187.0Y-128.0
X187.0Y-131.0
X187.0Y-134.0
X187.0Y-137.0
X187.0Y-140.0
X187.0Y-192.0
X187.4Y-169.2
X187.4Y-170.0
X187.4Y-171.0
X187.4Y-172.0
X187.4Y-173.0
X187.4Y-174.0
X187.5Y-105.5
X187.5Y-113.0
X187.5Y-114.5
X187.5Y-116.0
X187.5Y-117.5
X187.5Y-119.0
X187.6Y-147.4
X187.6Y-148.4
X187.6Y-149.4
X187.6Y-150.4
X187.6Y-151.4
X187.6Y-152.4
X187.6Y-153.4
X187.6Y-154.4
X187.6Y-155.4
X187.6Y-156.4
X187.6Y-157.4
X187.6Y-158.4
X187.6Y-159.4
X187.6Y-160.4
X187.6Y-161.4
X187.6Y-162.4
X187.6Y-163.4
X187.6Y-164.4
X187.6Y-175.0
X187.6Y-176.0
X187.96Y-201.93
X188.0Y-146.0
X188.0Y-165.5
X188.0Y-194.0
X188.6Y-174.2
X188.6Y-175.6
X188.6Y-176.4
X189.0Y-122.0
X189.0Y-125.0
X189.4Y-174.2
X189.5Y-105.5
X189.5Y-113.0
X189.5Y-114.5
X189.5Y-116.0
X189.5Y-117.5
X189.5Y-119.0
X190.0Y-169.0
X190.0Y-170.0
X190.0Y-194.0
X190.0Y-196.0
X190.0Y-198.0
X190.0Y-200.0
X190.2Y-129.0
X190.2Y-130.4
X190.2Y-131.8
X190.5Y-201.93
X190.6Y-173.0
X191.0Y-122.0
X191.0Y-125.0
X191.4Y-169.0
X191.4Y-170.0
X191.4Y-185.0
X191.5Y-105.5
X191.5Y-113.0
X191.5Y-114.5
X191.5Y-116.0
X191.5Y-117.5
X191.5Y-119.0
X191.8Y-129.0
X191.8Y-130.4
X191.8Y-131.8
X193.0Y-122.0
X193.0Y-125.0
X193.0Y-170.0
X193.0Y-171.0
X193.0Y-172.0
X193.04Y-201.93
X193.4Y-129.0
X193.4Y-130.4
X193.4Y-185.0
X193.5Y-105.5
X193.5Y-113.0
X193.5Y-114.5
X193.5Y-116.0
X193.5Y-117.5
X193.5Y-119.0
X195.1Y-141.2
X195.4Y-170.0
X195.4Y-172.0
X195.4Y-174.2
X195.4Y-185.0
X195.58Y-196.088
X196.0Y-145.8
X196.45Y-188.95
X196.85Y-201.93
X197.0Y-149.0
X197.0Y-153.0
X197.0Y-157.0
X197.0Y-161.0
X197.0Y-194.7
X197.4Y-185.0
X197.4Y-191.6
X197.8Y-194.7
X198.0Y-123.0
X198.0Y-170.0
X198.12Y-106.68
X198.12Y-111.76
X198.12Y-116.84
X198.2Y-191.6
X199.0Y-191.6
X199.136Y-196.088
X199.4Y-185.0
X200.0Y-170.0
X200.0Y-172.0
X200.0Y-174.0
X200.66Y-201.93
X200.8Y-186.8
X200.8Y-187.6
X201.0Y-165.5
X201.4Y-185.0
X202.0Y-170.0
X202.0Y-172.0
X203.2Y-106.68
X203.2Y-111.76
X203.2Y-116.84
X203.2Y-149.86
X203.2Y-154.94
X203.2Y-160.02
X203.2Y-175.2
X203.22Y-145.7
X203.4Y-185.0
X203.4Y-186.0
X203.4Y-188.0
X203.4Y-190.0
X203.4Y-192.0
X203.4Y-194.0
X203.4Y-196.0
X203.4Y-198.0
X204.0Y-141.6
X204.0Y-170.0
X204.47Y-201.93
X204.5Y-126.7
X204.5Y-130.0
X204.8Y-172.0
X204.95Y-174.55
X205.4Y-180.8
X205.4Y-182.8
X205.4Y-185.0
X205.4Y-186.0
X205.4Y-188.0
X205.4Y-190.0
X205.4Y-192.0
X205.4Y-194.0
X205.4Y-196.0
X205.4Y-198.0
X206.0Y-165.0
X206.0Y-170.0
X207.01Y-139.802
X207.01Y-149.86
X207.01Y-154.94
X207.01Y-160.02
X207.5Y-105.5
X207.5Y-107.0
X207.992Y-136.525
X208.0Y-170.0
X208.28Y-201.93
X208.4Y-188.6
X208.6Y-187.2
X208.8Y-192.2
X208.8Y-193.4
X208.8Y-194.6
X209.0Y-105.5
X209.0Y-109.5
X209.4Y-188.6
X209.8Y-198.4
X209.95Y-192.2
X209.95Y-193.4
X209.95Y-194.6
X210.0Y-170.0
X210.4Y-188.6
X210.5Y-137.033
X210.516Y-126.111
X210.8Y-199.6
X210.8Y-200.4
X210.82Y-160.02
X210.82Y-162.306
X211.0Y-105.5
X211.0Y-109.5
X211.0Y-113.0
X211.0Y-117.5
X211.0Y-119.0
X211.2Y-192.2
X211.2Y-193.4
X211.2Y-194.6
X211.4Y-188.6
X212.0Y-170.0
X212.09Y-201.93
X212.598Y-157.48
X212.598Y-160.02
X212.598Y-162.306
X212.6Y-110.3
X212.8Y-178.8
X213.0Y-105.5
X213.1Y-116.5
X213.6Y-196.55
X213.8Y-175.8
X214.0Y-111.0
X214.0Y-133.35
X214.0Y-135.35
X214.0Y-170.0
X214.6Y-196.55
X214.63Y-154.94
X214.63Y-157.48
X214.63Y-160.02
X214.63Y-162.306
X215.0Y-105.5
X215.0Y-193.2
X215.0Y-194.4
X215.4Y-196.55
X215.4Y-199.6
X215.4Y-200.4
X215.5Y-126.5
X215.5Y-131.0
X215.9Y-201.93
X215.92Y-145.6
X216.0Y-121.9
X216.0Y-165.0
X216.0Y-170.0
X216.0Y-175.2
X216.408Y-154.94
X216.408Y-157.48
X216.408Y-160.02
X216.408Y-162.306
X216.6Y-193.2
X216.662Y-152.654
X216.8Y-135.3
X216.95Y-123.875
X217.0Y-105.5
X217.0Y-107.0
X217.0Y-175.8
X217.5Y-131.0
X218.2Y-137.1
X218.2Y-193.2
X218.2Y-194.4
X218.44Y-150.368
X218.44Y-152.654
X218.44Y-154.94
X218.44Y-157.48
X218.44Y-160.02
X218.44Y-162.306
X218.5Y-112.0
X218.962Y-139.0
X219.0Y-105.5
X219.0Y-107.0
X219.0Y-116.0
X219.0Y-117.5
X219.0Y-119.0
X219.2Y-198.6
X219.5Y-128.5
X219.537Y-131.0
X219.71Y-201.93
X219.962Y-135.0
X220.218Y-150.368
X220.218Y-152.654
X220.218Y-154.94
X220.218Y-157.48
X220.218Y-160.02
X220.218Y-162.306
X220.5Y-117.5
X220.5Y-119.0
X220.6Y-200.8
X221.462Y-131.0
X221.5Y-128.5
X221.6Y-174.0
X221.8Y-198.6
X221.962Y-121.5
X221.962Y-124.5
X222.0Y-117.5
X222.0Y-119.0
X222.25Y-150.368
X222.25Y-152.654
X222.25Y-154.94
X222.25Y-157.48
X222.25Y-160.02
X222.25Y-162.306
X222.962Y-139.0
X223.5Y-117.5
X223.5Y-119.0
X223.5Y-146.0
X223.5Y-165.0
X223.52Y-201.93
X224.028Y-150.368
X224.028Y-152.654
X224.028Y-154.94
X224.028Y-157.48
X224.028Y-160.02
X224.028Y-162.306
X224.037Y-124.5
X225.0Y-117.5
X225.0Y-119.0
X225.0Y-126.5
X225.5Y-128.0
X225.5Y-130.0
X226.0Y-198.6
X226.4Y-177.8
X226.4Y-178.6
X226.5Y-117.5
X226.5Y-119.0
X227.2Y-200.8
X227.33Y-201.93
X228.0Y-117.5
X228.0Y-119.0
X228.0Y-126.0
X228.0Y-130.5
X228.6Y-198.6
X229.0Y-122.0
X229.0Y-135.5
X229.037Y-139.0
X229.5Y-117.5
X229.5Y-119.0
X229.87Y-195.58
X229.87Y-201.93
X230.0Y-182.0
X231.0Y-126.0
X231.14Y-111.76
X231.14Y-116.84
X231.648Y-152.654
X231.648Y-154.94
X231.648Y-157.48
X231.648Y-160.02
X231.648Y-162.306
X233.68Y-152.654
X233.68Y-154.94
X233.68Y-157.48
X233.68Y-160.02
X233.68Y-162.306
X233.68Y-165.1
X233.68Y-168.91
X233.68Y-173.99
X233.68Y-179.07
X233.68Y-185.42
X233.68Y-190.5
X233.68Y-201.93
X235.0Y-115.0
X235.458Y-152.654
X235.458Y-154.94
X235.458Y-157.48
X235.458Y-160.02
X235.458Y-162.306
X237.49Y-152.654
X237.49Y-154.94
X237.49Y-157.48
X237.49Y-160.02
X237.49Y-162.306
X237.49Y-165.1
X237.49Y-168.91
X237.49Y-179.07
X237.49Y-185.42
X237.49Y-190.5
X237.49Y-201.93
X239.0Y-106.0
X239.268Y-152.654
X239.268Y-154.94
X239.268Y-157.48
X239.268Y-160.02
X239.268Y-162.306
X239.522Y-115.57
X239.522Y-116.84
X239.522Y-118.364
X239.522Y-119.634
X239.522Y-120.904
X239.522Y-122.174
X239.522Y-123.444
X239.522Y-124.714
X239.522Y-125.984
X239.522Y-127.254
X239.522Y-128.524
X239.522Y-129.794
X239.522Y-131.064
X239.522Y-132.334
X241.808Y-105.156
X241.808Y-106.426
X241.808Y-107.696
X241.808Y-108.966
X241.808Y-110.236
X241.808Y-111.506
X241.808Y-112.776
X241.808Y-114.046
X241.808Y-115.316
X241.808Y-116.586
X241.808Y-117.856
X241.808Y-119.126
X241.808Y-120.396
X241.808Y-121.666
X241.808Y-122.936
X241.808Y-124.46
X241.808Y-125.73
X241.808Y-127.0
X241.808Y-128.27
X241.808Y-129.54
X241.808Y-130.81
X241.808Y-132.08
X241.808Y-133.35
X241.808Y-134.62
X241.808Y-135.89
X241.808Y-137.16
X241.808Y-138.43
X241.808Y-139.7
X241.808Y-140.97
X241.808Y-142.24
X241.808Y-143.51
X241.808Y-145.034
X241.808Y-146.05
X241.808Y-147.32
X241.808Y-148.59
X241.808Y-149.86
X241.808Y-151.13
X241.808Y-152.4
X241.808Y-153.67
X241.808Y-155.194
X241.808Y-156.464
X241.808Y-157.734
X241.808Y-159.004
X241.808Y-160.274
X241.808Y-161.544
X241.808Y-162.814
X241.808Y-164.084
X241.808Y-165.354
X241.808Y-166.624
X241.808Y-167.894
X241.808Y-169.164
X241.808Y-170.434
X241.808Y-171.704
X241.808Y-172.974
X241.808Y-174.244
X241.808Y-175.768
X241.808Y-176.784
X241.808Y-178.054
X241.808Y-179.324
X241.808Y-180.594
X241.808Y-181.864
X241.808Y-183.134
X241.808Y-184.658
X241.808Y-186.182
X241.808Y-187.198
X241.808Y-188.468
X241.808Y-189.738
X241.808Y-191.008
X241.808Y-192.278
X241.808Y-193.548
X241.808Y-194.818
X241.808Y-196.088
X241.808Y-197.358
X241.808Y-198.628
X241.808Y-199.898
X241.808Y-201.168
T3
X223.044Y-193.04
X225.044Y-193.04
T4
X187.98Y-144.14
X187.98Y-167.0
X188.5Y-196.46
X188.5Y-199.0
X190.52Y-144.14
X190.52Y-167.0
X193.06Y-144.14
X193.06Y-167.0
X194.4Y-181.2
X194.6Y-176.0
X195.6Y-144.14
X195.6Y-167.0
X197.4Y-181.2
X198.14Y-144.14
X198.14Y-167.0
X200.4Y-181.2
X200.68Y-144.14
X200.68Y-167.0
X203.22Y-144.14
X203.22Y-167.0
X205.76Y-144.14
X205.76Y-167.0
X208.3Y-144.14
X208.3Y-167.0
X210.84Y-144.14
X210.84Y-167.0
X213.38Y-144.14
X213.38Y-167.0
X215.92Y-144.14
X215.92Y-167.0
X216.6Y-191.5
X218.46Y-144.14
X218.46Y-167.0
X219.8Y-170.8
X221.0Y-144.14
X221.0Y-167.0
X222.725Y-188.8
X223.54Y-144.14
X223.54Y-167.0
X225.265Y-188.8
T5
X235.0Y-118.42
X235.0Y-120.96
X235.0Y-123.5
X235.0Y-126.04
X235.0Y-128.58
X235.0Y-131.12
X235.0Y-133.66
X235.0Y-136.2
X235.0Y-138.74
X235.0Y-141.28
X235.0Y-143.82
X235.0Y-146.36
X237.54Y-118.42
X237.54Y-120.96
X237.54Y-123.5
X237.54Y-126.04
X237.54Y-128.58
X237.54Y-131.12
X237.54Y-133.66
X237.54Y-136.2
X237.54Y-138.74
X237.54Y-141.28
X237.54Y-143.82
X237.54Y-146.36
T2
X191.6Y-180.8G85X191.6Y-181.6
G05
X203.2Y-180.8G85X203.2Y-181.6
G05
M30
