G04 #@! TF.GenerationSoftware,KiCad,Pcbnew,9.0.1*
G04 #@! TF.CreationDate,2025-04-17T02:19:35-07:00*
G04 #@! TF.ProjectId,EE 447,45452034-3437-42e6-9b69-6361645f7063,rev?*
G04 #@! TF.SameCoordinates,Original*
G04 #@! TF.FileFunction,Paste,Top*
G04 #@! TF.FilePolarity,Positive*
%FSLAX46Y46*%
G04 Gerber Fmt 4.6, Leading zero omitted, Abs format (unit mm)*
G04 Created by KiCad (PCBNEW 9.0.1) date 2025-04-17 02:19:35*
%MOMM*%
%LPD*%
G01*
G04 APERTURE LIST*
G04 Aperture macros list*
%AMRoundRect*
0 Rectangle with rounded corners*
0 $1 Rounding radius*
0 $2 $3 $4 $5 $6 $7 $8 $9 X,Y pos of 4 corners*
0 Add a 4 corners polygon primitive as box body*
4,1,4,$2,$3,$4,$5,$6,$7,$8,$9,$2,$3,0*
0 Add four circle primitives for the rounded corners*
1,1,$1+$1,$2,$3*
1,1,$1+$1,$4,$5*
1,1,$1+$1,$6,$7*
1,1,$1+$1,$8,$9*
0 Add four rect primitives between the rounded corners*
20,1,$1+$1,$2,$3,$4,$5,0*
20,1,$1+$1,$4,$5,$6,$7,0*
20,1,$1+$1,$6,$7,$8,$9,0*
20,1,$1+$1,$8,$9,$2,$3,0*%
G04 Aperture macros list end*
%ADD10RoundRect,0.237500X0.237500X-0.300000X0.237500X0.300000X-0.237500X0.300000X-0.237500X-0.300000X0*%
%ADD11R,5.100000X1.900000*%
%ADD12RoundRect,0.250000X0.450000X-0.350000X0.450000X0.350000X-0.450000X0.350000X-0.450000X-0.350000X0*%
%ADD13RoundRect,0.250000X-0.337500X-0.475000X0.337500X-0.475000X0.337500X0.475000X-0.337500X0.475000X0*%
%ADD14R,0.762000X1.117600*%
%ADD15RoundRect,0.250000X0.337500X0.475000X-0.337500X0.475000X-0.337500X-0.475000X0.337500X-0.475000X0*%
%ADD16RoundRect,0.150000X-0.512500X-0.150000X0.512500X-0.150000X0.512500X0.150000X-0.512500X0.150000X0*%
%ADD17RoundRect,0.250000X0.350000X0.450000X-0.350000X0.450000X-0.350000X-0.450000X0.350000X-0.450000X0*%
%ADD18RoundRect,0.250000X-0.350000X-0.450000X0.350000X-0.450000X0.350000X0.450000X-0.350000X0.450000X0*%
%ADD19RoundRect,0.250000X-0.450000X0.350000X-0.450000X-0.350000X0.450000X-0.350000X0.450000X0.350000X0*%
%ADD20RoundRect,0.250000X-0.475000X0.337500X-0.475000X-0.337500X0.475000X-0.337500X0.475000X0.337500X0*%
%ADD21RoundRect,0.250000X0.475000X-0.337500X0.475000X0.337500X-0.475000X0.337500X-0.475000X-0.337500X0*%
%ADD22RoundRect,0.150000X0.150000X-0.587500X0.150000X0.587500X-0.150000X0.587500X-0.150000X-0.587500X0*%
%ADD23R,0.355600X1.676400*%
%ADD24RoundRect,0.150000X0.150000X-0.512500X0.150000X0.512500X-0.150000X0.512500X-0.150000X-0.512500X0*%
%ADD25RoundRect,0.250000X0.325000X0.450000X-0.325000X0.450000X-0.325000X-0.450000X0.325000X-0.450000X0*%
%ADD26R,1.700000X5.600000*%
%ADD27R,0.800000X0.300000*%
%ADD28R,0.800000X0.400000*%
%ADD29RoundRect,0.150000X0.512500X0.150000X-0.512500X0.150000X-0.512500X-0.150000X0.512500X-0.150000X0*%
%ADD30RoundRect,0.100000X0.225000X0.100000X-0.225000X0.100000X-0.225000X-0.100000X0.225000X-0.100000X0*%
%ADD31RoundRect,0.375000X0.375000X-0.625000X0.375000X0.625000X-0.375000X0.625000X-0.375000X-0.625000X0*%
%ADD32RoundRect,0.500000X1.400000X-0.500000X1.400000X0.500000X-1.400000X0.500000X-1.400000X-0.500000X0*%
%ADD33R,2.006600X0.609600*%
%ADD34R,3.606800X2.667000*%
%ADD35R,1.143000X1.016000*%
%ADD36RoundRect,0.200000X-0.200000X0.750000X-0.200000X-0.750000X0.200000X-0.750000X0.200000X0.750000X0*%
%ADD37RoundRect,0.162500X0.162500X-0.617500X0.162500X0.617500X-0.162500X0.617500X-0.162500X-0.617500X0*%
%ADD38R,1.651000X1.701800*%
%ADD39R,1.117600X0.762000*%
G04 APERTURE END LIST*
D10*
X219000000Y-109825000D03*
X219000000Y-108100000D03*
D11*
X191200000Y-187700000D03*
X191200000Y-191900000D03*
D12*
X216550001Y-196400000D03*
X216550001Y-194400000D03*
D13*
X207562500Y-200000000D03*
X209637500Y-200000000D03*
X212112501Y-200000000D03*
X214187501Y-200000000D03*
X197562500Y-187200000D03*
X199637500Y-187200000D03*
D14*
X210500000Y-137247400D03*
X210500000Y-140752600D03*
D13*
X226962500Y-139000000D03*
X229037500Y-139000000D03*
D15*
X219537500Y-131000000D03*
X217462500Y-131000000D03*
D16*
X219862500Y-178050000D03*
X219862500Y-179000000D03*
X219862500Y-179950000D03*
X222137500Y-179950000D03*
X222137500Y-179000000D03*
X222137500Y-178050000D03*
D17*
X219500000Y-128500000D03*
X217500000Y-128500000D03*
D18*
X217000000Y-183000000D03*
X219000000Y-183000000D03*
D19*
X212800000Y-181000000D03*
X212800000Y-183000000D03*
D20*
X189000000Y-170962500D03*
X189000000Y-173037500D03*
D17*
X208000000Y-172000000D03*
X206000000Y-172000000D03*
D21*
X197400000Y-198037500D03*
X197400000Y-195962500D03*
D18*
X223000000Y-172000000D03*
X225000000Y-172000000D03*
D22*
X215050000Y-123875000D03*
X216950000Y-123875000D03*
X216000000Y-122000000D03*
D20*
X216000000Y-172025000D03*
X216000000Y-174100000D03*
D15*
X191787500Y-176000000D03*
X189712500Y-176000000D03*
D23*
X217399997Y-112500000D03*
X216749999Y-112500000D03*
X216099997Y-112500000D03*
X215449999Y-112500000D03*
X214800000Y-112500000D03*
X214149999Y-112500000D03*
X213500000Y-112500000D03*
X212849999Y-112500000D03*
X212849999Y-118138800D03*
X213499997Y-118138800D03*
X214149999Y-118138800D03*
X214799997Y-118138800D03*
X215449996Y-118138800D03*
X216099997Y-118138800D03*
X216749996Y-118138800D03*
X217399997Y-118138800D03*
D12*
X197600000Y-175400000D03*
X197600000Y-173400000D03*
D24*
X192050000Y-173137500D03*
X193000000Y-173137500D03*
X193950000Y-173137500D03*
X193950000Y-170862500D03*
X192050000Y-170862500D03*
D25*
X221025000Y-185600000D03*
X218975000Y-185600000D03*
D26*
X203505000Y-136779000D03*
X199605000Y-136779000D03*
D18*
X213500000Y-128500000D03*
X215500000Y-128500000D03*
D27*
X226500000Y-123000000D03*
X226500000Y-123500000D03*
X226500000Y-124000000D03*
X226500000Y-124500000D03*
X226500000Y-125000000D03*
X226500000Y-125500000D03*
X226500000Y-126000000D03*
X226500000Y-126500000D03*
X226500000Y-127000000D03*
X226500000Y-127500000D03*
X226500000Y-128000000D03*
X226500000Y-128500000D03*
X226500000Y-129000000D03*
X226500000Y-129500000D03*
X226500000Y-130000000D03*
X226500000Y-130500000D03*
X226500000Y-131000000D03*
X226500000Y-131500000D03*
X226500000Y-132000000D03*
X226500000Y-132500000D03*
X226500000Y-133000000D03*
X226500000Y-133500000D03*
X226500000Y-134000000D03*
X226500000Y-134500000D03*
D28*
X229000000Y-122000000D03*
X229000000Y-135500000D03*
D29*
X210000000Y-134800000D03*
X210000000Y-132900000D03*
X207725000Y-133850000D03*
D30*
X204150000Y-175850000D03*
X204150000Y-175200000D03*
X204150000Y-174550000D03*
X202250000Y-174550000D03*
X202250000Y-175200000D03*
X202250000Y-175850000D03*
D31*
X207650001Y-196550000D03*
X209950001Y-196550000D03*
D32*
X209950001Y-190250000D03*
D31*
X212250001Y-196550000D03*
D19*
X208600000Y-184000000D03*
X208600000Y-186000000D03*
D21*
X209000000Y-108575000D03*
X209000000Y-106500000D03*
D12*
X201400000Y-192600000D03*
X201400000Y-190600000D03*
D17*
X213000000Y-172000000D03*
X211000000Y-172000000D03*
D14*
X214500000Y-140752600D03*
X214500000Y-137247400D03*
D33*
X224000000Y-111500000D03*
X224000000Y-110499999D03*
X224000000Y-109500001D03*
X224000000Y-108500000D03*
D34*
X226806700Y-105516900D03*
X226806700Y-114483100D03*
D18*
X212000000Y-133350000D03*
X214000000Y-133350000D03*
D15*
X222037500Y-135000000D03*
X219962500Y-135000000D03*
D35*
X210516000Y-127889000D03*
X210516000Y-126111000D03*
X208484000Y-127000000D03*
D19*
X188000000Y-180000000D03*
X188000000Y-182000000D03*
D21*
X208000000Y-138887500D03*
X208000000Y-136812500D03*
X211000000Y-108575000D03*
X211000000Y-106500000D03*
D17*
X215500000Y-126500000D03*
X213500000Y-126500000D03*
D15*
X223537500Y-131000000D03*
X221462500Y-131000000D03*
D17*
X214000000Y-135350000D03*
X212000000Y-135350000D03*
D21*
X217000000Y-179037500D03*
X217000000Y-176962500D03*
D10*
X215000000Y-108400000D03*
X215000000Y-106675000D03*
D18*
X201400000Y-200000000D03*
X203400000Y-200000000D03*
D10*
X217000000Y-109825000D03*
X217000000Y-108100000D03*
D36*
X208600000Y-180700000D03*
X209550000Y-177700000D03*
X207650000Y-177700000D03*
D12*
X201400000Y-197000000D03*
X201400000Y-195000000D03*
X219900000Y-175600000D03*
X219900000Y-173600000D03*
D15*
X208037500Y-140850000D03*
X205962500Y-140850000D03*
X224037500Y-121500000D03*
X221962500Y-121500000D03*
D20*
X225000000Y-175962500D03*
X225000000Y-178037500D03*
D37*
X196450000Y-192950000D03*
X197400000Y-192950000D03*
X198350000Y-192950000D03*
X198350000Y-190250000D03*
X197400000Y-190250000D03*
X196450000Y-190250000D03*
D18*
X226000000Y-182000000D03*
X228000000Y-182000000D03*
D38*
X193200000Y-199392600D03*
X193200000Y-195100000D03*
D39*
X210252600Y-130500000D03*
X206747400Y-130500000D03*
D17*
X215500000Y-131000000D03*
X213500000Y-131000000D03*
D15*
X223537500Y-128500000D03*
X221462500Y-128500000D03*
D10*
X213000000Y-108400000D03*
X213000000Y-106675000D03*
D15*
X221037500Y-139000000D03*
X218962500Y-139000000D03*
X225037500Y-139000000D03*
X222962500Y-139000000D03*
X224037500Y-124500000D03*
X221962500Y-124500000D03*
M02*
