G04 #@! TF.GenerationSoftware,KiCad,Pcbnew,9.0.1*
G04 #@! TF.CreationDate,2025-04-17T02:19:35-07:00*
G04 #@! TF.ProjectId,EE 447,45452034-3437-42e6-9b69-6361645f7063,rev?*
G04 #@! TF.SameCoordinates,Original*
G04 #@! TF.FileFunction,Soldermask,Bot*
G04 #@! TF.FilePolarity,Negative*
%FSLAX46Y46*%
G04 Gerber Fmt 4.6, Leading zero omitted, Abs format (unit mm)*
G04 Created by KiCad (PCBNEW 9.0.1) date 2025-04-17 02:19:35*
%MOMM*%
%LPD*%
G01*
G04 APERTURE LIST*
G04 Aperture macros list*
%AMRoundRect*
0 Rectangle with rounded corners*
0 $1 Rounding radius*
0 $2 $3 $4 $5 $6 $7 $8 $9 X,Y pos of 4 corners*
0 Add a 4 corners polygon primitive as box body*
4,1,4,$2,$3,$4,$5,$6,$7,$8,$9,$2,$3,0*
0 Add four circle primitives for the rounded corners*
1,1,$1+$1,$2,$3*
1,1,$1+$1,$4,$5*
1,1,$1+$1,$6,$7*
1,1,$1+$1,$8,$9*
0 Add four rect primitives between the rounded corners*
20,1,$1+$1,$2,$3,$4,$5,0*
20,1,$1+$1,$4,$5,$6,$7,0*
20,1,$1+$1,$6,$7,$8,$9,0*
20,1,$1+$1,$8,$9,$2,$3,0*%
G04 Aperture macros list end*
%ADD10RoundRect,0.102000X-0.754000X-0.754000X0.754000X-0.754000X0.754000X0.754000X-0.754000X0.754000X0*%
%ADD11C,1.712000*%
%ADD12O,1.404000X2.604000*%
%ADD13C,3.200000*%
%ADD14R,1.700000X1.700000*%
%ADD15O,1.700000X1.700000*%
%ADD16C,1.700000*%
%ADD17C,1.320800*%
%ADD18C,1.725000*%
G04 APERTURE END LIST*
D10*
X194400000Y-181200000D03*
D11*
X197400000Y-181200000D03*
X200400000Y-181200000D03*
D12*
X191600000Y-181200000D03*
X203200000Y-181200000D03*
D13*
X234950000Y-109220000D03*
D14*
X187980000Y-167000000D03*
D15*
X190520000Y-167000000D03*
X193060000Y-167000000D03*
X195600000Y-167000000D03*
X198140000Y-167000000D03*
X200680000Y-167000000D03*
X203220000Y-167000000D03*
X205760000Y-167000000D03*
X208300000Y-167000000D03*
X210840000Y-167000000D03*
X213380000Y-167000000D03*
X215920000Y-167000000D03*
X218460000Y-167000000D03*
X221000000Y-167000000D03*
X223540000Y-167000000D03*
D16*
X187980000Y-144140000D03*
D15*
X190520000Y-144140000D03*
X193060000Y-144140000D03*
X195600000Y-144140000D03*
X198140000Y-144140000D03*
X200680000Y-144140000D03*
X203220000Y-144140000D03*
X205760000Y-144140000D03*
X208300000Y-144140000D03*
X210840000Y-144140000D03*
X213380000Y-144140000D03*
X215920000Y-144140000D03*
X218460000Y-144140000D03*
X221000000Y-144140000D03*
X223540000Y-144140000D03*
D14*
X216600000Y-191500000D03*
X219800000Y-170800000D03*
D13*
X190117337Y-109220000D03*
D14*
X188500000Y-196460000D03*
D16*
X188500000Y-199000000D03*
D17*
X223043999Y-193040000D03*
X225044000Y-193040000D03*
D14*
X194600000Y-176000000D03*
D18*
X235000000Y-118420000D03*
X237540000Y-118420000D03*
X235000000Y-120960000D03*
X237540000Y-120960000D03*
X235000000Y-123500000D03*
X237540000Y-123500000D03*
X235000000Y-126040000D03*
X237540000Y-126040000D03*
X235000000Y-128580000D03*
X237540000Y-128580000D03*
X235000000Y-131120000D03*
X237540000Y-131120000D03*
X235000000Y-133660000D03*
X237540000Y-133660000D03*
X235000000Y-136200000D03*
X237540000Y-136200000D03*
X235000000Y-138740000D03*
X237540000Y-138740000D03*
X235000000Y-141280000D03*
X237540000Y-141280000D03*
X235000000Y-143820000D03*
X237540000Y-143820000D03*
X235000000Y-146360000D03*
X237540000Y-146360000D03*
D13*
X234950000Y-196850000D03*
D14*
X222725000Y-188800000D03*
D16*
X225265000Y-188800000D03*
M02*
